<svg width="261" height="271" fill="none" xmlns="http://www.w3.org/2000/svg"><path d="M37.214 60.637L24.286 48.44l4.272-4.529c1.48-1.568 2.904-2.473 4.273-2.714 1.363-.247 2.625.177 3.785 1.271.633.598 1.04 1.288 1.218 2.072.172.778.097 1.563-.226 2.355.792-.506 1.617-.712 2.478-.616.866.09 1.663.478 2.391 1.165 1.243 1.173 1.81 2.458 1.701 3.854-.109 1.396-.85 2.834-2.223 4.313l-4.741 5.026zm-3.117-7.975l3.49 3.292 2.153-2.282c.592-.627.904-1.255.938-1.883.033-.64-.214-1.209-.74-1.706-1.184-1.117-2.363-1.071-3.537.137l-2.304 2.442zm-1.882-1.776l1.86-1.971c1.244-1.366 1.342-2.543.294-3.532-.586-.553-1.168-.778-1.746-.674-.58.091-1.215.504-1.907 1.238l-1.76 1.865 3.26 3.074zm21.661-6.315c-.328-.139-.672-.365-1.032-.68-.042 1.28-.587 2.358-1.635 3.237-.99.831-2.054 1.235-3.19 1.211-1.13-.03-2.06-.48-2.793-1.353-.9-1.073-1.194-2.228-.884-3.466.317-1.243 1.224-2.498 2.72-3.765l1.244-1.043-.486-.58c-.392-.468-.828-.74-1.306-.816-.473-.082-.968.094-1.485.528-.455.382-.722.792-.8 1.23-.073.433.05.84.37 1.22l-2.703 2.267c-.492-.586-.766-1.28-.823-2.082-.057-.802.127-1.62.553-2.456.42-.84 1.041-1.607 1.864-2.297 1.247-1.047 2.5-1.56 3.757-1.543 1.259.006 2.364.576 3.316 1.71l3.68 4.386c.812.955 1.555 1.569 2.23 1.842l.134.159-2.73 2.291zm-3.812-.004c.4-.335.694-.73.884-1.188.185-.463.233-.912.144-1.348l-1.46-1.739-1.01.847c-1.352 1.136-1.68 2.207-.983 3.216l.124.167c.283.336.634.514 1.054.534.42.019.836-.144 1.247-.49zm10.094-20.654l7.334 10.985-2.934 1.959-5.748-8.61-2.589 1.73 2.082 3.512c1.091 1.884 1.614 3.438 1.57 4.66-.044 1.224-.648 2.24-1.813 3.046l-.994.664-1.624-2.365.346-.275c.5-.393.678-.962.533-1.707-.145-.744-.654-1.838-1.529-3.28l-2.908-4.795 8.274-5.524zm12.926 7.941l-3.1 1.71-6.38-11.565 3.1-1.71 6.38 11.565zM61.77 19.106c-.255-.463-.312-.929-.17-1.397.148-.472.49-.856 1.023-1.15.528-.292 1.03-.374 1.51-.248.478.127.845.422 1.1.885.26.47.312.943.156 1.42-.148.472-.482.851-1.002 1.138-.52.287-1.024.37-1.51.247-.478-.126-.847-.425-1.106-.895zm16.168.048c-.191-.422-.48-.684-.866-.786-.382-.113-.829-.053-1.34.18-.526.238-.905.545-1.138.918-.228.363-.251.745-.07 1.145l-3.212 1.459c-.495-1.09-.445-2.18.15-3.273.594-1.092 1.595-1.958 3.003-2.597 1.549-.703 2.902-.951 4.06-.744 1.165.204 2.001.865 2.51 1.984.242.534.303 1.1.182 1.7-.117.59-.407 1.15-.872 1.683 1.59-.14 2.698.478 3.323 1.856.502 1.104.428 2.202-.221 3.292-.645 1.08-1.753 1.975-3.324 2.689-1.46.663-2.815.867-4.066.612-1.25-.254-2.138-.96-2.663-2.115l3.212-1.459c.186.408.517.655.994.742.478.087 1.01-.002 1.595-.268.57-.259.954-.594 1.152-1.006.197-.411.198-.832.003-1.262-.239-.526-.56-.83-.965-.915-.408-.092-.916 0-1.524.276l-1.745.793-.949-2.09 1.856-.843c.987-.484 1.292-1.14.915-1.97zm15.37 4.14c-.256-.249-.494-.585-.714-1.009-.506 1.175-1.406 1.981-2.702 2.418-1.226.413-2.364.402-3.412-.035-1.042-.439-1.744-1.198-2.108-2.278-.447-1.326-.3-2.51.44-3.549.748-1.042 2.05-1.88 3.905-2.515l1.539-.518-.242-.717c-.195-.579-.501-.99-.919-1.236-.41-.249-.935-.265-1.575-.05-.563.19-.961.475-1.194.854-.225.377-.258.8-.1 1.27l-3.343 1.127c-.244-.725-.247-1.47-.007-2.239.239-.767.709-1.462 1.41-2.085.697-.63 1.555-1.117 2.573-1.46 1.542-.52 2.896-.543 4.06-.068 1.17.465 1.992 1.399 2.465 2.802l1.829 5.425c.408 1.185.877 2.028 1.406 2.528l.066.197-3.377 1.138zm-3.549-1.393a3.08 3.08 0 001.256-.784c.34-.364.55-.765.625-1.203l-.725-2.151-1.25.42c-1.673.565-2.369 1.444-2.087 2.637l.055.2c.14.417.403.71.787.882.384.17.83.17 1.34-.001z"/></svg>