<svg width="261" height="276" fill="none" xmlns="http://www.w3.org/2000/svg"><path d="M29.547 48.523l2.504-2.673 8.98 8.412c.826.773 1.384 1.642 1.675 2.605.29.952.296 1.922.017 2.91-.278.988-.81 1.9-1.594 2.738-1.285 1.372-2.634 2.116-4.047 2.231-1.418.11-2.766-.433-4.043-1.63l2.52-2.69c.636.595 1.23.901 1.783.917.553.017 1.1-.263 1.64-.84.478-.51.684-1.08.617-1.712-.067-.631-.424-1.25-1.071-1.856l-8.98-8.412zm17.976 7.017L36.148 41.882l4.784-3.985c1.657-1.38 3.18-2.108 4.567-2.184 1.383-.081 2.585.49 3.606 1.716.557.669.877 1.403.96 2.202.078.793-.09 1.564-.505 2.312.846-.409 1.69-.514 2.534-.315.849.193 1.594.674 2.234 1.443 1.094 1.313 1.503 2.656 1.228 4.03-.275 1.373-1.183 2.711-2.724 4.016l-5.309 4.421zm-2.139-8.29l3.07 3.685 2.411-2.008c.663-.552 1.048-1.138 1.157-1.758.11-.631-.067-1.225-.531-1.782-1.042-1.25-2.218-1.346-3.527-.286l-2.58 2.148zm-1.656-1.99l2.082-1.734c1.399-1.207 1.637-2.364.715-3.47-.515-.62-1.067-.913-1.653-.88-.586.022-1.266.356-2.042 1.002l-1.97 1.64 2.868 3.443zm17.549-4.098l6.53-4.222 1.597 2.47-9.605 6.211-9.65-14.925 3.075-1.988 8.053 12.454zm18.825-12.424l-1.302.556 1.914 4.479-3.244 1.386-5.19-12.145 3.244-1.386 1.952 4.568 1.156-.494.697-5.7 4.097-1.752-1.503 7.48 7.064 4.507-4.322 1.847-4.563-3.346zm7.81-5.21c-.371-1.257-.46-2.448-.267-3.575.193-1.126.663-2.092 1.409-2.898.754-.808 1.732-1.39 2.934-1.745 1.709-.506 3.257-.395 4.643.333 1.393.725 2.418 1.967 3.073 3.725l.28.86c.574 1.942.493 3.664-.243 5.163-.74 1.491-2.022 2.507-3.848 3.046-1.826.54-3.459.386-4.897-.462-1.43-.85-2.444-2.282-3.039-4.295l-.045-.152zm3.456-.754c.355 1.202.854 2.056 1.495 2.562.64.498 1.381.623 2.224.374.82-.243 1.367-.744 1.643-1.504.274-.768.206-1.843-.202-3.225-.348-1.178-.848-2.023-1.5-2.535s-1.396-.644-2.23-.397c-.828.244-1.372.757-1.633 1.539-.264.774-.196 1.835.203 3.186zm21.107-11.697l2.276 13.01-3.475.608-1.784-10.197-3.066.537.486 4.054c.238 2.164.09 3.797-.444 4.898-.535 1.101-1.497 1.786-2.888 2.054l-1.178.206-.531-2.82.427-.11c.617-.158 1.009-.607 1.177-1.347.168-.74.143-1.946-.075-3.618l-.725-5.561 9.8-1.714zm4.06 5.993c-.076-1.308.109-2.488.553-3.541.444-1.053 1.121-1.887 2.031-2.502.918-.616 2.003-.96 3.254-1.033 1.78-.103 3.261.358 4.446 1.381 1.192 1.024 1.907 2.466 2.145 4.327l.077.9c.117 2.023-.353 3.68-1.411 4.973-1.059 1.284-2.539 1.981-4.44 2.091-1.901.11-3.456-.41-4.664-1.564-1.2-1.153-1.86-2.777-1.982-4.873l-.009-.159zm3.537.052c.072 1.251.363 2.196.873 2.835.51.63 1.203.92 2.08.87.853-.05 1.501-.413 1.942-1.09.442-.687.621-1.749.537-3.187-.071-1.226-.366-2.163-.884-2.81-.518-.646-1.212-.944-2.082-.894-.861.05-1.507.426-1.939 1.127-.433.694-.609 1.743-.527 3.149zm22.99 6.604l-3.534-.205.293-5.07-4.375-.253-.293 5.07-3.522-.204.764-13.186 3.522.204-.307 5.289 4.375.253.307-5.289 3.534.205-.764 13.186zm8.719-3.616l-1.395-.244-.839 4.798-3.475-.608 2.276-13.01 3.475.608-.856 4.893 1.238.217 3.694-4.397 4.389.767-5.34 5.448 3.461 7.632-4.629-.81-1.999-5.294zm14.749 8.486c-.067-.35-.07-.762-.008-1.236-1.087.675-2.287.821-3.599.439-1.243-.362-2.169-1.022-2.78-1.98-.603-.956-.745-1.98-.426-3.074.391-1.344 1.188-2.23 2.39-2.66 1.209-.428 2.757-.37 4.642.17l1.558.454.212-.726c.171-.586.155-1.1-.047-1.54-.194-.438-.616-.751-1.264-.94-.571-.167-1.06-.16-1.468.017-.4.18-.669.508-.808.985l-3.387-.987c.214-.735.639-1.348 1.274-1.841.635-.493 1.418-.795 2.349-.905.933-.118 1.915-.027 2.946.274 1.563.455 2.686 1.21 3.37 2.266.695 1.05.835 2.286.42 3.708l-1.602 5.497c-.343 1.205-.44 2.164-.292 2.877l-.058.2-3.422-.998zm-2.114-3.172c.5.146.993.17 1.478.075.488-.104.889-.313 1.201-.63l.635-2.179-1.265-.369c-1.696-.494-2.769-.171-3.22.969l-.07.196a1.41 1.41 0 00.142 1.173c.217.36.583.615 1.099.765z"/></svg>