<svg width="261" height="276" fill="none" xmlns="http://www.w3.org/2000/svg"><path d="M36.135 45.953l-3.736 3.96 10.77 10.161-2.513 2.664-10.77-10.161-3.686 3.906-2.157-2.035 9.935-10.53 2.157 2.035zM52.78 51.56c-1.483 1.244-3.075 1.804-4.773 1.679-1.693-.131-3.175-.954-4.446-2.469l-.22-.261c-.852-1.017-1.417-2.088-1.694-3.216-.282-1.134-.245-2.216.11-3.248.358-1.043.998-1.952 1.92-2.726 1.384-1.162 2.838-1.638 4.362-1.43 1.53.204 2.968 1.106 4.312 2.708l.926 1.104-6.443 5.406c.642.588 1.349.898 2.12.93.777.028 1.502-.24 2.176-.805 1.04-.874 1.538-1.934 1.49-3.18l2.576.373c.077.913-.096 1.823-.515 2.727-.426.899-1.059 1.701-1.9 2.407zm-7.276-8.045c-.536.45-.82.997-.854 1.64-.027.64.195 1.335.667 2.087l3.759-3.155-.18-.215c-.516-.588-1.065-.913-1.648-.976-.59-.069-1.17.137-1.744.619zM64.279 35c1.13 1.692 1.65 3.306 1.56 4.843-.087 1.526-.783 2.725-2.09 3.597-1.11.741-2.264.954-3.463.64l3.457 5.177-2.934 1.959-10.153-15.209 2.72-1.816.82 1.008c.142-1.327.785-2.372 1.928-3.136 1.354-.904 2.74-1.106 4.16-.606 1.42.5 2.718 1.63 3.893 3.39l.102.153zm-3.076 1.745c-.683-1.022-1.392-1.688-2.128-2-.73-.315-1.439-.242-2.13.219-.92.614-1.318 1.389-1.193 2.323l3.003 4.498c.842.484 1.723.42 2.644-.195 1.4-.935 1.335-2.55-.197-4.845zm13.007-4.398l-.917-9.639 3.96-1.96 5.86 11.837-3.162 1.565-3.596-7.264.763 8.667-2.122 1.05-6.316-5.768 3.537 7.144-3.162 1.565-5.86-11.837 3.928-1.944 7.087 6.584zm8.393-6.765c-.423-1.24-.562-2.427-.416-3.56.147-1.133.576-2.118 1.288-2.955.72-.838 1.673-1.46 2.859-1.865 1.686-.576 3.237-.529 4.652.14 1.423.667 2.498 1.865 3.226 3.594l.315.847c.655 1.918.645 3.641-.029 5.17-.676 1.52-1.915 2.588-3.717 3.203-1.803.615-3.44.529-4.913-.258-1.464-.79-2.536-2.179-3.214-4.166l-.051-.15zm3.421-.897c.405 1.186.939 2.019 1.6 2.498.66.471 1.406.565 2.238.281.809-.276 1.335-.8 1.58-1.57.24-.78.129-1.85-.336-3.214-.397-1.163-.932-1.986-1.605-2.47-.672-.485-1.42-.586-2.245-.305-.816.279-1.339.814-1.567 1.606-.231.784-.12 1.842.335 3.174zm18.206-4.932l-6.69 1.57-.65-2.77 6.691-1.569.649 2.77zm8.974 2.127c.644-.09 1.144-.34 1.497-.752.354-.41.497-.911.431-1.502l3.277-.457a4.562 4.562 0 01-.385 2.543c-.373.8-.946 1.463-1.719 1.99-.766.518-1.648.847-2.648.986-1.87.261-3.427-.125-4.673-1.16-1.246-1.042-2.016-2.61-2.308-4.706l-.032-.23c-.282-2.015.03-3.697.934-5.048.905-1.35 2.292-2.156 4.162-2.417 1.636-.229 3.011.056 4.125.854 1.12.788 1.797 1.955 2.029 3.5l-3.276.458c-.111-.675-.397-1.194-.859-1.557-.462-.37-1.024-.51-1.685-.418-.814.114-1.389.498-1.725 1.153-.329.646-.4 1.633-.215 2.963l.051.363c.188 1.346.528 2.285 1.022 2.816.493.53 1.158.738 1.997.62zm12.725-3.502l2.154-8.295 3.782-.132-4.777 15.434-.268.706c-.729 1.752-2.001 2.659-3.814 2.722a5.55 5.55 0 01-1.57-.178l-.093-2.671.537-.007c.667-.023 1.16-.142 1.478-.357.326-.215.575-.561.746-1.04l.377-1.1-5.084-13.075 3.794-.132 2.738 8.125zm15.537 1.218l4.242-8.704 4.402.392-1.17 13.156-3.514-.313.718-8.073-3.868 7.793-2.358-.21-2.383-8.214-.706 7.94-3.514-.313 1.17-13.156 4.365.388 2.616 9.314zm15.951 1.681l-1.382-.308-1.058 4.754-3.444-.766 2.87-12.893 3.443.767-1.079 4.85 1.227.273 3.892-4.224 4.349.968-5.584 5.198 3.107 7.782-4.587-1.021-1.754-5.38zm15.063 9.403c-.05-.353-.033-.765.052-1.235-1.119.621-2.324.708-3.616.262-1.223-.423-2.117-1.127-2.68-2.114-.555-.984-.647-2.014-.275-3.091.457-1.323 1.297-2.17 2.518-2.54 1.229-.367 2.772-.235 4.628.398l1.535.53.247-.715c.199-.577.209-1.09.028-1.54-.173-.447-.578-.781-1.217-1.002-.561-.194-1.05-.212-1.466-.054-.408.16-.694.475-.856.944l-3.334-1.152c.25-.723.704-1.315 1.363-1.777.658-.46 1.455-.724 2.39-.788.938-.072 1.914.067 2.93.418 1.538.531 2.623 1.341 3.254 2.429.642 1.083.721 2.324.238 3.724l-1.87 5.411c-.401 1.187-.546 2.14-.432 2.86l-.068.196-3.369-1.164zm-1.957-3.272c.493.17.984.22 1.473.147.493-.08.903-.269 1.23-.569l.742-2.146-1.246-.43c-1.669-.577-2.757-.307-3.263.81l-.08.191c-.143.416-.115.809.084 1.179s.553.643 1.06.818z"/></svg>