<svg width="474" height="503" viewBox="0 0 474 503" fill="none" xmlns="http://www.w3.org/2000/svg">
<path d="M159.924 177.554C161.652 178.386 162.792 179.598 163.344 181.19C163.898 182.775 163.793 184.536 163.027 186.473C162.189 188.592 160.818 189.98 158.913 190.636C157.004 191.281 154.805 191.111 152.315 190.127L151.305 189.727C149.715 189.099 148.426 188.265 147.436 187.227C146.447 186.188 145.836 185.023 145.602 183.732C145.364 182.43 145.518 181.09 146.062 179.713C146.816 177.806 147.935 176.472 149.417 175.71C150.9 174.949 152.6 174.842 154.518 175.391L153.172 178.796C152.072 178.458 151.182 178.451 150.502 178.777C149.817 179.093 149.268 179.773 148.855 180.817C148.406 181.952 148.478 182.965 149.071 183.856C149.659 184.736 150.806 185.522 152.51 186.214L153.759 186.707C155.545 187.413 156.956 187.661 157.994 187.45C159.034 187.231 159.785 186.539 160.246 185.374C160.662 184.322 160.733 183.444 160.46 182.741C160.182 182.027 159.554 181.434 158.578 180.96L159.924 177.554Z"/>
<path d="M169.363 172.776C168.462 174.49 167.201 175.611 165.581 176.138C163.965 176.658 162.282 176.458 160.532 175.538L160.229 175.379C159.055 174.761 158.127 173.983 157.443 173.044C156.753 172.102 156.377 171.086 156.316 169.996C156.251 168.896 156.499 167.812 157.06 166.746C157.901 165.147 159.066 164.156 160.555 163.771C162.048 163.38 163.721 163.671 165.572 164.644L166.847 165.315L162.931 172.759C163.748 173.059 164.519 173.079 165.245 172.817C165.975 172.548 166.545 172.025 166.954 171.247C167.587 170.044 167.645 168.875 167.13 167.739L169.654 167.109C170.071 167.926 170.256 168.832 170.21 169.829C170.157 170.821 169.875 171.804 169.363 172.776ZM159.582 168.087C159.256 168.706 159.2 169.32 159.413 169.929C159.63 170.53 160.099 171.09 160.82 171.607L163.104 167.264L162.856 167.133C162.157 166.784 161.525 166.691 160.961 166.854C160.39 167.013 159.93 167.424 159.582 168.087Z"/>
<path d="M173.693 152.908C175.391 154.029 176.497 155.315 177.011 156.766C177.524 158.206 177.347 159.582 176.482 160.892C175.747 162.006 174.765 162.651 173.538 162.826L178.734 166.255L176.791 169.199L161.529 159.126L163.332 156.396L164.479 157.007C164.094 155.729 164.28 154.516 165.038 153.368C165.934 152.009 167.134 151.285 168.637 151.195C170.14 151.104 171.774 151.642 173.54 152.807L173.693 152.908ZM171.535 155.711C170.51 155.034 169.597 154.696 168.798 154.695C168.004 154.687 167.378 155.03 166.921 155.722C166.311 156.646 166.245 157.514 166.723 158.327L171.236 161.306C172.2 161.426 172.987 161.024 173.597 160.1C174.525 158.694 173.838 157.231 171.535 155.711Z"/>
<path d="M178.903 140.131L176.245 143.429L184.325 149.939L182.104 152.696L174.024 146.186L171.413 149.427L169.207 147.65L176.698 138.354L178.903 140.131Z"/>
<path d="M184.444 130.234L186.916 127.717L196.34 136.972L193.868 139.489L188.05 133.775L190.771 142.642L188.291 145.168L178.867 135.912L181.348 133.387L187.157 139.092L184.444 130.234Z"/>
<path d="M193.531 130.54C192.199 128.886 191.476 127.3 191.361 125.783C191.253 124.261 191.792 123.022 192.977 122.068C193.44 121.695 193.936 121.448 194.464 121.325L190.919 116.923L193.666 114.711L197.219 119.122C197.459 118.615 197.817 118.171 198.292 117.788C199.483 116.828 200.808 116.566 202.266 117.001C203.725 117.424 205.177 118.533 206.622 120.327C207.872 121.879 208.526 123.385 208.583 124.844C208.635 126.297 208.074 127.495 206.902 128.439C206.414 128.833 205.902 129.099 205.366 129.238L208.612 133.269L205.865 135.481L202.626 131.46C202.383 131.937 202.024 132.367 201.549 132.75C200.44 133.643 199.215 133.945 197.875 133.656C196.534 133.367 195.25 132.525 194.023 131.131L193.531 130.54ZM203.704 122.347C202.877 121.321 202.089 120.66 201.339 120.365C200.584 120.063 199.925 120.14 199.361 120.594C199.184 120.737 199.008 120.915 198.835 121.128L203.758 127.241C203.966 127.136 204.181 126.994 204.403 126.816C205.48 125.948 205.405 124.661 204.177 122.954L203.704 122.347ZM196.439 128.527C197.966 130.422 199.309 130.903 200.469 129.968C200.709 129.774 200.89 129.603 201.01 129.454L196.087 123.341C195.842 123.465 195.637 123.593 195.473 123.726C194.908 124.18 194.691 124.799 194.821 125.583C194.945 126.36 195.485 127.342 196.439 128.527Z"/>
<path d="M214.981 122.452L212.04 124.423L204.689 113.45L207.63 111.479L214.981 122.452ZM202.614 110.725C202.32 110.286 202.223 109.827 202.323 109.348C202.431 108.865 202.738 108.453 203.245 108.114C203.745 107.778 204.239 107.653 204.727 107.738C205.215 107.823 205.606 108.085 205.9 108.524C206.199 108.97 206.291 109.437 206.177 109.925C206.07 110.408 205.77 110.815 205.276 111.146C204.783 111.477 204.289 111.602 203.794 111.522C203.306 111.437 202.913 111.172 202.614 110.725Z"/>
<path d="M219.728 113.849L218.494 114.544L220.884 118.788L217.811 120.519L211.329 109.011L214.403 107.28L216.841 111.608L217.936 110.991L218.008 105.249L221.89 103.062L221.21 110.66L228.723 114.373L224.628 116.679L219.728 113.849Z"/>
<path d="M236.734 110.873C236.458 110.647 236.191 110.333 235.935 109.93C235.534 111.145 234.707 112.026 233.455 112.575C232.27 113.093 231.135 113.181 230.052 112.838C228.977 112.492 228.211 111.796 227.754 110.753C227.193 109.47 227.235 108.279 227.882 107.179C228.536 106.075 229.759 105.127 231.553 104.333L233.04 103.682L232.737 102.988C232.492 102.429 232.151 102.045 231.713 101.837C231.283 101.626 230.759 101.656 230.14 101.926C229.596 102.165 229.224 102.483 229.025 102.881C228.834 103.275 228.837 103.7 229.037 104.155L225.805 105.57C225.498 104.869 225.43 104.126 225.602 103.34C225.773 102.554 226.18 101.821 226.824 101.139C227.464 100.45 228.276 99.8906 229.26 99.4599C230.751 98.8072 232.097 98.6664 233.299 99.0376C234.505 99.398 235.405 100.257 235.999 101.613L238.295 106.858C238.805 108.003 239.345 108.801 239.916 109.253L240 109.443L236.734 110.873ZM233.078 109.795C233.555 109.586 233.949 109.289 234.26 108.904C234.568 108.512 234.741 108.094 234.778 107.651L233.867 105.571L232.66 106.1C231.042 106.808 230.426 107.744 230.811 108.908L230.883 109.103C231.059 109.506 231.346 109.776 231.743 109.913C232.141 110.049 232.586 110.01 233.078 109.795Z"/>
<path d="M248.776 95.548L244.753 96.8749L248.003 106.729L244.641 107.838L241.391 97.9838L237.438 99.2877L236.551 96.5982L247.889 92.8585L248.776 95.548Z"/>
<path d="M258.697 96.7945C258.355 94.7973 258.552 93.1079 259.289 91.7263C260.035 90.3434 261.213 89.5137 262.825 89.237C264.253 88.9921 265.448 89.2908 266.41 90.1331L266.344 88.8811L269.496 88.3403L271.655 100.925C271.851 102.064 271.76 103.099 271.383 104.031C271.014 104.961 270.398 105.727 269.536 106.329C268.673 106.932 267.612 107.341 266.353 107.557C265.398 107.721 264.435 107.688 263.462 107.458C262.491 107.237 261.722 106.865 261.153 106.343L262.33 103.962C263.363 104.784 264.497 105.089 265.732 104.877C266.654 104.718 267.329 104.347 267.757 103.761C268.187 103.184 268.324 102.442 268.168 101.536L268.048 100.838C267.402 101.882 266.425 102.516 265.117 102.74C263.553 103.009 262.182 102.616 261.002 101.564C259.829 100.502 259.069 98.9601 258.722 96.9388L258.697 96.7945ZM262.218 96.4505C262.42 97.6296 262.816 98.5154 263.404 99.108C263.992 99.6925 264.699 99.9139 265.525 99.7721C266.583 99.5905 267.273 99.0634 267.594 98.1909L266.655 92.7167C266.054 92.0025 265.236 91.7341 264.201 91.9116C263.367 92.0547 262.767 92.5085 262.403 93.2728C262.047 94.0358 261.985 95.095 262.218 96.4505Z"/>
<path d="M277.165 100.885L273.642 101.226L272.366 88.0802L275.89 87.7383L277.165 100.885ZM271.83 84.6982C271.779 84.1717 271.911 83.7215 272.226 83.3475C272.549 82.9727 273.015 82.7559 273.622 82.6969C274.222 82.6387 274.716 82.7625 275.105 83.0681C275.495 83.3737 275.715 83.7898 275.766 84.3163C275.818 84.8509 275.678 85.3059 275.347 85.6815C275.023 86.0563 274.566 86.2724 273.975 86.3298C273.383 86.3871 272.889 86.2634 272.492 85.9586C272.102 85.653 271.881 85.2328 271.83 84.6982Z"/>
<path d="M281.592 100.555L281.181 89.9433L279.217 90.0194L279.117 87.4334L281.081 87.3573L281.038 86.2351C280.98 84.7551 281.359 83.5921 282.173 82.7462C282.995 81.8918 284.17 81.435 285.699 81.3757C286.187 81.3568 286.788 81.415 287.502 81.5502L287.571 84.284C287.275 84.2221 286.916 84.1994 286.493 84.2158C285.168 84.2671 284.529 84.9149 284.577 86.1591L284.618 87.2203L287.241 87.1187L287.341 89.7046L284.719 89.8062L285.13 100.418L281.592 100.555Z"/>
<path d="M294.727 84.0025L294.639 87.2484L296.896 87.3096L296.826 89.8966L294.569 89.8354L294.39 96.4247C294.377 96.9128 294.461 97.2652 294.642 97.4818C294.824 97.6983 295.179 97.8138 295.707 97.8281C296.098 97.8387 296.444 97.8196 296.747 97.7709L296.674 100.443C295.977 100.636 295.263 100.722 294.53 100.703C292.057 100.636 290.83 99.3526 290.849 96.8538L291.042 89.7397L289.114 89.6874L289.184 87.1005L291.112 87.1528L291.2 83.9069L294.727 84.0025Z"/>
<path d="M309.947 88.455L309.788 89.9276C310.916 88.9679 312.264 88.6319 313.833 88.9197C315.506 89.2266 316.533 90.0977 316.916 91.533C318.07 90.3797 319.492 89.9579 321.181 90.2678C322.59 90.5262 323.563 91.1308 324.1 92.0815C324.639 93.0243 324.757 94.3201 324.454 95.969L322.932 104.266L319.45 103.627L320.97 95.3423C321.105 94.6058 321.059 94.0431 320.833 93.6541C320.608 93.257 320.131 92.9917 319.403 92.858C318.362 92.6671 317.551 93.0313 316.968 93.9504L315.344 102.874L311.874 102.237L313.392 93.9644C313.53 93.212 313.481 92.6405 313.247 92.25C313.012 91.8594 312.539 91.5988 311.827 91.4681C310.842 91.2875 310.055 91.5651 309.465 92.3007L307.78 101.486L304.31 100.849L306.693 87.8581L309.947 88.455Z"/>
<path d="M332.268 107.331C332.209 106.979 332.216 106.567 332.289 106.095C331.186 106.744 329.984 106.862 328.68 106.449C327.447 106.057 326.536 105.375 325.948 104.403C325.368 103.434 325.25 102.406 325.595 101.32C326.018 99.9859 326.836 99.1183 328.047 98.7172C329.266 98.3186 330.812 98.4121 332.684 98.9975L334.231 99.4885L334.46 98.7671C334.645 98.1854 334.641 97.672 334.45 97.2269C334.266 96.7843 333.852 96.4609 333.208 96.2566C332.642 96.0769 332.153 96.0711 331.741 96.2392C331.336 96.4098 331.059 96.7317 330.909 97.2049L327.547 96.1379C327.778 95.4087 328.217 94.8053 328.864 94.3275C329.511 93.8497 330.3 93.5667 331.233 93.4785C332.169 93.3826 333.149 93.4971 334.173 93.822C335.724 94.3143 336.829 95.0961 337.488 96.1676C338.157 97.2337 338.268 98.4726 337.82 99.8844L336.088 105.341C335.717 106.538 335.597 107.495 335.728 108.211L335.666 108.409L332.268 107.331ZM330.229 104.11C330.726 104.267 331.218 104.304 331.706 104.22C332.196 104.128 332.601 103.927 332.921 103.619L333.608 101.455L332.351 101.056C330.668 100.522 329.587 100.82 329.109 101.949L329.035 102.143C328.902 102.562 328.94 102.954 329.148 103.319C329.357 103.684 329.717 103.947 330.229 104.11Z"/>
<path d="M340.572 110.428L337.283 109.119L344.218 91.6989L347.507 93.0083L340.572 110.428Z"/>
<path d="M346.567 113.057L343.346 111.589L351.12 94.5269L354.342 95.9947L346.567 113.057Z"/>
<path d="M365.014 123.393L362.002 121.532L364.672 117.212L360.944 114.908L358.274 119.228L355.273 117.374L362.216 106.138L365.217 107.992L362.432 112.499L366.16 114.803L368.945 110.296L371.957 112.157L365.014 123.393Z"/>
<path d="M373.012 129.34C373.075 128.989 373.221 128.604 373.45 128.185C372.193 128.422 371.021 128.126 369.934 127.296C368.906 126.511 368.28 125.561 368.056 124.447C367.838 123.338 368.075 122.331 368.766 121.426C369.616 120.314 370.679 119.774 371.955 119.807C373.237 119.844 374.66 120.455 376.223 121.639L377.513 122.625L377.973 122.024C378.343 121.539 378.514 121.054 378.484 120.571C378.46 120.092 378.18 119.648 377.644 119.237C377.172 118.877 376.713 118.706 376.269 118.725C375.831 118.748 375.461 118.957 375.16 119.352L372.356 117.21C372.821 116.602 373.438 116.183 374.209 115.952C374.979 115.721 375.818 115.722 376.726 115.955C377.638 116.181 378.522 116.621 379.375 117.273C380.668 118.261 381.444 119.371 381.701 120.602C381.97 121.832 381.655 123.035 380.756 124.212L377.28 128.761C376.526 129.762 376.089 130.621 375.97 131.34L375.844 131.505L373.012 129.34ZM372.183 125.619C372.597 125.936 373.048 126.137 373.536 126.222C374.028 126.302 374.477 126.25 374.882 126.068L376.261 124.264L375.213 123.464C373.81 122.392 372.692 122.306 371.861 123.207L371.725 123.364C371.458 123.713 371.361 124.095 371.434 124.509C371.507 124.923 371.757 125.293 372.183 125.619Z"/>
<path d="M390.927 146.069L382.454 137.316L384.191 135.635L392.593 135.504C393.762 135.471 394.707 135.365 395.429 135.187C396.157 135.015 396.729 134.728 397.144 134.326C397.711 133.777 398.017 133.204 398.061 132.606C398.111 132.002 397.879 131.434 397.364 130.902C396.809 130.329 396.172 130.069 395.451 130.12C394.743 130.172 394.067 130.509 393.423 131.132L390.961 128.588C391.739 127.835 392.628 127.332 393.628 127.078C394.633 126.829 395.645 126.869 396.664 127.196C397.689 127.518 398.618 128.108 399.45 128.968C400.723 130.284 401.395 131.61 401.466 132.946C401.542 134.288 401.004 135.517 399.852 136.632C399.22 137.243 398.419 137.702 397.447 138.009C396.475 138.315 395.168 138.492 393.527 138.54L387.656 138.6L392.971 144.091L390.927 146.069Z"/>
<path d="M405.237 152.194C403.307 153.715 401.515 154.479 399.863 154.486C398.21 154.493 396.777 153.726 395.564 152.186C394.365 150.664 393.95 149.106 394.319 147.509C394.688 145.913 395.801 144.368 397.659 142.873L400.229 140.848C402.178 139.312 403.975 138.549 405.62 138.558C407.27 138.574 408.694 139.343 409.893 140.864C411.091 142.386 411.506 143.944 411.137 145.541C410.775 147.132 409.664 148.675 407.807 150.17L405.237 152.194ZM405.873 147.202C407.03 146.291 407.744 145.468 408.017 144.736C408.3 144.005 408.178 143.303 407.649 142.632C407.135 141.98 406.502 141.696 405.751 141.781C405.01 141.867 404.099 142.321 403.016 143.143L399.622 145.818C398.484 146.714 397.758 147.535 397.444 148.28C397.141 149.026 397.259 149.741 397.798 150.425C398.332 151.103 398.982 151.383 399.749 151.265C400.517 151.148 401.452 150.665 402.555 149.816L405.873 147.202Z" />
<path d="M413.682 165.234C411.601 166.543 409.739 167.113 408.095 166.945C406.451 166.777 405.108 165.863 404.063 164.203C403.032 162.564 402.784 160.97 403.32 159.421C403.856 157.873 405.126 156.454 407.132 155.164L409.901 153.422C412.002 152.101 413.87 151.532 415.504 151.715C417.143 151.905 418.478 152.82 419.509 154.46C420.54 156.099 420.788 157.693 420.252 159.242C419.723 160.785 418.456 162.202 416.451 163.493L413.682 165.234ZM414.841 160.337C416.088 159.553 416.886 158.811 417.234 158.111C417.593 157.414 417.546 156.704 417.091 155.981C416.649 155.278 416.05 154.929 415.293 154.934C414.548 154.941 413.593 155.296 412.43 155.999L408.772 158.3C407.546 159.071 406.737 159.81 406.346 160.518C405.966 161.228 406.007 161.952 406.471 162.689C406.93 163.419 407.548 163.766 408.323 163.73C409.098 163.695 410.079 163.313 411.266 162.586L414.841 160.337Z" />
<path d="M424.581 180.758L422.326 175.776L412.895 180.043L411.441 176.829L423.474 171.384L427.183 179.58L424.581 180.758Z"/>
<path d="M425.729 195.385C423.808 196.054 422.115 196.153 420.649 195.682C419.194 195.215 418.208 194.24 417.691 192.757C417.252 191.497 417.335 190.326 417.94 189.244L412.061 191.293L410.9 187.962L428.168 181.944L429.245 185.033L428.063 185.574C429.312 186.044 430.163 186.928 430.616 188.227C431.152 189.764 430.999 191.157 430.159 192.406C429.319 193.655 427.9 194.628 425.902 195.325L425.729 195.385ZM424.81 191.969C425.971 191.565 426.794 191.045 427.279 190.411C427.768 189.784 427.875 189.078 427.602 188.295C427.238 187.249 426.588 186.67 425.652 186.557L420.545 188.336C419.865 189.03 419.707 189.9 420.071 190.945C420.626 192.536 422.205 192.877 424.81 191.969Z"/>
<path d="M422.9 211.086L422.094 207.639L427.039 206.483L426.041 202.216L421.096 203.372L420.293 199.937L433.154 196.93L433.957 200.365L428.799 201.571L429.796 205.838L434.955 204.632L435.761 208.079L422.9 211.086Z"/>
</svg>
