<svg width="474" height="503" fill="none" xmlns="http://www.w3.org/2000/svg"><path d="M159.924 177.554c1.728.832 2.868 2.044 3.42 3.636.554 1.585.449 3.346-.317 5.283-.838 2.119-2.209 3.507-4.114 4.163-1.909.645-4.108.475-6.598-.509l-1.01-.4c-1.59-.628-2.879-1.462-3.869-2.5-.989-1.039-1.6-2.204-1.834-3.495-.238-1.302-.084-2.642.46-4.019.754-1.907 1.873-3.241 3.355-4.003 1.483-.761 3.183-.868 5.101-.319l-1.346 3.405c-1.1-.338-1.99-.345-2.67-.019-.685.316-1.234.996-1.647 2.04-.449 1.135-.377 2.148.216 3.039.588.88 1.735 1.666 3.439 2.358l1.249.493c1.786.706 3.197.954 4.235.743 1.04-.219 1.791-.911 2.252-2.076.416-1.052.487-1.93.214-2.633-.278-.714-.906-1.307-1.882-1.781l1.346-3.406zm9.439-4.778c-.901 1.714-2.162 2.835-3.782 3.362-1.616.52-3.299.32-5.049-.6l-.303-.159c-1.174-.618-2.102-1.396-2.786-2.335-.69-.942-1.066-1.958-1.127-3.048-.065-1.1.183-2.184.744-3.25.841-1.599 2.006-2.59 3.495-2.975 1.493-.391 3.166-.1 5.017.873l1.275.671-3.916 7.444c.817.3 1.588.32 2.314.058.73-.269 1.3-.792 1.709-1.57.633-1.203.691-2.372.176-3.508l2.524-.63c.417.817.602 1.723.556 2.72-.053.992-.335 1.975-.847 2.947zm-9.781-4.689c-.326.619-.382 1.233-.169 1.842.217.601.686 1.161 1.407 1.678l2.284-4.343-.248-.131c-.699-.349-1.331-.442-1.895-.279-.571.159-1.031.57-1.379 1.233zm14.111-15.179c1.698 1.121 2.804 2.407 3.318 3.858.513 1.44.336 2.816-.529 4.126-.735 1.114-1.717 1.759-2.944 1.934l5.196 3.429-1.943 2.944-15.262-10.073 1.803-2.73 1.147.611c-.385-1.278-.199-2.491.559-3.639.896-1.359 2.096-2.083 3.599-2.173 1.503-.091 3.137.447 4.903 1.612l.153.101zm-2.158 2.803c-1.025-.677-1.938-1.015-2.737-1.016-.794-.008-1.42.335-1.877 1.027-.61.924-.676 1.792-.198 2.605l4.513 2.979c.964.12 1.751-.282 2.361-1.206.928-1.406.241-2.869-2.062-4.389zm7.368-15.58l-2.658 3.298 8.08 6.51-2.221 2.757-8.08-6.51-2.611 3.241-2.206-1.777 7.491-9.296 2.205 1.777zm5.541-9.897l2.472-2.517 9.424 9.255-2.472 2.517-5.818-5.714 2.721 8.867-2.48 2.526-9.424-9.256 2.481-2.525 5.809 5.705-2.713-8.858zm9.087.306c-1.332-1.654-2.055-3.24-2.17-4.757-.108-1.522.431-2.761 1.616-3.715a3.69 3.69 0 011.487-.743l-3.545-4.402 2.747-2.212 3.553 4.411c.24-.507.598-.951 1.073-1.334 1.191-.96 2.516-1.222 3.974-.787 1.459.423 2.911 1.532 4.356 3.326 1.25 1.552 1.904 3.058 1.961 4.517.052 1.453-.509 2.651-1.681 3.595-.488.394-1 .66-1.536.799l3.246 4.031-2.747 2.212-3.239-4.021a3.99 3.99 0 01-1.077 1.29c-1.109.893-2.334 1.195-3.674.906-1.341-.289-2.625-1.131-3.852-2.525l-.492-.591zm10.173-8.193c-.827-1.026-1.615-1.687-2.365-1.982-.755-.302-1.414-.225-1.978.229a3.605 3.605 0 00-.526.534l4.923 6.113c.208-.105.423-.247.645-.425 1.077-.868 1.002-2.155-.226-3.862l-.473-.607zm-7.265 6.18c1.527 1.895 2.87 2.376 4.03 1.441.24-.194.421-.365.541-.514l-4.923-6.113a3.45 3.45 0 00-.614.385c-.565.454-.782 1.073-.652 1.857.124.777.664 1.759 1.618 2.944zm18.542-6.075l-2.941 1.971-7.351-10.973 2.941-1.971 7.351 10.973zm-12.367-11.727c-.294-.439-.391-.898-.291-1.377.108-.483.415-.895.922-1.234.5-.336.994-.461 1.482-.376.488.085.879.347 1.173.786.299.446.391.913.277 1.401-.107.483-.407.89-.901 1.221-.493.331-.987.456-1.482.376-.488-.085-.881-.35-1.18-.797zm17.114 3.124l-1.234.695 2.39 4.244-3.073 1.731-6.482-11.508 3.074-1.731 2.438 4.328 1.095-.617.072-5.742 3.882-2.187-.68 7.598 7.513 3.713-4.095 2.306-4.9-2.83zm17.006-2.976c-.276-.226-.543-.54-.799-.943-.401 1.215-1.228 2.096-2.48 2.645-1.185.518-2.32.606-3.403.263-1.075-.346-1.841-1.042-2.298-2.085-.561-1.283-.519-2.474.128-3.574.654-1.104 1.877-2.052 3.671-2.846l1.487-.651-.303-.694c-.245-.559-.586-.943-1.024-1.151-.43-.211-.954-.181-1.573.089-.544.239-.916.557-1.115.955-.191.394-.188.819.012 1.274l-3.232 1.415c-.307-.701-.375-1.444-.203-2.23.171-.786.578-1.519 1.222-2.201.64-.689 1.452-1.248 2.436-1.68 1.491-.652 2.837-.793 4.039-.421 1.206.36 2.106 1.219 2.7 2.575l2.296 5.245c.51 1.145 1.05 1.943 1.621 2.395l.084.19-3.266 1.43zm-3.656-1.078a3.082 3.082 0 001.182-.891c.308-.392.481-.81.518-1.253l-.911-2.08-1.207.529c-1.618.708-2.234 1.644-1.849 2.808l.072.195c.176.403.463.673.86.81.398.136.843.097 1.335-.118zm15.698-14.247l-4.023 1.327 3.25 9.854-3.362 1.109-3.25-9.854-3.953 1.304-.887-2.69 11.338-3.74.887 2.69zm9.921 1.246c-.342-1.997-.145-3.686.592-5.068.746-1.383 1.924-2.212 3.536-2.489 1.428-.245 2.623.054 3.585.896l-.066-1.252 3.152-.54 2.159 12.584c.196 1.139.105 2.174-.272 3.106-.369.93-.985 1.696-1.847 2.298-.863.603-1.924 1.012-3.183 1.228a7.168 7.168 0 01-2.891-.099c-.971-.221-1.74-.593-2.309-1.115l1.177-2.381c1.033.822 2.167 1.127 3.402.915.922-.159 1.597-.53 2.025-1.116.43-.577.567-1.319.411-2.225l-.12-.698c-.646 1.044-1.623 1.678-2.931 1.902-1.564.269-2.935-.124-4.115-1.176-1.173-1.062-1.933-2.604-2.28-4.625l-.025-.144zm3.521-.343c.202 1.179.598 2.064 1.186 2.657.588.584 1.295.806 2.121.664 1.058-.181 1.748-.709 2.069-1.581l-.939-5.474c-.601-.715-1.419-.983-2.454-.805-.834.143-1.434.596-1.798 1.36-.356.764-.418 1.823-.185 3.178zm14.947 4.434l-3.523.341-1.276-13.146 3.524-.342 1.275 13.147zm-5.335-16.187c-.051-.526.081-.976.396-1.35.323-.375.789-.592 1.396-.651.6-.058 1.094.066 1.483.371.39.306.61.722.661 1.248.052.535-.088.99-.419 1.365-.324.375-.781.591-1.372.649-.592.057-1.086-.067-1.483-.371-.39-.306-.611-.726-.662-1.26zm9.762 15.857l-.411-10.612-1.964.076-.1-2.586 1.964-.076-.043-1.122c-.058-1.48.321-2.643 1.135-3.489.822-.854 1.997-1.311 3.526-1.37.488-.02 1.089.039 1.803.174l.069 2.734a4.498 4.498 0 00-1.078-.068c-1.325.051-1.964.699-1.916 1.943l.041 1.061 2.623-.101.1 2.586-2.622.101.411 10.612-3.538.137zm13.135-16.553l-.088 3.246 2.257.062-.07 2.587-2.257-.062-.179 6.59c-.013.488.071.84.252 1.057.182.216.537.332 1.065.346.391.01.737-.008 1.04-.057l-.073 2.672a7.279 7.279 0 01-2.144.26c-2.473-.067-3.7-1.35-3.681-3.85l.193-7.113-1.928-.053.07-2.587 1.928.053.088-3.246 3.527.096zm15.22 4.453l-.159 1.473c1.128-.96 2.476-1.296 4.045-1.008 1.673.307 2.7 1.178 3.083 2.613 1.154-1.153 2.576-1.575 4.265-1.265 1.409.258 2.382.863 2.919 1.814.539.942.657 2.238.354 3.887l-1.522 8.297-3.482-.639 1.52-8.285c.135-.736.089-1.299-.137-1.688-.225-.397-.702-.662-1.43-.796-1.041-.19-1.852.173-2.435 1.092l-1.624 8.924-3.47-.637 1.518-8.273c.138-.752.089-1.323-.145-1.714-.235-.39-.708-.651-1.42-.782-.985-.18-1.772.097-2.362.833l-1.685 9.185-3.47-.637 2.383-12.99 3.254.596zm22.321 18.876c-.059-.352-.052-.764.021-1.236-1.103.649-2.305.767-3.609.354-1.233-.392-2.144-1.074-2.732-2.046-.58-.969-.698-1.997-.353-3.083.423-1.334 1.241-2.202 2.452-2.603 1.219-.398 2.765-.305 4.637.28l1.547.492.229-.722c.185-.582.181-1.095-.01-1.54-.184-.443-.598-.766-1.242-.97-.566-.18-1.055-.186-1.467-.018-.405.17-.682.493-.832.966l-3.362-1.067c.231-.73.67-1.333 1.317-1.81.647-.478 1.436-.761 2.369-.85.936-.095 1.916.02 2.94.344 1.551.492 2.656 1.274 3.315 2.346.669 1.066.78 2.305.332 3.716l-1.732 5.457c-.371 1.197-.491 2.154-.36 2.87l-.062.198-3.398-1.078zm-2.039-3.221c.497.157.989.194 1.477.11.49-.092.895-.293 1.215-.601l.687-2.164-1.257-.399c-1.683-.534-2.764-.236-3.242.893l-.074.194c-.133.419-.095.811.113 1.176.209.365.569.628 1.081.791zm10.343 6.318l-3.289-1.309 6.935-17.42 3.289 1.31-6.935 17.419zm5.995 2.629l-3.221-1.468 7.774-17.062 3.222 1.468-7.775 17.062zm18.447 10.336l-3.012-1.861 2.67-4.32-3.728-2.304-2.67 4.32-3.001-1.854 6.943-11.236 3.001 1.854-2.785 4.507 3.728 2.304 2.785-4.507 3.012 1.861-6.943 11.236zm7.998 5.947c.063-.351.209-.736.438-1.155-1.257.237-2.429-.059-3.516-.889-1.028-.785-1.654-1.735-1.878-2.849-.218-1.109.019-2.116.71-3.021.85-1.112 1.913-1.652 3.189-1.619 1.282.037 2.705.648 4.268 1.832l1.29.986.46-.601c.37-.485.541-.97.511-1.453-.024-.479-.304-.923-.84-1.334-.472-.36-.931-.531-1.375-.512-.438.023-.808.232-1.109.627l-2.804-2.142c.465-.608 1.082-1.027 1.853-1.258.77-.231 1.609-.23 2.517.003.912.226 1.796.666 2.649 1.318 1.293.988 2.069 2.098 2.326 3.329.269 1.23-.046 2.433-.945 3.61l-3.476 4.549c-.754 1.001-1.191 1.86-1.31 2.579l-.126.165-2.832-2.165zm-.829-3.721c.414.317.865.518 1.353.603.492.08.941.028 1.346-.154l1.379-1.804-1.048-.8c-1.403-1.072-2.521-1.158-3.352-.257l-.136.157a1.411 1.411 0 00-.291 1.145c.073.414.323.784.749 1.11zm18.744 20.45l-8.473-8.753 1.737-1.681 8.402-.131c1.169-.033 2.114-.139 2.836-.317.728-.172 1.3-.459 1.715-.861.567-.549.873-1.122.917-1.72.05-.604-.182-1.172-.697-1.704-.555-.573-1.192-.833-1.913-.782-.708.052-1.384.389-2.028 1.012l-2.462-2.544c.778-.753 1.667-1.256 2.667-1.51a5.459 5.459 0 013.036.118c1.025.322 1.954.912 2.786 1.772 1.273 1.316 1.945 2.642 2.016 3.978.076 1.342-.462 2.571-1.614 3.686-.632.611-1.433 1.07-2.405 1.377-.972.306-2.279.483-3.92.531l-5.871.06 5.315 5.491-2.044 1.978zm14.31 6.125c-1.93 1.521-3.722 2.285-5.374 2.292-1.653.007-3.086-.76-4.299-2.3-1.199-1.522-1.614-3.08-1.245-4.677.369-1.596 1.482-3.141 3.34-4.636l2.57-2.025c1.949-1.536 3.746-2.299 5.391-2.29 1.65.016 3.074.785 4.273 2.306 1.198 1.522 1.613 3.08 1.244 4.677-.362 1.591-1.473 3.134-3.33 4.629l-2.57 2.024zm.636-4.992c1.157-.911 1.871-1.734 2.144-2.466.283-.731.161-1.433-.368-2.104-.514-.652-1.147-.936-1.898-.851-.741.086-1.652.54-2.735 1.362l-3.394 2.675c-1.138.896-1.864 1.717-2.178 2.462-.303.746-.185 1.461.354 2.145.534.678 1.184.958 1.951.84.768-.117 1.703-.6 2.806-1.449l3.318-2.614zm7.809 18.032c-2.081 1.309-3.943 1.879-5.587 1.711-1.644-.168-2.987-1.082-4.032-2.742-1.031-1.639-1.279-3.233-.743-4.782.536-1.548 1.806-2.967 3.812-4.257l2.769-1.742c2.101-1.321 3.969-1.89 5.603-1.707 1.639.19 2.974 1.105 4.005 2.745 1.031 1.639 1.279 3.233.743 4.782-.529 1.543-1.796 2.96-3.801 4.251l-2.769 1.741zm1.159-4.897c1.247-.784 2.045-1.526 2.393-2.226.359-.697.312-1.407-.143-2.13-.442-.703-1.041-1.052-1.798-1.047-.745.007-1.7.362-2.863 1.065l-3.658 2.301c-1.226.771-2.035 1.51-2.426 2.218-.38.71-.339 1.434.125 2.171.459.73 1.077 1.077 1.852 1.041.775-.035 1.756-.417 2.943-1.144l3.575-2.249zm9.74 20.421l-2.255-4.982-9.431 4.267-1.454-3.214 12.033-5.445 3.709 8.196-2.602 1.178zm1.148 14.627c-1.921.669-3.614.768-5.08.297-1.455-.467-2.441-1.442-2.958-2.925-.439-1.26-.356-2.431.249-3.513l-5.879 2.049-1.161-3.331 17.268-6.018 1.077 3.089-1.182.541c1.249.47 2.1 1.354 2.553 2.653.536 1.537.383 2.93-.457 4.179-.84 1.249-2.259 2.222-4.257 2.919l-.173.06zm-.919-3.416c1.161-.404 1.984-.924 2.469-1.558.489-.627.596-1.333.323-2.116-.364-1.046-1.014-1.625-1.95-1.738l-5.107 1.779c-.68.694-.838 1.564-.474 2.609.555 1.591 2.134 1.932 4.739 1.024zm-1.91 19.117l-.806-3.447 4.945-1.156-.998-4.267-4.945 1.156-.803-3.435 12.861-3.007.803 3.435-5.158 1.206.997 4.267 5.159-1.206.806 3.447-12.861 3.007z"/></svg>