<svg width="143" height="143" viewBox="0 0 143 143" fill="none" xmlns="http://www.w3.org/2000/svg">
<path d="M51.0041 75.2984L47.8512 63.1997H43.7548L40.6515 75.2984L37.1096 63.1997H32.2601L38.1275 82.2498H42.2983L45.5175 69.6628L48.7532 82.2498H52.8164L58.3941 63.1997H54.4798L51.0041 75.2984Z" fill="#077C75"/>
<path d="M79.2471 82.2498L84.8248 63.1997H80.9105L77.4348 75.2984L74.2818 63.1997H70.1854L67.0821 75.2984L63.5402 63.1997H58.6907L64.5581 82.2498H68.7289L71.9481 69.6628L75.1838 82.2498H79.2471Z" fill="#077C75"/>
<path d="M95.1601 82.2498L98.3793 69.6628L101.615 82.2498H105.67L111.256 63.1997H107.342L103.866 75.2984L100.713 63.1997H96.6083L93.5133 75.2984L89.9631 63.1997H85.1219L90.9893 82.2498H95.1601Z" fill="#077C75"/>
<path d="M142.712 69.9522C142.712 69.8364 142.703 69.7205 142.703 69.6047L142.695 69.4061C142.687 69.0337 142.67 68.6613 142.654 68.2889C142.646 68.1316 142.637 67.9744 142.629 67.8089L142.621 67.6434C142.604 67.3041 142.579 66.9648 142.554 66.6255C142.538 66.402 142.521 66.1786 142.505 65.9552C142.48 65.6242 142.447 65.2931 142.422 64.9621C142.406 64.7387 142.381 64.5152 142.356 64.2918C142.323 63.9608 142.281 63.6215 142.248 63.2905L142.232 63.125C142.215 62.9677 142.199 62.8022 142.174 62.645C142.124 62.2809 142.075 61.925 142.025 61.5609L142 61.3623C141.983 61.2464 141.967 61.1306 141.95 61.0147C141.868 60.452 141.785 59.9306 141.694 59.4175C141.686 59.3513 141.669 59.2934 141.661 59.2272L141.636 59.0948C141.545 58.5983 141.47 58.1928 141.396 57.8038C141.371 57.6631 141.338 57.5224 141.313 57.3818L141.272 57.1832C141.206 56.8604 141.139 56.5294 141.065 56.2066C141.024 56.0163 140.974 55.8177 140.932 55.6191L140.908 55.5198C140.841 55.2219 140.767 54.9157 140.693 54.6178C140.635 54.3778 140.577 54.146 140.51 53.9061C140.436 53.6164 140.361 53.3268 140.279 53.0371C140.213 52.7971 140.146 52.5654 140.08 52.3254C139.997 52.0358 139.915 51.7462 139.832 51.4565L139.79 51.3076C139.733 51.1255 139.683 50.9434 139.625 50.7531C139.542 50.4717 139.451 50.1904 139.36 49.909L139.269 49.6359C139.219 49.4869 139.178 49.3463 139.128 49.2056C138.963 48.7008 138.789 48.2043 138.624 47.7325C138.574 47.6001 138.524 47.4595 138.475 47.327L138.351 46.9878C138.26 46.7312 138.16 46.4664 138.061 46.2099C137.995 46.0278 137.92 45.8457 137.846 45.6637L137.755 45.4402C137.655 45.192 137.564 44.952 137.465 44.7037C137.366 44.4555 137.258 44.2072 137.151 43.9589C137.043 43.7107 136.944 43.4624 136.836 43.2224C136.729 42.9741 136.613 42.7176 136.505 42.4693C136.398 42.2293 136.29 41.9894 136.174 41.7494C136.058 41.4928 135.942 41.2446 135.818 40.9963C135.711 40.7729 135.603 40.5494 135.479 40.3012L135.421 40.177C135.313 39.9619 135.214 39.755 135.107 39.5398C135.024 39.3743 134.933 39.2088 134.85 39.035L134.651 38.6626C134.552 38.4723 134.461 38.2902 134.362 38.1082C134.32 38.0254 134.271 37.9509 134.229 37.8682L134.138 37.7109C133.832 37.1565 133.509 36.5855 133.178 36.0062L133.071 35.8241C132.988 35.6834 132.905 35.5345 132.823 35.3938C132.69 35.1786 132.566 34.9635 132.434 34.7483L132.293 34.5166C132.194 34.3511 132.086 34.1773 131.978 34.0118C131.821 33.7552 131.656 33.507 131.49 33.2504C131.358 33.0518 131.234 32.8449 131.101 32.6463C130.936 32.3981 130.77 32.1415 130.596 31.8933C130.464 31.6947 130.332 31.5043 130.191 31.3057C130.017 31.0574 129.843 30.8092 129.67 30.5526C129.57 30.4119 129.463 30.2713 129.363 30.1223L129.19 29.8823C129.032 29.6672 128.875 29.4437 128.71 29.2286C128.619 29.1127 128.536 28.9968 128.445 28.881L128.321 28.7237C127.021 27.019 125.648 25.3722 124.241 23.8247L124.224 23.8081C123.827 23.3778 123.463 22.9888 123.115 22.6164C122.726 22.2109 122.337 21.8054 121.957 21.4248C108.542 8.02676 90.7168 0.64502 71.7577 0.64502C52.7985 0.64502 34.9814 8.02675 21.5751 21.433C21.1945 21.8137 20.8055 22.2109 20.4166 22.6164C20.0607 22.9888 19.6966 23.3861 19.2911 23.8164C18.4139 24.7846 17.5532 25.7694 16.7423 26.7625L16.7009 26.8204C16.2292 27.3997 15.7409 28.0203 15.2113 28.7155L15.0789 28.8893C14.9878 29.0051 14.9051 29.121 14.8141 29.2368C14.6568 29.452 14.4996 29.6589 14.3424 29.874L14.1686 30.114C14.061 30.263 13.9534 30.4037 13.8458 30.5526C13.672 30.8009 13.4983 31.0492 13.3245 31.2974C13.1921 31.496 13.0514 31.6864 12.919 31.885C12.7535 32.1333 12.5797 32.3815 12.4142 32.6381C12.2818 32.8367 12.1494 33.0436 12.0169 33.2422C11.8514 33.4904 11.6942 33.747 11.537 33.9952C11.4294 34.169 11.3218 34.3511 11.2142 34.5249L11.0901 34.7235C10.9577 34.9386 10.8253 35.1538 10.6929 35.3772C10.6018 35.5262 10.5191 35.6752 10.4281 35.8324L10.3287 36.0062C10.0226 36.5358 9.72464 37.0654 9.43499 37.5868L9.32741 37.7771C9.26948 37.8847 9.21156 37.9923 9.15363 38.0999C9.05432 38.2819 8.96329 38.464 8.86399 38.6543L8.66537 39.035C8.57434 39.2088 8.49159 39.3743 8.40056 39.5481C8.29298 39.755 8.19367 39.9701 8.08609 40.177L8.01161 40.3343C7.90403 40.5577 7.79645 40.7729 7.68887 40.9963C7.56473 41.2446 7.44888 41.5011 7.33302 41.7494C7.22544 41.9894 7.10958 42.2293 7.002 42.4693C6.88614 42.7176 6.77856 42.9741 6.67098 43.2224C6.5634 43.4707 6.45582 43.7189 6.34824 43.9672C6.24066 44.2155 6.14135 44.4555 6.04204 44.7037C5.94274 44.9437 5.85171 45.1837 5.7524 45.4237L5.66965 45.6637C5.59517 45.8457 5.52069 46.0278 5.45448 46.2099C5.35518 46.4747 5.25587 46.7395 5.15657 47.0043L5.04071 47.327C4.99106 47.4595 4.9414 47.5919 4.89175 47.7243C4.72624 48.196 4.55246 48.6925 4.38695 49.1973C4.34557 49.3297 4.29592 49.4704 4.25454 49.6028L4.16351 49.8924C4.07248 50.1738 3.98145 50.4635 3.89042 50.7448C3.83249 50.9269 3.78284 51.1089 3.72491 51.291L3.68353 51.44C3.60078 51.7296 3.50974 52.0192 3.43527 52.3089C3.36906 52.5489 3.30286 52.7806 3.23665 53.0206C3.16217 53.3102 3.07942 53.5999 3.00494 53.8978C2.94701 54.1378 2.88908 54.3695 2.83116 54.6095C2.75668 54.9074 2.69047 55.2136 2.61599 55.5115L2.59117 55.6108C2.54151 55.8094 2.50014 56.008 2.45876 56.1984C2.38428 56.5211 2.31807 56.8439 2.25187 57.1749L2.21049 57.3735C2.17739 57.5142 2.15257 57.6549 2.12774 57.7955C2.05326 58.1762 1.97878 58.59 1.88775 59.0865L1.86292 59.2189C1.85465 59.2851 1.8381 59.3431 1.82982 59.4093C1.73879 59.9223 1.65604 60.452 1.57328 61.0064C1.55673 61.1223 1.54018 61.2381 1.52363 61.354L1.4988 61.5526C1.44915 61.9167 1.3995 62.2726 1.34984 62.6367C1.33329 62.7939 1.30847 62.9512 1.29191 63.1167L1.27536 63.2822C1.23399 63.6132 1.20088 63.9525 1.16778 64.2835C1.14296 64.507 1.1264 64.7304 1.10158 64.9538C1.06848 65.2849 1.04365 65.6159 1.01882 65.9469C1.00227 66.1703 0.985721 66.3938 0.96917 66.6172C0.944344 66.9565 0.927793 67.2958 0.902966 67.6351L0.894691 67.784C0.886415 67.9496 0.87814 68.1151 0.869864 68.2806C0.853313 68.653 0.836762 69.0254 0.828487 69.3978L0.820211 69.5964C0.820211 69.7122 0.811936 69.8281 0.811936 69.9522C0.795385 70.5398 0.787109 71.086 0.787109 71.6156C0.787109 72.1452 0.795385 72.6914 0.80366 73.2873C0.80366 73.4031 0.811936 73.519 0.811936 73.6431L0.820211 73.8334C0.828487 74.2058 0.845038 74.5782 0.861589 74.9506C0.869864 75.1079 0.87814 75.2734 0.886415 75.4472L0.894691 75.5961C0.911242 75.9354 0.936068 76.2747 0.960895 76.614C0.977446 76.8374 0.993997 77.0609 1.01055 77.2843C1.03537 77.6153 1.06848 77.9464 1.0933 78.2774C1.10985 78.5008 1.13468 78.7243 1.15951 78.9477C1.19261 79.2787 1.23399 79.618 1.26709 79.949L1.28364 80.1063C1.30019 80.2635 1.31674 80.429 1.34157 80.5862C1.39122 80.9504 1.44087 81.3145 1.49053 81.6703L1.51535 81.8689C1.5319 81.9848 1.54845 82.1006 1.56501 82.2165C1.64776 82.7792 1.73052 83.3006 1.82155 83.8137C1.82982 83.8799 1.84637 83.9378 1.85465 84.004L1.87947 84.1364C1.9705 84.6329 2.04498 85.0384 2.11946 85.4274C2.14429 85.5681 2.17739 85.7088 2.20222 85.8494L2.2436 86.0481C2.3098 86.3708 2.376 86.7018 2.45048 87.0246C2.49186 87.2232 2.54151 87.4301 2.59117 87.6287L2.60772 87.7114C2.67392 88.0093 2.7484 88.3155 2.82288 88.6135C2.88081 88.8534 2.93874 89.0852 2.99666 89.3251C3.07114 89.6148 3.14562 89.9127 3.22838 90.2023C3.29458 90.4423 3.35251 90.6741 3.42699 90.914C3.50974 91.2037 3.5925 91.4933 3.67525 91.783L3.71663 91.9402C3.76629 92.1223 3.82421 92.3043 3.88214 92.4781C3.97317 92.7677 4.0642 93.0574 4.15523 93.3388L4.23799 93.5953C4.27937 93.736 4.32902 93.8767 4.37867 94.0256C4.54418 94.5304 4.71797 95.027 4.88348 95.4987C4.93313 95.6311 4.97451 95.7552 5.02416 95.8959L5.14829 96.2352C5.2476 96.5 5.33863 96.7565 5.43793 97.0214C5.50414 97.2034 5.57862 97.3855 5.6531 97.5675L5.74413 97.791C5.84343 98.031 5.93446 98.2792 6.03377 98.5192C6.13307 98.7592 6.23238 98.9909 6.33169 99.2392L6.33996 99.264C6.44754 99.5123 6.54685 99.7605 6.65443 100.009C6.76201 100.257 6.87787 100.514 6.98545 100.762C7.09303 101.002 7.20061 101.242 7.31647 101.482C7.43233 101.73 7.54818 101.987 7.67232 102.235C7.77162 102.45 7.8792 102.657 7.97851 102.872L8.06954 103.062C8.17712 103.278 8.27643 103.485 8.38401 103.691C8.47504 103.865 8.56607 104.047 8.6571 104.221L8.84743 104.577C8.94674 104.759 9.03777 104.949 9.13708 105.131C9.19501 105.239 9.25293 105.338 9.31086 105.438L9.42672 105.644C9.70809 106.166 10.0143 106.695 10.3205 107.225L10.4281 107.407C10.5108 107.556 10.6018 107.697 10.6846 107.846C10.817 108.061 10.9411 108.276 11.0735 108.491L11.2059 108.698C11.3135 108.872 11.4211 109.046 11.5287 109.219C11.6859 109.476 11.8514 109.724 12.0087 109.981C12.1411 110.179 12.2735 110.386 12.4059 110.585C12.5714 110.833 12.7369 111.09 12.9107 111.338C13.0431 111.537 13.1838 111.735 13.3162 111.926C13.49 112.174 13.6638 112.422 13.8376 112.67C13.9451 112.828 14.061 112.977 14.1686 113.134L14.3258 113.349C14.483 113.564 14.632 113.771 14.7892 113.986C14.8803 114.102 14.963 114.218 15.0541 114.334L15.1782 114.499C15.7244 115.219 16.2209 115.848 16.7009 116.436L16.7174 116.452C17.876 117.876 19.109 119.266 20.3835 120.598C20.7724 121.004 21.1614 121.401 21.542 121.79C34.9483 135.196 52.7654 142.578 71.7246 142.578C90.6837 142.578 108.501 135.196 121.907 121.79C122.288 121.409 122.685 121.004 123.066 120.606C124.903 118.687 126.649 116.634 128.279 114.499L128.42 114.309C128.503 114.201 128.585 114.094 128.668 113.986C128.834 113.763 128.999 113.539 129.173 113.299L129.305 113.117C129.413 112.968 129.521 112.819 129.636 112.662C129.81 112.414 129.992 112.165 130.166 111.909C130.298 111.71 130.439 111.52 130.572 111.321C130.745 111.073 130.911 110.817 131.076 110.568C131.209 110.37 131.341 110.171 131.465 109.964C131.631 109.716 131.788 109.459 131.945 109.203C132.053 109.037 132.152 108.872 132.252 108.706L132.384 108.483C132.516 108.259 132.657 108.044 132.789 107.821C132.88 107.672 132.963 107.523 133.046 107.374L133.145 107.2C133.468 106.637 133.791 106.083 134.08 105.537L134.171 105.363C134.221 105.272 134.271 105.189 134.32 105.098C134.42 104.908 134.519 104.726 134.618 104.535L134.817 104.155C134.9 103.989 134.991 103.824 135.073 103.658C135.181 103.451 135.28 103.245 135.388 103.029L135.471 102.872C135.578 102.649 135.686 102.425 135.793 102.202C135.918 101.954 136.033 101.697 136.149 101.449C136.257 101.209 136.373 100.969 136.48 100.729C136.596 100.481 136.704 100.224 136.811 99.9757C136.919 99.7274 137.026 99.4792 137.126 99.2309C137.233 98.9827 137.333 98.7344 137.44 98.4861C137.54 98.2544 137.631 98.0144 137.722 97.7744L137.829 97.5013C137.895 97.3275 137.97 97.1538 138.036 96.98C138.135 96.7152 138.235 96.4586 138.326 96.1938L138.45 95.8628C138.5 95.7304 138.549 95.598 138.599 95.4656C138.773 94.9856 138.938 94.4973 139.104 93.9925C139.153 93.8518 139.195 93.7112 139.244 93.5705L139.327 93.2974C139.418 93.016 139.509 92.7264 139.6 92.445C139.658 92.2712 139.708 92.0892 139.757 91.9071L139.807 91.7499C139.89 91.4602 139.981 91.1706 140.055 90.8809C140.122 90.641 140.188 90.4092 140.254 90.1693C140.328 89.8796 140.411 89.59 140.486 89.292C140.544 89.0521 140.601 88.8203 140.659 88.5804C140.734 88.2824 140.8 87.9762 140.875 87.6783L140.899 87.5707C140.941 87.3804 140.99 87.1818 141.032 86.9915C141.106 86.6687 141.172 86.3377 141.239 86.015L141.28 85.8081C141.305 85.6674 141.338 85.535 141.363 85.3943C141.437 85.0136 141.512 84.5998 141.603 84.1033L141.628 83.9709C141.636 83.913 141.652 83.8468 141.661 83.7888C141.752 83.2758 141.835 82.7544 141.917 82.1834C141.934 82.0675 141.95 81.9517 141.967 81.8358L141.992 81.6372C142.041 81.2731 142.091 80.9173 142.141 80.5531C142.157 80.3876 142.182 80.2304 142.199 80.0649L142.215 79.9076C142.257 79.5766 142.29 79.2373 142.323 78.9063C142.348 78.6829 142.364 78.4594 142.389 78.236C142.422 77.905 142.447 77.574 142.472 77.2429C142.488 77.0195 142.505 76.7961 142.521 76.5726C142.546 76.2333 142.563 75.894 142.588 75.5547L142.596 75.4058C142.604 75.2403 142.612 75.0748 142.621 74.9092C142.637 74.5369 142.654 74.1645 142.662 73.7921L142.67 73.5934C142.67 73.4776 142.679 73.3617 142.679 73.2459C142.695 72.65 142.695 72.1039 142.695 71.5742C142.728 71.0942 142.728 70.5481 142.712 69.9522ZM94.7718 11.428C94.8629 11.4611 94.9539 11.4942 95.0449 11.5273C95.3925 11.6597 95.7649 11.8087 96.1952 11.9907L96.3276 12.0404C96.3938 12.0652 96.4683 12.0983 96.5345 12.1231C96.9235 12.2886 97.3289 12.4624 97.7758 12.661L98.0075 12.7603C98.4627 12.9672 98.9261 13.1741 99.3813 13.3975L99.464 13.4306C104.843 16.0043 109.841 19.3145 114.335 23.2702L114.36 23.295C114.765 23.6509 115.163 24.0067 115.543 24.3626L115.568 24.3874C115.932 24.7267 116.305 25.0743 116.66 25.4301L116.743 25.5129C117.107 25.8687 117.48 26.2411 117.844 26.6135C114.666 28.4672 111.157 30.1306 107.417 31.5705C106.026 28.2107 104.454 25.0246 102.733 22.0868C100.325 17.9904 97.6434 14.4072 94.7553 11.4114L94.7718 11.428ZM75.0265 7.4392C83.2192 8.755 91.0396 15.1188 97.0807 25.397C98.5786 27.9459 99.9606 30.7264 101.194 33.6642C93.0588 36.0724 84.2537 37.4213 75.0182 37.6861V7.4392H75.0265ZM75.0265 44.2237C85.0481 43.9589 94.6146 42.4693 103.478 39.8046C104.529 43.0238 105.414 46.4002 106.126 49.8924H75.0265V44.2237ZM68.4889 7.4392V37.6861C59.2534 37.4296 50.4566 36.0724 42.3135 33.6642C43.5466 30.7264 44.9286 27.9459 46.4264 25.397C52.4758 15.1188 60.2961 8.755 68.4889 7.4392ZM68.4889 44.2237V49.8842H37.3896C38.1013 46.3919 38.995 43.0155 40.0377 39.7964C48.9091 42.4611 58.4755 43.9506 68.4889 44.2237ZM26.7887 25.5129L26.8052 25.4963C27.1859 25.1239 27.5749 24.7598 27.9638 24.3957L28.0548 24.3129C28.419 23.9736 28.7996 23.6343 29.1803 23.295C33.6739 19.3311 38.6806 16.0126 44.0596 13.4389L44.1424 13.3975C44.5975 13.1824 45.061 12.9672 45.5078 12.7686L45.7478 12.661C46.1947 12.4624 46.5919 12.2886 46.9809 12.1314C47.0471 12.1066 47.1133 12.0735 47.1795 12.0486L47.3202 11.9907C47.7588 11.8087 48.1229 11.668 48.4705 11.5273C48.5615 11.4942 48.6443 11.4611 48.7353 11.428L48.7684 11.4197C45.8802 14.4154 43.199 17.9987 40.7908 22.0951C39.0695 25.0246 37.4889 28.2107 36.1069 31.5788C32.3581 30.1471 28.8493 28.4838 25.6798 26.6218C26.0439 26.2494 26.4163 25.877 26.7887 25.5129ZM7.43233 67.8916C7.44888 67.5689 7.4737 67.2544 7.49025 66.9317C7.50681 66.7248 7.52336 66.5179 7.53991 66.311C7.56473 65.9966 7.58956 65.6904 7.62266 65.3842C7.63921 65.1773 7.66404 64.9704 7.68887 64.7635C7.72197 64.449 7.75507 64.1346 7.79645 63.8201L7.813 63.6629C7.82955 63.5222 7.8461 63.3815 7.86265 63.2325C7.90403 62.8932 7.95368 62.5539 8.00333 62.2146L8.02816 62.016C8.04471 61.9167 8.05299 61.8174 8.06954 61.7264C8.15229 61.1885 8.23505 60.7002 8.3178 60.2285L8.32608 60.1872C8.40883 59.7237 8.49986 59.2437 8.59917 58.7472C8.61572 58.6562 8.64055 58.5652 8.6571 58.4741L8.70675 58.2507C8.77295 57.9197 8.84743 57.5969 8.92191 57.2742C8.95502 57.1418 8.98812 57.0011 9.02122 56.8687L9.0626 56.7032C9.13708 56.4053 9.20328 56.1073 9.27776 55.8094C9.32741 55.6108 9.37707 55.4122 9.43499 55.2136C9.50947 54.9239 9.59223 54.6343 9.66671 54.3447C9.72464 54.1461 9.77429 53.9474 9.83222 53.7488C9.91497 53.4592 10.006 53.1613 10.097 52.8716L10.1467 52.7061C10.1881 52.5737 10.2294 52.4413 10.2708 52.3089C10.3701 51.9944 10.4694 51.68 10.577 51.3655L10.6432 51.1586C10.6763 51.0676 10.7011 50.9765 10.7342 50.8855C10.8998 50.389 11.0653 49.9338 11.2225 49.4952L11.2722 49.3711C11.4294 48.9325 11.5949 48.5104 11.7521 48.1049C11.7935 48.0056 11.8266 47.9146 11.868 47.807L11.9425 47.6167C12.0583 47.3188 12.1825 47.0209 12.3066 46.7312C12.3645 46.5905 12.4307 46.4498 12.4969 46.2926L12.5466 46.1768C12.6624 45.9037 12.7783 45.6389 12.9024 45.3658C12.9852 45.1754 13.0762 44.9851 13.159 44.803C13.2831 44.5382 13.399 44.2734 13.5231 44.0168C13.6141 43.8348 13.6969 43.6445 13.7879 43.4624C13.9203 43.1976 14.0527 42.9328 14.1851 42.6679L14.2596 42.519C14.3258 42.3949 14.3837 42.2624 14.4499 42.1383C14.5989 41.8569 14.7479 41.5756 14.8968 41.2942L14.9961 41.1122C15.0458 41.0211 15.0954 40.9301 15.1368 40.8473C15.3851 40.3922 15.6168 39.9784 15.8485 39.5812L15.9478 39.4074C16.1712 39.0185 16.3864 38.6626 16.5933 38.315C16.6512 38.224 16.7091 38.133 16.7671 38.0337L16.8747 37.8599C17.0402 37.5951 17.1974 37.3303 17.3629 37.0737C17.4457 36.9413 17.5284 36.8172 17.6112 36.6848L17.6939 36.5606C17.8512 36.3206 18.0084 36.0807 18.1656 35.8407C18.2815 35.6669 18.3973 35.4931 18.5132 35.3276C18.6704 35.0959 18.8359 34.8642 19.0015 34.6325C19.1173 34.4587 19.2414 34.2932 19.3573 34.1276C19.5228 33.8959 19.6966 33.6559 19.8704 33.4242L19.9614 33.3001C20.0524 33.1842 20.1352 33.0601 20.2262 32.9442C20.4166 32.696 20.6069 32.4394 20.8055 32.1912L20.9379 32.0174C20.9959 31.9429 21.0538 31.8602 21.12 31.7857C21.1696 31.7195 21.2193 31.6533 21.2689 31.5953C21.6 31.794 21.9062 31.9843 22.2041 32.1581C25.746 34.2435 29.6603 36.1055 33.8394 37.6944C32.5236 41.7742 31.4395 46.0857 30.612 50.5462C26.8963 51.4896 23.4785 53.4178 20.6979 56.1984C17.3629 59.5334 15.2609 63.7704 14.6072 68.3551H7.4075C7.4075 68.2475 7.43233 67.8916 7.43233 67.8916ZM21.2938 111.636C21.2441 111.57 21.1945 111.512 21.1448 111.446C21.0786 111.371 21.0207 111.288 20.9545 111.197L20.8303 111.032C20.64 110.783 20.4497 110.535 20.2593 110.287C20.1766 110.179 20.1021 110.072 20.0193 109.964L19.9035 109.799C19.7297 109.567 19.5642 109.335 19.3904 109.095C19.2663 108.93 19.1504 108.756 19.0263 108.59C18.8608 108.359 18.7035 108.127 18.538 107.895C18.4222 107.722 18.3063 107.548 18.1905 107.374C18.0332 107.134 17.876 106.894 17.7188 106.654L17.6608 106.563C17.5698 106.422 17.4788 106.29 17.3877 106.149C17.2222 105.893 17.0567 105.628 16.8995 105.363L16.7919 105.189C16.734 105.09 16.676 104.999 16.6181 104.9C16.4112 104.56 16.1961 104.196 15.9726 103.807L15.8733 103.642C15.6416 103.236 15.4099 102.822 15.1616 102.376C15.112 102.285 15.0623 102.194 15.0127 102.094L14.9216 101.92C14.7727 101.639 14.6237 101.358 14.4748 101.076C14.4086 100.952 14.3506 100.836 14.2927 100.712L14.21 100.547C14.0775 100.282 13.9451 100.017 13.8127 99.7523C13.7217 99.5702 13.6307 99.3799 13.5479 99.1978C13.4238 98.933 13.2996 98.6765 13.1755 98.4116C13.0928 98.2213 13.0017 98.0392 12.919 97.8489C12.7948 97.5758 12.679 97.311 12.5631 97.0379L12.5052 96.8972C12.4473 96.7565 12.3893 96.6241 12.3314 96.4834C12.2073 96.1855 12.0832 95.8876 11.9673 95.5897L11.8845 95.3828C11.8514 95.2918 11.8101 95.2007 11.777 95.1097C11.6114 94.6959 11.4542 94.2739 11.297 93.8436L11.2556 93.7277C11.0984 93.2891 10.9329 92.834 10.7673 92.3374C10.7342 92.2464 10.7011 92.1471 10.6763 92.0561L10.6101 91.8657C10.5025 91.5513 10.4032 91.2368 10.3039 90.9223C10.2625 90.7899 10.2212 90.6575 10.1798 90.5251L10.1301 90.3679C10.0391 90.0782 9.95635 89.7886 9.86532 89.4907C9.80739 89.292 9.74946 89.0934 9.69981 88.9031C9.61705 88.6135 9.54258 88.3238 9.4681 88.0342C9.41844 87.8356 9.36051 87.637 9.31086 87.4383C9.23638 87.1404 9.1619 86.8425 9.0957 86.5446L9.0626 86.4122C9.0295 86.2632 8.99639 86.1225 8.96329 85.9736C8.88881 85.6508 8.82261 85.3198 8.74813 84.9888L8.70675 84.7902C8.68192 84.6909 8.66537 84.5916 8.64055 84.4923C8.54124 83.9957 8.45021 83.5075 8.35918 83.0441L8.35091 83.0027C8.26815 82.531 8.1854 82.0427 8.10264 81.5048C8.08609 81.4055 8.07781 81.3145 8.06126 81.2152L8.03644 81.0166C7.98678 80.6773 7.93713 80.338 7.89575 79.9987C7.8792 79.858 7.86265 79.7173 7.8461 79.5849L7.82955 79.4111C7.78817 79.0966 7.75507 78.7822 7.72197 78.4677C7.69714 78.2608 7.68059 78.0539 7.66404 77.847C7.63094 77.5409 7.60611 77.2264 7.58128 76.9202C7.56473 76.7133 7.54818 76.5064 7.53163 76.2995C7.50681 75.9851 7.49025 75.6623 7.4737 75.3396C7.4737 75.3396 7.44888 74.9837 7.44888 74.8844H14.6486C15.3023 79.469 17.4043 83.7061 20.7393 87.0411C23.5199 89.8217 26.9294 91.7499 30.6533 92.6933C31.4809 97.1538 32.5733 101.465 33.9056 105.545C29.7265 107.134 25.8205 108.996 22.2703 111.081C21.9227 111.255 21.6165 111.437 21.2938 111.636ZM48.4787 131.704C48.1395 131.572 47.7753 131.423 47.3285 131.24L47.1547 131.166C47.0967 131.141 47.0471 131.125 46.9892 131.1C46.6085 130.943 46.203 130.769 45.7561 130.57L45.5161 130.463C45.061 130.256 44.5975 130.049 44.1424 129.825L44.0679 129.792C38.6888 127.219 33.6904 123.908 29.2051 119.953L29.1803 119.928C28.7831 119.58 28.3776 119.216 27.9886 118.852L27.9721 118.836C27.5831 118.471 27.1859 118.099 26.8135 117.735L26.797 117.718C26.4328 117.362 26.0604 116.99 25.6963 116.618C28.8741 114.764 32.3829 113.101 36.1234 111.661C37.5137 115.021 39.0861 118.207 40.8074 121.144C43.2155 125.241 45.8968 128.824 48.7849 131.82C48.7849 131.82 48.5781 131.745 48.4787 131.704ZM68.4889 135.792C60.2961 134.476 52.4758 128.112 46.4347 117.834C44.9368 115.285 43.5548 112.505 42.3218 109.567C50.4566 107.159 59.2617 105.81 68.4972 105.545V135.792H68.4889ZM68.4889 99.0157C58.4673 99.2806 48.9008 100.77 40.0377 103.435C38.9868 100.216 38.1013 96.8393 37.3896 93.347H68.4889V99.0157ZM68.4889 87.968H36.4379H35.9248C33.707 87.968 31.5885 87.5211 29.6686 86.7101C29.5196 86.6522 29.3789 86.586 29.23 86.5198C29.2051 86.5115 29.1803 86.4949 29.1638 86.4867C29.0479 86.4287 28.932 86.3791 28.8162 86.3212C28.7831 86.3046 28.75 86.288 28.7169 86.2715C28.6093 86.2136 28.4934 86.1556 28.3859 86.0977C28.361 86.0812 28.3279 86.0729 28.3031 86.0563C28.03 85.9074 27.7569 85.7501 27.4921 85.5929C27.4673 85.5764 27.4425 85.5598 27.4176 85.5515C27.31 85.4853 27.2025 85.4191 27.0949 85.3446C27.0618 85.3281 27.037 85.3033 27.0039 85.2867C26.8963 85.2122 26.7804 85.1377 26.6728 85.0633C26.6563 85.055 26.6397 85.0384 26.6232 85.0302C26.3666 84.8481 26.1184 84.6661 25.8701 84.4674C25.8453 84.4509 25.8287 84.4343 25.8039 84.4178C25.7046 84.335 25.6053 84.2523 25.506 84.1695C25.4812 84.153 25.4646 84.1364 25.4398 84.1116C25.3239 84.0123 25.2163 83.913 25.1005 83.8137C25.1005 83.8137 25.1005 83.8137 25.0922 83.8054C24.8605 83.5902 24.6288 83.3751 24.4054 83.1434C24.3888 83.1268 24.3722 83.1103 24.3557 83.0937C24.2564 82.9944 24.1654 82.8951 24.0661 82.7958C24.0495 82.7792 24.0412 82.771 24.0247 82.7544C23.7019 82.4068 23.3957 82.0427 23.1061 81.662C23.0978 81.6455 23.0895 81.6372 23.073 81.6207C22.982 81.4965 22.8909 81.3807 22.7999 81.2565C22.7999 81.2483 22.7916 81.2483 22.7916 81.24C22.5103 80.8428 22.2372 80.4373 21.9889 80.0152C21.9806 80.007 21.9806 79.9987 21.9724 79.9904C21.6413 79.4277 21.3434 78.8401 21.0786 78.236C20.6152 77.1685 20.2593 76.0513 20.0359 74.8761C19.8456 73.8831 19.738 72.8486 19.738 71.7977V71.417C19.738 69.133 20.218 66.9565 21.0786 64.9869C21.0786 64.9869 21.0786 64.9869 21.0786 64.9787C21.3434 64.3746 21.6413 63.787 21.9724 63.2243C21.9806 63.216 21.9806 63.2077 21.9889 63.1994C22.2372 62.7774 22.502 62.3719 22.7916 61.9747C22.7916 61.9664 22.7999 61.9664 22.7999 61.9581C22.8909 61.834 22.982 61.7098 23.073 61.594C23.0813 61.5774 23.0896 61.5692 23.1061 61.5526C23.3957 61.1719 23.7019 60.8078 24.0247 60.4602C24.0412 60.4437 24.0495 60.4354 24.0661 60.4189C24.1571 60.3196 24.2564 60.2203 24.3557 60.121C24.3722 60.1044 24.3888 60.0878 24.4054 60.0713C24.6288 59.8479 24.8605 59.6244 25.0922 59.4093C25.0922 59.4093 25.1005 59.4093 25.1005 59.401C25.2081 59.3017 25.3239 59.2024 25.4398 59.1031C25.4646 59.0865 25.4812 59.07 25.506 59.0451C25.6053 58.9624 25.7046 58.8796 25.8039 58.7969C25.8287 58.7803 25.8453 58.7638 25.8701 58.7472C26.1184 58.5486 26.3666 58.3665 26.6232 58.1845C26.6397 58.1762 26.6563 58.1597 26.6728 58.1514C26.7804 58.0769 26.888 58.0024 27.0039 57.9279C27.037 57.9114 27.0618 57.8866 27.0949 57.87C27.2025 57.8038 27.31 57.7293 27.4176 57.6631C27.4425 57.6466 27.4673 57.63 27.4921 57.6218C27.7569 57.4562 28.03 57.3073 28.3031 57.1583C28.3279 57.1418 28.361 57.1335 28.3859 57.117C28.4934 57.059 28.6093 57.0011 28.7169 56.9432C28.75 56.9266 28.7831 56.9101 28.8162 56.8935C28.932 56.8356 29.0479 56.7777 29.1638 56.728C29.1886 56.7197 29.2134 56.7032 29.23 56.6949C31.274 55.7598 33.5415 55.2384 35.9248 55.2384H36.4379H68.4889H75.0182H107.069H107.582C109.974 55.2384 112.241 55.7598 114.277 56.6949C114.302 56.7032 114.327 56.7197 114.343 56.728C114.459 56.7859 114.575 56.8356 114.691 56.8935C114.724 56.9101 114.757 56.9266 114.79 56.9432C114.898 57.0011 115.014 57.059 115.121 57.117C115.146 57.1335 115.179 57.1418 115.204 57.1583C115.477 57.3073 115.75 57.4645 116.015 57.6218C116.04 57.6383 116.065 57.6549 116.089 57.6631C116.197 57.7293 116.305 57.7955 116.412 57.87C116.445 57.8866 116.47 57.9114 116.503 57.9279C116.611 58.0024 116.727 58.0769 116.834 58.1514C116.851 58.1597 116.867 58.1762 116.884 58.1845C117.14 58.3665 117.389 58.5569 117.637 58.7472C117.662 58.7638 117.678 58.7803 117.703 58.7969C117.803 58.8796 117.902 58.9624 118.001 59.0451C118.026 59.0617 118.042 59.0782 118.067 59.1031C118.183 59.2024 118.291 59.3017 118.407 59.401C118.407 59.401 118.415 59.401 118.415 59.4093C118.647 59.6244 118.878 59.8396 119.102 60.0713C119.118 60.0878 119.135 60.1044 119.151 60.121C119.251 60.2203 119.342 60.3196 119.441 60.4189C119.458 60.4354 119.466 60.4437 119.482 60.4602C119.805 60.8078 120.111 61.1719 120.401 61.5526C120.409 61.5692 120.418 61.5774 120.434 61.594C120.525 61.7181 120.616 61.834 120.707 61.9581C120.707 61.9664 120.715 61.9664 120.715 61.9747C120.997 62.3719 121.27 62.7774 121.518 63.1994C121.526 63.2077 121.526 63.216 121.535 63.2243C121.866 63.787 122.164 64.3746 122.429 64.9787C123.289 66.9482 123.769 69.1247 123.769 71.4087V71.7894C123.769 72.8404 123.67 73.8665 123.471 74.8679C123.248 76.0347 122.892 77.1602 122.429 78.2277C122.429 78.2277 122.429 78.2277 122.429 78.236C122.164 78.8401 121.866 79.4277 121.535 79.9904C121.526 79.9987 121.526 80.007 121.518 80.0152C121.27 80.4373 121.005 80.8428 120.715 81.24C120.715 81.2483 120.707 81.2483 120.707 81.2565C120.616 81.3807 120.525 81.5048 120.434 81.6207C120.426 81.6372 120.418 81.6455 120.401 81.662C120.111 82.0427 119.805 82.4068 119.482 82.7544C119.466 82.771 119.458 82.7792 119.441 82.7958C119.35 82.8951 119.251 82.9944 119.151 83.0937C119.135 83.1103 119.118 83.1268 119.102 83.1434C118.878 83.3668 118.647 83.5902 118.415 83.8054C118.415 83.8054 118.415 83.8054 118.407 83.8137C118.299 83.913 118.183 84.0123 118.067 84.1116C118.042 84.1281 118.026 84.1447 118.001 84.1695C117.902 84.2523 117.803 84.335 117.703 84.4178C117.678 84.4343 117.662 84.4509 117.637 84.4674C117.389 84.6661 117.14 84.8481 116.884 85.0302C116.867 85.0384 116.851 85.055 116.834 85.0633C116.727 85.1377 116.619 85.2122 116.503 85.2867C116.47 85.3033 116.445 85.3281 116.412 85.3446C116.305 85.4108 116.197 85.4853 116.089 85.5515C116.065 85.5681 116.04 85.5846 116.015 85.5929C115.75 85.7584 115.477 85.9074 115.204 86.0563C115.179 86.0729 115.146 86.0812 115.121 86.0977C115.014 86.1556 114.898 86.2136 114.79 86.2715C114.757 86.288 114.724 86.3046 114.691 86.3212C114.575 86.3791 114.459 86.437 114.343 86.4867C114.319 86.4949 114.302 86.5115 114.277 86.5198C112.233 87.4549 109.966 87.9762 107.582 87.9762H107.069H75.0265H68.4889V87.968ZM106.126 93.347C105.414 96.8393 104.52 100.216 103.478 103.435C94.6146 100.77 85.0481 99.2806 75.0265 99.0157V93.347H106.126ZM75.0265 135.792V105.545C84.262 105.802 93.0588 107.159 101.202 109.567C99.9688 112.505 98.5868 115.285 97.089 117.834C91.0396 128.112 83.2192 134.476 75.0265 135.792ZM116.735 117.718L116.71 117.743C116.329 118.116 115.932 118.488 115.535 118.86C115.138 119.224 114.741 119.589 114.352 119.936L114.31 119.969C109.825 123.925 104.818 127.235 99.4475 129.801L99.3647 129.842C98.9013 130.057 98.4461 130.272 97.991 130.479L97.751 130.587C97.3041 130.785 96.8986 130.959 96.518 131.116C96.46 131.141 96.1787 131.257 96.1787 131.257C95.7401 131.439 95.3759 131.58 95.0284 131.72C94.9622 131.745 94.7304 131.836 94.7304 131.836C97.6186 128.841 100.3 125.257 102.708 121.161C104.429 118.231 106.01 115.045 107.392 111.677C111.141 113.109 114.65 114.772 117.819 116.634C117.471 116.99 117.099 117.362 116.735 117.718ZM136.091 75.3396C136.075 75.6623 136.05 75.9768 136.033 76.2995C136.017 76.5064 136 76.7133 135.984 76.9202C135.959 77.2347 135.934 77.5409 135.901 77.847C135.884 78.0539 135.86 78.2608 135.843 78.4677C135.81 78.7822 135.777 79.0966 135.735 79.4111L135.719 79.5849C135.702 79.7256 135.686 79.8663 135.669 79.9987C135.628 80.338 135.578 80.6773 135.529 81.0166L135.496 81.2234C135.479 81.3228 135.471 81.4138 135.454 81.5131C135.371 82.051 135.289 82.5392 135.206 83.0109L135.198 83.0523C135.115 83.5158 135.024 84.004 134.924 84.4923C134.908 84.5916 134.883 84.6909 134.858 84.7902L134.817 84.9888C134.751 85.3198 134.676 85.6426 134.602 85.9653C134.569 86.1143 134.536 86.2549 134.502 86.4039L134.469 86.5446C134.395 86.8425 134.329 87.1404 134.254 87.4383C134.205 87.637 134.155 87.8356 134.097 88.0342C134.022 88.3238 133.94 88.6135 133.865 88.9031C133.807 89.1017 133.758 89.3003 133.7 89.4989C133.617 89.7886 133.526 90.0865 133.435 90.3761L133.394 90.5251C133.352 90.6658 133.311 90.7982 133.269 90.9389C133.17 91.2533 133.071 91.5678 132.963 91.8823L132.897 92.0892C132.864 92.1802 132.839 92.2712 132.806 92.3623C132.632 92.8588 132.475 93.3139 132.318 93.7525L132.276 93.8684C132.119 94.2904 131.962 94.7208 131.796 95.1345C131.755 95.2338 131.722 95.3332 131.68 95.4325L131.606 95.6228C131.49 95.9207 131.366 96.2186 131.242 96.5083C131.184 96.649 131.126 96.7896 131.06 96.9303L131.002 97.0627C130.886 97.3358 130.77 97.6006 130.646 97.8737C130.563 98.0641 130.472 98.2544 130.39 98.4365C130.265 98.7013 130.15 98.9578 130.025 99.2226C129.934 99.4047 129.852 99.595 129.761 99.7771C129.628 100.042 129.496 100.307 129.363 100.572L129.272 100.745C129.214 100.861 129.148 100.985 129.09 101.101C128.941 101.383 128.792 101.664 128.643 101.945L128.544 102.127C128.494 102.218 128.445 102.309 128.403 102.4C128.155 102.856 127.923 103.269 127.7 103.667L127.592 103.84C127.369 104.229 127.154 104.585 126.947 104.924C126.897 105.007 126.839 105.098 126.79 105.181L126.666 105.38C126.5 105.644 126.343 105.901 126.177 106.166C126.095 106.298 126.012 106.431 125.921 106.555L125.846 106.671C125.689 106.911 125.532 107.151 125.375 107.391C125.259 107.564 125.143 107.738 125.027 107.912C124.87 108.144 124.704 108.375 124.547 108.607C124.431 108.781 124.307 108.946 124.183 109.12C124.017 109.352 123.844 109.584 123.67 109.824L123.579 109.948C123.488 110.064 123.405 110.188 123.314 110.304C123.124 110.552 122.942 110.8 122.743 111.048L122.611 111.222C122.553 111.305 122.486 111.379 122.429 111.462C122.379 111.528 122.329 111.594 122.28 111.652C121.957 111.454 121.651 111.272 121.344 111.09C117.803 109.004 113.888 107.142 109.709 105.553C111.041 101.474 112.134 97.162 112.961 92.7016C116.677 91.7581 120.095 89.8299 122.875 87.0494C126.21 83.7144 128.312 79.4773 128.966 74.8927H136.166C136.108 74.9837 136.091 75.3396 136.091 75.3396ZM128.916 68.3551C128.263 63.7704 126.161 59.5334 122.826 56.1984C120.045 53.4178 116.636 51.4896 112.912 50.5462C112.084 46.0857 110.992 41.7742 109.659 37.6944C113.839 36.1055 117.745 34.2435 121.295 32.1581C121.601 31.976 121.907 31.794 122.23 31.5953C122.28 31.6615 122.329 31.7195 122.379 31.7857C122.445 31.8684 122.511 31.9595 122.586 32.0505L122.702 32.1995C122.892 32.4477 123.082 32.6877 123.273 32.9442C123.364 33.0601 123.446 33.176 123.537 33.3001L123.637 33.4325C123.811 33.6642 123.976 33.8959 124.15 34.1276C124.274 34.2932 124.39 34.4669 124.514 34.6407C124.679 34.8724 124.837 35.1042 124.994 35.3359C125.11 35.5097 125.226 35.6834 125.35 35.8572C125.507 36.0972 125.664 36.3372 125.821 36.5772L125.888 36.6765C125.979 36.8172 126.07 36.9496 126.152 37.0903C126.318 37.3468 126.483 37.6116 126.641 37.8764L126.748 38.0502C126.806 38.1495 126.864 38.2406 126.922 38.3399C127.129 38.6792 127.336 39.035 127.568 39.424L127.675 39.606C127.907 40.0032 128.139 40.417 128.379 40.8639C128.428 40.9549 128.478 41.046 128.528 41.137L128.627 41.319C128.776 41.6004 128.925 41.8818 129.074 42.1631C129.14 42.2956 129.206 42.428 129.272 42.5604L129.339 42.701C129.471 42.9659 129.603 43.2224 129.727 43.4872C129.819 43.6693 129.91 43.8596 129.992 44.05C130.116 44.3148 130.241 44.5713 130.356 44.8361C130.439 45.0265 130.53 45.2168 130.613 45.3989C130.737 45.6637 130.853 45.9368 130.969 46.2099L131.027 46.334C131.085 46.4747 131.151 46.6154 131.209 46.756C131.333 47.0457 131.449 47.3436 131.573 47.6415L131.656 47.8401C131.697 47.9394 131.73 48.0305 131.772 48.1298C131.937 48.5435 132.094 48.9739 132.252 49.3959L132.293 49.5118C132.458 49.9504 132.616 50.4138 132.781 50.9021C132.814 50.9931 132.847 51.0924 132.872 51.1834L132.938 51.3738C133.046 51.6882 133.145 52.0027 133.245 52.3172C133.286 52.4579 133.327 52.5985 133.377 52.7392L133.418 52.8799C133.509 53.1695 133.592 53.4592 133.675 53.7571C133.733 53.9557 133.791 54.1543 133.84 54.3529C133.923 54.6426 133.998 54.9322 134.072 55.2219C134.122 55.4205 134.18 55.6191 134.229 55.8177C134.304 56.1156 134.378 56.4135 134.445 56.7115L134.486 56.877C134.519 57.0094 134.552 57.1501 134.585 57.2825C134.66 57.6052 134.726 57.9362 134.8 58.259L134.85 58.4824C134.867 58.5734 134.891 58.6645 134.908 58.7555C135.007 59.252 135.098 59.732 135.189 60.2037L135.198 60.2451C135.28 60.7168 135.363 61.205 135.446 61.7429C135.462 61.834 135.471 61.925 135.487 62.016L135.52 62.2312C135.57 62.5705 135.62 62.9098 135.661 63.2491C135.678 63.3898 135.694 63.5305 135.711 63.6794L135.727 63.8366C135.769 64.1511 135.802 64.4656 135.835 64.7801C135.86 64.9869 135.876 65.1938 135.901 65.4007C135.934 65.7069 135.959 66.0214 135.984 66.3276C136 66.5345 136.017 66.7413 136.033 66.9482C136.058 67.2627 136.075 67.5854 136.091 67.9082C136.091 67.9082 136.116 68.264 136.116 68.3633H128.916V68.3551Z" fill="#077C75"/>
</svg>
