<svg width="79" height="87" fill="none" xmlns="http://www.w3.org/2000/svg"><path fill-rule="evenodd" clip-rule="evenodd" d="M78.17 40.596c0-25.605-9.02-37.35-39.085-37.35S0 14.99 0 40.596c0 18.222 4.568 29.425 18.04 34.37v8.62c0 3.174 3.98 4.624 6.043 2.201l6.952-8.165c2.498.217 5.178.324 8.05.324 30.066 0 39.086-11.745 39.086-37.35zM32.697 71.733c1.993.158 4.12.237 6.39.237 25.44 0 33.071-9.866 33.071-31.374S64.525 9.222 39.085 9.222 6.013 19.088 6.013 40.596c0 15.203 3.813 24.589 15.033 28.785v12.772c0 1.113 1.397 1.622 2.12.772l9.53-11.192z" fill="#BFC8D0"/><path d="M39.085 69.844a81.63 81.63 0 01-6.473-.241l-9.652 11.38c-.733.865-2.148.348-2.148-.784V67.212C9.446 62.944 5.584 53.4 5.584 37.94c0-21.871 7.73-31.903 33.501-31.903 25.77 0 33.502 10.032 33.502 31.903 0 21.87-7.731 31.903-33.502 31.903z" fill="#9179EE"/><path fill-rule="evenodd" clip-rule="evenodd" d="M78.171 37.804c0-25.605-9.02-37.35-39.085-37.35C9.02.454 0 12.2 0 37.804c0 18.222 4.569 29.426 18.04 34.37v8.621c0 3.173 3.981 4.623 6.044 2.2l6.951-8.164a93.6 93.6 0 008.05.323c30.066 0 39.086-11.745 39.086-37.35zM32.696 68.941c1.993.159 4.12.237 6.39.237 25.44 0 33.072-9.866 33.072-31.374S64.526 6.43 39.086 6.43c-25.44 0-33.072 9.866-33.072 31.374 0 15.203 3.813 24.589 15.033 28.786v12.77c0 1.114 1.396 1.622 2.12.772l9.53-11.192z" fill="#fff"/><path d="M39.986 14.413c-.846 0-1.531.645-1.531 1.441s.685 1.44 1.53 1.44c10.147 0 18.372 7.742 18.372 17.292 0 .796.686 1.441 1.531 1.441.846 0 1.531-.645 1.531-1.44 0-11.142-9.596-20.174-21.433-20.174zm-19.599 4.701c.868-.42 2.397-.633 3.273.136 1.095.96 2.783 2.643 3.942 4.112 1.16 1.468 2.783 3.705 3.015 4.202.232.497.49 2.26-.67 3.321-.928.85-2.139 1.604-2.628 1.875-.456.377-1.201 1.483-.541 2.892.824 1.763 2.602 5.22 5.668 7.795 3.067 2.576 6.313 3.931 8.349 4.36.13 0 .295.03.488.063.69.121 1.718.301 2.604-.582a36.45 36.45 0 002.035-2.214c.473-.482 1.845-1.301 3.556-.723 2.139.723 4.586 2.305 5.694 3.05.887.596 2.86 2.01 3.736 2.643.533.385 1.423 1.528.722 3.028-.876 1.875-4.612 6.01-7.962 6.01-1.237 0-13.192-3.186-23.757-12.178-6.748-5.744-12.557-15.71-13.553-19.069-.378-.798-.824-2.765.412-4.248 1.237-1.482 2.629-3.027 5.617-4.473zm19.599 6.826c-.846 0-1.531.646-1.531 1.441 0 .796.685 1.441 1.53 1.441 3.383 0 6.124 2.58 6.124 5.764 0 .796.686 1.441 1.531 1.441.846 0 1.531-.645 1.531-1.44 0-4.776-4.112-8.647-9.185-8.647z" fill="#fff"/><path d="M38.455 21.618c0-.796.685-1.441 1.53-1.441 8.456 0 15.31 6.451 15.31 14.41 0 .795-.685 1.44-1.53 1.44-.846 0-1.532-.645-1.532-1.44 0-6.367-5.483-11.528-12.247-11.528-.846 0-1.531-.646-1.531-1.441z" fill="#fff"/></svg>