<svg width="158" height="85" fill="none" xmlns="http://www.w3.org/2000/svg"><path fill-rule="evenodd" clip-rule="evenodd" d="M121.529 47.742c-7.074 1.881-19.688 6.828-27.585 9.462-3.51 1.183-3.62 2.58-1.371 4.892 3.949 4.033 8.829 10 13.107 14.517 6.033 6.397 7.239 11.828 16.124 5.645 1.535-1.022 3.29-3.065 4.222-5.108 2.139-4.785-.329-17.312-1.151-24.193-.274-2.635.055-6.13-3.346-5.215zM9.159 57.634c-1.372 1.667-6.143 4.731-5.266 8.333 4.278 17.957 143.028-25.43 153.284-47.365 3.235-6.936-3.62-16.076-11.188-12.473-3.181 1.505-21.717 9.946-23.089 10.269l.384-5.216 12.34-5.537 3.784-1.828c-14.917-1.452-32.137 4.677-44.093 9.3-1.371.538-3.784 1.668-5.155 1.399l-16.124-4.14c-7.239-1.99-14.259-3.602-21.553-5.591-5.155-1.398-17.33-5-22.21-4.785-4.717.215-12.724 3.656-13.602 6.828-.658 2.258.44 3.71 1.7 4.623 3.894 2.85 31.59 19.839 32.632 20.914L32.355 42.526c-3.784 2.043-2.523 1.775-6.471-.16-4.113-2.044-8.446-4.57-12.778-6.667-2.304-1.13-5.046-1.99-8.062-1.183-11.627 2.957-.165 16.021 4.113 23.118z" fill="#E31B1B"/></svg>