<svg width="346" height="757" fill="none" xmlns="http://www.w3.org/2000/svg"><g opacity=".5" clip-path="url(#clip0)" fill="#fff"><path d="M299.436 718.295l-.833-.245s-.377 1.131 1.054 5.995c.029.075-1.142.025-1.224.204.186 1.422 1.083 4.248 2.421 5.678-.917-.269-1.055-.016-1.467.144a22.108 22.108 0 002.403 4.835s-1.023-.025-1.446.412c.4 1.14 3.015 4.467 3.733 5.412a1.579 1.579 0 01-.991-.036c.655 1.456 1.809 2.423 2.631 3.189-.225.027-.577.295-.782.343.667 1.402 1.92 2.564 3.066 3.477-.346.386-.869.405-1.324.564.507 1.164 3.213 2.766 4.379 3.211l2.429-2.273c.095-.499-.491-4.127-1.526-4.899-.325.387-.467.991-.741 1.431-.559-2.732-1.388-4.351-1.388-4.351s-.662.005-1.266.693c-.086-3.072-1.409-6.175-1.409-6.175s-.825.363-1.059.848c.23-3.491-.671-5.432-.671-5.432s-.888.053-1.274.373c.558-2.16-.576-5.684-.576-5.684s-.653-.187-1.754 1.149c.661-2.051 1.179-3.765.448-5.68-.413-.064-.646.399-1.025.55.642-1.871.803-3.966.757-5.95-.365.055-.6.337-.845.586.196-.613.282-2.966.282-2.966s-.311.045-.654.346c.172-.55.634-1.413.581-1.936l-1.664 1.312c-.402 1.215-.265 4.875-.265 4.875zm23.896-7.683c.446-.213.831-.512 1.086-.996-.802-1.235-3.181-1.22-4.553-.796.272-.132.581-.38.699-.654-2.006-.744-4.523-1.009-6.576-.357 1.3-1.257-.278-1.009-1.118-.817-1.883.411-2.856.728-4.68 1.247.658-.186 1.18-.674.754-1.217-1.013-1.284-5.416 3.083-6.771 3.614l-.355.577c2.858-1.549 6.017-2.13 8.861-2.027 3.779.148 6.981 1.39 9.445 2.667a33.364 33.364 0 015.469 3.644c1.197.989 1.801 1.591 1.779 1.611-.033.031-.683-.507-1.914-1.423-1.243-.905-3.056-2.197-5.51-3.442-2.446-1.212-5.586-2.389-9.239-2.491-2.737-.101-5.822.493-8.561 1.991.999.356 2.588 1.387 3.489 1.772 1.268.554 3.312.381 1.767-1.469.793.936 6.747 3.452 4.99.285.879.651 1.689 1.449 2.668 2.007.896.512 2.055.595 1.778-.436.705 1.51 2.37 2.778 3.855 3.231.395-.268.636-.677.526-1.128.216 1.232 3.698 3.44 4.241 1.642-.061-.066-.122-.153-.192-.25 1.066 1.028 3.781 3.217 4.674 1.46.894-1.758-2.533-4.242-3.763-4.934 1.597-.205 1.485-1.614.432-2.451-.859-.65-2.214-1.143-3.281-.86zm-4.728-20.86c-.839-.586-5.46 1.302-6.182 1.998.828-.939.185-1.136-.712-.85-1.73.575-2.894 1.665-4.192 2.88.801-1.078.491-2.589-.985-1.453-1.289 1.001-2.84 2.924-3.005 4.593-.106-.29-.234-.784-.555-.771-1.238.033-1.809 2.758-1.403 4.015-.137-.28-.384-.766-.642-.709-1.229.311-1.205 2.582-1.126 3.511.049.609.419 1.204.417 1.78-.714-.786-1.824-.504-1.492.74.248.976.085 2.091 1.552 4.26-.106-1.559.213-3.086.623-4.493.554-1.809 1.39-3.45 2.314-4.909a22.588 22.588 0 016.39-6.512 23.275 23.275 0 015.478-2.751c1.363-.477 2.158-.628 2.157-.607.01.032-.746.248-2.089.769a25.154 25.154 0 00-5.344 2.85c-2.097 1.472-4.381 3.589-6.195 6.453-.912 1.427-1.714 3.037-2.256 4.793-.457 1.513-.782 3.189-.562 4.825.646-.666 3.381-3.635.966-3.259 1.21-.374 2.003-1.239 2.926-2.165 1.035-1.029 1.615-2.432-.336-1.916 1.029-.39 2.046-1.771 2.69-2.661-.241-.368-.619-.506-1.019-.622 1.151.007 2.133-.523 3.077-1.181.538-.381 1.505-1.327.748-1.58 1.331.044 3.802-.917 3.333-1.952a.25.25 0 00-.143-.153c1.065.027 2.278-.146 3.008-.788.509-.456.457-1.513-.498-1.377.652-.282 4.218-1.94 3.057-2.758zm-21.571 16.726c-1.021-1.092-1.967-.145-1.631 1.035-.562-.355-.926-1.078-1.485-1.497-.858-.65-3.094-2.039-4.118-.999-.222.229.097.749.287 1.063-.997-1.176-4.013-2.243-4.777-1.037-.205.315.193.741.416 1.023-1.725-.842-4.566-.476-6.322.204-2.027.791-.734 2.018.819 1.875-1.986.569-3.755 1.057-5.358 2.435-.83.714-1.021 1.466.397 1.225-1.122.313-5.764 3.756-5.697 4.962.092 1.655 3.887-.893 4.547-1.388-.707.866.308 1.574 1.054 1.326 1.071-.346 1.969-1.453 2.589-2.525a.398.398 0 00.076.237c.733 1.095 3.168-.795 3.927-2.14-.218.9 1.301.523 2.007.21 1.227-.534 2.332-1.199 3.03-2.344-.137.477-.209.933-.005 1.397 1.263-.097 3.233-.282 4.225-1.067-1.688 1.62.028 1.898 1.666 1.491 1.465-.368 2.799-.633 3.895-1.618-1.839 2.192 2.742 1.263 3.776 1.011-1.475-1.198-3.303-1.884-5.053-2.354-2.048-.52-4.109-.7-6.052-.663a26.292 26.292 0 00-10.087 2.294 29.75 29.75 0 00-6.014 3.601c-1.321 1.012-1.988 1.656-2.029 1.612-.02-.022.606-.71 1.897-1.775a27.305 27.305 0 016.022-3.793 26.312 26.312 0 0110.242-2.418c1.996-.046 4.09.124 6.211.656 1.635.436 3.306 1.043 4.776 2.103-1.239-2.792-2.434-3.291-3.231-4.142z"/><path d="M295.983 732.458c.927 1.569 3.118-.625.448-5.701 1.957-.399.924-3.772.353-4.937 2.112 1.279 1.606-2.731.838-4.53.979.557 1.732-.639.922-2.972.792.446.756-1.015.631-1.86-3.571 5.41-5.005 11.215-5.167 15.4-.214 4.396.583 7.049.487 7.057-.066.041-1.034-2.594-.924-7.079.056-4.187 1.416-10.005 4.914-15.449-1.57.835-5.406 3.073-2.381 3.17-1.158.674-2.461 1.239-3.42 2.259-1.027 1.104-.527 1.639.748 1.245-.81.757-2.377 2.04-2.594 3.164-.121.605.19 1.337.791 1.001-.974.849-2.041 1.91-1.639 3.273.354-.044.691-.217.947-.477-1.35 1.714-1.97 4.854-.261 4.523.28-.057.885-.255 1.003-.529-.662 1.316-.465 4.817 1.012 4.683.214-.016.405-.256.53-.434-.099.85.927 2.592 1.837 2.252 1.462-.549 1.403-2.725.925-4.059zm-13.351-9.064c.9 1.451 2.898-.972 3.65-1.614-.178 1.456 1.052 1.881 2.067 1.075 1.146-.909 1.385-2.565 1.431-3.939 1.032 1.369 2.349-1.093 1.863-3.279.97 1.303 2.113-.032 3.124-2.309-3.891 1.266-6.781 3.848-8.571 5.871-1.992 2.274-2.85 3.936-2.933 3.891-.063-.023.671-1.795 2.625-4.176 1.64-2.005 4.335-4.528 8.019-5.928-1.329-.107-3.582-.292-4.129-.21-1.041.155-1.41.828-.195 1.104-1.221-.127-4.057.111-4.238 1.919-.026.372.451.437.845.437-1.498.133-4.242 1.492-3.374 2.953.2.325.769-.024 1.132-.036-.638.72-1.857 3.396-1.316 4.241zm8.028-22.192c-.691.484-.027 1.438.505 1.718 1.2.659 2.48.115 3.674.145-.726.536-.184 1.36.442 1.674.669.337 1.492.304 2.239.28-.69-1.36-1.645-2.514-2.619-3.466a21.788 21.788 0 00-3.533-2.774c-2.16-1.397-3.664-1.915-3.64-1.978.024-.063 1.595.37 3.822 1.705a20.768 20.768 0 013.662 2.757c.974.93 1.94 2.074 2.662 3.445.109-.573.319-1.772.236-2.349-.169-1.092-.763-2.46-1.518-3.289-1.051-1.146-1.05.389-1.285 1.183-.417-.512-.585-1.337-.966-1.922-.562-.845-1.27-1.535-2.202-1.952-1.005-.452-1.687-.469-1.225.758-1.081-1.2-2.983-3.433-4.886-2.553-2.391 1.091 1.212 3.185 2.177 3.593-1.109-.006-2.435.6-1.656 1.877.73 1.18 2.881 1.501 4.111 1.148zm24.839-.806c.213-.261.801-.544.652-.815-.697-1.19-3.329.311-4.258 1.365.225-.293.433-.672.118-.786-1.556-.551-3.323 1.451-3.896 2.396.447-.991-.3-.988-1.002-.27-.366.364-1.472 2.095-2.112 3.123 3.172-2.169 6.711-3.189 9.225-3.638 3.008-.521 4.858-.389 4.834-.326-.003.085-1.837.082-4.773.68-2.636.541-6.309 1.685-9.489 4.068 2.405.124 4.125-.216 3.599-1.423 1.508 1.189 4.218 1.171 3.684-.111 1.131.498 2.616.951 3.981.452 1.212-.439 1.544-1.507.271-1.933.93-.318 4.003-.859 3.317-2.081-.375-.734-3.227-.869-4.151-.701z"/></g><g opacity=".5" clip-path="url(#clip1)" fill="#fff"><path d="M45.29 337.858l-30.77-23.431c-.4-.305-.942-.195-1.222.218L2.61 330.432a.963.963 0 00.195 1.298l30.757 23.422c.4.304.942.195 1.223-.219l10.687-15.787a.949.949 0 00-.182-1.288zm-9.92-2.393l.218.166c.155.118.2.34.088.506a.338.338 0 01-.48.074l-.219-.167a.375.375 0 01-.087-.506c.124-.155.325-.191.48-.073zm-1.644 2.426l.22.167c.154.118.199.34.087.506a.338.338 0 01-.48.073l-.219-.167a.374.374 0 01-.087-.505c.125-.156.325-.191.48-.074zm-1.503 2.22l.22.167c.154.118.199.34.087.505a.337.337 0 01-.48.074l-.219-.167a.374.374 0 01-.087-.505c.125-.156.325-.192.48-.074zm1.91-5.588l.218.167c.155.117.2.339.088.505a.338.338 0 01-.48.074l-.219-.167a.375.375 0 01-.087-.506.348.348 0 01.48-.073zm-1.644 2.426l.22.167c.154.118.199.34.087.506a.338.338 0 01-.48.073l-.219-.167a.374.374 0 01-.087-.505.347.347 0 01.48-.074zm-1.502 2.22l.219.167c.154.118.199.34.087.505a.337.337 0 01-.48.074l-.219-.167a.374.374 0 01-.087-.505.347.347 0 01.48-.074zm1.921-5.578l.22.166c.154.118.199.34.087.506a.338.338 0 01-.48.073l-.219-.166a.375.375 0 01-.087-.506.328.328 0 01.479-.073zm-1.643 2.426l.22.167c.154.118.199.34.087.505a.337.337 0 01-.48.074l-.219-.167a.374.374 0 01-.087-.505.327.327 0 01.48-.074zm-1.503 2.22l.22.167c.154.118.199.34.087.505a.337.337 0 01-.48.074l-.219-.167a.374.374 0 01-.087-.505.327.327 0 01.48-.074zm1.91-5.588l.218.166c.155.118.2.34.088.506a.338.338 0 01-.48.073l-.219-.166a.375.375 0 01-.087-.506c.125-.155.324-.191.48-.073zm-1.644 2.426l.22.167c.154.118.199.34.087.505a.337.337 0 01-.48.074l-.219-.167a.374.374 0 01-.087-.505c.125-.156.325-.192.48-.074zm-1.503 2.22l.22.167c.154.118.199.34.087.505a.337.337 0 01-.48.074l-.219-.167a.374.374 0 01-.087-.505c.125-.156.325-.192.48-.074zm1.922-5.579l.219.167c.155.118.2.34.087.506a.338.338 0 01-.479.073l-.22-.167a.374.374 0 01-.086-.505.329.329 0 01.479-.074zm-1.643 2.427l.22.167c.154.118.199.34.087.505a.337.337 0 01-.48.074l-.219-.167a.374.374 0 01-.087-.505.327.327 0 01.48-.074zm-1.503 2.22l.22.167c.154.117.199.34.087.505a.337.337 0 01-.48.074l-.219-.167a.374.374 0 01-.087-.505.327.327 0 01.48-.074zm1.909-5.589l.219.167c.155.118.2.34.088.506a.338.338 0 01-.48.073l-.22-.166a.375.375 0 01-.087-.506.329.329 0 01.48-.074zm-1.643 2.427l.22.167c.154.118.199.34.087.505a.337.337 0 01-.48.074l-.219-.167a.374.374 0 01-.087-.505.327.327 0 01.48-.074zm-1.503 2.22l.22.167c.154.118.199.34.087.505a.337.337 0 01-.48.074l-.219-.167a.374.374 0 01-.087-.505.327.327 0 01.48-.074zm1.909-5.589l.22.167c.154.118.198.34.086.506a.338.338 0 01-.479.073l-.219-.166a.375.375 0 01-.087-.506c.124-.156.324-.191.479-.074zm-1.643 2.427l.22.167c.154.118.199.34.087.505a.337.337 0 01-.48.074l-.219-.167a.374.374 0 01-.087-.505c.125-.156.325-.192.48-.074zm-1.503 2.22l.22.167c.154.118.199.34.087.505a.337.337 0 01-.48.074l-.219-.167a.374.374 0 01-.087-.505c.125-.156.325-.192.48-.074zm1.922-5.579l.219.167c.155.118.2.34.087.506a.338.338 0 01-.48.073l-.218-.167a.374.374 0 01-.088-.505.329.329 0 01.48-.074zm-1.643 2.427l.22.167c.154.118.199.34.087.505a.337.337 0 01-.48.074l-.219-.167a.374.374 0 01-.087-.505.327.327 0 01.48-.074zm.406-3.369l.219.167c.155.118.2.34.087.506a.338.338 0 01-.48.073l-.218-.167a.374.374 0 01-.088-.505c.125-.156.325-.191.48-.074zm-1.643 2.427l.22.167c.154.118.199.34.087.505a.337.337 0 01-.48.074l-.219-.167a.374.374 0 01-.087-.505c.125-.156.325-.192.48-.074zm-1.503 2.22l.22.167c.154.117.199.34.087.505a.338.338 0 01-.48.074l-.219-.167a.374.374 0 01-.087-.505c.125-.156.325-.192.48-.074zm-9.292-5.342l.995-2.795-1.202-.476 1.028-.826-1.679-2.365 2.62 1.033.457-1.281.769 1.086 2.25-1.796-.994 2.795 1.202.476-1.028.826 1.67 2.38-2.62-1.034-.458 1.281-.768-1.086-2.242 1.782zm1.858 6.89c-.373-.284-.01-.822-.228-.989-.168-.128-.323.13-.35.172l-.953 1.406c-.373.552.203.594-.011.911-.094.138-.31.286-1.11-.323-.219-.166-1.027-.761-.784-1.119.168-.249.373.054.562-.053.104-.067.317-.323.391-.433l.72-.977c.34-.473.25-.542.198-.581-.193-.147-.647.322-.995.057-.168-.128-.159-.371-.047-.537.262-.386.916-.661 1.161-.474.026.019.068.072.136.145s.175.175.355.312l1.057.805c.18.137.28.192.353.227.074.036.11.041.2.11.167.128.272.751-.064 1.248-.153.197-.371.26-.59.093zm.897 3.002c.056.148.14.254.048.392-.094.138-.272.315-1.213-.401-.18-.138-.722-.55-.516-.853.102-.152.254-.058.396-.095.098-.03.249-.166.678-.8l.308-.455c.393-.579.447-.747.442-.855-.01-.216-.168-.358-.056-.523.224-.331 1.1.336 1.178.395.258.196.777.613.571.916-.112.165-.27.024-.444.079-.143.038-.436.442-.66.773l-.308.455c-.538.823-.477.849-.424.972zm2.59 1.597c.542.412.847.164.976.262.128.098.077.289-.007.413-.14.207-.613.473-.832.306-.142-.108-.629-.081-1.131-.464-.902-.687-1.123-2.004-.498-2.928.635-.938 1.945-1.027 2.796-.379.425.324.546.75.65.829.09.069.134.061.211.119.18.138.216.604-.13 1.114-.176.262-.468.375-.725.179-.438-.334.216-1.069-.545-1.648-.335-.255-.688-.022-.856.226-.457.675-.514 1.51.092 1.971zm4.705-5.132a.338.338 0 01.48-.073l.218.167c.155.117.2.34.088.505a.338.338 0 01-.48.074l-.219-.167a.388.388 0 01-.087-.506zm-.807 9.27l-.735-.56c-.168-.127-.158-.141-.19-.499l-.034-.612c-.012-.155-.033-.673-.136-.751-.116-.088-.213.026-.297.15l-.065.097c-.15.22.112.44-.047.674-.103.152-.3.211-1.046-.358-.683-.52-.677-.703-.574-.854.159-.235.294.056.607-.291.216-.232.412-.522.589-.784.196-.289.42-.62.568-.925.22-.439-.134-.437.062-.726.047-.069.185-.361 1.126.356.206.157.644.49.43.807-.168.249-.298-.08-.662.458-.037.055-.13.193-.053.252.116.088.768-.126.843-.236.065-.096.029-.187.103-.297.234-.345.782.115.988.272.206.157.728.512.504.843-.252.372-.554-.192-.808-.135-.155.028-.703.029-.833.222-.084.124-.056.313-.048.445l.152 1.766c.026.25.293.432.107.708-.146.244-.384.105-.551-.022zm3.029 2.39c-.026-.02-.094-.092-.175-.175-.08-.082-.2-.194-.342-.302l-1.765-1.344c-.284-.216-.19-.354-.153-.409.168-.248.334.17.686-.293.621-.801.565-.719 1.086-1.575.45-.723-.127-.62.088-.937.186-.276.52.04.7.178l1.237.942c.58.441.722.404.787.453.244.186.04.72-.091.913-.103.151-.276.291-.443.164-.335-.255.234-.491-.578-1.109-.477-.363-.49-.227-.845.297-.178.262-.174.286.084.482.322.245.422-.452.732-.216.245.186-.084.73-.206.909-.13.193-.53.725-.787.529-.27-.206.326-.483-.112-.816-.18-.138-.301.042-.395.179-.457.676-.39.664.06 1.008.877.667 1.07-.168 1.418.097.142.108.095.323.01.447-.214.317-.829.706-.996.578zm4.688.373c-.374-.285-.01-.822-.229-.989-.167-.128-.322.13-.35.172l-.952 1.406c-.374.552.203.594-.012.911-.093.138-.31.286-1.11-.323-.218-.166-1.027-.761-.784-1.119.168-.249.373.054.563-.053.104-.067.316-.323.39-.433l.72-.977c.34-.473.25-.542.199-.581-.194-.147-.648.322-.996.057-.167-.128-.158-.372-.046-.537.261-.386.916-.661 1.16-.474.026.019.069.072.137.145.067.073.174.175.354.312l1.057.805c.18.137.28.192.354.227.073.036.109.041.199.11.167.128.273.751-.063 1.247-.166.188-.385.251-.591.094zm3.24-3.864l-.206-.157a.374.374 0 01-.087-.505.337.337 0 01.48-.074l.218.167c.155.118.2.34.088.505a.362.362 0 01-.492.064zm1.513-2.233l-.206-.157a.375.375 0 01-.088-.506.338.338 0 01.48-.073l.219.166c.154.118.2.34.087.506a.352.352 0 01-.492.064zm1.633-2.413l-.206-.157a.375.375 0 01-.087-.506.338.338 0 01.48-.073l.218.166c.155.118.2.34.088.506a.363.363 0 01-.493.064zm-1.909 5.588l-.219-.167a.374.374 0 01-.087-.505.338.338 0 01.48-.074l.219.167c.154.118.199.34.087.506a.338.338 0 01-.48.073zm1.513-2.233l-.22-.167a.375.375 0 01-.087-.506.338.338 0 01.48-.073l.219.166c.154.118.2.34.087.506a.329.329 0 01-.48.074zm1.633-2.413l-.219-.167a.375.375 0 01-.087-.506.338.338 0 01.48-.073l.218.167c.155.117.2.34.088.505a.338.338 0 01-.48.074zm-1.908 5.588l-.22-.167a.374.374 0 01-.087-.505.338.338 0 01.48-.074l.219.167c.154.118.199.34.087.506-.116.141-.325.191-.48.073zm1.512-2.233l-.22-.167a.375.375 0 01-.087-.506.338.338 0 01.48-.073l.219.166c.154.118.2.34.087.506-.125.156-.325.191-.48.074zm1.633-2.413l-.219-.167a.375.375 0 01-.087-.506.338.338 0 01.48-.073l.218.167c.155.117.2.34.088.505-.116.142-.325.191-.48.074zm-1.921 5.578l-.22-.166a.375.375 0 01-.087-.506.338.338 0 01.48-.074l.219.167c.154.118.2.34.087.506a.338.338 0 01-.48.073zm1.512-2.233l-.22-.167a.375.375 0 01-.087-.506.338.338 0 01.48-.073l.219.167c.154.117.2.34.087.505a.329.329 0 01-.48.074zm1.633-2.413l-.219-.167a.374.374 0 01-.087-.505.337.337 0 01.48-.074l.218.167c.155.117.2.34.088.505a.337.337 0 01-.48.074z"/><path d="M50.352 333.208l-21.902-32.81a.842.842 0 00-1.228-.204l-14.886 11.315c-.4.302-.483.886-.203 1.309l.691 1.027a1.683 1.683 0 012.235-.157l5.631 4.288.938-.665c.476-.327.404-.424.35-.486-.135-.207-.719.08-.957-.29-.117-.173-.038-.405.116-.517.368-.284 1.071-.313 1.247-.054.016.034.036.091.086.191.049.1.115.234.232.407l.75 1.114c.133.206.201.279.266.328.064.049.103.078.161.165.118.173.029.794-.43 1.155-.214.172-.434.15-.594-.075-.264-.389.25-.772.1-1.012-.118-.173-.341.013-.382.044l-.717.541 1.559 1.187c.346-.28.42-.39.432-.465.06-.205-.048-.392.116-.518.317-.238.937.693.995.779.19.269.548.835.253 1.07-.154.112-.272-.06-.447-.09a.475.475 0 00-.228.077l1.146.874c.455.137.876.437 1.144.849.013.01.016.034.016.034l9.071 6.908a.324.324 0 01.557-.015l.16.226c.071.096.08.228.04.344l5.76 4.386a.21.21 0 01.069-.073.324.324 0 01.469.086l.16.226c.07.096.08.228.049.33l2.654 2.021c.155.118.291.264.395.427l3.942-2.996c.368-.284.464-.858.184-1.281zm-23.306-21.822l-.811 1.054-.39-1.3-2.665.937 1.775-2.305-.984-.853 1.225-.426-.872-2.837 2.165 1.879.811-1.054.39 1.299 2.665-.937-1.784 2.319.984.854-1.225.425.859 2.827-2.143-1.882zm11.565 12.108a.324.324 0 01.47.086l.159.226a.4.4 0 01-.072.509.323.323 0 01-.47-.085l-.159-.226a.402.402 0 01.072-.51zm-.87-1.31a.323.323 0 01.469.085l.16.226a.402.402 0 01-.072.51.324.324 0 01-.47-.086l-.16-.226c-.116-.173-.082-.397.073-.509zm-.884-1.321a.324.324 0 01.47.086l.16.226a.402.402 0 01-.073.51.324.324 0 01-.469-.086l-.16-.226a.402.402 0 01.072-.51zm-.87-1.31a.323.323 0 01.47.085l.159.226a.402.402 0 01-.072.51.324.324 0 01-.47-.086l-.159-.226c-.117-.173-.082-.397.072-.509zm-.883-1.321a.324.324 0 01.47.086l.159.226a.402.402 0 01-.072.51.324.324 0 01-.47-.086l-.159-.226a.402.402 0 01.072-.51zm-.87-1.31a.322.322 0 01.469.086l.16.225a.402.402 0 01-.072.51.322.322 0 01-.47-.086l-.16-.226c-.116-.172-.082-.397.073-.509zm-3.826 4.15a.324.324 0 01-.469-.086l-.16-.226a.4.4 0 01.072-.509.323.323 0 01.47.085l.16.226c.094.177.06.401-.073.51zm1.47-1.911a.402.402 0 01.072-.51.324.324 0 01.469.086l.16.226a.402.402 0 01-.072.51.324.324 0 01-.47-.086l-.159-.226zm-.6 3.221a.323.323 0 01-.468-.085l-.16-.226a.402.402 0 01.072-.51.324.324 0 01.469.086l.16.226c.107.186.082.397-.072.509zm1.47-1.91a.402.402 0 01.072-.51.322.322 0 01.47.086l.159.225a.401.401 0 01-.072.51.322.322 0 01-.47-.086l-.159-.225zm-.599 3.221a.324.324 0 01-.47-.086l-.159-.226a.4.4 0 01.072-.509.323.323 0 01.47.085l.159.226c.117.173.082.398-.072.51zm1.483-1.901a.402.402 0 01.071-.51.324.324 0 01.47.086l.159.226a.4.4 0 01-.072.509.323.323 0 01-.469-.085l-.16-.226zm-.6 3.221a.323.323 0 01-.469-.085l-.16-.226a.402.402 0 01.072-.51.324.324 0 01.47.086l.159.226c.117.173.083.397-.072.509zm1.47-1.911a.4.4 0 01.071-.509.323.323 0 01.47.085l.16.226a.402.402 0 01-.073.51.324.324 0 01-.469-.086l-.16-.226zm-.6 3.222a.324.324 0 01-.469-.086l-.16-.226a.4.4 0 01.072-.509.323.323 0 01.47.085l.16.226a.37.37 0 01-.072.51zm1.492-1.915a.402.402 0 01.072-.51.324.324 0 01.47.086l.159.226a.402.402 0 01-.072.51.324.324 0 01-.47-.086l-.159-.226zm-.608 3.235a.322.322 0 01-.47-.086l-.159-.225a.402.402 0 01.072-.51.323.323 0 01.469.086l.16.226c.117.172.082.397-.072.509zm1.479-1.925a.4.4 0 01.071-.509.323.323 0 01.47.085l.159.226a.402.402 0 01-.072.51.324.324 0 01-.469-.086l-.16-.226zm-.609 3.236a.324.324 0 01-.47-.086l-.159-.226a.402.402 0 01.072-.51.324.324 0 01.47.086l.159.226a.37.37 0 01-.072.51zm2.111-1.59a.323.323 0 01-.469-.085l-.16-.226a.402.402 0 01.072-.51.324.324 0 01.47.086l.159.226a.4.4 0 01-.072.509zm1.665-2.055a.4.4 0 01.071-.509.323.323 0 01.47.085l.16.226a.402.402 0 01-.073.51.324.324 0 01-.469-.086l-.16-.226zm-.794 3.366a.324.324 0 01-.47-.086l-.16-.226a.402.402 0 01.072-.51.324.324 0 01.47.086l.16.226a.37.37 0 01-.072.51zm1.664-2.055a.402.402 0 01.072-.51.324.324 0 01.469.086l.16.226a.4.4 0 01-.072.509.323.323 0 01-.47-.085l-.159-.226zm-.781 3.375a.324.324 0 01-.47-.086l-.159-.226a.4.4 0 01.072-.509.323.323 0 01.469.085l.16.226a.402.402 0 01-.072.51zm1.664-2.055a.4.4 0 01.072-.509.323.323 0 01.47.085l.159.226a.402.402 0 01-.072.51.324.324 0 01-.47-.086l-.159-.226zm-.794 3.366a.324.324 0 01-.47-.086l-.159-.226a.402.402 0 01.072-.51.324.324 0 01.47.086l.159.226a.37.37 0 01-.072.51zm1.665-2.055a.402.402 0 01.071-.51.324.324 0 01.47.086l.159.226a.4.4 0 01-.072.509.323.323 0 01-.469-.085l-.16-.226zm-.782 3.375a.324.324 0 01-.469-.086l-.16-.226a.4.4 0 01.072-.509.323.323 0 01.47.085l.159.226a.402.402 0 01-.072.51zm1.665-2.055a.402.402 0 01.071-.51.324.324 0 01.47.086l.16.226a.402.402 0 01-.072.51.324.324 0 01-.47-.086l-.16-.226zm-.794 3.365a.323.323 0 01-.47-.085l-.16-.226a.402.402 0 01.072-.51.324.324 0 01.47.086l.16.226c.116.173.082.397-.072.509zm2.283-1.729a.324.324 0 01-.469-.086l-.16-.226a.4.4 0 01.072-.509.323.323 0 01.47.085l.16.226c.116.173.082.398-.072.51zm.87 1.31a.323.323 0 01-.468-.085l-.16-.226a.402.402 0 01.072-.51.324.324 0 01.469.086l.16.226c.117.173.082.397-.072.509z"/></g><g clip-path="url(#clip2)" fill="#fff" fill-opacity=".5"><path d="M293.169 375.644c12.823 6.862 18.105 2.014 18.105 2.014-.075-17.123 4.399-34.965 4.399-34.965-11.884 16.676-22.504 32.951-22.504 32.951z"/><path d="M313.511 358.246c-.796 5.582-1.509 12.552-1.49 19.41l.009.367-.262.244c-.055.045-.498.436-1.379.855 2.898 1.969 7.631 3.895 15.27 4.322 0 0-1.862-23.177-4.811-47.524.014.004-2.55 10.228-7.337 22.326zm-20.67 21.46c2.032 1.983 2.828 4.482 3.081 7.54 0 0 1.209 2.858 24.091 5.536 0 0 2.55-.599 4.737-4.046-2.212-.578-6.249-1.671-12.651-3.477a1908.832 1908.832 0 01-19.258-5.553zm-3.409-2.281c.783.372 1.462.761 2.076 1.177 19.635 5.765 29.743 8.495 33.609 9.524.207-.366.404-.75.594-1.166 0 0-35.367-10.824-37.267-11.496.009.018-.143 1.43.988 1.961z"/></g><g opacity=".5" clip-path="url(#clip3)"><path d="M268.905 57.079a359.098 359.098 0 00-3.067-5.707c.057-.05.102-.108.147-.167l2.14-2.778a2.057 2.057 0 00-.368-2.88l-.14-.108a2.059 2.059 0 00-2.879.379l-1.146 1.488a367.055 367.055 0 00-1.635-2.903l1.147-1.489a2.059 2.059 0 00-.368-2.88l-.14-.108a2.058 2.058 0 00-2.879.379l-.063.082c-.867-1.509-1.803-3.145-2.842-4.936 5.222-7.502 8.018-13.548 4.947-15.914-2.792-2.151-8.076 1.978-14.095 8.847a487.219 487.219 0 00-5.529-1.495l.063-.082a2.059 2.059 0 00-.368-2.88l-.14-.108a2.058 2.058 0 00-2.879.378l-1.147 1.489a335.085 335.085 0 00-3.224-.84l1.147-1.49a2.059 2.059 0 00-.368-2.88l-.14-.107a2.058 2.058 0 00-2.879.378l-2.14 2.778a1.048 1.048 0 00-.124.185c-2.219-.551-4.237-1.023-6.3-1.51-6.272-1.451-5.177 1.428-2.468 3.516 8.269 6.371 14.817 10.893 18.224 13.163-3.697 5.258-7.278 11.186-9.566 15.942-7.319-.67-9.281-.37-9.281-.37-3.299 3.847-2.738 4.447-2.738 4.447 3.785 1.03 7.6 1.877 9.634 2.305-.218 1.177-.124 1.996.343 2.356.468.36 1.284.242 2.349-.245.944 1.867 2.709 5.3 4.656 8.668 0 0 .723.39 3.602-3.781 0 0-.208-1.953-2.696-8.82 4.016-3.426 8.853-8.423 13.015-13.342 3.061 2.695 9.117 7.903 17.398 14.283 2.744 2.115 5.799 2.45 2.797-3.243z" fill="#fff"/></g><defs><clipPath id="clip0"><path fill="#fff" transform="rotate(-43.1 1035.965 19.827)" d="M0 0h54.448v58.702H0z"/></clipPath><clipPath id="clip1"><path fill="#fff" transform="matrix(.79558 .60584 -.5606 .82808 22.757 296)" d="M0 0h44.377v40.594H0z"/></clipPath><clipPath id="clip2"><path fill="#fff" transform="matrix(.96245 .27145 -.24321 .96997 299.858 330)" d="M0 0h38.962v56.977H0z"/></clipPath><clipPath id="clip3"><path fill="#fff" transform="rotate(37.614 118.201 347.08)" d="M0 0h64.047v58.005H0z"/></clipPath></defs></svg>