<svg width="346" height="757" viewBox="0 0 346 757" fill="none" xmlns="http://www.w3.org/2000/svg">
<g opacity="0.5" clip-path="url(#clip0)">
<path d="M299.436 718.295L298.603 718.05C298.603 718.05 298.226 719.181 299.657 724.045C299.686 724.12 298.515 724.07 298.433 724.249C298.619 725.671 299.516 728.497 300.854 729.927C299.937 729.658 299.799 729.911 299.387 730.071C299.712 730.974 300.414 732.836 301.79 734.906C301.79 734.906 300.767 734.881 300.344 735.318C300.744 736.458 303.359 739.785 304.077 740.73C303.753 740.828 303.38 740.808 303.086 740.694C303.741 742.15 304.895 743.117 305.717 743.883C305.492 743.91 305.14 744.178 304.935 744.226C305.602 745.628 306.855 746.79 308.001 747.703C307.655 748.089 307.132 748.108 306.677 748.267C307.184 749.431 309.89 751.033 311.056 751.478L313.485 749.205C313.58 748.706 312.994 745.078 311.959 744.306C311.634 744.693 311.492 745.297 311.218 745.737C310.659 743.005 309.83 741.386 309.83 741.386C309.83 741.386 309.168 741.391 308.564 742.079C308.478 739.007 307.155 735.904 307.155 735.904C307.155 735.904 306.33 736.267 306.096 736.752C306.326 733.261 305.425 731.32 305.425 731.32C305.425 731.32 304.537 731.373 304.151 731.693C304.709 729.533 303.575 726.009 303.575 726.009C303.575 726.009 302.922 725.822 301.821 727.158C302.482 725.107 303 723.393 302.269 721.478C301.856 721.414 301.623 721.877 301.244 722.028C301.886 720.157 302.047 718.062 302.001 716.078C301.636 716.133 301.401 716.415 301.156 716.664C301.352 716.051 301.438 713.698 301.438 713.698C301.438 713.698 301.127 713.743 300.784 714.044C300.956 713.494 301.418 712.631 301.365 712.108L299.701 713.42C299.299 714.635 299.436 718.295 299.436 718.295Z" fill="white"/>
<path d="M323.332 710.612C323.778 710.399 324.163 710.1 324.418 709.616C323.616 708.381 321.237 708.396 319.865 708.82C320.137 708.688 320.446 708.44 320.564 708.166C318.558 707.422 316.041 707.157 313.988 707.809C315.288 706.552 313.71 706.8 312.87 706.992C310.987 707.403 310.014 707.72 308.19 708.239C308.848 708.053 309.37 707.565 308.944 707.022C307.931 705.738 303.528 710.105 302.173 710.636L301.818 711.213C304.676 709.664 307.835 709.083 310.679 709.186C314.458 709.334 317.66 710.576 320.124 711.853C322.597 713.162 324.396 714.529 325.593 715.497C326.79 716.486 327.394 717.088 327.372 717.108C327.339 717.139 326.689 716.601 325.458 715.685C324.215 714.78 322.402 713.488 319.948 712.243C317.502 711.031 314.362 709.854 310.709 709.752C307.972 709.651 304.887 710.245 302.148 711.743C303.147 712.099 304.736 713.13 305.637 713.515C306.905 714.069 308.949 713.896 307.404 712.046C308.197 712.982 314.151 715.498 312.394 712.331C313.273 712.982 314.083 713.78 315.062 714.338C315.958 714.85 317.117 714.933 316.84 713.902C317.545 715.412 319.21 716.68 320.695 717.133C321.09 716.865 321.331 716.456 321.221 716.005C321.437 717.237 324.919 719.445 325.462 717.647C325.401 717.581 325.34 717.494 325.27 717.397C326.336 718.425 329.051 720.614 329.944 718.857C330.838 717.099 327.411 714.615 326.181 713.923C327.778 713.718 327.666 712.309 326.613 711.472C325.754 710.822 324.399 710.329 323.332 710.612Z" fill="white"/>
<path d="M318.604 689.752C317.765 689.166 313.144 691.054 312.422 691.75C313.25 690.811 312.607 690.614 311.71 690.9C309.98 691.475 308.816 692.565 307.518 693.78C308.319 692.702 308.009 691.191 306.533 692.327C305.244 693.328 303.693 695.251 303.528 696.92C303.422 696.63 303.294 696.136 302.973 696.149C301.735 696.182 301.164 698.907 301.57 700.164C301.433 699.884 301.186 699.398 300.928 699.455C299.699 699.766 299.723 702.037 299.802 702.966C299.851 703.575 300.221 704.17 300.219 704.746C299.505 703.96 298.395 704.242 298.727 705.486C298.975 706.462 298.812 707.577 300.279 709.746C300.173 708.187 300.492 706.66 300.902 705.253C301.456 703.444 302.292 701.803 303.216 700.344C305.096 697.418 307.445 695.281 309.606 693.832C311.767 692.362 313.72 691.558 315.084 691.081C316.447 690.604 317.242 690.453 317.241 690.474C317.251 690.506 316.495 690.722 315.152 691.243C313.829 691.764 311.917 692.611 309.808 694.093C307.711 695.565 305.427 697.682 303.613 700.546C302.701 701.973 301.899 703.583 301.357 705.339C300.9 706.852 300.575 708.528 300.795 710.164C301.441 709.498 304.176 706.529 301.761 706.905C302.971 706.531 303.764 705.666 304.687 704.74C305.722 703.711 306.302 702.308 304.351 702.824C305.38 702.434 306.397 701.053 307.041 700.163C306.8 699.795 306.422 699.657 306.022 699.541C307.173 699.548 308.155 699.018 309.099 698.36C309.637 697.979 310.604 697.033 309.847 696.78C311.178 696.824 313.649 695.863 313.18 694.828C313.151 694.752 313.1 694.698 313.037 694.675C314.102 694.702 315.315 694.529 316.045 693.887C316.554 693.431 316.502 692.374 315.547 692.51C316.199 692.228 319.765 690.57 318.604 689.752Z" fill="white"/>
<path d="M297.033 706.478C296.012 705.386 295.066 706.333 295.402 707.513C294.84 707.158 294.476 706.435 293.917 706.016C293.059 705.366 290.823 703.977 289.799 705.017C289.577 705.246 289.896 705.766 290.086 706.08C289.089 704.904 286.073 703.837 285.309 705.043C285.104 705.358 285.502 705.784 285.725 706.066C284 705.224 281.159 705.59 279.403 706.27C277.376 707.061 278.669 708.288 280.222 708.145C278.236 708.714 276.467 709.202 274.864 710.58C274.034 711.294 273.843 712.046 275.261 711.805C274.139 712.118 269.497 715.561 269.564 716.767C269.656 718.422 273.451 715.874 274.111 715.379C273.404 716.245 274.419 716.953 275.165 716.705C276.236 716.359 277.134 715.252 277.754 714.18C277.751 714.265 277.78 714.341 277.83 714.417C278.563 715.512 280.998 713.622 281.757 712.277C281.539 713.177 283.058 712.8 283.764 712.487C284.991 711.953 286.096 711.288 286.794 710.143C286.657 710.62 286.585 711.076 286.789 711.54C288.052 711.443 290.022 711.258 291.014 710.473C289.326 712.093 291.042 712.371 292.68 711.964C294.145 711.596 295.479 711.331 296.575 710.346C294.736 712.538 299.317 711.609 300.351 711.357C298.876 710.159 297.048 709.473 295.298 709.003C293.25 708.483 291.189 708.303 289.246 708.34C285.318 708.433 281.854 709.423 279.159 710.634C276.443 711.845 274.456 713.234 273.145 714.235C271.824 715.247 271.157 715.891 271.116 715.847C271.096 715.825 271.722 715.137 273.013 714.072C274.305 713.007 276.285 711.543 279.035 710.279C281.764 709.015 285.284 707.974 289.277 707.861C291.273 707.815 293.367 707.985 295.488 708.517C297.123 708.953 298.794 709.56 300.264 710.62C299.025 707.828 297.83 707.329 297.033 706.478Z" fill="white"/>
<path d="M295.983 732.458C296.91 734.027 299.101 731.833 296.431 726.757C298.388 726.358 297.355 722.985 296.784 721.82C298.896 723.099 298.39 719.089 297.622 717.29C298.601 717.847 299.354 716.651 298.544 714.318C299.336 714.764 299.3 713.303 299.175 712.458C295.604 717.868 294.17 723.673 294.008 727.858C293.794 732.254 294.591 734.907 294.495 734.915C294.429 734.956 293.461 732.321 293.571 727.836C293.627 723.649 294.987 717.831 298.485 712.387C296.915 713.222 293.079 715.46 296.104 715.557C294.946 716.231 293.643 716.796 292.684 717.816C291.657 718.92 292.157 719.455 293.432 719.061C292.622 719.818 291.055 721.101 290.838 722.225C290.717 722.83 291.028 723.562 291.629 723.226C290.655 724.075 289.588 725.136 289.99 726.499C290.344 726.455 290.681 726.282 290.937 726.022C289.587 727.736 288.967 730.876 290.676 730.545C290.956 730.488 291.561 730.29 291.679 730.016C291.017 731.332 291.214 734.833 292.691 734.699C292.905 734.683 293.096 734.443 293.221 734.265C293.122 735.115 294.148 736.857 295.058 736.517C296.52 735.968 296.461 733.792 295.983 732.458Z" fill="white"/>
<path d="M282.632 723.394C283.532 724.845 285.53 722.422 286.282 721.78C286.104 723.236 287.334 723.661 288.349 722.855C289.495 721.946 289.734 720.29 289.78 718.916C290.812 720.285 292.129 717.823 291.643 715.637C292.613 716.94 293.756 715.605 294.767 713.328C290.876 714.594 287.986 717.176 286.196 719.199C284.204 721.473 283.346 723.135 283.263 723.09C283.2 723.067 283.934 721.295 285.888 718.914C287.528 716.909 290.223 714.386 293.907 712.986C292.578 712.879 290.325 712.694 289.778 712.776C288.737 712.931 288.368 713.604 289.583 713.88C288.362 713.753 285.526 713.991 285.345 715.799C285.319 716.171 285.796 716.236 286.19 716.236C284.692 716.369 281.948 717.728 282.816 719.189C283.016 719.514 283.585 719.165 283.948 719.153C283.31 719.873 282.091 722.549 282.632 723.394Z" fill="white"/>
<path d="M290.66 701.202C289.969 701.686 290.633 702.64 291.165 702.92C292.365 703.579 293.645 703.035 294.839 703.065C294.113 703.601 294.655 704.425 295.281 704.739C295.95 705.076 296.773 705.043 297.52 705.019C296.83 703.659 295.875 702.505 294.901 701.553C293.691 700.372 292.449 699.467 291.368 698.779C289.208 697.382 287.704 696.864 287.728 696.801C287.752 696.738 289.323 697.171 291.55 698.506C292.674 699.174 293.949 700.069 295.212 701.263C296.186 702.193 297.152 703.337 297.874 704.708C297.983 704.135 298.193 702.936 298.11 702.359C297.941 701.267 297.347 699.899 296.592 699.07C295.541 697.924 295.542 699.459 295.307 700.253C294.89 699.741 294.722 698.916 294.341 698.331C293.779 697.486 293.071 696.796 292.139 696.379C291.134 695.927 290.452 695.91 290.914 697.137C289.833 695.937 287.931 693.704 286.028 694.584C283.637 695.675 287.24 697.769 288.205 698.177C287.096 698.171 285.77 698.777 286.549 700.054C287.279 701.234 289.43 701.555 290.66 701.202Z" fill="white"/>
<path d="M315.499 700.396C315.712 700.135 316.3 699.852 316.151 699.581C315.454 698.391 312.822 699.892 311.893 700.946C312.118 700.653 312.326 700.274 312.011 700.16C310.455 699.609 308.688 701.611 308.115 702.556C308.562 701.565 307.815 701.568 307.113 702.286C306.747 702.65 305.641 704.381 305.001 705.409C308.173 703.24 311.712 702.22 314.226 701.771C317.234 701.25 319.084 701.382 319.06 701.445C319.057 701.53 317.223 701.527 314.287 702.125C311.651 702.666 307.978 703.81 304.798 706.193C307.203 706.317 308.923 705.977 308.397 704.77C309.905 705.959 312.615 705.941 312.081 704.659C313.212 705.157 314.697 705.61 316.062 705.111C317.274 704.672 317.606 703.604 316.333 703.178C317.263 702.86 320.336 702.319 319.65 701.097C319.275 700.363 316.423 700.228 315.499 700.396Z" fill="white"/>
</g>
<g opacity="0.5" clip-path="url(#clip1)">
<path d="M45.2899 337.858L14.52 314.427C14.1205 314.122 13.5779 314.232 13.2979 314.645L2.61008 330.432C2.32072 330.86 2.41882 331.436 2.80538 331.73L33.5624 355.152C33.9618 355.456 34.5044 355.347 34.7845 354.933L45.4723 339.146C45.7652 338.742 45.6764 338.152 45.2899 337.858ZM35.3691 335.465L35.5882 335.631C35.7428 335.749 35.7876 335.971 35.6756 336.137C35.5729 336.289 35.3507 336.328 35.1961 336.211L34.9771 336.044C34.8225 335.926 34.7776 335.704 34.8896 335.538C35.0145 335.383 35.2145 335.347 35.3691 335.465ZM33.7263 337.891L33.9453 338.058C34.0999 338.176 34.1448 338.398 34.0328 338.564C33.9301 338.715 33.7079 338.755 33.5533 338.637L33.3342 338.47C33.1796 338.353 33.1348 338.13 33.2468 337.965C33.3717 337.809 33.5717 337.774 33.7263 337.891ZM32.2234 340.111L32.4425 340.278C32.5971 340.396 32.642 340.618 32.53 340.783C32.4273 340.935 32.2051 340.975 32.0505 340.857L31.8314 340.69C31.6768 340.573 31.6319 340.35 31.744 340.185C31.8688 340.029 32.0688 339.993 32.2234 340.111ZM34.1321 334.523L34.3512 334.69C34.5058 334.807 34.5506 335.029 34.4386 335.195C34.336 335.347 34.1138 335.386 33.9591 335.269L33.7401 335.102C33.5855 334.984 33.5406 334.762 33.6526 334.596C33.7775 334.441 33.9904 334.415 34.1321 334.523ZM32.4893 336.949L32.7083 337.116C32.863 337.234 32.9078 337.456 32.7958 337.622C32.6931 337.773 32.4709 337.813 32.3163 337.695L32.0973 337.528C31.9426 337.411 31.8978 337.188 32.0098 337.023C32.1347 336.867 32.3476 336.841 32.4893 336.949ZM30.9865 339.169L31.2055 339.336C31.3601 339.454 31.405 339.676 31.293 339.841C31.1903 339.993 30.9681 340.033 30.8135 339.915L30.5944 339.748C30.4398 339.631 30.395 339.408 30.507 339.243C30.6319 339.087 30.8447 339.061 30.9865 339.169ZM32.908 333.591L33.1271 333.757C33.2817 333.875 33.3266 334.097 33.2145 334.263C33.1119 334.414 32.8897 334.454 32.735 334.336L32.516 334.17C32.3614 334.052 32.3165 333.83 32.4285 333.664C32.5406 333.499 32.7534 333.473 32.908 333.591ZM31.2652 336.017L31.4842 336.184C31.6389 336.302 31.6837 336.524 31.5717 336.689C31.469 336.841 31.2468 336.881 31.0922 336.763L30.8732 336.596C30.7185 336.479 30.6737 336.256 30.7857 336.091C30.8977 335.925 31.1106 335.899 31.2652 336.017ZM29.7624 338.237L29.9814 338.404C30.136 338.522 30.1809 338.744 30.0689 338.909C29.9662 339.061 29.744 339.101 29.5894 338.983L29.3703 338.816C29.2157 338.698 29.1709 338.476 29.2829 338.311C29.3949 338.145 29.6077 338.119 29.7624 338.237ZM31.6711 332.649L31.8901 332.815C32.0447 332.933 32.0896 333.155 31.9776 333.321C31.8749 333.472 31.6527 333.512 31.4981 333.394L31.279 333.228C31.1244 333.11 31.0796 332.888 31.1916 332.722C31.3165 332.567 31.5164 332.531 31.6711 332.649ZM30.0282 335.075L30.2473 335.242C30.4019 335.36 30.4467 335.582 30.3347 335.747C30.232 335.899 30.0098 335.939 29.8552 335.821L29.6362 335.654C29.4816 335.537 29.4367 335.314 29.5487 335.149C29.6736 334.993 29.8736 334.957 30.0282 335.075ZM28.5254 337.295L28.7444 337.462C28.8991 337.58 28.9439 337.802 28.8319 337.967C28.7292 338.119 28.507 338.159 28.3524 338.041L28.1333 337.874C27.9787 337.756 27.9339 337.534 28.0459 337.369C28.1708 337.213 28.3708 337.177 28.5254 337.295ZM30.447 331.716L30.666 331.883C30.8206 332.001 30.8655 332.223 30.7535 332.389C30.6508 332.54 30.4286 332.58 30.274 332.462L30.0549 332.295C29.9003 332.178 29.8555 331.956 29.9675 331.79C30.0795 331.625 30.2923 331.599 30.447 331.716ZM28.8041 334.143L29.0232 334.31C29.1778 334.428 29.2226 334.65 29.1106 334.815C29.0079 334.967 28.7858 335.007 28.6311 334.889L28.4121 334.722C28.2575 334.604 28.2126 334.382 28.3246 334.217C28.4366 334.051 28.6495 334.025 28.8041 334.143ZM27.3013 336.363L27.5203 336.53C27.675 336.647 27.7198 336.87 27.6078 337.035C27.5051 337.187 27.2829 337.227 27.1283 337.109L26.9093 336.942C26.7546 336.824 26.7098 336.602 26.8218 336.437C26.9338 336.271 27.1467 336.245 27.3013 336.363ZM29.21 330.774L29.429 330.941C29.5837 331.059 29.6285 331.281 29.5165 331.447C29.4138 331.598 29.1916 331.638 29.037 331.52L28.8179 331.354C28.6633 331.236 28.6185 331.014 28.7305 330.848C28.8425 330.683 29.0554 330.657 29.21 330.774ZM27.5671 333.201L27.7862 333.368C27.9408 333.486 27.9857 333.708 27.8736 333.873C27.771 334.025 27.5488 334.065 27.3942 333.947L27.1751 333.78C27.0205 333.662 26.9756 333.44 27.0876 333.275C27.1997 333.109 27.4125 333.083 27.5671 333.201ZM26.0643 335.421L26.2834 335.588C26.438 335.706 26.4828 335.928 26.3708 336.093C26.2681 336.245 26.0459 336.285 25.8913 336.167L25.6723 336C25.5177 335.882 25.4728 335.66 25.5848 335.495C25.6968 335.329 25.9097 335.303 26.0643 335.421ZM27.973 329.832L28.1921 329.999C28.3467 330.117 28.3915 330.339 28.2795 330.505C28.1768 330.656 27.9546 330.696 27.8 330.578L27.581 330.412C27.4263 330.294 27.3815 330.072 27.4935 329.906C27.6184 329.75 27.8184 329.715 27.973 329.832ZM26.3302 332.259L26.5492 332.426C26.7038 332.544 26.7487 332.766 26.6367 332.931C26.534 333.083 26.3118 333.123 26.1572 333.005L25.9381 332.838C25.7835 332.72 25.7387 332.498 25.8507 332.333C25.9756 332.177 26.1755 332.141 26.3302 332.259ZM24.8273 334.479L25.0464 334.646C25.201 334.764 25.2458 334.986 25.1338 335.151C25.0312 335.303 24.809 335.343 24.6543 335.225L24.4353 335.058C24.2807 334.94 24.2358 334.718 24.3478 334.553C24.4727 334.397 24.6727 334.361 24.8273 334.479ZM26.7489 328.9L26.968 329.067C27.1226 329.185 27.1674 329.407 27.0554 329.573C26.9527 329.724 26.7305 329.764 26.5759 329.646L26.3569 329.479C26.2022 329.362 26.1574 329.139 26.2694 328.974C26.3814 328.809 26.5943 328.783 26.7489 328.9ZM25.1061 331.327L25.3251 331.494C25.4797 331.612 25.5246 331.834 25.4126 331.999C25.3099 332.151 25.0877 332.191 24.9331 332.073L24.714 331.906C24.5594 331.788 24.5146 331.566 24.6266 331.401C24.7386 331.235 24.9514 331.209 25.1061 331.327ZM25.5119 327.958L25.731 328.125C25.8856 328.243 25.9304 328.465 25.8184 328.631C25.7158 328.782 25.4936 328.822 25.3389 328.704L25.1199 328.537C24.9653 328.42 24.9204 328.197 25.0324 328.032C25.1573 327.876 25.3573 327.841 25.5119 327.958ZM23.8691 330.385L24.0881 330.552C24.2428 330.67 24.2876 330.892 24.1756 331.057C24.0729 331.209 23.8507 331.249 23.6961 331.131L23.477 330.964C23.3224 330.846 23.2776 330.624 23.3896 330.459C23.5145 330.303 23.7145 330.267 23.8691 330.385ZM22.3663 332.605L22.5853 332.772C22.7399 332.889 22.7848 333.112 22.6728 333.277C22.5701 333.429 22.3479 333.468 22.1933 333.351L21.9742 333.184C21.8196 333.066 21.7748 332.844 21.8868 332.679C22.0117 332.523 22.2116 332.487 22.3663 332.605ZM13.0744 327.263L14.0685 324.468L12.8674 323.992L13.8954 323.166L12.2161 320.801L14.836 321.834L15.2934 320.553L16.0616 321.639L18.3127 319.843L17.3185 322.638L18.5196 323.114L17.4916 323.94L19.1616 326.32L16.5418 325.286L16.0843 326.567L15.3161 325.481L13.0744 327.263ZM14.9324 334.153C14.5588 333.869 14.9228 333.331 14.7038 333.164C14.5363 333.036 14.3811 333.294 14.3531 333.336L13.401 334.742C13.0276 335.294 13.6044 335.336 13.3898 335.653C13.2964 335.791 13.0791 335.939 12.2802 335.33C12.0612 335.164 11.2529 334.569 11.4956 334.211C11.6636 333.962 11.8689 334.265 12.0582 334.158C12.1622 334.091 12.3747 333.835 12.4493 333.725L13.1694 332.748C13.509 332.275 13.4188 332.206 13.3673 332.167C13.174 332.02 12.7197 332.489 12.3718 332.224C12.2043 332.096 12.2133 331.853 12.3253 331.687C12.5866 331.301 13.2413 331.026 13.4861 331.213C13.5118 331.232 13.554 331.285 13.622 331.358C13.69 331.431 13.7966 331.533 13.977 331.67L15.0336 332.475C15.214 332.612 15.3135 332.667 15.3873 332.702C15.4611 332.738 15.4962 332.743 15.5864 332.812C15.7539 332.94 15.8591 333.563 15.523 334.06C15.3701 334.257 15.1515 334.32 14.9324 334.153ZM15.8291 337.155C15.8855 337.303 15.9699 337.409 15.8766 337.547C15.7833 337.685 15.6046 337.862 14.664 337.146C14.4836 337.008 13.9424 336.596 14.1477 336.293C14.2504 336.141 14.4015 336.235 14.5441 336.198C14.6424 336.168 14.793 336.032 15.2224 335.398L15.5304 334.943C15.9225 334.364 15.9772 334.196 15.9723 334.088C15.9626 333.872 15.8044 333.73 15.9164 333.565C16.1404 333.234 17.0166 333.901 17.0939 333.96C17.3516 334.156 17.8706 334.573 17.6652 334.876C17.5532 335.041 17.3951 334.9 17.2208 334.955C17.0782 334.993 16.7853 335.397 16.5613 335.728L16.2532 336.183C15.7154 337.006 15.7763 337.032 15.8291 337.155ZM18.4196 338.752C18.9607 339.164 19.2656 338.916 19.3945 339.014C19.5233 339.112 19.4722 339.303 19.3882 339.427C19.2482 339.634 18.7749 339.9 18.5558 339.733C18.4141 339.625 17.9275 339.652 17.425 339.269C16.523 338.582 16.3019 337.265 16.9273 336.341C17.5621 335.403 18.8721 335.314 19.7225 335.962C20.1477 336.286 20.269 336.712 20.3721 336.791C20.4622 336.86 20.5067 336.852 20.584 336.91C20.7644 337.048 20.8003 337.514 20.4549 338.024C20.2776 338.286 19.9865 338.399 19.7288 338.203C19.2907 337.869 19.9445 337.134 19.1843 336.555C18.8493 336.3 18.4964 336.533 18.3284 336.781C17.871 337.456 17.814 338.291 18.4196 338.752ZM23.1237 333.62C23.2264 333.469 23.4486 333.429 23.6032 333.547L23.8223 333.714C23.9769 333.831 24.0218 334.054 23.9097 334.219C23.8071 334.371 23.5849 334.41 23.4302 334.293L23.2112 334.126C23.0566 334.008 23.0211 333.772 23.1237 333.62ZM22.3165 342.89L21.582 342.33C21.4145 342.203 21.4238 342.189 21.3928 341.831L21.3578 341.219C21.3458 341.064 21.325 340.546 21.2219 340.468C21.106 340.38 21.0091 340.494 20.9251 340.618L20.8597 340.715C20.7104 340.935 20.9716 341.155 20.813 341.389C20.7103 341.541 20.5139 341.6 19.7665 341.031C19.0836 340.511 19.0903 340.328 19.193 340.177C19.3517 339.942 19.4867 340.233 19.7996 339.886C20.0156 339.654 20.2116 339.364 20.389 339.102C20.585 338.813 20.809 338.482 20.9571 338.177C21.1762 337.738 20.8229 337.74 21.0189 337.451C21.0656 337.382 21.2043 337.09 22.1449 337.807C22.3511 337.964 22.7892 338.297 22.5745 338.614C22.4065 338.863 22.2772 338.534 21.9132 339.072C21.8759 339.127 21.7825 339.265 21.8598 339.324C21.9758 339.412 22.6282 339.198 22.7029 339.088C22.7682 338.992 22.7318 338.901 22.8064 338.791C23.0398 338.446 23.5881 338.906 23.7942 339.063C24.0004 339.22 24.5216 339.575 24.2976 339.906C24.0455 340.278 23.7439 339.714 23.4902 339.771C23.3346 339.799 22.7872 339.8 22.6565 339.993C22.5725 340.117 22.6009 340.306 22.6093 340.438L22.761 342.204C22.7871 342.454 23.0542 342.636 22.8675 342.912C22.7217 343.156 22.484 343.017 22.3165 342.89ZM25.3458 345.28C25.32 345.26 25.2521 345.188 25.1712 345.105C25.0903 345.023 24.9708 344.911 24.8291 344.803L23.0638 343.459C22.7803 343.243 22.8737 343.105 22.911 343.05C23.079 342.802 23.2447 343.22 23.5972 342.757C24.2181 341.956 24.1621 342.038 24.6835 341.182C25.1338 340.459 24.5561 340.562 24.7708 340.245C24.9575 339.969 25.2902 340.285 25.4706 340.423L26.7076 341.365C27.2875 341.806 27.4301 341.769 27.4945 341.818C27.7394 342.004 27.5344 342.538 27.4037 342.731C27.301 342.882 27.1282 343.022 26.9606 342.895C26.6256 342.64 27.1949 342.404 26.3832 341.786C25.9064 341.423 25.8926 341.559 25.5379 342.083C25.3605 342.345 25.3641 342.369 25.6218 342.565C25.9439 342.81 26.0445 342.113 26.3537 342.349C26.5985 342.535 26.2696 343.079 26.1483 343.258C26.0176 343.451 25.6184 343.983 25.3607 343.787C25.0901 343.581 25.6874 343.304 25.2493 342.971C25.0689 342.833 24.9476 343.013 24.8543 343.15C24.3969 343.826 24.4635 343.814 24.9145 344.158C25.7907 344.825 25.9846 343.99 26.3325 344.255C26.4742 344.363 26.4267 344.578 26.3426 344.702C26.128 345.019 25.5133 345.408 25.3458 345.28ZM30.0339 345.653C29.6602 345.368 30.0243 344.831 29.8052 344.664C29.6377 344.536 29.4826 344.794 29.4546 344.836L28.5025 346.242C28.1291 346.794 28.7059 346.836 28.4912 347.153C28.3979 347.291 28.1806 347.439 27.3817 346.83C27.1626 346.664 26.3544 346.069 26.5971 345.711C26.7651 345.462 26.9704 345.765 27.1597 345.658C27.2637 345.591 27.4761 345.335 27.5508 345.225L28.2709 344.248C28.6105 343.775 28.5203 343.706 28.4687 343.667C28.2754 343.52 27.8212 343.989 27.4733 343.724C27.3058 343.596 27.3147 343.352 27.4267 343.187C27.6881 342.801 28.3427 342.526 28.5875 342.713C28.6133 342.732 28.6555 342.785 28.7235 342.858C28.7915 342.931 28.8981 343.033 29.0785 343.17L30.1351 343.975C30.3155 344.112 30.415 344.167 30.4888 344.202C30.5625 344.238 30.5976 344.243 30.6878 344.312C30.8553 344.44 30.9606 345.063 30.6245 345.559C30.4587 345.747 30.2401 345.81 30.0339 345.653ZM33.2745 341.789L33.0684 341.632C32.9138 341.515 32.8689 341.292 32.9809 341.127C33.0836 340.975 33.3058 340.935 33.4604 341.053L33.6795 341.22C33.8341 341.338 33.8789 341.56 33.7669 341.725C33.6514 341.867 33.4292 341.907 33.2745 341.789ZM34.7867 339.556L34.5805 339.399C34.4259 339.281 34.3811 339.059 34.4931 338.893C34.5958 338.742 34.818 338.702 34.9726 338.82L35.1916 338.986C35.3463 339.104 35.3911 339.326 35.2791 339.492C35.1542 339.647 34.9413 339.673 34.7867 339.556ZM36.4202 337.143L36.2141 336.986C36.0594 336.868 36.0146 336.646 36.1266 336.48C36.2293 336.329 36.4515 336.289 36.6061 336.407L36.8251 336.573C36.9798 336.691 37.0246 336.913 36.9126 337.079C36.797 337.221 36.5748 337.26 36.4202 337.143ZM34.5115 342.731L34.2925 342.564C34.1379 342.447 34.093 342.224 34.205 342.059C34.3077 341.907 34.5299 341.868 34.6845 341.985L34.9036 342.152C35.0582 342.27 35.103 342.492 34.991 342.658C34.8883 342.809 34.6662 342.849 34.5115 342.731ZM36.0237 340.498L35.8046 340.331C35.65 340.213 35.6052 339.991 35.7172 339.825C35.8199 339.674 36.0421 339.634 36.1967 339.752L36.4157 339.918C36.5704 340.036 36.6152 340.258 36.5032 340.424C36.3912 340.589 36.1783 340.615 36.0237 340.498ZM37.6572 338.085L37.4381 337.918C37.2835 337.8 37.2387 337.578 37.3507 337.412C37.4534 337.261 37.6756 337.221 37.8302 337.339L38.0492 337.506C38.2039 337.623 38.2487 337.846 38.1367 338.011C38.034 338.163 37.8118 338.202 37.6572 338.085ZM35.7485 343.673L35.5295 343.506C35.3748 343.389 35.33 343.166 35.442 343.001C35.5447 342.849 35.7669 342.81 35.9215 342.927L36.1406 343.094C36.2952 343.212 36.34 343.434 36.228 343.6C36.1124 343.741 35.9031 343.791 35.7485 343.673ZM37.2607 341.44L37.0416 341.273C36.887 341.155 36.8422 340.933 36.9542 340.767C37.0568 340.616 37.279 340.576 37.4337 340.694L37.6527 340.86C37.8073 340.978 37.8522 341.2 37.7402 341.366C37.6153 341.522 37.4153 341.557 37.2607 341.44ZM38.8942 339.027L38.6751 338.86C38.5205 338.742 38.4757 338.52 38.5877 338.354C38.6904 338.203 38.9126 338.163 39.0672 338.281L39.2862 338.448C39.4408 338.565 39.4857 338.788 39.3737 338.953C39.2581 339.095 39.0488 339.144 38.8942 339.027ZM36.9726 344.605L36.7536 344.439C36.5989 344.321 36.5541 344.099 36.6661 343.933C36.7688 343.781 36.991 343.742 37.1456 343.859L37.3646 344.026C37.5193 344.144 37.5641 344.366 37.4521 344.532C37.3494 344.683 37.1272 344.723 36.9726 344.605ZM38.4848 342.372L38.2657 342.205C38.1111 342.087 38.0663 341.865 38.1783 341.699C38.2809 341.548 38.5031 341.508 38.6578 341.626L38.8768 341.793C39.0314 341.91 39.0763 342.133 38.9643 342.298C38.8523 342.463 38.6394 342.489 38.4848 342.372ZM40.1183 339.959L39.8992 339.792C39.7446 339.674 39.6998 339.452 39.8118 339.287C39.9145 339.135 40.1366 339.095 40.2913 339.213L40.5103 339.38C40.6649 339.497 40.7098 339.72 40.5978 339.885C40.4951 340.037 40.2729 340.077 40.1183 339.959Z" fill="white"/>
<path d="M50.3518 333.208L28.4502 300.398C28.1699 299.976 27.6211 299.892 27.2216 300.194L12.3356 311.509C11.9361 311.811 11.8529 312.395 12.1332 312.818L12.824 313.845C13.4289 313.24 14.3635 313.158 15.0593 313.688L20.6901 317.976L21.6283 317.311C22.1039 316.984 22.0323 316.887 21.9772 316.825C21.8435 316.618 21.2591 316.905 21.021 316.535C20.9037 316.362 20.9828 316.13 21.1371 316.018C21.505 315.734 22.2081 315.705 22.384 315.964C22.4004 315.998 22.4204 316.055 22.4697 316.155C22.519 316.255 22.5848 316.389 22.7021 316.562L23.4515 317.676C23.5852 317.882 23.6532 317.955 23.7176 318.004C23.7821 318.053 23.8207 318.082 23.8794 318.169C23.9967 318.342 23.9077 318.963 23.4486 319.324C23.2348 319.496 23.0148 319.474 22.8553 319.249C22.5914 318.86 23.1043 318.477 22.9542 318.237C22.8369 318.064 22.6138 318.25 22.5729 318.281L21.8556 318.822L23.4147 320.009C23.7605 319.729 23.8351 319.619 23.8467 319.544C23.9072 319.339 23.7992 319.152 23.9628 319.026C24.2805 318.788 24.8998 319.719 24.9585 319.805C25.1473 320.074 25.5063 320.64 25.2107 320.875C25.0565 320.987 24.9392 320.815 24.7637 320.785C24.7063 320.783 24.6304 320.809 24.5357 320.862L25.6825 321.736C26.1366 321.873 26.5583 322.173 26.8257 322.585C26.8386 322.595 26.8421 322.619 26.8421 322.619L35.9133 329.527C35.9413 329.485 35.96 329.458 36.0009 329.426C36.1551 329.314 36.3657 329.349 36.4701 329.512L36.6296 329.738C36.7012 329.834 36.7096 329.966 36.67 330.082L42.4297 334.468C42.4484 334.44 42.467 334.413 42.4986 334.395C42.6528 334.283 42.8634 334.318 42.9678 334.481L43.1273 334.707C43.1989 334.803 43.2073 334.935 43.177 335.037L45.8314 337.058C45.986 337.176 46.122 337.322 46.2264 337.485L50.1681 334.489C50.5361 334.205 50.6322 333.631 50.3518 333.208ZM27.0459 311.386L26.2347 312.44L25.8452 311.14L23.1797 312.077L24.9549 309.772L23.9708 308.919L25.196 308.493L24.3242 305.656L26.4893 307.535L27.3005 306.481L27.6899 307.78L30.3555 306.843L28.5709 309.162L29.555 310.016L28.3298 310.441L29.1888 313.268L27.0459 311.386ZM38.6109 323.494C38.7651 323.382 38.9757 323.417 39.0801 323.58L39.2396 323.806C39.344 323.969 39.3093 324.193 39.168 324.315C39.0138 324.428 38.8031 324.393 38.6987 324.23L38.5392 324.004C38.4348 323.841 38.4695 323.616 38.6109 323.494ZM37.7406 322.184C37.8948 322.071 38.1054 322.106 38.2098 322.269L38.3693 322.495C38.4737 322.658 38.439 322.883 38.2977 323.005C38.1435 323.117 37.9328 323.082 37.8284 322.919L37.6689 322.693C37.5516 322.52 37.5863 322.296 37.7406 322.184ZM36.8574 320.863C37.0116 320.751 37.2222 320.786 37.3266 320.949L37.4861 321.175C37.5905 321.338 37.5558 321.562 37.4145 321.685C37.2603 321.797 37.0496 321.762 36.9452 321.599L36.7857 321.373C36.6813 321.21 36.716 320.985 36.8574 320.863ZM35.9871 319.553C36.1413 319.44 36.3519 319.475 36.4563 319.638L36.6158 319.864C36.7202 320.027 36.6855 320.252 36.5442 320.374C36.39 320.486 36.1793 320.451 36.0749 320.288L35.9154 320.062C35.7982 319.889 35.8329 319.665 35.9871 319.553ZM35.1039 318.232C35.2581 318.12 35.4687 318.155 35.5731 318.318L35.7326 318.544C35.837 318.707 35.8023 318.931 35.661 319.054C35.5068 319.166 35.2961 319.131 35.1917 318.968L35.0322 318.742C34.9278 318.579 34.9625 318.355 35.1039 318.232ZM34.2336 316.922C34.3878 316.809 34.5984 316.844 34.7028 317.008L34.8623 317.233C34.9667 317.397 34.932 317.621 34.7907 317.743C34.6365 317.856 34.4258 317.821 34.3214 317.657L34.1619 317.431C34.0447 317.259 34.0794 317.034 34.2336 316.922ZM30.4085 321.072C30.2543 321.184 30.0437 321.149 29.9393 320.986L29.7798 320.76C29.6754 320.597 29.7101 320.373 29.8514 320.251C30.0057 320.138 30.2163 320.173 30.3207 320.336L30.4802 320.562C30.5752 320.739 30.5405 320.963 30.4085 321.072ZM31.878 319.161C31.7736 318.998 31.8083 318.774 31.9496 318.651C32.1038 318.539 32.3145 318.574 32.4189 318.737L32.5784 318.963C32.6828 319.126 32.6481 319.35 32.5067 319.473C32.3525 319.585 32.1419 319.55 32.0375 319.387L31.878 319.161ZM31.2788 322.382C31.1246 322.495 30.914 322.46 30.8096 322.297L30.6501 322.071C30.5457 321.908 30.5804 321.683 30.7217 321.561C30.876 321.449 31.0866 321.484 31.191 321.647L31.3505 321.873C31.4584 322.059 31.4331 322.27 31.2788 322.382ZM32.7483 320.472C32.6439 320.308 32.6786 320.084 32.8199 319.962C32.9741 319.849 33.1848 319.884 33.2892 320.048L33.4487 320.273C33.5531 320.437 33.5184 320.661 33.377 320.783C33.2228 320.896 33.0122 320.861 32.9078 320.697L32.7483 320.472ZM32.1492 323.693C31.9949 323.805 31.7843 323.77 31.6799 323.607L31.5204 323.381C31.416 323.218 31.4507 322.994 31.592 322.872C31.7463 322.759 31.9569 322.794 32.0613 322.957L32.2208 323.183C32.3381 323.356 32.3034 323.581 32.1492 323.693ZM33.6315 321.792C33.5271 321.629 33.5618 321.404 33.7031 321.282C33.8573 321.17 34.068 321.205 34.1724 321.368L34.3319 321.594C34.4363 321.757 34.4016 321.981 34.2602 322.103C34.106 322.216 33.8954 322.181 33.791 322.018L33.6315 321.792ZM33.0323 325.013C32.8781 325.126 32.6675 325.091 32.5631 324.928L32.4036 324.702C32.2992 324.539 32.3339 324.314 32.4752 324.192C32.6295 324.08 32.8401 324.115 32.9445 324.278L33.104 324.504C33.2213 324.677 33.1866 324.901 33.0323 325.013ZM34.5018 323.102C34.3974 322.939 34.4321 322.715 34.5734 322.593C34.7276 322.48 34.9383 322.515 35.0427 322.678L35.2022 322.904C35.3066 323.067 35.2719 323.292 35.1305 323.414C34.9763 323.526 34.7657 323.491 34.6613 323.328L34.5018 323.102ZM33.9026 326.324C33.7484 326.436 33.5378 326.401 33.4334 326.238L33.2739 326.012C33.1695 325.849 33.2042 325.625 33.3455 325.503C33.4998 325.39 33.7104 325.425 33.8148 325.588L33.9743 325.814C34.0916 325.987 34.0569 326.211 33.9026 326.324ZM35.3943 324.409C35.2899 324.246 35.3246 324.022 35.4659 323.899C35.6202 323.787 35.8308 323.822 35.9352 323.985L36.0947 324.211C36.1991 324.374 36.1644 324.598 36.0231 324.721C35.8688 324.833 35.6582 324.798 35.5538 324.635L35.3943 324.409ZM34.7858 327.644C34.6316 327.757 34.421 327.722 34.3166 327.558L34.1571 327.333C34.0527 327.169 34.0874 326.945 34.2287 326.823C34.383 326.71 34.5936 326.746 34.698 326.909L34.8575 327.135C34.9748 327.307 34.9401 327.532 34.7858 327.644ZM36.2646 325.719C36.1602 325.556 36.1949 325.332 36.3363 325.21C36.4905 325.097 36.7011 325.132 36.8055 325.295L36.965 325.521C37.0694 325.685 37.0347 325.909 36.8934 326.031C36.7391 326.143 36.5285 326.108 36.4241 325.945L36.2646 325.719ZM35.6561 328.955C35.5019 329.067 35.2913 329.032 35.1869 328.869L35.0274 328.643C34.923 328.48 34.9577 328.256 35.099 328.133C35.2533 328.021 35.4639 328.056 35.5683 328.219L35.7278 328.445C35.8451 328.618 35.8104 328.842 35.6561 328.955ZM37.7672 327.365C37.613 327.478 37.4024 327.443 37.298 327.28L37.1385 327.054C37.0341 326.89 37.0688 326.666 37.2101 326.544C37.3643 326.432 37.575 326.467 37.6794 326.63L37.8388 326.856C37.9432 327.019 37.9085 327.243 37.7672 327.365ZM39.4318 325.31C39.3274 325.147 39.3621 324.923 39.5034 324.801C39.6576 324.688 39.8682 324.723 39.9726 324.886L40.1321 325.112C40.2365 325.275 40.2018 325.5 40.0605 325.622C39.9063 325.734 39.6957 325.699 39.5913 325.536L39.4318 325.31ZM38.6375 328.676C38.4833 328.788 38.2727 328.753 38.1683 328.59L38.0088 328.364C37.9044 328.201 37.9391 327.977 38.0804 327.854C38.2346 327.742 38.4453 327.777 38.5497 327.94L38.7091 328.166C38.8264 328.339 38.7917 328.563 38.6375 328.676ZM40.3021 326.621C40.1977 326.458 40.2324 326.233 40.3737 326.111C40.5279 325.999 40.7385 326.034 40.8429 326.197L41.0024 326.423C41.1068 326.586 41.0721 326.81 40.9308 326.932C40.7766 327.045 40.566 327.01 40.4616 326.847L40.3021 326.621ZM39.5207 329.996C39.3665 330.108 39.1559 330.073 39.0515 329.91L38.892 329.684C38.7876 329.521 38.8223 329.297 38.9636 329.175C39.1178 329.062 39.3284 329.097 39.4328 329.26L39.5923 329.486C39.6967 329.649 39.662 329.874 39.5207 329.996ZM41.1853 327.941C41.0809 327.778 41.1156 327.554 41.2569 327.432C41.4111 327.319 41.6217 327.354 41.7261 327.517L41.8856 327.743C41.99 327.906 41.9553 328.131 41.814 328.253C41.6598 328.365 41.4492 328.33 41.3448 328.167L41.1853 327.941ZM40.391 331.307C40.2368 331.419 40.0262 331.384 39.9218 331.221L39.7623 330.995C39.6579 330.832 39.6926 330.608 39.8339 330.485C39.9881 330.373 40.1988 330.408 40.3032 330.571L40.4626 330.797C40.5799 330.97 40.5452 331.194 40.391 331.307ZM42.0556 329.252C41.9512 329.089 41.9859 328.864 42.1272 328.742C42.2814 328.63 42.492 328.665 42.5964 328.828L42.7559 329.054C42.8603 329.217 42.8256 329.441 42.6843 329.563C42.5301 329.676 42.3195 329.641 42.2151 329.478L42.0556 329.252ZM41.2742 332.627C41.12 332.739 40.9094 332.704 40.805 332.541L40.6455 332.315C40.5411 332.152 40.5758 331.928 40.7171 331.806C40.8713 331.693 41.0819 331.728 41.1863 331.891L41.3458 332.117C41.4502 332.28 41.4155 332.505 41.2742 332.627ZM42.9388 330.572C42.8344 330.409 42.8691 330.185 43.0104 330.062C43.1646 329.95 43.3752 329.985 43.4796 330.148L43.6391 330.374C43.7435 330.537 43.7088 330.761 43.5675 330.884C43.4133 330.996 43.2026 330.961 43.0982 330.798L42.9388 330.572ZM42.1445 333.937C41.9903 334.05 41.7797 334.015 41.6753 333.852L41.5158 333.626C41.4114 333.463 41.4461 333.238 41.5874 333.116C41.7416 333.004 41.9522 333.039 42.0567 333.202L42.2161 333.428C42.3334 333.601 42.2987 333.825 42.1445 333.937ZM44.4285 332.208C44.2742 332.32 44.0636 332.285 43.9592 332.122L43.7997 331.896C43.6953 331.733 43.73 331.509 43.8714 331.387C44.0256 331.274 44.2362 331.309 44.3406 331.472L44.5001 331.698C44.6174 331.871 44.5827 332.096 44.4285 332.208ZM45.2988 333.518C45.1446 333.631 44.9339 333.596 44.8295 333.433L44.67 333.207C44.5656 333.044 44.6003 332.819 44.7417 332.697C44.8959 332.585 45.1065 332.62 45.2109 332.783L45.3704 333.009C45.4877 333.182 45.453 333.406 45.2988 333.518Z" fill="white"/>
</g>
<g clip-path="url(#clip2)">
<path d="M293.169 375.644C305.992 382.506 311.274 377.658 311.274 377.658C311.199 360.535 315.673 342.693 315.673 342.693C303.789 359.369 293.169 375.644 293.169 375.644Z" fill="white" fill-opacity="0.5"/>
<path d="M313.511 358.246C312.715 363.828 312.002 370.798 312.021 377.656L312.03 378.023L311.768 378.267C311.713 378.312 311.27 378.703 310.389 379.122C313.287 381.091 318.02 383.017 325.659 383.444C325.659 383.444 323.797 360.267 320.848 335.92C320.862 335.924 318.298 346.148 313.511 358.246Z" fill="white" fill-opacity="0.5"/>
<path d="M292.841 379.706C294.873 381.689 295.669 384.188 295.922 387.246C295.922 387.246 297.131 390.104 320.013 392.782C320.013 392.782 322.563 392.183 324.75 388.736C322.538 388.158 318.501 387.065 312.099 385.259C307.173 383.87 300.819 382.047 292.841 379.706Z" fill="white" fill-opacity="0.5"/>
<path d="M289.432 377.425C290.215 377.797 290.894 378.186 291.508 378.602C311.143 384.367 321.251 387.097 325.117 388.126C325.324 387.76 325.521 387.376 325.711 386.96C325.711 386.96 290.344 376.136 288.444 375.464C288.453 375.482 288.301 376.894 289.432 377.425Z" fill="white" fill-opacity="0.5"/>
</g>
<g opacity="0.5" clip-path="url(#clip3)">
<path d="M268.905 57.0786C267.917 55.1964 266.936 53.3765 265.838 51.3719C265.895 51.3223 265.94 51.2637 265.985 51.2051L268.125 48.4271C268.812 47.5362 268.657 46.2399 267.757 45.547L267.617 45.439C266.73 44.7551 265.434 44.9149 264.738 45.8175L263.592 47.3061C263.085 46.393 262.541 45.4322 261.957 44.4029L263.104 42.9143C263.79 42.0234 263.635 40.727 262.736 40.0341L262.596 39.9262C261.708 39.2423 260.412 39.4021 259.717 40.3046L259.654 40.3867C258.787 38.8784 257.851 37.2422 256.812 35.4511C262.034 27.9489 264.83 21.9033 261.759 19.5366C258.967 17.386 253.683 21.5149 247.664 28.3844C245.667 27.8359 243.823 27.3304 242.135 26.8887L242.198 26.8067C242.884 25.9158 242.729 24.6194 241.83 23.9265L241.69 23.8186C240.802 23.1347 239.506 23.2945 238.811 24.197L237.664 25.6857C236.52 25.3832 235.452 25.1022 234.44 24.8455L235.587 23.3568C236.273 22.466 236.118 21.1696 235.219 20.4767L235.079 20.3687C234.191 19.6848 232.895 19.8447 232.2 20.7472L230.06 23.5252C230.014 23.5838 229.969 23.6425 229.936 23.7101C227.717 23.159 225.699 22.687 223.636 22.1998C217.364 20.7489 218.459 23.6283 221.168 25.716C229.437 32.0871 235.985 36.6091 239.392 38.879C235.695 44.1372 232.114 50.0647 229.826 54.8214C222.507 54.1509 220.545 54.451 220.545 54.451C217.246 58.2978 217.807 58.8982 217.807 58.8982C221.592 59.928 225.407 60.7749 227.441 61.2027C227.223 62.3796 227.317 63.1994 227.784 63.5594C228.252 63.9193 229.068 63.8014 230.133 63.3138C231.077 65.1807 232.842 68.6145 234.789 71.9823C234.789 71.9823 235.512 72.3717 238.391 68.201C238.391 68.201 238.183 66.2478 235.695 59.3802C239.711 55.9552 244.548 50.9582 248.71 46.0393C251.771 48.7339 257.827 53.9421 266.108 60.3221C268.852 62.4368 271.907 62.7726 268.905 57.0786Z" fill="white"/>
</g>
<defs>
<clipPath id="clip0">
<rect width="54.4484" height="58.7022" fill="white" transform="translate(266 713.203) rotate(-43.1004)"/>
</clipPath>
<clipPath id="clip1">
<rect width="44.3769" height="40.5937" fill="white" transform="matrix(0.795583 0.605844 -0.560607 0.828082 22.7571 296)"/>
</clipPath>
<clipPath id="clip2">
<rect width="38.9622" height="56.9772" fill="white" transform="matrix(0.962451 0.271454 -0.243213 0.969973 299.858 330)"/>
</clipPath>
<clipPath id="clip3">
<rect width="64.0474" height="58.0052" fill="white" transform="translate(236.402) rotate(37.6135)"/>
</clipPath>
</defs>
</svg>
