<svg width="1102" height="750" viewBox="0 0 1102 750" fill="none" xmlns="http://www.w3.org/2000/svg">
<g opacity="0.5" clip-path="url(#clip0)">
<path d="M1031.26 55.4445L1030.87 53.9562C1030.87 53.9562 1028.81 54.4184 1022.73 61.0441C1022.64 61.1569 1021.65 59.332 1021.3 59.3713C1019.31 60.9565 1015.84 64.9046 1014.89 68.2456C1014.46 66.6078 1013.95 66.6286 1013.33 66.1497C1012.26 67.4707 1010.07 70.2404 1008.19 74.2246C1008.19 74.2246 1007.29 72.6478 1006.24 72.4049C1004.87 74.0571 1002.21 81.0729 1001.43 83.0289C1000.99 82.627 1000.68 82.043 1000.58 81.4923C998.97 83.8184 998.558 86.457 998.145 88.4065C997.899 88.0888 997.169 87.7992 996.909 87.5325C995.39 89.8297 994.773 92.7959 994.435 95.3726C993.532 95.1993 993.024 94.4217 992.366 93.8771C991.062 95.7117 991.105 101.29 991.496 103.467L997.173 105.076C998.017 104.764 1002.99 100.553 1003.22 98.2751C1002.33 98.1347 1001.28 98.4715 1000.36 98.4586C1004 95.1088 1005.7 92.3673 1005.7 92.3673C1005.7 92.3673 1005.09 91.367 1003.49 91.0793C1008.08 88.1361 1011.58 83.2877 1011.58 83.2877C1011.58 83.2877 1010.27 82.3662 1009.32 82.4553C1014.84 79.6089 1016.96 76.4637 1016.96 76.4637C1016.96 76.4637 1016.07 75.1639 1015.23 74.8704C1019.02 73.7411 1023.33 68.7923 1023.33 68.7923C1023.33 68.7923 1023.02 67.6287 1019.98 67.1811C1023.7 66.3068 1026.78 65.5259 1029.02 62.6616C1028.74 61.9757 1027.82 62.0466 1027.25 61.6079C1030.68 60.8715 1034.01 59.198 1036.98 57.3123C1036.56 56.8083 1035.92 56.7085 1035.31 56.5651C1036.42 56.3013 1040.08 54.2785 1040.08 54.2785C1040.08 54.2785 1039.72 53.8476 1038.95 53.6017C1039.95 53.3595 1041.68 53.2721 1042.43 52.7123L1038.91 51.385C1036.69 51.887 1031.26 55.4445 1031.26 55.4445Z" fill="white"/>
<path d="M1064.8 84.7069C1065.53 85.1897 1066.34 85.5013 1067.31 85.4451C1068.45 83.0961 1066.25 79.4968 1064.35 77.8011C1064.8 78.0937 1065.46 78.3358 1065.99 78.264C1065.28 74.5366 1063.38 70.4713 1060.51 67.9497C1063.61 68.7729 1061.79 66.6035 1060.73 65.5039C1058.38 63.0199 1057.01 61.8321 1054.55 59.5374C1055.43 60.3668 1056.65 60.7121 1057.09 59.5683C1058.11 56.8545 1047.45 54.1631 1045.4 52.5911L1044.2 52.5812C1049.17 55.5047 1052.94 59.7709 1055.39 64.1837C1058.62 70.0601 1059.67 76.0594 1059.98 80.9707C1060.26 85.9257 1059.83 89.9095 1059.45 92.6137C1059.05 95.3362 1058.69 96.8046 1058.63 96.7899C1058.56 96.7678 1058.78 95.2882 1059.04 92.5801C1059.28 89.8646 1059.58 85.9279 1059.23 81.0603C1058.83 76.2362 1057.74 70.39 1054.56 64.747C1052.2 60.4984 1048.48 56.3563 1043.69 53.5681C1044.07 55.4099 1043.96 58.7673 1044.2 60.4886C1044.52 62.9209 1046.65 65.8675 1048.05 61.8275C1047.35 63.8894 1048.98 75.2344 1052.18 69.6671C1052 71.5989 1051.53 73.5593 1051.58 75.5572C1051.62 77.3874 1052.55 79.2231 1053.86 77.8588C1052.22 80.3125 1051.81 84.001 1052.49 86.671C1053.25 87.0263 1054.1 87.0171 1054.68 86.4387C1053.01 87.8934 1052.84 95.2025 1056.07 94.3819C1056.11 94.2289 1056.19 94.0577 1056.27 93.861C1055.69 96.4226 1054.85 102.549 1058.33 102.298C1061.82 102.046 1062.46 94.5669 1062.38 92.0659C1064.15 94.3045 1066.19 92.8433 1066.5 90.4779C1066.7 88.579 1066.21 86.0697 1064.8 84.7069Z" fill="white"/>
<path d="M1092.16 58.4332C1092.28 56.6216 1085.18 51.3311 1083.47 50.8717C1085.65 51.2701 1085.36 50.1139 1084.1 49.0138C1081.65 46.9123 1078.93 46.1409 1075.89 45.2813C1078.26 45.5124 1080.27 43.6575 1077.2 42.4551C1074.5 41.414 1070.16 40.8177 1067.47 42.0952C1067.82 41.6694 1068.45 41.0218 1068.14 40.5472C1066.95 38.6964 1062.29 40.3233 1060.75 42.0917C1061.05 41.6257 1061.57 40.8066 1061.24 40.4668C1059.65 38.8849 1056.22 40.9993 1054.88 41.9698C1054 42.6022 1053.43 43.7093 1052.56 44.2324C1053.1 42.429 1051.65 41.0004 1050.07 42.6448C1048.81 43.9145 1046.97 44.687 1045.02 48.9008C1047.29 47.3126 1049.9 46.3995 1052.41 45.7341C1055.67 44.9208 1058.93 44.6872 1061.99 44.7557C1068.15 44.933 1073.55 46.545 1077.73 48.5007C1081.94 50.4383 1084.95 52.6685 1086.92 54.3024C1088.89 55.9362 1089.85 57.0064 1089.81 57.0246C1089.77 57.0682 1088.76 56.1182 1086.73 54.5535C1084.73 53.0217 1081.7 50.8934 1077.51 49.0471C1073.36 47.2081 1068.05 45.6765 1062.04 45.5433C1059.04 45.4639 1055.86 45.7196 1052.7 46.5039C1049.98 47.1944 1047.14 48.2346 1044.86 50.0671C1046.46 50.4387 1053.47 51.8756 1050.69 48.5521C1052.37 50.0467 1054.4 50.4594 1056.66 51.0147C1059.17 51.6435 1061.83 51.2409 1059.26 48.7491C1060.79 49.9554 1063.82 50.2354 1065.76 50.3999C1066.1 49.6971 1065.96 48.9968 1065.77 48.2819C1066.82 50.0376 1068.52 51.0438 1070.38 51.8754C1071.46 52.3443 1073.78 52.9472 1073.47 51.5648C1074.62 53.6271 1078.34 56.5005 1079.49 54.8406C1079.57 54.7277 1079.61 54.6002 1079.59 54.4835C1080.52 56.126 1081.89 57.8096 1083.54 58.3308C1084.7 58.6869 1086.25 57.6403 1085.17 56.3147C1086.2 57.046 1091.98 60.9446 1092.16 58.4332Z" fill="white"/>
<path d="M1047.01 40.9795C1047.73 38.4292 1045.43 37.8591 1043.94 39.4491C1043.97 38.2716 1044.73 37.0556 1044.86 35.8237C1045.06 33.9247 1045.12 29.2585 1042.61 28.6552C1042.06 28.5264 1041.56 29.4878 1041.26 30.0631C1042.13 27.473 1040.99 21.9146 1038.46 21.8581C1037.79 21.8348 1037.51 22.8295 1037.29 23.4269C1036.99 20.0358 1033.83 16.0553 1031.19 14.0117C1028.13 11.6574 1027.45 14.7438 1029.09 16.9711C1026.41 14.4754 1024.05 12.2356 1020.49 11.0613C1018.64 10.4558 1017.33 10.854 1018.99 12.7861C1017.49 11.3684 1008.01 7.46915 1006.24 8.6757C1003.81 10.3293 1011.15 13.761 1012.51 14.3107C1010.55 14.0294 1010.4 16.2201 1011.46 17.1265C1012.97 18.4349 1015.47 18.7866 1017.67 18.7476C1017.53 18.8202 1017.45 18.933 1017.38 19.0787C1016.38 21.1947 1021.48 23.1633 1024.22 23.0853C1022.65 23.5778 1024.62 25.5397 1025.74 26.3259C1027.67 27.7008 1029.69 28.7697 1032.07 28.782C1031.22 29.0099 1030.46 29.3182 1029.95 30.0535C1031.25 31.8827 1033.33 34.7053 1035.43 35.4936C1031.43 34.4132 1032.58 37.2738 1034.69 39.3892C1036.59 41.278 1038.22 43.0606 1040.72 43.8242C1035.7 43.037 1041.31 49.1445 1042.64 50.4853C1043.11 47.1469 1042.48 43.7441 1041.59 40.6544C1040.5 37.0684 1038.89 33.773 1037.06 30.8562C1033.32 24.975 1028.64 20.6194 1024.34 17.6354C1020.01 14.6184 1016.08 12.8711 1013.36 11.7971C1010.62 10.7157 1009.03 10.2931 1009.06 10.191C1009.07 10.14 1010.69 10.4607 1013.49 11.4473C1016.29 12.434 1020.33 14.1014 1024.76 17.1222C1029.18 20.1102 1033.98 24.5025 1037.81 30.4641C1039.71 33.4539 1041.37 36.7896 1042.5 40.4996C1043.33 43.3814 1043.94 46.4742 1043.68 49.6782C1046.78 45.2408 1046.45 42.9689 1047.01 40.9795Z" fill="white"/>
<path d="M1006.59 63.1639C1005.05 66.0078 1010.39 67.328 1015.66 58.6263C1018.06 61.2344 1022.23 56.5769 1023.48 54.6438C1023.47 59.0222 1029.1 54.5829 1031.13 51.7692C1031.18 53.7671 1033.68 53.8162 1036.49 50.45C1036.53 52.0615 1038.72 50.6699 1039.89 49.7063C1028.4 49.2333 1018.27 52.3687 1011.77 55.953C1004.9 59.6531 1001.6 63.2917 1001.49 63.1529C1001.37 63.0907 1004.49 59.2075 1011.4 55.2705C1017.81 51.5219 1027.89 48.2625 1039.36 48.5933C1036.66 46.9725 1029.75 43.1954 1032.37 47.8783C1030.29 46.7364 1028.24 45.2738 1025.81 44.7509C1023.19 44.2021 1022.84 45.4518 1024.6 47.0268C1022.71 46.4905 1019.33 45.2838 1017.42 45.9834C1016.39 46.353 1015.57 47.496 1016.63 48.0998C1014.44 47.3988 1011.86 46.748 1010.15 48.6072C1010.55 49.1039 1011.12 49.4587 1011.75 49.6095C1007.91 49.1274 1002.57 51.059 1004.64 53.3529C1004.98 53.7255 1005.83 54.4638 1006.36 54.392C1003.75 54.5905 998.616 58.0939 1000.17 60.2154C1000.39 60.5257 1000.93 60.5961 1001.32 60.6225C999.934 61.2502 998.228 64.4037 999.577 65.4747C1001.75 67.1928 1005 65.1109 1006.59 63.1639Z" fill="white"/>
<path d="M1008.14 34.5892C1006.76 37.284 1012.26 38.1015 1013.93 38.6556C1011.55 39.7186 1012.03 41.9763 1014.19 42.7793C1016.62 43.6887 1019.35 42.5352 1021.48 41.3477C1020.35 44.1669 1025.29 43.9151 1028.17 41.1761C1027.07 43.8423 1030.15 44.3557 1034.53 43.8073C1029.05 39.0562 1022.48 37.0297 1017.77 36.1629C1012.49 35.2183 1009.18 35.4372 1009.17 35.2695C1009.15 35.1528 1012.52 34.646 1017.92 35.4341C1022.47 36.0891 1028.77 37.8744 1034.26 42.188C1033.21 40.0713 1031.43 36.4802 1030.8 35.7242C1029.61 34.2853 1028.26 34.3407 1028.95 36.4384C1028.02 34.4678 1025.07 30.3784 1022.15 31.7575C1021.57 32.0588 1021.9 32.8433 1022.27 33.442C1020.69 31.2877 1016.12 28.365 1014.69 31.0196C1014.38 31.6205 1015.43 32.1659 1015.78 32.7062C1014.11 32.3964 1008.92 32.9941 1008.14 34.5892Z" fill="white"/>
<path d="M1049.19 26.4709C1047.82 25.8628 1046.98 27.7458 1047.04 28.8104C1047.14 31.235 1049.14 32.6829 1050.19 34.5226C1048.71 33.9106 1047.95 35.4875 1048.05 36.7273C1048.15 38.0508 1048.95 39.2702 1049.67 40.3837C1051.11 38.09 1051.98 35.5837 1052.54 33.2334C1053.23 30.3148 1053.46 27.5993 1053.52 25.3282C1053.66 20.7678 1053.07 18.0104 1053.19 17.9888C1053.31 17.9672 1054.09 20.7505 1054.1 25.3549C1054.11 27.6736 1053.92 30.4293 1053.26 33.4391C1052.74 35.7712 1051.89 38.2849 1050.47 40.6369C1051.44 40.2781 1053.45 39.4986 1054.25 38.8441C1055.76 37.5896 1057.29 35.4346 1057.86 33.5292C1058.64 30.8841 1056.31 32.29 1054.89 32.6588C1055.28 31.5587 1056.38 30.5476 1056.92 29.4331C1057.69 27.8052 1058.09 26.0999 1057.87 24.3021C1057.64 22.3622 1057.04 21.3109 1055.6 23.1343C1056.43 20.3946 1058.08 15.4619 1055 13.3773C1051.16 10.7442 1051.27 18.1342 1051.54 19.9721C1050.53 18.2821 1048.4 16.8229 1047.17 19.1753C1046.05 21.3639 1047.53 24.9252 1049.19 26.4709Z" fill="white"/>
<path d="M1073.15 63.4598C1073.74 63.5449 1074.71 64.1776 1074.98 63.7043C1076.15 61.5559 1071.46 58.9319 1069.01 58.4855C1069.67 58.5599 1070.43 58.5287 1070.32 57.9451C1069.73 55.0784 1065.07 54.2263 1063.11 54.2221C1065.02 53.9929 1064.34 52.8612 1062.6 52.4529C1061.72 52.2286 1058.07 52.1333 1055.93 52.1032C1062.12 54.9345 1066.91 59.3779 1069.9 62.7856C1073.44 66.8763 1074.93 69.807 1074.82 69.8286C1074.68 69.9012 1073.01 67.1124 1069.41 63.2002C1066.18 59.6935 1061.08 55.162 1054.55 52.5122C1056.56 56.2788 1058.66 58.58 1060.01 56.6762C1059.58 60.0548 1062.09 64.1542 1063.55 62.1705C1063.83 64.3439 1064.5 67.0139 1066.5 68.6296C1068.28 70.0698 1070.21 69.5963 1069.69 67.273C1071.02 68.395 1074.66 72.5661 1075.88 70.4069C1076.66 69.1654 1074.25 64.7089 1073.15 63.4598Z" fill="white"/>
</g>
<g opacity="0.5" clip-path="url(#clip1)">
<path d="M42.7446 121.844L42.9828 120.935C42.9828 120.935 44.2422 121.218 47.9525 125.262C48.0062 125.331 48.6134 124.217 48.8254 124.241C50.0398 125.209 52.1586 127.618 52.7367 129.658C53.0003 128.658 53.3116 128.671 53.6902 128.378C54.3461 129.185 55.6799 130.875 56.8308 133.308C56.8308 133.308 57.3784 132.345 58.0201 132.197C58.8529 133.205 60.477 137.488 60.9522 138.682C61.2245 138.436 61.4141 138.08 61.4726 137.744C62.4562 139.164 62.7076 140.774 62.9595 141.964C63.1096 141.77 63.5552 141.594 63.7142 141.431C64.6415 142.833 65.018 144.644 65.2245 146.216C65.7757 146.111 66.0855 145.636 66.487 145.304C67.283 146.423 67.2567 149.828 67.0181 151.157L63.5531 152.139C63.0377 151.949 60.0016 149.379 59.8638 147.988C60.4036 147.902 61.043 148.108 61.6049 148.1C59.3844 146.055 58.346 144.382 58.346 144.382C58.346 144.382 58.7199 143.771 59.6957 143.596C56.896 141.799 54.7581 138.84 54.7581 138.84C54.7581 138.84 55.5558 138.277 56.1353 138.332C52.7713 136.594 51.475 134.674 51.475 134.674C51.475 134.674 52.0193 133.881 52.5326 133.702C50.2177 133.012 47.5838 129.992 47.5838 129.992C47.5838 129.992 47.7756 129.281 49.6296 129.008C47.3589 128.474 45.4803 127.998 44.113 126.249C44.2849 125.831 44.8441 125.874 45.1955 125.606C43.1024 125.157 41.0694 124.135 39.2561 122.984C39.5108 122.676 39.9037 122.615 40.272 122.528C39.594 122.367 37.3638 121.132 37.3638 121.132C37.3638 121.132 37.5798 120.869 38.05 120.719C37.4441 120.571 36.3863 120.518 35.9305 120.176L38.0767 119.366C39.4285 119.672 42.7446 121.844 42.7446 121.844Z" fill="white"/>
<path d="M22.2708 139.706C21.8244 140.001 21.3314 140.191 20.7405 140.157C20.0435 138.723 21.3864 136.526 22.5459 135.491C22.2718 135.669 21.8693 135.817 21.5492 135.773C21.9811 133.498 23.1409 131.016 24.8925 129.477C23.0009 129.98 24.1126 128.655 24.7599 127.984C26.1932 126.468 27.0304 125.743 28.5306 124.342C27.9904 124.849 27.2468 125.059 26.9806 124.361C26.3572 122.705 32.8654 121.062 34.1147 120.102L34.8479 120.096C31.8155 121.881 29.5112 124.485 28.0184 127.178C26.0439 130.765 25.4068 134.427 25.2138 137.425C25.0456 140.45 25.3075 142.882 25.5361 144.532C25.7849 146.194 26.0048 147.091 26.0365 147.082C26.0839 147.068 25.9476 146.165 25.7867 144.512C25.6416 142.854 25.4562 140.451 25.6738 137.48C25.916 134.535 26.5795 130.967 28.5261 127.522C29.9618 124.929 32.2364 122.4 35.1554 120.699C34.9271 121.823 34.9952 123.872 34.8486 124.923C34.6541 126.408 33.3521 128.206 32.4993 125.74C32.9244 126.999 31.9302 133.924 29.9756 130.526C30.0876 131.705 30.3755 132.901 30.3452 134.121C30.32 135.238 29.7488 136.359 28.9486 135.526C29.9543 137.024 30.1994 139.275 29.7896 140.905C29.3212 141.122 28.8068 141.116 28.4504 140.763C29.4712 141.651 29.5735 146.113 27.6026 145.612C27.5761 145.518 27.5294 145.414 27.4783 145.294C27.836 146.857 28.3491 150.597 26.2202 150.444C24.0914 150.29 23.7033 145.725 23.7491 144.198C22.6665 145.564 21.4223 144.673 21.2352 143.229C21.1118 142.07 21.4126 140.538 22.2708 139.706Z" fill="white"/>
<path d="M5.57186 123.668C5.49772 122.562 9.82987 119.333 10.8785 119.053C9.54583 119.296 9.72182 118.59 10.4887 117.919C11.9882 116.636 13.6495 116.165 15.5006 115.64C14.0535 115.781 12.8267 114.649 14.704 113.915C16.3528 113.28 19.0015 112.916 20.6413 113.695C20.4309 113.435 20.0453 113.04 20.2367 112.75C20.9591 111.621 23.8045 112.614 24.743 113.693C24.5598 113.409 24.2471 112.909 24.4447 112.701C25.4188 111.736 27.511 113.026 28.3284 113.619C28.8652 114.005 29.2106 114.681 29.7455 115C29.4164 113.899 30.2973 113.027 31.2656 114.031C32.0322 114.806 33.1572 115.277 34.3478 117.85C32.962 116.88 31.3682 116.323 29.8344 115.917C27.8476 115.42 25.8586 115.278 23.9903 115.319C20.2263 115.428 16.9328 116.412 14.3825 117.605C11.812 118.788 9.97581 120.149 8.77141 121.147C7.56702 122.144 6.98301 122.797 7.00324 122.808C7.02789 122.835 7.64978 122.255 8.88324 121.3C10.1053 120.365 11.9591 119.066 14.5113 117.939C17.0476 116.816 20.2866 115.881 23.9556 115.8C25.7879 115.752 27.7295 115.908 29.6599 116.386C31.3177 116.808 33.0531 117.443 34.447 118.561C33.4687 118.788 29.1877 119.665 30.886 117.637C29.8626 118.549 28.6179 118.801 27.244 119.14C25.7119 119.524 24.0868 119.278 25.6555 117.757C24.719 118.493 22.8701 118.664 21.685 118.765C21.4779 118.336 21.5619 117.908 21.6775 117.472C21.0412 118.543 20.0017 119.158 18.8636 119.665C18.2097 119.952 16.7928 120.32 16.9809 119.476C16.278 120.735 14.0061 122.489 13.3087 121.475C13.255 121.406 13.2329 121.329 13.2469 121.257C12.6764 122.26 11.8396 123.288 10.8358 123.606C10.1283 123.823 9.17801 123.184 9.83747 122.375C9.21192 122.821 5.68163 125.201 5.57186 123.668Z" fill="white"/>
<path d="M33.1312 113.014C32.6899 111.458 34.0955 111.11 35.003 112.08C34.9873 111.361 34.5205 110.619 34.4441 109.867C34.3207 108.708 34.2825 105.86 35.819 105.491C36.1557 105.413 36.4588 106 36.6438 106.351C36.1102 104.77 36.8065 101.377 38.3522 101.342C38.7584 101.328 38.9305 101.935 39.068 102.3C39.2505 100.23 41.177 97.8003 42.7891 96.5529C44.6551 95.1158 45.0694 96.9997 44.0703 98.3593C45.7067 96.8359 47.1481 95.4687 49.3208 94.7519C50.4468 94.3823 51.2507 94.6254 50.2346 95.8048C51.1516 94.9394 56.9381 92.5592 58.0186 93.2957C59.5012 94.3051 55.0183 96.3998 54.1904 96.7354C55.3896 96.5637 55.478 97.9009 54.8315 98.4542C53.9126 99.2528 52.3838 99.4675 51.0438 99.4437C51.1248 99.488 51.1785 99.5569 51.2208 99.6458C51.8262 100.937 48.714 102.139 47.0425 102.092C47.9995 102.392 46.8006 103.59 46.1161 104.07C44.9353 104.909 43.7016 105.561 42.2508 105.569C42.7688 105.708 43.2324 105.896 43.5476 106.345C42.7531 107.462 41.4809 109.184 40.1986 109.666C42.6439 109.006 41.9424 110.752 40.6504 112.044C39.4901 113.197 38.4995 114.285 36.9736 114.751C40.0337 114.27 36.6121 117.998 35.8014 118.817C35.5144 116.779 35.9 114.702 36.4422 112.816C37.1038 110.627 38.089 108.615 39.2082 106.835C41.4896 103.245 44.3426 100.586 46.9713 98.7648C49.6115 96.9232 52.0099 95.8566 53.6701 95.201C55.3461 94.541 56.3156 94.283 56.298 94.2207C56.2892 94.1896 55.302 94.3853 53.5925 94.9876C51.883 95.5898 49.4195 96.6077 46.7116 98.4516C44.0151 100.275 41.0831 102.957 38.7472 106.596C37.5894 108.421 36.5769 110.457 35.8856 112.721C35.3757 114.48 35.0049 116.368 35.1661 118.324C33.2702 115.615 33.4754 114.229 33.1312 113.014Z" fill="white"/>
<path d="M57.8058 126.556C58.7422 128.292 55.4837 129.098 52.2689 123.786C50.8057 125.378 48.2564 122.535 47.4947 121.355C47.5001 124.028 44.0656 121.318 42.8266 119.6C42.7963 120.82 41.2664 120.85 39.5559 118.795C39.527 119.779 38.1923 118.929 37.4786 118.341C44.4903 118.053 50.6734 119.966 54.6438 122.154C58.8393 124.413 60.8533 126.634 60.9148 126.549C60.9895 126.511 59.0869 124.141 54.8675 121.738C50.9542 119.45 44.8009 117.46 37.7988 117.662C39.4499 116.673 43.6678 114.367 42.068 117.225C43.3404 116.528 44.5915 115.636 46.0736 115.316C47.6708 114.981 47.887 115.744 46.8092 116.706C47.9642 116.378 50.0288 115.642 51.1925 116.069C51.8205 116.294 52.3259 116.992 51.6783 117.361C53.0099 116.933 54.5895 116.535 55.6291 117.67C55.3902 117.974 55.0414 118.19 54.6573 118.282C57.001 117.988 60.2581 119.167 58.997 120.567C58.788 120.795 58.2662 121.245 57.9461 121.201C59.5359 121.323 62.6718 123.461 61.7227 124.756C61.5883 124.946 61.2587 124.989 61.0239 125.005C61.8675 125.388 62.9088 127.313 62.0857 127.966C60.7591 129.015 58.7751 127.744 57.8058 126.556Z" fill="white"/>
<path d="M56.8615 109.114C57.7038 110.759 54.3412 111.258 53.326 111.596C54.7748 112.245 54.4817 113.623 53.1678 114.113C51.6842 114.668 50.0147 113.964 48.7152 113.239C49.4081 114.96 46.3904 114.806 44.6346 113.134C45.301 114.762 43.4241 115.075 40.7482 114.74C44.0969 111.84 48.1049 110.603 50.9804 110.074C54.2013 109.498 56.222 109.631 56.2271 109.529C56.2411 109.458 54.1878 109.148 50.8885 109.629C48.1131 110.029 44.2684 111.119 40.9125 113.752C41.5547 112.46 42.6427 110.268 43.0247 109.806C43.75 108.928 44.58 108.962 44.1567 110.242C44.7217 109.039 46.5268 106.543 48.3037 107.385C48.6635 107.569 48.4574 108.048 48.2362 108.413C49.1968 107.098 51.99 105.314 52.8595 106.935C53.0489 107.301 52.4083 107.634 52.1941 107.964C53.2174 107.775 56.3804 108.14 56.8615 109.114Z" fill="white"/>
<path d="M31.8005 104.158C32.6353 103.787 33.1492 104.936 33.1112 105.586C33.0521 107.066 31.8326 107.95 31.1937 109.073C32.0963 108.699 32.5571 109.662 32.4981 110.419C32.4366 111.227 31.9467 111.971 31.5069 112.651C30.6315 111.251 30.0953 109.721 29.757 108.286C29.3375 106.504 29.1925 104.847 29.1585 103.461C29.0702 100.677 29.4307 98.9938 29.3586 98.9806C29.2865 98.9674 28.8109 100.666 28.8042 103.477C28.7951 104.892 28.9129 106.574 29.314 108.412C29.6321 109.835 30.1524 111.37 31.0209 112.805C30.4289 112.586 29.2001 112.11 28.7108 111.711C27.793 110.945 26.8561 109.63 26.5093 108.467C26.0346 106.852 27.4572 107.71 28.3244 107.935C28.0828 107.264 27.4121 106.647 27.0826 105.966C26.6129 104.973 26.3691 103.932 26.5025 102.834C26.6454 101.65 27.0105 101.008 27.8901 102.121C27.3819 100.449 26.3746 97.4381 28.2531 96.1657C30.6007 94.5584 30.529 99.0693 30.3684 100.191C30.9819 99.1596 32.2849 98.2689 33.0337 99.7048C33.7201 101.041 32.815 103.215 31.8005 104.158Z" fill="white"/>
<path d="M17.176 126.737C16.8147 126.788 16.2233 127.175 16.056 126.886C15.3424 125.574 18.2044 123.973 19.6997 123.7C19.3024 123.746 18.8355 123.727 18.9054 123.37C19.2641 121.62 22.1079 121.1 23.3036 121.098C22.1359 120.958 22.5554 120.267 23.6129 120.018C24.1552 119.881 26.3779 119.823 27.6888 119.804C23.9055 121.533 20.9822 124.245 19.1618 126.325C16.9979 128.822 16.0863 130.611 16.1584 130.624C16.2393 130.668 17.261 128.966 19.4557 126.578C21.43 124.438 24.5431 121.671 28.5288 120.054C27.3003 122.353 26.0233 123.758 25.1982 122.596C25.458 124.658 23.9282 127.16 23.038 125.95C22.867 127.276 22.4573 128.906 21.2326 129.892C20.1486 130.771 18.9727 130.482 19.2886 129.064C18.4743 129.749 16.256 132.295 15.5064 130.977C15.0352 130.219 16.5033 127.499 17.176 126.737Z" fill="white"/>
</g>
<g opacity="0.5" clip-path="url(#clip2)">
<path d="M402.211 723.448C399.384 724.774 399.003 725.016 398.336 725.166C397.249 725.434 396.681 724.98 396.182 724.708C391.946 722.198 388.062 719.483 384.473 716.69L361.999 728.18C362.201 732.753 362.117 737.471 361.69 742.365C361.638 742.92 361.653 743.655 360.799 744.379C360.278 744.814 359.868 744.999 357.138 746.515C357.024 746.573 357.138 746.515 358.441 749.062C358.441 749.062 361.467 747.515 373.398 741.416C373.398 741.416 373.302 741.273 372.079 739.117C372.079 739.117 370.761 739.263 370.225 737.978C368.839 734.562 367.158 726.909 373.687 723.715C380.9 720.171 385.691 726.067 387.599 729.096C388.345 730.273 387.436 731.265 387.436 731.265C388.468 733.519 388.527 733.681 388.527 733.681C400.478 727.571 403.485 726.034 403.485 726.034C402.211 723.448 402.335 723.409 402.211 723.448Z" fill="white"/>
<path d="M361.382 727.584L384.237 715.899L383.293 711.658L358.668 724.247L361.382 727.584Z" fill="white"/>
<path d="M358.616 704.707C359.913 709.967 360.975 715.706 361.562 721.832L365.616 719.76C365.549 716.437 364.975 709.633 363.371 703.115C365.009 705.803 371.38 712.113 374.617 715.159L379.546 712.639C374.895 708.566 370.845 704.354 367.332 700.251L358.616 704.707Z" fill="white"/>
<path d="M358.37 703.897L367.01 699.48L365.684 695.338L355.713 700.436L358.37 703.897Z" fill="white"/>
<path d="M346.95 666.957C346.702 666.988 346.187 667.202 345.721 667.369C342.437 661.087 339.817 656.431 339.588 656.548C339.36 656.665 341.599 661.515 344.779 667.875C344.19 668.272 343.573 668.755 343.346 669.063C341.722 671.332 345.654 673.014 346.69 673.396L349.087 672.17C349.393 671.031 350.443 666.37 346.95 666.957Z" fill="white"/>
<path d="M347.397 674.497C349.557 679.1 353.701 687.58 357.027 698.829L363.516 695.511C356.472 686.38 352.053 678.16 349.528 673.408L347.397 674.497Z" fill="white"/>
</g>
<g clip-path="url(#clip3)">
<path d="M641.671 647.042C658.964 655.767 666.088 649.602 666.088 649.602C665.987 627.828 672.02 605.141 672.02 605.141C655.993 626.347 641.671 647.042 641.671 647.042Z" fill="white" fill-opacity="0.5"/>
<path d="M669.106 624.918C668.032 632.016 667.07 640.879 667.096 649.601L667.108 650.066L666.754 650.377C666.681 650.435 666.083 650.931 664.895 651.464C668.803 653.968 675.187 656.418 685.489 656.96C685.489 656.96 682.977 627.488 679 596.528C679.019 596.533 675.561 609.534 669.106 624.918Z" fill="white" fill-opacity="0.5"/>
<path d="M641.228 652.207C643.968 654.728 645.042 657.906 645.383 661.795C645.383 661.795 647.014 665.429 677.873 668.835C677.873 668.835 681.313 668.072 684.261 663.689C681.279 662.954 675.834 661.564 667.2 659.268C660.557 657.501 651.987 655.184 641.228 652.207Z" fill="white" fill-opacity="0.5"/>
<path d="M636.63 649.307C637.686 649.78 638.602 650.274 639.43 650.803C665.912 658.135 679.544 661.606 684.758 662.915C685.037 662.45 685.302 661.961 685.559 661.432C685.559 661.432 637.861 647.668 635.297 646.812C635.311 646.835 635.104 648.631 636.63 649.307Z" fill="white" fill-opacity="0.5"/>
</g>
<path d="M167.621 638.164L166.73 637.789C166.73 637.789 166.139 639.001 167.004 644.592C167.025 644.679 165.728 644.478 165.609 644.667C165.604 646.273 166.179 649.529 167.456 651.285C166.474 650.874 166.282 651.137 165.799 651.265C166.026 652.311 166.529 654.469 167.751 656.943C167.751 656.943 166.615 656.788 166.078 657.222C166.354 658.54 168.768 662.566 169.427 663.707C169.051 663.776 168.639 663.708 168.328 663.545C168.839 665.245 169.981 666.464 170.781 667.419C170.527 667.42 170.094 667.675 169.858 667.704C170.392 669.347 171.614 670.794 172.754 671.952C172.31 672.338 171.724 672.295 171.194 672.416C171.584 673.774 174.36 675.892 175.592 676.531L178.641 674.301C178.822 673.757 178.713 669.647 177.676 668.66C177.255 669.05 177.006 669.705 176.635 670.161C176.421 667.052 175.74 665.147 175.74 665.147C175.74 665.147 175.003 665.071 174.226 665.762C174.59 662.333 173.582 658.716 173.582 658.716C173.582 658.716 172.608 659.018 172.275 659.529C173.054 655.672 172.341 653.401 172.341 653.401C172.341 653.401 171.344 653.349 170.866 653.659C171.812 651.323 171.077 647.261 171.077 647.261C171.077 647.261 170.377 646.972 168.95 648.324C169.994 646.123 170.829 644.279 170.301 642.057C169.85 641.935 169.521 642.422 169.076 642.542C170.073 640.54 170.567 638.228 170.813 636.014C170.398 636.03 170.093 636.315 169.783 636.562C170.093 635.904 170.543 633.296 170.543 633.296C170.543 633.296 170.189 633.308 169.762 633.6C170.036 633.009 170.681 632.106 170.7 631.517L168.648 632.772C168.017 634.075 167.621 638.164 167.621 638.164Z" fill="white" fill-opacity="0.5"/>
<path d="M195.086 632.747C195.614 632.566 196.088 632.28 196.444 631.774C195.736 630.301 193.086 630.025 191.496 630.327C191.818 630.214 192.199 629.976 192.372 629.686C190.25 628.612 187.489 628.006 185.105 628.478C186.74 627.241 184.947 627.322 183.983 627.432C181.825 627.657 180.695 627.889 178.587 628.241C179.348 628.115 180.001 627.637 179.609 626.98C178.673 625.429 173.118 629.74 171.53 630.163L171.049 630.761C174.462 629.392 178.066 629.135 181.215 629.601C185.4 630.232 188.778 632.008 191.329 633.731C193.886 635.492 195.684 637.233 196.871 638.457C198.055 639.705 198.637 640.448 198.61 640.468C198.568 640.499 197.925 639.82 196.692 638.65C195.445 637.49 193.621 635.83 191.075 634.143C188.534 632.493 185.215 630.798 181.164 630.233C178.133 629.784 174.61 630.064 171.337 631.392C172.395 631.91 174.009 633.253 174.955 633.792C176.282 634.564 178.583 634.625 177.142 632.376C177.884 633.515 184.134 637.047 182.653 633.309C183.535 634.141 184.316 635.128 185.323 635.869C186.243 636.55 187.521 636.784 187.367 635.605C187.926 637.37 189.589 638.985 191.174 639.672C191.653 639.423 191.983 638.998 191.929 638.483C191.984 639.879 195.529 642.764 196.403 640.831C196.345 640.751 196.29 640.647 196.226 640.53C197.26 641.805 199.953 644.574 201.211 642.73C202.469 640.886 199.027 637.701 197.761 636.78C199.57 636.749 199.656 635.168 198.609 634.108C197.751 633.279 196.316 632.565 195.086 632.747Z" fill="white" fill-opacity="0.5"/>
<path d="M192.629 608.942C191.789 608.192 186.406 609.71 185.505 610.389C186.559 609.455 185.879 609.159 184.846 609.365C182.85 609.788 181.402 610.848 179.788 612.029C180.834 610.938 180.715 609.233 178.917 610.305C177.344 611.252 175.346 613.183 174.916 615.005C174.842 614.671 174.773 614.111 174.418 614.087C173.045 613.971 172.009 616.908 172.272 618.345C172.161 618.018 171.961 617.452 171.667 617.484C170.265 617.676 169.953 620.184 169.902 621.219C169.866 621.897 170.186 622.599 170.098 623.234C169.426 622.28 168.159 622.454 168.341 623.868C168.469 624.976 168.123 626.186 169.421 628.758C169.536 627.025 170.115 625.38 170.777 623.877C171.658 621.95 172.825 620.241 174.062 618.745C176.573 615.746 179.485 613.676 182.086 612.342C184.692 610.985 186.967 610.337 188.544 609.977C190.12 609.617 191.021 609.549 191.017 609.572C191.022 609.609 190.156 609.754 188.595 610.164C187.057 610.577 184.82 611.278 182.271 612.655C179.736 614.022 176.899 616.078 174.47 619.016C173.251 620.478 172.126 622.157 171.266 624.028C170.537 625.641 169.929 627.45 169.929 629.283C170.741 628.627 174.203 625.686 171.48 625.806C172.872 625.54 173.876 624.683 175.033 623.775C176.328 622.766 177.178 621.289 174.946 621.62C176.141 621.316 177.469 619.916 178.313 619.013C178.102 618.577 177.705 618.379 177.28 618.201C178.55 618.351 179.713 617.887 180.853 617.276C181.504 616.921 182.713 615.996 181.914 615.624C183.377 615.836 186.249 615.077 185.885 613.878C185.864 613.791 185.816 613.725 185.75 613.692C186.922 613.852 188.286 613.81 189.188 613.191C189.818 612.75 189.918 611.578 188.843 611.611C189.605 611.379 193.789 609.986 192.629 608.942Z" fill="white" fill-opacity="0.5"/>
<path d="M166.444 624.549C165.475 623.215 164.287 624.147 164.482 625.496C163.913 625.033 163.617 624.188 163.06 623.655C162.206 622.829 159.937 621.017 158.647 622.043C158.366 622.27 158.643 622.884 158.806 623.255C157.877 621.83 154.694 620.278 153.667 621.52C153.393 621.844 153.771 622.364 153.976 622.704C152.191 621.559 148.988 621.615 146.941 622.153C144.578 622.781 145.827 624.297 147.568 624.33C145.283 624.716 143.25 625.039 141.269 626.368C140.243 627.057 139.919 627.866 141.526 627.773C140.236 627.982 134.579 631.224 134.474 632.568C134.329 634.412 138.913 632.056 139.719 631.589C138.806 632.462 139.826 633.37 140.689 633.188C141.926 632.936 143.087 631.82 143.934 630.71C143.918 630.804 143.939 630.891 143.983 630.981C144.632 632.283 147.612 630.49 148.654 629.094C148.277 630.064 150.017 629.833 150.846 629.573C152.285 629.133 153.608 628.532 154.552 627.35C154.329 627.861 154.181 628.357 154.339 628.896C155.752 628.944 157.962 628.981 159.179 628.234C157.067 629.821 158.927 630.339 160.802 630.09C162.481 629.862 163.998 629.733 165.359 628.777C162.994 630.978 168.209 630.511 169.392 630.36C167.936 628.852 166.014 627.868 164.144 627.132C161.953 626.305 159.696 625.852 157.538 625.654C153.172 625.275 149.186 625.945 146.02 626.956C142.83 627.963 140.42 629.257 138.819 630.204C137.204 631.162 136.37 631.793 136.331 631.74C136.312 631.713 137.107 631.028 138.697 630.007C140.288 628.986 142.7 627.609 145.935 626.548C149.147 625.483 153.202 624.762 157.644 625.128C159.862 625.322 162.157 625.767 164.428 626.618C166.174 627.301 167.935 628.178 169.406 629.533C168.45 626.289 167.2 625.59 166.444 624.549Z" fill="white" fill-opacity="0.5"/>
<path d="M161.581 653.376C162.375 655.228 165.133 653.066 162.93 647.111C165.161 646.91 164.518 643.044 164.059 641.682C166.211 643.359 166.248 638.853 165.664 636.764C166.668 637.502 167.682 636.269 167.131 633.583C167.943 634.175 168.122 632.551 168.109 631.599C163.34 637.157 160.882 643.415 160.078 648.033C159.185 652.88 159.672 655.918 159.564 655.916C159.485 655.953 158.805 652.913 159.597 647.956C160.284 643.321 162.661 637.04 167.354 631.436C165.488 632.168 160.9 634.177 164.24 634.657C162.855 635.262 161.325 635.727 160.109 636.74C158.805 637.837 159.281 638.492 160.753 638.211C159.742 638.952 157.812 640.18 157.404 641.4C157.179 642.055 157.415 642.905 158.131 642.606C156.924 643.428 155.582 644.472 155.825 646.033C156.224 646.028 156.624 645.878 156.947 645.621C155.193 647.355 154.036 650.758 155.981 650.602C156.3 650.574 157.001 650.429 157.173 650.139C156.242 651.516 155.937 655.421 157.596 655.455C157.835 655.463 158.083 655.22 158.248 655.038C158.011 655.969 158.89 658.025 159.95 657.761C161.654 657.332 161.913 654.913 161.581 653.376Z" fill="white" fill-opacity="0.5"/>
<path d="M148.045 641.557C148.824 643.271 151.395 640.838 152.322 640.22C151.909 641.808 153.207 642.429 154.449 641.662C155.852 640.798 156.363 638.996 156.619 637.483C157.556 639.122 159.379 636.564 159.168 634.087C160.046 635.647 161.509 634.311 162.967 631.918C158.474 632.841 154.893 635.34 152.612 637.356C150.07 639.625 148.874 641.358 148.788 641.298C148.722 641.265 149.798 639.396 152.314 637.004C154.426 634.988 157.783 632.53 162.066 631.435C160.613 631.153 158.148 630.672 157.53 630.696C156.356 630.74 155.848 631.439 157.151 631.892C155.819 631.603 152.647 631.518 152.177 633.493C152.093 633.902 152.611 634.033 153.047 634.08C151.37 634.043 148.133 635.209 148.875 636.93C149.048 637.314 149.729 636.999 150.132 637.03C149.32 637.747 147.573 640.556 148.045 641.557Z" fill="white" fill-opacity="0.5"/>
<path d="M159.989 617.978C159.144 618.431 159.742 619.576 160.294 619.954C161.533 620.836 163.043 620.389 164.37 620.57C163.48 621.077 163.96 622.061 164.613 622.488C165.308 622.946 166.23 623.011 167.068 623.077C166.502 621.477 165.61 620.074 164.667 618.894C163.495 617.428 162.245 616.267 161.142 615.367C158.942 613.544 157.342 612.782 157.379 612.715C157.415 612.647 159.102 613.324 161.386 615.086C162.54 615.969 163.828 617.123 165.057 618.608C166.004 619.765 166.91 621.157 167.51 622.774C167.717 622.15 168.131 620.84 168.125 620.187C168.102 618.951 167.644 617.353 166.927 616.337C165.926 614.931 165.696 616.64 165.315 617.495C164.927 616.874 164.863 615.935 164.526 615.236C164.025 614.225 163.34 613.37 162.363 612.79C161.31 612.163 160.551 612.059 160.882 613.482C159.856 612.013 158.07 609.291 155.815 610.036C152.984 610.956 156.689 613.733 157.703 614.306C156.467 614.162 154.897 614.673 155.574 616.192C156.211 617.596 158.563 618.219 159.989 617.978Z" fill="white" fill-opacity="0.5"/>
<path d="M187.733 620.397C188.008 620.134 188.701 619.892 188.577 619.575C187.982 618.173 184.844 619.51 183.659 620.561C183.952 620.265 184.238 619.872 183.906 619.706C182.266 618.906 180.011 620.905 179.236 621.88C179.878 620.838 179.051 620.75 178.167 621.458C177.707 621.815 176.224 623.595 175.363 624.654C179.198 622.643 183.269 621.949 186.119 621.762C189.527 621.554 191.555 621.927 191.52 621.994C191.503 622.088 189.473 621.859 186.133 622.16C183.135 622.436 178.898 623.251 175.021 625.497C177.666 625.929 179.621 625.764 179.218 624.364C180.711 625.864 183.713 626.178 183.313 624.694C184.492 625.383 186.068 626.067 187.653 625.682C189.061 625.346 189.588 624.205 188.242 623.577C189.319 623.339 192.802 623.118 192.225 621.682C191.919 620.823 188.781 620.323 187.733 620.397Z" fill="white" fill-opacity="0.5"/>
<defs>
<clipPath id="clip0">
<rect width="96.5559" height="104.099" fill="white" transform="translate(1008.39) rotate(15.8251)"/>
</clipPath>
<clipPath id="clip1">
<rect width="58.9388" height="63.5434" fill="white" transform="matrix(-0.962098 0.272703 0.272703 0.962098 56.7057 88)"/>
</clipPath>
<clipPath id="clip2">
<rect width="50.7385" height="90.9339" fill="white" transform="translate(317 668.096) rotate(-27.0778)"/>
</clipPath>
<clipPath id="clip3">
<rect width="52.3311" height="72.7198" fill="white" transform="translate(650.691 589) rotate(14.8922)"/>
</clipPath>
</defs>
</svg>
