<svg width="1102" height="750" fill="none" xmlns="http://www.w3.org/2000/svg"><g opacity=".5" clip-path="url(#clip0)" fill="#fff"><path d="M1031.26 55.444l-.39-1.488s-2.06.462-8.14 7.088c-.09.113-1.08-1.712-1.43-1.673-1.99 1.585-5.46 5.534-6.41 8.875-.43-1.638-.94-1.617-1.56-2.096-1.07 1.32-3.26 4.09-5.14 8.075 0 0-.9-1.577-1.95-1.82-1.37 1.652-4.03 8.668-4.81 10.624a2.85 2.85 0 01-.85-1.537c-1.61 2.326-2.022 4.965-2.435 6.914-.246-.317-.976-.607-1.236-.874-1.519 2.298-2.136 5.264-2.474 7.84-.903-.173-1.411-.95-2.069-1.495-1.304 1.835-1.261 7.413-.87 9.59l5.677 1.609c.844-.312 5.817-4.523 6.047-6.8-.89-.141-1.94.196-2.86.183 3.64-3.35 5.34-6.092 5.34-6.092s-.61-1-2.21-1.288c4.59-2.943 8.09-7.791 8.09-7.791s-1.31-.922-2.26-.833c5.52-2.846 7.64-5.991 7.64-5.991s-.89-1.3-1.73-1.594c3.79-1.129 8.1-6.078 8.1-6.078s-.31-1.163-3.35-1.61c3.72-.875 6.8-1.656 9.04-4.52-.28-.686-1.2-.615-1.77-1.054 3.43-.736 6.76-2.41 9.73-4.296-.42-.504-1.06-.603-1.67-.747 1.11-.264 4.77-2.286 4.77-2.286s-.36-.431-1.13-.677c1-.242 2.73-.33 3.48-.89l-3.52-1.327c-2.22.502-7.65 4.06-7.65 4.06zm33.54 29.263c.73.483 1.54.794 2.51.738 1.14-2.349-1.06-5.948-2.96-7.644.45.293 1.11.535 1.64.463-.71-3.727-2.61-7.793-5.48-10.314 3.1.823 1.28-1.347.22-2.446-2.35-2.484-3.72-3.672-6.18-5.967.88.83 2.1 1.175 2.54.031 1.02-2.713-9.64-5.405-11.69-6.977l-1.2-.01c4.97 2.924 8.74 7.19 11.19 11.603 3.23 5.876 4.28 11.875 4.59 16.787.28 4.955-.15 8.938-.53 11.643-.4 2.722-.76 4.19-.82 4.176-.07-.022.15-1.502.41-4.21.24-2.715.54-6.652.19-11.52-.4-4.824-1.49-10.67-4.67-16.313-2.36-4.249-6.08-8.39-10.87-11.179.38 1.842.27 5.2.51 6.92.32 2.433 2.45 5.38 3.85 1.34-.7 2.061.93 13.406 4.13 7.84-.18 1.93-.65 3.891-.6 5.89.04 1.83.97 3.665 2.28 2.3-1.64 2.454-2.05 6.143-1.37 8.813.76.355 1.61.346 2.19-.232-1.67 1.454-1.84 8.764 1.39 7.943.04-.153.12-.324.2-.521-.58 2.562-1.42 8.688 2.06 8.437 3.49-.252 4.13-7.731 4.05-10.232 1.77 2.239 3.81.777 4.12-1.588.2-1.899-.29-4.408-1.7-5.771zm27.36-26.274c.12-1.811-6.98-7.102-8.69-7.561 2.18.398 1.89-.758.63-1.858-2.45-2.102-5.17-2.873-8.21-3.733 2.37.231 4.38-1.623 1.31-2.826-2.7-1.041-7.04-1.637-9.73-.36.35-.426.98-1.073.67-1.548-1.19-1.85-5.85-.224-7.39 1.545.3-.466.82-1.285.49-1.625-1.59-1.582-5.02.532-6.36 1.503-.88.632-1.45 1.74-2.32 2.262.54-1.803-.91-3.232-2.49-1.587-1.26 1.27-3.1 2.042-5.05 6.256 2.27-1.588 4.88-2.502 7.39-3.167 3.26-.813 6.52-1.047 9.58-.978a40.09 40.09 0 0115.74 3.745 41.27 41.27 0 019.19 5.801c1.97 1.634 2.93 2.704 2.89 2.723-.04.043-1.05-.907-3.08-2.471-2-1.532-5.03-3.66-9.22-5.507-4.15-1.839-9.46-3.37-15.47-3.504-3-.08-6.18.177-9.34.96-2.72.691-5.56 1.732-7.84 3.564 1.6.372 8.61 1.809 5.83-1.515 1.68 1.495 3.71 1.907 5.97 2.463 2.51.629 5.17.226 2.6-2.266 1.53 1.206 4.56 1.486 6.5 1.65.34-.702.2-1.402.01-2.117 1.05 1.756 2.75 2.762 4.61 3.593 1.08.47 3.4 1.072 3.09-.31 1.15 2.062 4.87 4.936 6.02 3.276.08-.113.12-.24.1-.358.93 1.643 2.3 3.327 3.95 3.848 1.16.356 2.71-.69 1.63-2.016 1.03.731 6.81 4.63 6.99 2.118zm-45.15-17.453c.72-2.55-1.58-3.12-3.07-1.53.03-1.178.79-2.394.92-3.626.2-1.9.26-6.565-2.25-7.169-.55-.129-1.05.833-1.35 1.408.87-2.59-.27-8.148-2.8-8.205-.67-.023-.95.971-1.17 1.569-.3-3.391-3.46-7.372-6.1-9.415-3.06-2.355-3.74.732-2.1 2.96-2.68-2.497-5.04-4.736-8.6-5.91-1.85-.606-3.16-.208-1.5 1.724-1.5-1.418-10.98-5.317-12.75-4.11-2.43 1.653 4.91 5.085 6.27 5.635-1.96-.282-2.11 1.91-1.05 2.816 1.51 1.308 4.01 1.66 6.21 1.62-.14.073-.22.186-.29.332-1 2.116 4.1 4.084 6.84 4.006-1.57.493.4 2.455 1.52 3.24 1.93 1.376 3.95 2.445 6.33 2.457-.85.228-1.61.536-2.12 1.271 1.3 1.83 3.38 4.652 5.48 5.44-4-1.08-2.85 1.78-.74 3.896 1.9 1.889 3.53 3.672 6.03 4.435-5.02-.787.59 5.32 1.92 6.661.47-3.338-.16-6.74-1.05-9.83-1.09-3.587-2.7-6.882-4.53-9.799-3.74-5.881-8.42-10.237-12.72-13.22-4.33-3.018-8.26-4.765-10.98-5.839-2.74-1.081-4.33-1.504-4.3-1.606.01-.051 1.63.27 4.43 1.256 2.8.987 6.84 2.654 11.27 5.675 4.42 2.988 9.22 7.38 13.05 13.342 1.9 2.99 3.56 6.326 4.69 10.036.83 2.881 1.44 5.974 1.18 9.178 3.1-4.437 2.77-6.71 3.33-8.698z"/><path d="M1006.59 63.164c-1.54 2.844 3.8 4.164 9.07-4.538 2.4 2.608 6.57-2.05 7.82-3.982-.01 4.378 5.62-.061 7.65-2.875.05 1.998 2.55 2.047 5.36-1.319.04 1.611 2.23.22 3.4-.744-11.49-.473-21.62 2.663-28.12 6.247-6.87 3.7-10.17 7.339-10.28 7.2-.12-.062 3-3.945 9.91-7.883 6.41-3.748 16.49-7.008 27.96-6.677-2.7-1.62-9.61-5.398-6.99-.715-2.08-1.142-4.13-2.604-6.56-3.127-2.62-.549-2.97.7-1.21 2.276-1.89-.537-5.27-1.743-7.18-1.044-1.03.37-1.85 1.513-.79 2.117-2.19-.701-4.77-1.352-6.48.507.4.497.97.852 1.6 1.002-3.84-.482-9.18 1.45-7.11 3.744.34.372 1.19 1.11 1.72 1.039-2.61.198-7.744 3.702-6.19 5.823.22.31.76.381 1.15.407-1.386.628-3.092 3.782-1.743 4.853 2.173 1.718 5.423-.364 7.013-2.311zm1.55-28.574c-1.38 2.694 4.12 3.511 5.79 4.066-2.38 1.063-1.9 3.32.26 4.123 2.43.91 5.16-.244 7.29-1.431-1.13 2.819 3.81 2.567 6.69-.172-1.1 2.666 1.98 3.18 6.36 2.631-5.48-4.75-12.05-6.777-16.76-7.644-5.28-.945-8.59-.726-8.6-.893-.02-.117 3.35-.624 8.75.164 4.55.655 10.85 2.44 16.34 6.754-1.05-2.117-2.83-5.708-3.46-6.464-1.19-1.439-2.54-1.383-1.85.714-.93-1.97-3.88-6.06-6.8-4.68-.58.3-.25 1.085.12 1.684-1.58-2.154-6.15-5.077-7.58-2.422-.31.6.74 1.146 1.09 1.686-1.67-.31-6.86.288-7.64 1.883zm41.05-8.12c-1.37-.607-2.21 1.276-2.15 2.34.1 2.425 2.1 3.873 3.15 5.713-1.48-.612-2.24.964-2.14 2.204.1 1.324.9 2.543 1.62 3.657 1.44-2.294 2.31-4.8 2.87-7.15.69-2.92.92-5.635.98-7.906.14-4.56-.45-7.318-.33-7.34.12-.02.9 2.762.91 7.367a36.94 36.94 0 01-.84 8.084c-.52 2.332-1.37 4.846-2.79 7.198.97-.359 2.98-1.138 3.78-1.793 1.51-1.254 3.04-3.41 3.61-5.315.78-2.645-1.55-1.239-2.97-.87.39-1.1 1.49-2.111 2.03-3.226.77-1.628 1.17-3.333.95-5.13-.23-1.94-.83-2.992-2.27-1.169.83-2.74 2.48-7.672-.6-9.757-3.84-2.633-3.73 4.757-3.46 6.595-1.01-1.69-3.14-3.15-4.37-.797-1.12 2.189.36 5.75 2.02 7.296zm23.96 36.99c.59.085 1.56.718 1.83.244 1.17-2.148-3.52-4.772-5.97-5.218.66.074 1.42.043 1.31-.54-.59-2.868-5.25-3.72-7.21-3.724 1.91-.23 1.23-1.36-.51-1.77-.88-.223-4.53-.319-6.67-.349 6.19 2.831 10.98 7.275 13.97 10.683 3.54 4.09 5.03 7.021 4.92 7.043-.14.072-1.81-2.717-5.41-6.629-3.23-3.507-8.33-8.038-14.86-10.688 2.01 3.767 4.11 6.068 5.46 4.164-.43 3.379 2.08 7.478 3.54 5.494.28 2.174.95 4.844 2.95 6.46 1.78 1.44 3.71.966 3.19-1.357 1.33 1.122 4.97 5.293 6.19 3.134.78-1.242-1.63-5.698-2.73-6.947z"/></g><g opacity=".5" clip-path="url(#clip1)" fill="#fff"><path d="M42.745 121.844l.238-.909s1.26.283 4.97 4.327c.053.069.66-1.045.872-1.021 1.215.968 3.334 3.377 3.912 5.417.263-1 .575-.987.953-1.28a23.96 23.96 0 013.14 4.93s.548-.963 1.19-1.111c.833 1.008 2.457 5.291 2.932 6.485.273-.246.462-.602.52-.938.984 1.42 1.236 3.03 1.487 4.22.15-.194.596-.37.755-.533.927 1.402 1.304 3.213 1.51 4.785.552-.105.861-.58 1.263-.912.796 1.119.77 4.524.531 5.853l-3.465.982c-.515-.19-3.551-2.76-3.69-4.151.54-.086 1.18.12 1.742.112-2.22-2.045-3.259-3.718-3.259-3.718s.374-.611 1.35-.786c-2.8-1.797-4.938-4.756-4.938-4.756s.798-.563 1.377-.508c-3.364-1.738-4.66-3.658-4.66-3.658s.544-.793 1.058-.972c-2.315-.69-4.95-3.71-4.95-3.71s.193-.711 2.047-.984c-2.271-.534-4.15-1.01-5.517-2.759.172-.418.731-.375 1.083-.643-2.094-.449-4.127-1.471-5.94-2.622.255-.308.648-.369 1.016-.456-.678-.161-2.908-1.396-2.908-1.396s.216-.263.686-.413c-.606-.148-1.664-.201-2.12-.543l2.147-.81c1.352.306 4.668 2.478 4.668 2.478zM22.27 139.706c-.446.295-.939.485-1.53.451-.696-1.434.646-3.631 1.806-4.666-.274.178-.677.326-.997.282.432-2.275 1.592-4.757 3.343-6.296-1.891.503-.78-.822-.132-1.493 1.433-1.516 2.27-2.241 3.77-3.642-.54.507-1.283.717-1.55.019-.623-1.656 5.885-3.299 7.135-4.259l.733-.006c-3.032 1.785-5.337 4.389-6.83 7.082-1.974 3.587-2.611 7.249-2.804 10.247-.168 3.025.094 5.457.322 7.107.249 1.662.469 2.559.5 2.55.048-.014-.088-.917-.25-2.57-.144-1.658-.33-4.061-.112-7.032.242-2.945.905-6.513 2.852-9.958 1.436-2.593 3.71-5.122 6.63-6.823-.229 1.124-.16 3.173-.307 4.224-.195 1.485-1.497 3.283-2.35.817.425 1.259-.569 8.184-2.523 4.786.112 1.179.4 2.375.37 3.595-.026 1.117-.597 2.238-1.397 1.405 1.005 1.498 1.25 3.749.84 5.379-.468.217-.982.211-1.339-.142 1.021.888 1.123 5.35-.847 4.849-.027-.094-.074-.198-.125-.318.358 1.563.871 5.303-1.258 5.15-2.129-.154-2.517-4.719-2.47-6.246-1.084 1.366-2.328.475-2.515-.969-.123-1.159.178-2.691 1.036-3.523zM5.572 123.668c-.074-1.106 4.258-4.335 5.307-4.615-1.333.243-1.157-.463-.39-1.134 1.5-1.283 3.16-1.754 5.012-2.279-1.447.141-2.674-.991-.797-1.725 1.649-.635 4.297-.999 5.937-.22-.21-.26-.596-.655-.404-.945.722-1.129 3.568-.136 4.506.943-.183-.284-.496-.784-.298-.992.974-.965 3.066.325 3.883.918.537.386.883 1.062 1.418 1.381-.33-1.101.551-1.973 1.52-.969.766.775 1.891 1.246 3.082 3.819-1.386-.97-2.98-1.527-4.514-1.933-1.986-.497-3.975-.639-5.844-.598a24.476 24.476 0 00-9.607 2.286 25.22 25.22 0 00-5.612 3.542c-1.204.997-1.788 1.65-1.768 1.661.025.027.647-.553 1.88-1.508a27.24 27.24 0 015.628-3.361c2.537-1.123 5.776-2.058 9.445-2.139 1.832-.048 3.774.108 5.704.586 1.658.422 3.393 1.057 4.787 2.175-.978.227-5.26 1.104-3.561-.924-1.023.912-2.268 1.164-3.642 1.503-1.532.384-3.157.138-1.588-1.383-.937.736-2.786.907-3.971 1.008-.207-.429-.123-.857-.008-1.293-.636 1.071-1.675 1.686-2.813 2.193-.654.287-2.071.655-1.883-.189-.703 1.259-2.975 3.013-3.672 1.999a.271.271 0 01-.062-.218c-.57 1.003-1.407 2.031-2.411 2.349-.708.217-1.658-.422-.999-1.231-.625.446-4.155 2.826-4.265 1.293zm27.559-10.654c-.441-1.556.965-1.904 1.872-.934-.016-.719-.483-1.461-.559-2.213-.123-1.159-.162-4.007 1.375-4.376.337-.078.64.509.825.86-.534-1.581.163-4.974 1.708-5.009.406-.014.579.593.716.958.183-2.07 2.109-4.5 3.721-5.747 1.866-1.437 2.28.447 1.281 1.806 1.637-1.523 3.078-2.89 5.25-3.607 1.127-.37 1.93-.127.915 1.053.917-.866 6.703-3.246 7.784-2.51 1.482 1.01-3 3.105-3.829 3.44 1.2-.171 1.288 1.166.642 1.72-.92.798-2.448 1.013-3.788.989a.422.422 0 01.177.202c.605 1.291-2.507 2.493-4.178 2.446.956.3-.242 1.498-.927 1.978-1.18.839-2.414 1.491-3.865 1.499.518.139.981.327 1.297.776-.795 1.117-2.067 2.839-3.35 3.321 2.446-.66 1.744 1.086.452 2.378-1.16 1.153-2.15 2.241-3.676 2.707 3.06-.481-.362 3.247-1.173 4.066-.287-2.038.099-4.115.641-6.001.662-2.189 1.647-4.201 2.766-5.981a28.452 28.452 0 017.763-8.07 32.175 32.175 0 016.7-3.564c1.675-.66 2.645-.918 2.627-.98-.009-.031-.996.164-2.706.767a29.498 29.498 0 00-6.88 3.464 28.477 28.477 0 00-7.965 8.144c-1.158 1.825-2.17 3.861-2.861 6.125-.51 1.759-.881 3.647-.72 5.603-1.896-2.709-1.69-4.095-2.035-5.31z"/><path d="M57.806 126.556c.936 1.736-2.322 2.542-5.537-2.77-1.463 1.592-4.013-1.251-4.774-2.431.005 2.673-3.43-.037-4.668-1.755-.03 1.22-1.56 1.25-3.271-.805-.029.984-1.364.134-2.077-.454 7.011-.288 13.194 1.625 17.165 3.813 4.195 2.259 6.21 4.48 6.27 4.395.075-.038-1.827-2.408-6.047-4.811-3.913-2.288-10.066-4.278-17.068-4.076 1.65-.989 5.869-3.295 4.269-.437 1.272-.697 2.524-1.589 4.006-1.909 1.597-.335 1.813.428.735 1.39 1.155-.328 3.22-1.064 4.384-.637.628.225 1.133.923.485 1.292 1.332-.428 2.912-.826 3.951.309a1.76 1.76 0 01-.972.612c2.344-.294 5.601.885 4.34 2.285-.209.228-.73.678-1.05.634 1.589.122 4.725 2.26 3.776 3.555-.135.19-.464.233-.7.249.844.383 1.886 2.308 1.063 2.961-1.327 1.049-3.31-.222-4.28-1.41zm-.945-17.442c.843 1.645-2.52 2.144-3.535 2.482 1.449.649 1.156 2.027-.158 2.517-1.484.555-3.153-.149-4.453-.874.693 1.721-2.325 1.567-4.08-.105.666 1.628-1.21 1.941-3.887 1.606 3.349-2.9 7.357-4.137 10.232-4.666 3.221-.576 5.242-.443 5.247-.545.014-.071-2.04-.381-5.338.1-2.776.4-6.62 1.49-9.977 4.123.643-1.292 1.73-3.484 2.113-3.946.725-.878 1.555-.844 1.132.436.565-1.203 2.37-3.699 4.147-2.857.36.184.153.663-.068 1.028.96-1.315 3.754-3.099 4.623-1.478.19.366-.45.699-.665 1.029 1.023-.189 4.186.176 4.667 1.15zM31.8 104.158c.835-.371 1.35.778 1.311 1.428-.059 1.48-1.278 2.364-1.917 3.487.902-.374 1.363.589 1.304 1.346-.061.808-.551 1.552-.991 2.232-.876-1.4-1.412-2.93-1.75-4.365a23.558 23.558 0 01-.599-4.825c-.088-2.784.273-4.467.2-4.48-.072-.014-.547 1.685-.554 4.496a22.478 22.478 0 00.51 4.935c.318 1.423.838 2.958 1.707 4.393-.592-.219-1.82-.695-2.31-1.094-.918-.766-1.855-2.081-2.202-3.244-.474-1.615.948-.757 1.815-.532-.241-.671-.912-1.288-1.241-1.969-.47-.993-.714-2.034-.58-3.132.142-1.184.508-1.826 1.387-.713-.508-1.672-1.515-4.683.363-5.955 2.348-1.608 2.276 2.903 2.115 4.025.614-1.031 1.917-1.922 2.666-.486.686 1.336-.219 3.51-1.233 4.453zm-14.624 22.579c-.361.051-.953.438-1.12.149-.714-1.312 2.148-2.913 3.644-3.186-.398.046-.864.027-.795-.33.36-1.75 3.203-2.27 4.399-2.272-1.168-.14-.749-.831.309-1.08.542-.137 2.765-.195 4.076-.214-3.784 1.729-6.707 4.441-8.527 6.521-2.164 2.497-3.076 4.286-3.004 4.299.081.044 1.103-1.658 3.298-4.046 1.974-2.14 5.087-4.907 9.073-6.524-1.229 2.299-2.506 3.704-3.33 2.542.259 2.062-1.27 4.564-2.161 3.354-.171 1.326-.58 2.956-1.805 3.942-1.084.879-2.26.59-1.944-.828-.815.685-3.033 3.231-3.783 1.913-.47-.758.997-3.478 1.67-4.24z"/></g><g opacity=".5" clip-path="url(#clip2)" fill="#fff"><path d="M402.211 723.448c-2.827 1.326-3.208 1.568-3.875 1.718-1.087.268-1.655-.186-2.154-.458-4.236-2.51-8.12-5.225-11.709-8.018l-22.474 11.49a107.99 107.99 0 01-.309 14.185c-.052.555-.037 1.29-.891 2.014-.521.435-.931.62-3.661 2.136-.114.058 0 0 1.303 2.547l14.957-7.646s-.096-.143-1.319-2.299c0 0-1.318.146-1.854-1.139-1.386-3.416-3.067-11.069 3.462-14.263 7.213-3.544 12.004 2.352 13.912 5.381.746 1.177-.163 2.169-.163 2.169 1.032 2.254 1.091 2.416 1.091 2.416l14.958-7.647c-1.274-2.586-1.15-2.625-1.274-2.586zm-40.829 4.136l22.855-11.685-.944-4.241-24.625 12.589 2.714 3.337zm-2.766-22.877c1.297 5.26 2.359 10.999 2.946 17.125l4.054-2.072c-.067-3.323-.641-10.127-2.245-16.645 1.638 2.688 8.009 8.998 11.246 12.044l4.929-2.52c-4.651-4.073-8.701-8.285-12.214-12.388l-8.716 4.456zm-.246-.81l8.64-4.417-1.326-4.142-9.971 5.098 2.657 3.461zm-11.42-36.94c-.248.031-.763.245-1.229.412-3.284-6.282-5.904-10.938-6.133-10.821-.228.117 2.011 4.967 5.191 11.327-.589.397-1.206.88-1.433 1.188-1.624 2.269 2.308 3.951 3.344 4.333l2.397-1.226c.306-1.139 1.356-5.8-2.137-5.213zm.447 7.54c2.16 4.603 6.304 13.083 9.63 24.332l6.489-3.318c-7.044-9.131-11.463-17.351-13.988-22.103l-2.131 1.089z"/></g><g clip-path="url(#clip3)" fill="#fff" fill-opacity=".5"><path d="M641.671 647.042c17.293 8.725 24.417 2.56 24.417 2.56-.101-21.774 5.932-44.461 5.932-44.461-16.027 21.206-30.349 41.901-30.349 41.901z"/><path d="M669.106 624.918c-1.074 7.098-2.036 15.961-2.01 24.683l.012.465-.354.311c-.073.058-.671.554-1.859 1.087 3.908 2.504 10.292 4.954 20.594 5.496 0 0-2.512-29.472-6.489-60.432.019.005-3.439 13.006-9.894 28.39zm-27.878 27.289c2.74 2.521 3.814 5.699 4.155 9.588 0 0 1.631 3.634 32.49 7.04 0 0 3.44-.763 6.388-5.146-2.982-.735-8.427-2.125-17.061-4.421a2711.006 2711.006 0 01-25.972-7.061zm-4.598-2.9c1.056.473 1.972.967 2.8 1.496 26.482 7.332 40.114 10.803 45.328 12.112.279-.465.544-.954.801-1.483 0 0-47.698-13.764-50.262-14.62.014.023-.193 1.819 1.333 2.495z"/></g><path d="M167.621 638.164l-.891-.375s-.591 1.212.274 6.803c.021.087-1.276-.114-1.395.075-.005 1.606.57 4.862 1.847 6.618-.982-.411-1.174-.148-1.657-.02.227 1.046.73 3.204 1.952 5.678 0 0-1.136-.155-1.673.279.276 1.318 2.69 5.344 3.349 6.485a1.765 1.765 0 01-1.099-.162c.511 1.7 1.653 2.919 2.453 3.874-.254.001-.687.256-.923.285.534 1.643 1.756 3.09 2.896 4.248-.444.386-1.03.343-1.56.464.39 1.358 3.166 3.476 4.398 4.115l3.049-2.23c.181-.544.072-4.654-.965-5.641-.421.39-.67 1.045-1.041 1.501-.214-3.109-.895-5.014-.895-5.014s-.737-.076-1.514.615c.364-3.429-.644-7.046-.644-7.046s-.974.302-1.307.813c.779-3.857.066-6.128.066-6.128s-.997-.052-1.475.258c.946-2.336.211-6.398.211-6.398s-.7-.289-2.127 1.063c1.044-2.201 1.879-4.045 1.351-6.267-.451-.122-.78.365-1.225.485.997-2.002 1.491-4.314 1.737-6.528-.415.016-.72.301-1.03.548.31-.658.76-3.266.76-3.266s-.354.012-.781.304c.274-.591.919-1.494.938-2.083l-2.052 1.255c-.631 1.303-1.027 5.392-1.027 5.392zm27.465-5.417c.528-.181 1.002-.467 1.358-.973-.708-1.473-3.358-1.749-4.948-1.447.322-.113.703-.351.876-.641-2.122-1.074-4.883-1.68-7.267-1.208 1.635-1.237-.158-1.156-1.122-1.046-2.158.225-3.288.457-5.396.809.761-.126 1.414-.604 1.022-1.261-.936-1.551-6.491 2.76-8.079 3.183l-.481.598c3.413-1.369 7.017-1.626 10.166-1.16 4.185.631 7.563 2.407 10.114 4.13 2.557 1.761 4.355 3.502 5.542 4.726 1.184 1.248 1.766 1.991 1.739 2.011-.042.031-.685-.648-1.918-1.818-1.247-1.16-3.071-2.82-5.617-4.507-2.541-1.65-5.86-3.345-9.911-3.91-3.031-.449-6.554-.169-9.827 1.159 1.058.518 2.672 1.861 3.618 2.4 1.327.772 3.628.833 2.187-1.416.742 1.139 6.992 4.671 5.511.933.882.832 1.663 1.819 2.67 2.56.92.681 2.198.915 2.044-.264.559 1.765 2.222 3.38 3.807 4.067.479-.249.809-.674.755-1.189.055 1.396 3.6 4.281 4.474 2.348-.058-.08-.113-.184-.177-.301 1.034 1.275 3.727 4.044 4.985 2.2 1.258-1.844-2.184-5.029-3.45-5.95 1.809-.031 1.895-1.612.848-2.672-.858-.829-2.293-1.543-3.523-1.361zm-2.457-23.805c-.84-.75-6.223.768-7.124 1.447 1.054-.934.374-1.23-.659-1.024-1.996.423-3.444 1.483-5.058 2.664 1.046-1.091.927-2.796-.871-1.724-1.573.947-3.571 2.878-4.001 4.7-.074-.334-.143-.894-.498-.918-1.373-.116-2.409 2.821-2.146 4.258-.111-.327-.311-.893-.605-.861-1.402.192-1.714 2.7-1.765 3.735-.036.678.284 1.38.196 2.015-.672-.954-1.939-.78-1.757.634.128 1.108-.218 2.318 1.08 4.89.115-1.733.694-3.378 1.356-4.881.881-1.927 2.048-3.636 3.285-5.132a26.003 26.003 0 018.024-6.403 26.636 26.636 0 016.458-2.365c1.576-.36 2.477-.428 2.473-.405.005.037-.861.182-2.422.592a28.76 28.76 0 00-6.324 2.491c-2.535 1.367-5.372 3.423-7.801 6.361-1.219 1.462-2.344 3.141-3.204 5.012-.729 1.613-1.337 3.422-1.337 5.255.812-.656 4.274-3.597 1.551-3.477 1.392-.266 2.396-1.123 3.553-2.031 1.295-1.009 2.145-2.486-.087-2.155 1.195-.304 2.523-1.704 3.367-2.607-.211-.436-.608-.634-1.033-.812 1.27.15 2.433-.314 3.573-.925.651-.355 1.86-1.28 1.061-1.652 1.463.212 4.335-.547 3.971-1.746a.27.27 0 00-.135-.186c1.172.16 2.536.118 3.438-.501.63-.441.73-1.613-.345-1.58.762-.232 4.946-1.625 3.786-2.669zm-26.185 15.607c-.969-1.334-2.157-.402-1.962.947-.569-.463-.865-1.308-1.422-1.841-.854-.826-3.123-2.638-4.413-1.612-.281.227-.004.841.159 1.212-.929-1.425-4.112-2.977-5.139-1.735-.274.324.104.844.309 1.184-1.785-1.145-4.988-1.089-7.035-.551-2.363.628-1.114 2.144.627 2.177-2.285.386-4.318.709-6.299 2.038-1.026.689-1.35 1.498.257 1.405-1.29.209-6.947 3.451-7.052 4.795-.145 1.844 4.439-.512 5.245-.979-.913.873.107 1.781.97 1.599 1.237-.252 2.398-1.368 3.245-2.478a.434.434 0 00.049.271c.649 1.302 3.629-.491 4.671-1.887-.377.97 1.363.739 2.192.479 1.439-.44 2.762-1.041 3.706-2.223-.223.511-.371 1.007-.213 1.546 1.413.048 3.623.085 4.84-.662-2.112 1.587-.252 2.105 1.623 1.856 1.679-.228 3.196-.357 4.557-1.313-2.365 2.201 2.85 1.734 4.033 1.583-1.456-1.508-3.378-2.492-5.248-3.228-2.191-.827-4.448-1.28-6.606-1.478-4.366-.379-8.352.291-11.518 1.302-3.19 1.007-5.6 2.301-7.201 3.248-1.615.958-2.449 1.589-2.488 1.536-.019-.027.776-.712 2.366-1.733a31.388 31.388 0 017.238-3.459c3.212-1.065 7.267-1.786 11.709-1.42 2.218.194 4.513.639 6.784 1.49 1.746.683 3.507 1.56 4.978 2.915-.956-3.244-2.206-3.943-2.962-4.984z" fill="#fff" fill-opacity=".5"/><path d="M161.581 653.376c.794 1.852 3.552-.31 1.349-6.265 2.231-.201 1.588-4.067 1.129-5.429 2.152 1.677 2.189-2.829 1.605-4.918 1.004.738 2.018-.495 1.467-3.181.812.592.991-1.032.978-1.984-4.769 5.558-7.227 11.816-8.031 16.434-.893 4.847-.406 7.885-.514 7.883-.079.037-.759-3.003.033-7.96.687-4.635 3.064-10.916 7.757-16.52-1.866.732-6.454 2.741-3.114 3.221-1.385.605-2.915 1.07-4.131 2.083-1.304 1.097-.828 1.752.644 1.471-1.011.741-2.941 1.969-3.349 3.189-.225.655.011 1.505.727 1.206-1.207.822-2.549 1.866-2.306 3.427a1.861 1.861 0 001.122-.412c-1.754 1.734-2.911 5.137-.966 4.981.319-.028 1.02-.173 1.192-.463-.931 1.377-1.236 5.282.423 5.316.239.008.487-.235.652-.417-.237.931.642 2.987 1.702 2.723 1.704-.429 1.963-2.848 1.631-4.385zm-13.536-11.819c.779 1.714 3.35-.719 4.277-1.337-.413 1.588.885 2.209 2.127 1.442 1.403-.864 1.914-2.666 2.17-4.179.937 1.639 2.76-.919 2.549-3.396.878 1.56 2.341.224 3.799-2.169-4.493.923-8.074 3.422-10.355 5.438-2.542 2.269-3.738 4.002-3.824 3.942-.066-.033 1.01-1.902 3.526-4.294 2.112-2.016 5.469-4.474 9.752-5.569-1.453-.282-3.918-.763-4.536-.739-1.174.044-1.682.743-.379 1.196-1.332-.289-4.504-.374-4.974 1.601-.084.409.434.54.87.587-1.677-.037-4.914 1.129-4.172 2.85.173.384.854.069 1.257.1-.812.717-2.559 3.526-2.087 4.527zm11.944-23.579c-.845.453-.247 1.598.305 1.976 1.239.882 2.749.435 4.076.616-.89.507-.41 1.491.243 1.918.695.458 1.617.523 2.455.589-.566-1.6-1.458-3.003-2.401-4.183a23.552 23.552 0 00-3.525-3.527c-2.2-1.823-3.8-2.585-3.763-2.652.036-.068 1.723.609 4.007 2.371a22.519 22.519 0 013.671 3.522c.947 1.157 1.853 2.549 2.453 4.166.207-.624.621-1.934.615-2.587-.023-1.236-.481-2.834-1.198-3.85-1.001-1.406-1.231.303-1.612 1.158-.388-.621-.452-1.56-.789-2.259-.501-1.011-1.186-1.866-2.163-2.446-1.053-.627-1.812-.731-1.481.692-1.026-1.469-2.812-4.191-5.067-3.446-2.831.92.874 3.697 1.888 4.27-1.236-.144-2.806.367-2.129 1.886.637 1.404 2.989 2.027 4.415 1.786zm27.744 2.419c.275-.263.968-.505.844-.822-.595-1.402-3.733-.065-4.918.986.293-.296.579-.689.247-.855-1.64-.8-3.895 1.199-4.67 2.174.642-1.042-.185-1.13-1.069-.422-.46.357-1.943 2.137-2.804 3.196 3.835-2.011 7.906-2.705 10.756-2.892 3.408-.208 5.436.165 5.401.232-.017.094-2.047-.135-5.387.166-2.998.276-7.235 1.091-11.112 3.337 2.645.432 4.6.267 4.197-1.133 1.493 1.5 4.495 1.814 4.095.33 1.179.689 2.755 1.373 4.34.988 1.408-.336 1.935-1.477.589-2.105 1.077-.238 4.56-.459 3.983-1.895-.306-.859-3.444-1.359-4.492-1.285z" fill="#fff" fill-opacity=".5"/><defs><clipPath id="clip0"><path fill="#fff" transform="rotate(15.825 504.195 3627.7)" d="M0 0h96.556v104.099H0z"/></clipPath><clipPath id="clip1"><path fill="#fff" transform="matrix(-.9621 .2727 .2727 .9621 56.706 88)" d="M0 0h58.939v63.543H0z"/></clipPath><clipPath id="clip2"><path fill="#fff" transform="rotate(-27.078 1545.76 -324.183)" d="M0 0h50.739v90.934H0z"/></clipPath><clipPath id="clip3"><path fill="#fff" transform="rotate(14.892 -1927.982 2783.838)" d="M0 0h52.331v72.72H0z"/></clipPath></defs></svg>