<svg width="464" height="426" fill="none" xmlns="http://www.w3.org/2000/svg"><g opacity=".5" clip-path="url(#clip0)" fill="#fff"><path d="M262.906 347.265l-.22-.839s-1.164.261-4.591 3.997c-.05.064-.611-.966-.807-.943-1.122.894-3.079 3.12-3.613 5.004-.244-.924-.531-.912-.881-1.182a22.123 22.123 0 00-2.901 4.554s-.506-.89-1.099-1.027c-.769.932-2.27 4.888-2.709 5.991a1.574 1.574 0 01-.48-.866c-.909 1.312-1.141 2.799-1.374 3.899-.139-.179-.55-.343-.697-.493-.857 1.295-1.205 2.968-1.395 4.421-.51-.098-.796-.536-1.167-.843-.735 1.034-.711 4.18-.49 5.407l3.201.908c.476-.176 3.281-2.551 3.408-3.835-.499-.079-1.09.11-1.609.103 2.052-1.889 3.011-3.435 3.011-3.435s-.345-.564-1.247-.726c2.586-1.66 4.562-4.394 4.562-4.394s-.737-.519-1.273-.469c3.108-1.605 4.306-3.379 4.306-3.379s-.503-.733-.978-.898c2.139-.637 4.572-3.428 4.572-3.428s-.177-.656-1.89-.908c2.098-.493 3.833-.934 5.097-2.549-.159-.387-.676-.347-1-.594 1.933-.415 3.811-1.359 5.486-2.422-.235-.285-.598-.341-.938-.422.626-.149 2.687-1.289 2.687-1.289s-.2-.243-.634-.382c.559-.136 1.537-.186 1.958-.501l-1.983-.749c-1.249.283-4.312 2.289-4.312 2.289zm18.914 16.502c.412.272.868.448 1.413.416.644-1.325-.596-3.354-1.667-4.311.253.165.625.302.92.261-.399-2.102-1.47-4.394-3.088-5.816 1.747.464.72-.759.122-1.379-1.324-1.401-2.097-2.071-3.483-3.365.499.468 1.186.663 1.432.018.576-1.531-5.437-3.048-6.591-3.935l-.677-.005c2.801 1.648 4.93 4.054 6.309 6.542 1.824 3.314 2.413 6.697 2.591 9.467a33.409 33.409 0 01-.298 6.565c-.23 1.535-.433 2.363-.462 2.355-.044-.012.082-.847.231-2.374.134-1.531.305-3.751.104-6.496-.224-2.72-.837-6.017-2.635-9.199-1.326-2.396-3.428-4.732-6.124-6.304.211 1.039.148 2.932.283 3.903.18 1.371 1.383 3.033 2.171.755-.393 1.162.525 7.56 2.331 4.421-.104 1.089-.369 2.194-.341 3.321.023 1.032.551 2.067 1.29 1.298-.929 1.383-1.156 3.463-.777 4.969.433.2.908.195 1.237-.131-.943.82-1.038 4.942.783 4.479.025-.086.068-.182.115-.293-.33 1.444-.804 4.899 1.162 4.757 1.967-.142 2.325-4.359 2.283-5.77 1 1.263 2.15.439 2.322-.895.114-1.071-.163-2.486-.956-3.254zm15.426-14.816c.069-1.022-3.933-4.005-4.902-4.264 1.231.224 1.069-.428.36-1.048-1.385-1.185-2.92-1.62-4.63-2.105 1.337.131 2.47-.915.736-1.593-1.523-.588-3.97-.924-5.485-.203.195-.24.551-.606.374-.873-.667-1.044-3.296-.127-4.163.871.169-.263.458-.725.275-.917-.899-.892-2.832.301-3.587.848-.496.357-.815.981-1.309 1.276.304-1.017-.51-1.823-1.405-.895-.708.716-1.747 1.151-2.847 3.527 1.28-.895 2.752-1.41 4.169-1.785 1.836-.459 3.673-.591 5.399-.552 3.477.1 6.52 1.009 8.876 2.112a23.31 23.31 0 015.184 3.271c1.112.922 1.652 1.525 1.633 1.535-.023.025-.597-.511-1.737-1.393a25.14 25.14 0 00-5.199-3.105c-2.343-1.037-5.335-1.901-8.725-1.976-1.692-.045-3.486.099-5.269.542-1.532.389-3.135.976-4.423 2.009.904.21 4.859 1.02 3.29-.854.945.843 2.095 1.075 3.364 1.388 1.416.355 2.917.128 1.468-1.277.865.68 2.573.838 3.668.931.191-.397.114-.791.007-1.195.588.99 1.548 1.558 2.599 2.027.604.264 1.913.604 1.74-.175.649 1.163 2.748 2.783 3.392 1.847a.25.25 0 00.057-.202c.527.927 1.3 1.876 2.228 2.17.653.201 1.531-.389.922-1.137.578.412 3.839 2.611 3.94 1.195zm-25.459-9.842c.407-1.439-.891-1.76-1.729-.863.014-.664.445-1.35.516-2.045.114-1.071.149-3.702-1.27-4.042-.311-.073-.591.469-.762.794.493-1.461-.151-4.595-1.578-4.627-.376-.013-.535.548-.662.885-.168-1.913-1.948-4.157-3.437-5.31-1.724-1.327-2.107.413-1.184 1.669-1.512-1.407-2.843-2.67-4.85-3.332-1.041-.342-1.783-.117-.845.972-.847-.799-6.192-2.998-7.191-2.318-1.369.933 2.772 2.868 3.537 3.178-1.108-.159-1.189 1.077-.592 1.588.849.738 2.261.936 3.499.914a.387.387 0 00-.164.187c-.559 1.193 2.316 2.303 3.86 2.259-.884.278.224 1.384.856 1.827 1.091.776 2.231 1.378 3.571 1.385-.479.129-.907.303-1.198.717.734 1.032 1.909 2.623 3.094 3.068-2.259-.609-1.611 1.004-.418 2.197 1.072 1.065 1.988 2.07 3.397 2.501-2.827-.444.334 3 1.083 3.756.265-1.883-.091-3.801-.592-5.544-.611-2.022-1.521-3.88-2.555-5.525a26.282 26.282 0 00-7.172-7.455 29.731 29.731 0 00-6.188-3.293c-1.549-.609-2.444-.848-2.428-.905.008-.029.92.152 2.499.708a27.288 27.288 0 016.357 3.2 26.314 26.314 0 017.358 7.524c1.069 1.686 2.005 3.567 2.643 5.659.471 1.625.814 3.369.665 5.176 1.751-2.502 1.562-3.784 1.88-4.905z"/><path d="M248.992 351.618c-.865 1.604 2.145 2.349 5.115-2.558 1.352 1.47 3.707-1.156 4.411-2.246-.005 2.469 3.167-.034 4.312-1.621.028 1.126 1.441 1.154 3.022-.744.026.909 1.259.124 1.919-.419-6.478-.267-12.19 1.501-15.858 3.522-3.876 2.087-5.736 4.138-5.793 4.06-.069-.035 1.689-2.225 5.586-4.445 3.616-2.114 9.3-3.952 15.769-3.765-1.526-.914-5.422-3.044-3.944-.403-1.176-.644-2.331-1.469-3.701-1.764-1.475-.309-1.675.395-.679 1.284-1.067-.303-2.974-.983-4.049-.589-.581.209-1.048.853-.449 1.194-1.23-.396-2.69-.763-3.65.286.221.28.543.48.898.565-2.165-.272-5.174.817-4.009 2.111.193.21.675.626.97.586-1.468.112-4.365 2.087-3.488 3.284.124.175.428.214.645.229-.779.354-1.741 2.133-.981 2.736 1.226.969 3.059-.205 3.954-1.303zm.872-16.113c-.778 1.52 2.329 1.981 3.267 2.293-1.339.599-1.068 1.873.146 2.325 1.37.513 2.913-.137 4.113-.807-.64 1.59 2.148 1.448 3.77-.097-.616 1.504 1.118 1.793 3.59 1.484-3.093-2.679-6.796-3.822-9.453-4.311-2.975-.532-4.842-.409-4.847-.503-.012-.066 1.884-.352 4.932.092 2.564.37 6.116 1.376 9.216 3.809-.593-1.194-1.598-3.219-1.951-3.645-.67-.811-1.437-.78-1.046.403-.522-1.112-2.189-3.418-3.831-2.64-.332.17-.142.612.063.95-.888-1.215-3.468-2.863-4.272-1.366-.175.339.417.646.615.951-.945-.175-3.867.162-4.312 1.062zm23.152-4.578c-.771-.343-1.246.719-1.211 1.319.055 1.367 1.181 2.184 1.772 3.221-.834-.345-1.26.544-1.205 1.244.056.746.509 1.434.915 2.061.809-1.293 1.304-2.706 1.617-4.032.387-1.645.521-3.177.553-4.457.081-2.572-.252-4.127-.185-4.139.067-.012.506 1.557.512 4.154.008 1.307-.1 2.861-.471 4.558-.294 1.315-.774 2.733-1.577 4.059.547-.202 1.682-.642 2.134-1.011.848-.707 1.714-1.922 2.034-2.997.439-1.491-.876-.699-1.677-.491.224-.62.843-1.19 1.148-1.819.433-.918.659-1.879.535-2.893-.132-1.094-.469-1.687-1.281-.659.469-1.545 1.4-4.326-.336-5.502-2.169-1.484-2.102 2.683-1.954 3.719-.567-.953-1.77-1.776-2.462-.449-.634 1.234.202 3.242 1.139 4.114zm13.51 20.858c.334.048.88.405 1.035.138.659-1.211-1.985-2.691-3.366-2.943.367.042.798.025.734-.304-.332-1.617-2.959-2.098-4.063-2.1 1.078-.129.691-.767-.286-.998-.501-.126-2.555-.18-3.766-.197 3.496 1.597 6.196 4.102 7.878 6.024 1.999 2.307 2.841 3.959 2.774 3.972-.074.041-1.018-1.532-3.046-3.738-1.824-1.978-4.699-4.533-8.382-6.027 1.135 2.124 2.315 3.422 3.077 2.348-.24 1.905 1.174 4.217 1.996 3.098.158 1.226.536 2.731 1.668 3.643 1.001.812 2.088.545 1.796-.765.752.632 2.801 2.984 3.494 1.767.435-.7-.921-3.213-1.543-3.918z"/></g><g opacity=".5" clip-path="url(#clip1)" fill="#fff"><path d="M16.37 343.833l25.35-29.854a.966.966 0 00-.071-1.312l-13.617-13.006a.84.84 0 00-1.238.063L1.456 329.565a.966.966 0 00.07 1.312l13.617 13.006a.827.827 0 001.227-.05zm3.336-10.194l-.18.212c-.128.15-.34.173-.483.037-.131-.125-.144-.364-.017-.514l.18-.212c.128-.15.341-.173.484-.037a.388.388 0 01.016.514zm-2.093-2l-.18.213c-.128.15-.34.173-.484.036-.13-.124-.143-.363-.016-.513l.18-.213c.128-.15.341-.172.484-.036a.387.387 0 01.016.513zm-1.915-1.828l-.18.212c-.128.15-.34.173-.483.037-.131-.125-.144-.364-.017-.514l.18-.212c.128-.15.341-.173.484-.037a.388.388 0 01.016.514zm5.027 2.627l-.18.213c-.128.15-.34.173-.484.036-.13-.124-.143-.363-.016-.513l.18-.213c.128-.15.341-.172.484-.036a.4.4 0 01.016.513zm-2.093-1.999l-.18.213c-.128.15-.34.173-.484.036a.388.388 0 01-.016-.513l.18-.213c.128-.15.341-.173.484-.036a.4.4 0 01.016.513zm-1.915-1.828l-.18.212c-.127.15-.34.173-.483.037a.388.388 0 01-.016-.514l.18-.212c.127-.151.34-.173.483-.037a.401.401 0 01.016.514zm5.017 2.64l-.18.212c-.128.15-.341.173-.484.037a.39.39 0 01-.016-.514l.18-.212c.128-.15.34-.173.483-.037a.377.377 0 01.017.514zm-2.093-1.999l-.18.212c-.128.15-.341.173-.484.037a.388.388 0 01-.016-.514l.18-.212c.128-.15.34-.173.483-.037a.377.377 0 01.017.514zm-1.915-1.829l-.18.212c-.128.15-.341.173-.484.037-.13-.125-.143-.364-.016-.514l.18-.212c.128-.15.341-.173.484-.037a.377.377 0 01.016.514zm5.027 2.628l-.18.212c-.128.15-.341.173-.484.037a.39.39 0 01-.016-.514l.18-.212c.128-.15.34-.173.483-.037a.388.388 0 01.017.514zm-2.093-1.999l-.18.212c-.128.15-.341.173-.484.037a.39.39 0 01-.016-.514l.18-.212c.128-.15.34-.173.483-.037a.389.389 0 01.017.514zm-1.915-1.829l-.18.212c-.128.15-.341.173-.484.037-.13-.125-.143-.364-.016-.514l.18-.212c.128-.15.341-.173.484-.037a.388.388 0 01.016.514zm5.016 2.64l-.18.213c-.128.15-.34.172-.483.036a.388.388 0 01-.017-.513l.18-.213c.128-.15.341-.173.484-.036a.375.375 0 01.016.513zm-2.093-1.999l-.18.212c-.128.15-.34.173-.484.037-.13-.125-.143-.364-.016-.514l.18-.212c.128-.15.341-.173.484-.037a.377.377 0 01.016.514zm-1.915-1.829l-.18.213c-.128.15-.34.173-.483.036a.388.388 0 01-.017-.513l.18-.213c.128-.15.341-.173.484-.036a.375.375 0 01.016.513zm5.027 2.628l-.18.212c-.128.151-.34.173-.484.037-.13-.125-.143-.364-.016-.514l.18-.212c.128-.15.341-.173.484-.037a.377.377 0 01.016.514zm-2.093-1.999l-.18.212c-.128.15-.34.173-.484.037-.13-.125-.143-.364-.016-.514l.18-.212c.128-.15.341-.173.484-.037a.377.377 0 01.016.514zm-1.915-1.829l-.18.213c-.127.15-.34.172-.483.036a.388.388 0 01-.017-.513l.181-.213c.127-.15.34-.173.483-.036a.375.375 0 01.016.513zm5.027 2.628l-.18.212c-.128.15-.34.173-.483.037-.131-.125-.144-.364-.017-.514l.18-.212c.128-.15.341-.173.484-.037a.388.388 0 01.016.514zm-2.093-1.999l-.18.212c-.128.15-.34.173-.483.037-.131-.125-.144-.364-.017-.514l.18-.212c.128-.15.341-.173.484-.037a.388.388 0 01.016.514zm-1.915-1.829l-.18.212c-.127.15-.34.173-.483.037a.388.388 0 01-.016-.514l.18-.212c.127-.15.34-.173.483-.037a.388.388 0 01.017.514zm5.017 2.64l-.18.213c-.128.15-.341.173-.484.036a.388.388 0 01-.016-.513l.18-.213c.128-.15.34-.173.483-.036a.375.375 0 01.017.513zm-2.093-1.999l-.18.213c-.128.15-.341.172-.484.036a.388.388 0 01-.016-.513l.18-.213c.128-.15.34-.173.483-.036a.375.375 0 01.017.513zm3.112.799l-.18.213c-.128.15-.341.172-.484.036a.389.389 0 01-.016-.513l.18-.213c.128-.15.34-.173.484-.036a.387.387 0 01.016.513zm-2.093-1.999l-.18.212c-.128.15-.341.173-.484.037a.39.39 0 01-.016-.514l.18-.212c.128-.15.34-.173.483-.037a.388.388 0 01.017.514zm-1.915-1.829l-.18.213c-.128.15-.341.173-.484.036a.388.388 0 01-.016-.513l.18-.213c.128-.15.341-.173.484-.036a.387.387 0 01.016.513zm6.03-9.206l2.51 1.356.578-1.214.66 1.175 2.403-1.51-1.258 2.648 1.15.624-1.102.69 1.435 2.57-2.51-1.356-.578 1.214-.661-1.175-2.414 1.499 1.258-2.648-1.15-.623 1.102-.69-1.423-2.56zm-6.662 1.199c.308-.362.772.081.952-.132.138-.162-.086-.354-.122-.388l-1.213-1.159c-.476-.454-.579.149-.852-.112-.12-.114-.234-.359.424-1.134.18-.213.827-.999 1.136-.704.214.205-.092.388-.013.599.051.117.268.369.363.46l.836.867c.406.41.48.322.523.272.159-.187-.23-.718.056-1.055.138-.163.366-.126.508.01.334.318.519 1.038.317 1.276-.021.025-.076.063-.151.127a2.858 2.858 0 00-.332.34l-.87 1.025a2.087 2.087 0 00-.252.348c-.042.074-.05.11-.125.198-.138.162-.734.204-1.162-.205-.168-.183-.203-.42-.023-.633zm-2.912.615c-.144.043-.253.12-.372.007-.12-.114-.266-.322.51-1.234.148-.175.594-.7.855-.45.131.124.026.273.046.428.017.107.128.28.675.803l.392.375c.5.477.65.553.753.56.203.013.353-.138.496-.002.285.273-.436 1.123-.5 1.198-.212.25-.66.751-.921.502-.143-.137.007-.288-.026-.478-.02-.154-.366-.507-.65-.78l-.393-.375c-.713-.658-.743-.596-.865-.554zm-1.782 2.555c-.446.525-.246.873-.352.998-.107.125-.28.05-.387-.052-.178-.17-.376-.698-.195-.911.116-.137.145-.653.56-1.141.742-.875 2.001-.963 2.798-.202.809.773.748 2.163.047 2.988-.35.413-.763.494-.848.594-.074.087-.072.135-.136.21-.148.175-.589.162-1.029-.259-.226-.216-.3-.535-.087-.785.36-.425.977.345 1.604-.392.276-.325.096-.723-.118-.927-.582-.557-1.358-.709-1.857-.121zm4.29 5.524c.132.125.144.363.017.513l-.18.213c-.128.15-.341.173-.484.036a.388.388 0 01-.016-.513l.18-.213a.336.336 0 01.484-.036zm-8.597-1.873l.605-.712c.138-.163.15-.151.49-.145l.576.031c.147.004.634.04.72-.06.095-.113-.002-.228-.109-.33l-.083-.079c-.19-.182-.425.069-.627-.124-.131-.125-.165-.339.45-1.064.563-.662.734-.635.865-.51.202.193-.085.303.205.671.194.254.444.492.67.708.25.238.535.511.805.701.387.279.424-.094.673.145.06.057.318.235-.457 1.148-.17.2-.531.625-.805.364-.214-.205.108-.305-.356-.748-.047-.045-.166-.159-.23-.084-.095.112.033.824.128.915.083.079.172.051.267.142.298.284-.193.811-.363 1.011-.17.2-.56.71-.846.438-.32-.307.241-.563.215-.837-.009-.167.05-.744-.116-.903-.107-.102-.287-.093-.411-.099l-1.672-.034c-.237 0-.438.261-.676.034-.212-.181-.056-.416.082-.579zm-2.574 2.93c.021-.025.097-.088.183-.164a3.33 3.33 0 00.321-.328l1.455-1.712c.233-.276.352-.162.4-.116.214.204-.197.332.198.755.683.743.612.675 1.357 1.319.628.554.595-.066.868.195.238.227-.095.543-.243.718l-1.02 1.2c-.477.563-.458.717-.51.78-.202.237-.68-.037-.846-.196-.131-.125-.243-.323-.105-.486.276-.325.433.301 1.102-.486.393-.463.267-.492-.185-.924-.226-.216-.248-.215-.46.035-.266.313.376.496.121.796-.202.237-.675-.169-.83-.317-.166-.159-.62-.638-.408-.888.223-.263.416.397.777-.028.149-.175-.006-.323-.125-.436-.583-.557-.579-.485-.95-.048-.722.85.039 1.147-.248 1.484-.117.138-.313.064-.42-.038-.273-.261-.57-.952-.432-1.115zm-.866 4.901c.308-.362.772.08.952-.132.138-.163-.086-.354-.122-.389l-1.213-1.158c-.476-.455-.579.149-.852-.112-.12-.114-.234-.359.424-1.134.18-.213.827-.999 1.136-.704.214.204-.092.387-.013.599.051.117.268.369.363.46l.836.866c.406.41.48.323.523.273.159-.188-.23-.718.056-1.056.138-.162.366-.126.508.011.334.318.519 1.038.317 1.275-.021.025-.075.064-.151.128a2.706 2.706 0 00-.332.34l-.87 1.025a2.093 2.093 0 00-.252.347c-.042.074-.05.111-.125.198-.138.163-.734.205-1.162-.204-.157-.195-.193-.433-.023-.633zm3.264 3.842l.17-.2c.127-.15.34-.173.483-.037a.39.39 0 01.016.514l-.18.212c-.128.15-.34.173-.483.037a.419.419 0 01-.006-.526zm1.927 1.84l.17-.2c.127-.15.34-.173.483-.037.13.125.143.364.016.514l-.18.212c-.128.15-.341.173-.484.037a.404.404 0 01-.005-.526zm2.08 1.988l.17-.2c.128-.15.341-.173.484-.037.13.125.143.364.016.514l-.18.212c-.128.15-.34.173-.484.037a.419.419 0 01-.005-.526zm-5.026-2.628l.18-.213c.128-.15.341-.172.484-.036.13.125.143.363.016.513l-.18.213c-.128.15-.341.173-.484.036-.13-.124-.143-.363-.016-.513zm1.927 1.84l.18-.212c.127-.151.34-.173.483-.037.131.125.144.364.017.514l-.181.212c-.127.15-.34.173-.483.037a.377.377 0 01-.016-.514zm2.08 1.988l.181-.213c.128-.15.34-.173.484-.036.13.125.143.363.016.513l-.18.213c-.128.15-.341.173-.484.036a.388.388 0 01-.016-.513zm-5.026-2.628l.18-.212c.128-.15.34-.173.484-.037.13.125.143.364.016.514l-.18.212c-.128.15-.341.173-.484.037-.12-.138-.143-.364-.016-.514zm1.927 1.84l.18-.212c.127-.15.34-.173.483-.037a.388.388 0 01.016.514l-.18.212c-.127.15-.34.173-.483.037a.388.388 0 01-.016-.514zm2.08 1.988l.181-.213c.128-.15.34-.172.483-.036a.388.388 0 01.017.513l-.18.213c-.128.15-.341.173-.484.037-.12-.138-.144-.364-.016-.514zm-5.016-2.64l.18-.213c.128-.15.341-.173.484-.036a.387.387 0 01.016.513l-.18.213c-.127.15-.34.173-.483.036a.388.388 0 01-.017-.513zm1.927 1.84l.18-.213c.128-.15.341-.173.484-.036.13.125.143.363.016.513l-.18.213c-.128.15-.341.173-.484.036a.376.376 0 01-.016-.513zm2.081 1.988l.18-.213c.128-.15.341-.173.484-.036.13.124.144.363.016.513l-.18.213c-.128.15-.34.172-.483.036a.388.388 0 01-.017-.513z"/><path d="M20.17 349.681l33.16-19.472c.428-.249.566-.818.328-1.273l-8.964-16.938a.86.86 0 00-1.204-.358l-1.04.615a1.953 1.953 0 01-.098 2.374l-4.639 5.463.52 1.062c.254.538.352.473.417.422.208-.118.004-.766.377-.976.175-.105.384.004.472.179.226.419.175 1.163-.087 1.32-.033.014-.089.029-.188.07-.1.041-.232.095-.407.2l-1.127.667c-.208.118-.283.182-.337.244a.588.588 0 01-.172.153c-.175.104-.748-.058-1.035-.582-.138-.244-.093-.473.136-.617.394-.235.696.348.937.216.175-.105.026-.36 0-.407l-.427-.816-1.284 1.513c.224.395.32.486.388.507.185.086.372-.007.472.179.189.361-.752.912-.84.964-.273.169-.843.485-1.03.148-.088-.175.087-.28.133-.461a.55.55 0 00-.047-.249l-.945 1.112c-.178.464-.506.875-.922 1.112-.01.012-.033.013-.033.013l-7.473 8.801a.37.37 0 01.085.104c.088.175.032.393-.132.485l-.23.143a.322.322 0 01-.327.005l-4.745 5.588c.024.023.048.045.061.081.088.175.032.393-.132.485l-.23.143a.328.328 0 01-.314.016l-2.187 2.575a1.64 1.64 0 01-.443.37l2.373 4.485a.85.85 0 001.18.335zm23.019-22.163l-.899-.971 1.261-.268-.584-2.913 1.964 2.126.909-.944.263 1.339 2.755-.607-2 2.076.9.971-1.262.267.585 2.913-1.976-2.136-.909.943-.263-1.338-2.745.593 2-2.051zm-12.622 10.857c.088.175.032.393-.132.485l-.23.143a.35.35 0 01-.469-.132c-.088-.175-.032-.393.132-.485l.23-.143a.35.35 0 01.47.132zm1.324-.773c.089.175.033.393-.132.485l-.23.143a.35.35 0 01-.469-.132c-.088-.175-.032-.393.132-.485l.23-.143a.326.326 0 01.47.132zm1.335-.786c.088.175.032.393-.132.485l-.23.144a.352.352 0 01-.47-.132c-.087-.175-.032-.393.133-.485l.23-.144a.352.352 0 01.469.132zm1.324-.773c.088.175.032.393-.132.485l-.23.144a.352.352 0 01-.47-.132c-.088-.175-.032-.393.133-.485l.23-.144a.326.326 0 01.469.132zm1.335-.785c.088.175.032.393-.133.485l-.229.143a.35.35 0 01-.47-.132c-.088-.175-.032-.393.133-.485l.229-.143a.35.35 0 01.47.132zm1.324-.773c.088.175.032.393-.132.485l-.23.143a.35.35 0 01-.47-.132c-.088-.175-.032-.393.133-.485l.229-.143a.326.326 0 01.47.132zm-3.468-4.49c-.088-.175-.032-.393.132-.485l.23-.143a.35.35 0 01.469.132c.088.175.032.393-.132.485l-.23.143c-.176.081-.382.019-.47-.132zm1.629 1.76a.35.35 0 01.47.132c.088.174.032.393-.133.485l-.229.143a.35.35 0 01-.47-.132c-.088-.175-.032-.393.133-.485l.229-.143zm-2.953-.987c-.089-.175-.032-.393.132-.485l.23-.143a.35.35 0 01.469.132c.088.175.032.393-.132.485l-.23.143c-.186.093-.38.043-.47-.132zm1.629 1.76a.35.35 0 01.47.132c.088.174.032.393-.133.485l-.229.143a.35.35 0 01-.47-.132c-.088-.175-.032-.393.132-.485l.23-.143zm-2.953-.987c-.089-.175-.032-.393.132-.485l.23-.143a.35.35 0 01.469.132c.088.175.032.393-.132.485l-.23.143a.326.326 0 01-.47-.132zm1.618 1.772a.352.352 0 01.47.132c.088.175.032.393-.132.485l-.23.143a.35.35 0 01-.47-.131c-.088-.175-.032-.393.133-.485l.23-.144zm-2.953-.986c-.088-.175-.032-.393.132-.485l.23-.144a.352.352 0 01.47.132c.087.175.032.393-.133.485l-.23.144a.326.326 0 01-.469-.132zm1.629 1.759a.352.352 0 01.47.132c.088.175.032.393-.132.485l-.23.143a.35.35 0 01-.47-.131c-.088-.175-.032-.393.133-.485l.229-.144zm-2.953-.986c-.088-.175-.032-.393.132-.485l.23-.144a.352.352 0 01.47.132c.088.175.032.393-.133.485l-.23.144a.326.326 0 01-.469-.132zm1.63 1.783a.35.35 0 01.47.132c.088.175.032.393-.132.485l-.23.143a.351.351 0 01-.469-.131c-.088-.175-.032-.393.132-.486l.23-.143zm-2.965-.998c-.088-.175-.032-.393.133-.485l.229-.143a.35.35 0 01.47.132c.088.175.032.393-.133.485l-.229.143a.326.326 0 01-.47-.132zm1.641 1.771a.35.35 0 01.47.132c.088.175.032.393-.132.485l-.23.143a.351.351 0 01-.47-.131c-.087-.175-.031-.393.133-.486l.23-.143zm-2.965-.998c-.088-.175-.032-.393.132-.485l.23-.143a.35.35 0 01.47.132c.088.175.032.393-.133.485l-.229.143a.326.326 0 01-.47-.132zm1.257 2.401c-.088-.175-.032-.393.132-.485l.23-.144a.352.352 0 01.47.132c.088.175.032.393-.133.485l-.229.143a.35.35 0 01-.47-.131zm1.743 1.981a.35.35 0 01.47.132c.088.174.032.393-.133.485l-.229.143a.35.35 0 01-.47-.132c-.088-.175-.032-.393.132-.485l.23-.143zm-3.067-1.208c-.088-.175-.032-.393.132-.485l.23-.144a.352.352 0 01.47.132c.088.175.032.393-.133.485l-.229.143a.325.325 0 01-.47-.131zm1.743 1.981a.35.35 0 01.47.132c.088.174.032.393-.133.485l-.229.143a.35.35 0 01-.47-.132c-.088-.175-.032-.393.132-.485l.23-.143zm-3.077-1.196c-.089-.175-.033-.393.132-.485l.229-.143a.35.35 0 01.47.132c.088.174.032.393-.132.485l-.23.143a.35.35 0 01-.47-.132zm1.742 1.981a.352.352 0 01.47.132c.088.175.032.393-.132.485l-.23.143a.35.35 0 01-.47-.131c-.088-.175-.032-.393.133-.485l.229-.144zm-3.066-1.208c-.089-.175-.033-.393.132-.485l.229-.143a.35.35 0 01.47.132c.088.174.032.393-.132.485l-.23.143a.326.326 0 01-.47-.132zm1.742 1.981a.352.352 0 01.47.132c.088.175.032.393-.132.485l-.23.143a.35.35 0 01-.47-.131c-.088-.175-.032-.393.133-.485l.229-.144zm-3.077-1.195c-.088-.175-.032-.393.132-.485l.23-.144a.352.352 0 01.469.132c.088.175.032.393-.132.485l-.23.143a.35.35 0 01-.469-.131zm1.742 1.981a.35.35 0 01.47.132c.088.174.032.393-.132.485l-.23.143a.35.35 0 01-.469-.132c-.088-.175-.032-.393.132-.485l.23-.143zm-3.066-1.208c-.088-.175-.032-.393.132-.485l.23-.144a.352.352 0 01.469.132c.088.175.032.393-.132.485l-.23.143a.325.325 0 01-.469-.131zm1.37 2.598c-.09-.175-.033-.393.131-.485l.23-.144a.352.352 0 01.47.132c.088.175.031.393-.133.485l-.23.144a.326.326 0 01-.469-.132zm-1.325.773c-.088-.175-.032-.393.132-.485l.23-.144a.352.352 0 01.47.132c.087.175.031.393-.133.485l-.23.144a.327.327 0 01-.469-.132z"/></g><g clip-path="url(#clip2)" fill="#fff" fill-opacity=".5"><path d="M196.338 38.339c8.874 11.977 15.595 9.96 15.595 9.96 6.773-15.544 17.953-29.695 17.953-29.695-17.427 9.765-33.548 19.735-33.548 19.735z"/><path d="M221.715 31.72c-2.951 4.7-6.382 10.693-9.104 16.913l-.139.336-.335.104c-.067.016-.625.17-1.59.154 1.838 3.086 5.356 6.958 12.105 10.777 0 0 7.572-21.83 14.628-45.208.011.01-6.396 8.117-15.565 16.925zm-27.297 10.15c1.048 2.71.771 5.33-.221 8.215 0 0-.047 3.132 19.609 15.84 0 0 2.55.603 5.907-1.536-1.772-1.518-4.992-4.322-10.07-8.835a2054.681 2054.681 0 01-15.225-13.684zm-2.177-3.597a16.76 16.76 0 011.41 1.999c15.483 14.046 23.548 21.06 26.639 23.73a14.45 14.45 0 001.004-.789s-27.712-25.698-29.164-27.161c.001.02-.701 1.231.111 2.22z"/></g><g clip-path="url(#clip3)" fill="#fff" fill-opacity=".5"><path d="M427.396 413.694c14.204-2.253 15.877-9.446 15.877-9.446-9.386-13.932-15.45-31.238-15.45-31.238-.62 20.894-.427 40.684-.427 40.684z"/><path d="M434.527 387.031c2.39 5.044 5.604 11.171 9.355 16.758l.206.294-.081.36c-.02.071-.169.661-.66 1.542 3.438-.167 8.351-1.494 14.819-5.825 0 0-14.141-17.779-29.807-35.849.013-.005 3.488 9.911 6.168 22.72zm-5.187 30.18c2.739.375 4.749 1.927 6.622 4.268 0 0 2.543 1.593 22.681-10.237 0 0 1.755-2.052 1.663-6.205-2.12.883-6.011 2.464-12.221 4.911a1907.599 1907.599 0 01-18.745 7.263zm-4.025.227a15.08 15.08 0 012.336-.311c19.169-7.321 28.907-11.285 32.624-12.812-.03-.426-.079-.86-.15-1.316 0 0-34.767 12.828-36.685 13.443.018.008.662 1.255 1.875.996z"/></g><defs><clipPath id="clip0"><path fill="#fff" transform="rotate(15.825 -1011.812 1057.408)" d="M0 0h54.448v58.702H0z"/></clipPath><clipPath id="clip1"><path fill="#fff" transform="matrix(-.64726 .76227 -.72315 -.69069 58.08 324.693)" d="M0 0h44.937v40.094H0z"/></clipPath><clipPath id="clip2"><path fill="#fff" transform="matrix(.74748 .66429 -.61994 .78465 220.632 0)" d="M0 0h39.789v55.863H0z"/></clipPath><clipPath id="clip3"><path fill="#fff" transform="matrix(.93034 -.3667 .3307 .94374 408 372.336)" d="M0 0h39.095v56.801H0z"/></clipPath></defs></svg>