<svg width="1033" height="622" viewBox="0 0 1033 622" fill="none" xmlns="http://www.w3.org/2000/svg">
<g opacity="0.5" clip-path="url(#clip0)">
<path d="M861.436 618.976C858.459 618.034 858.015 617.954 857.423 617.611C856.442 617.071 856.332 616.354 856.15 615.815C854.738 611.098 853.723 606.469 852.979 601.983L828.668 595.193C825.716 598.691 822.455 602.103 818.824 605.412C818.409 605.784 817.922 606.335 816.804 606.288C816.125 606.254 815.699 606.113 812.665 605.376C812.541 605.342 812.665 605.376 811.895 608.132C811.895 608.132 815.168 609.046 828.075 612.651C828.075 612.651 828.1 612.481 828.663 610.066C828.663 610.066 827.596 609.281 828.072 607.973C829.369 604.522 833.322 597.756 840.286 599.835C847.992 602.12 847.516 609.701 846.866 613.222C846.616 614.593 845.275 614.706 845.275 614.706C844.506 617.063 844.44 617.222 844.44 617.222C857.367 620.832 860.619 621.741 860.619 621.741C861.436 618.976 861.553 619.031 861.436 618.976Z" fill="white"/>
<path d="M828.619 594.337L853.341 601.242L855.522 597.484L828.886 590.044L828.619 594.337Z" fill="white"/>
<path d="M842.094 575.644C839.482 580.39 836.371 585.329 832.65 590.231L837.035 591.456C839.239 588.968 843.429 583.576 846.669 577.698C846.051 580.784 846.456 589.742 846.771 594.175L852.103 595.664C851.445 589.517 851.324 583.675 851.522 578.277L842.094 575.644Z" fill="white"/>
<path d="M842.463 574.882L851.808 577.493L853.642 573.549L842.855 570.536L842.463 574.882Z" fill="white"/>
<path d="M859.111 539.984C858.908 539.839 858.384 539.648 857.928 539.454C859.773 532.61 861.003 527.411 860.756 527.342C860.509 527.273 858.867 532.357 856.893 539.187C856.19 539.08 855.409 539.017 855.034 539.089C852.301 539.656 854.052 543.559 854.554 544.542L857.148 545.266C858.145 544.636 862.076 541.921 859.111 539.984Z" fill="white"/>
<path d="M854.327 545.831C852.795 550.679 850.092 559.722 844.911 570.246L851.931 572.207C852.943 560.718 855.268 551.68 856.633 546.475L854.327 545.831Z" fill="white"/>
</g>
<g opacity="0.5" clip-path="url(#clip1)">
<path d="M1006.44 24.5328C1004.14 25.0992 1001.91 25.6737 999.447 26.3269C999.409 26.2521 999.358 26.1876 999.306 26.1231L996.872 23.0652C996.092 22.0846 994.647 21.9062 993.658 22.6942L993.503 22.817C992.526 23.5947 992.353 25.0394 993.144 26.0329L994.448 27.6715C993.325 27.9754 992.14 28.3073 990.87 28.6646L989.566 27.026C988.785 26.0454 987.341 25.867 986.351 26.655L986.197 26.7778C985.22 27.5556 985.047 29.0002 985.838 29.9937L985.91 30.084C984.046 30.6189 982.026 31.1942 979.81 31.8407C973.088 24.1868 967.293 19.546 963.912 22.2374C960.84 24.6832 963.896 31.5038 969.721 39.8508C968.594 41.865 967.555 43.7253 966.626 45.4342L966.554 45.3439C965.773 44.3633 964.329 44.1849 963.339 44.9729L963.185 45.0957C962.208 45.8734 962.035 47.3181 962.826 48.3116L964.13 49.9502C963.497 51.1075 962.908 52.1878 962.36 53.2142L961.055 51.5756C960.275 50.595 958.831 50.4166 957.841 51.2046L957.686 51.3274C956.709 52.1051 956.536 53.5498 957.327 54.5433L959.761 57.6012C959.813 57.6657 959.864 57.7302 959.928 57.7845C958.739 60.0376 957.689 62.0958 956.611 64.1977C953.366 70.5957 956.774 70.1805 959.757 67.8064C968.859 60.5611 975.501 54.684 978.867 51.6042C983.568 57.0094 989.025 62.4667 993.561 66.2124C990.881 73.9528 990.681 76.1561 990.681 76.1561C993.963 80.7529 994.762 80.3062 994.762 80.3062C996.887 76.4856 998.822 72.5845 999.829 70.4978C1001.04 71.0482 1001.96 71.1651 1002.47 70.7558C1002.98 70.3465 1003.08 69.4313 1002.83 68.1494C1005.1 67.6266 1009.29 66.6335 1013.45 65.4268C1013.45 65.4268 1014.07 64.7478 1010.33 60.5193C1010.33 60.5193 1008.16 60.2222 1000.06 61.0806C997.428 55.8203 993.313 49.2525 989.103 43.4352C992.836 40.843 1000.09 35.6809 1009.2 28.4254C1012.22 26.0205 1013.4 22.8055 1006.44 24.5328Z" fill="white"/>
</g>
<g opacity="0.5" clip-path="url(#clip2)">
<path d="M95.3278 148.13C93.9406 145.487 92.5646 142.932 91.0224 140.118C91.1022 140.049 91.1656 139.966 91.229 139.884L94.2338 135.984C95.1974 134.733 94.9796 132.914 93.7171 131.941L93.5203 131.789C92.2742 130.829 90.4552 131.053 89.4789 132.321L87.8688 134.41C87.158 133.128 86.3944 131.78 85.5741 130.335L87.1843 128.245C88.1478 126.994 87.93 125.174 86.6675 124.202L86.4708 124.05C85.2247 123.09 83.4056 123.314 82.4294 124.581L82.3406 124.696C81.124 122.579 79.8105 120.282 78.351 117.768C85.6818 107.236 89.6081 98.7483 85.2959 95.4259C81.3772 92.4066 73.9585 98.2031 65.5091 107.847C62.7056 107.077 60.1168 106.367 57.7464 105.747L57.8352 105.632C58.7988 104.381 58.5809 102.561 57.3184 101.589L57.1217 101.437C55.8756 100.477 54.0566 100.701 53.0803 101.968L51.4701 104.058C49.8638 103.634 48.3648 103.239 46.944 102.879L48.5542 100.789C49.5178 99.5383 49.3 97.7184 48.0375 96.7456L47.8407 96.594C46.5946 95.6339 44.7756 95.8583 43.7993 97.1254L40.7945 101.025C40.7311 101.108 40.6677 101.19 40.6207 101.285C37.5064 100.511 34.6723 99.8486 31.7764 99.1646C22.9723 97.1277 24.5089 101.17 28.3128 104.101C39.9212 113.045 49.1137 119.393 53.8963 122.58C48.7054 129.962 43.6788 138.283 40.4673 144.961C30.192 144.019 27.4374 144.441 27.4374 144.441C22.8062 149.841 23.5938 150.684 23.5938 150.684C28.9078 152.13 34.2629 153.319 37.1186 153.919C36.8124 155.571 36.9447 156.722 37.6006 157.228C38.2564 157.733 39.403 157.567 40.8972 156.883C42.2225 159.504 44.701 164.324 47.4338 169.052C47.4338 169.052 48.4497 169.599 52.4907 163.744C52.4907 163.744 52.1994 161.002 48.7056 151.361C54.3437 146.553 61.1336 139.537 66.9767 132.632C71.2739 136.415 79.7765 143.726 91.4013 152.683C95.2544 155.652 99.5422 156.123 95.3278 148.13Z" fill="white"/>
</g>
<g opacity="0.5" clip-path="url(#clip3)">
<path d="M258.698 577.889C287.04 578.85 292.716 566.279 292.716 566.279C279.195 537.41 273.264 503.556 273.264 503.556C265.005 541.586 258.698 577.889 258.698 577.889Z" fill="white"/>
<path d="M281.55 531.625C284.487 541.717 288.659 554.085 294.055 565.657L294.357 566.269L294.077 566.899C294.015 567.021 293.527 568.048 292.276 569.486C299.008 570.411 308.996 569.741 323.018 564.128C323.018 564.128 301.562 526.513 277.244 487.821C277.271 487.816 280.67 507.215 281.55 531.625Z" fill="white"/>
<path d="M261.285 585.024C266.476 586.69 269.856 590.251 272.701 595.209C272.701 595.209 277.102 599.035 320.199 584.588C320.199 584.588 324.301 581.46 325.524 573.824C321.108 574.681 313.02 576.181 300.136 578.438C290.223 580.175 277.411 582.364 261.285 585.024Z" fill="white"/>
<path d="M253.393 583.997C255.088 583.977 256.608 584.071 258.034 584.264C297.728 577.725 317.975 573.956 325.708 572.49C325.792 571.7 325.845 570.888 325.861 570.027C325.861 570.027 254.021 581.062 250.089 581.502C250.12 581.524 250.951 584.037 253.393 583.997Z" fill="white"/>
</g>
<g opacity="0.5" clip-path="url(#clip4)">
<path d="M602.172 519.819L563.331 491.931C562.827 491.569 562.142 491.699 561.788 492.192L548.297 510.981C547.932 511.49 548.055 512.176 548.543 512.526L587.368 540.403C587.872 540.765 588.557 540.635 588.911 540.142L602.402 521.353C602.772 520.872 602.66 520.17 602.172 519.819ZM589.649 516.971L589.925 517.169C590.12 517.31 590.177 517.574 590.036 517.771C589.906 517.951 589.626 517.999 589.43 517.859L589.154 517.66C588.959 517.52 588.902 517.255 589.043 517.059C589.201 516.873 589.454 516.831 589.649 516.971ZM587.575 519.859L587.851 520.058C588.047 520.198 588.103 520.462 587.962 520.659C587.832 520.84 587.552 520.887 587.357 520.747L587.08 520.548C586.885 520.408 586.828 520.144 586.97 519.947C587.127 519.761 587.38 519.719 587.575 519.859ZM585.678 522.501L585.954 522.7C586.15 522.84 586.206 523.104 586.065 523.301C585.935 523.482 585.655 523.529 585.46 523.389L585.183 523.19C584.988 523.05 584.931 522.786 585.073 522.589C585.23 522.404 585.483 522.361 585.678 522.501ZM588.087 515.85L588.364 516.048C588.559 516.188 588.616 516.453 588.474 516.65C588.345 516.83 588.064 516.878 587.869 516.737L587.592 516.539C587.397 516.399 587.341 516.134 587.482 515.937C587.64 515.752 587.908 515.721 588.087 515.85ZM586.013 518.738L586.29 518.936C586.485 519.077 586.542 519.341 586.4 519.538C586.271 519.719 585.99 519.766 585.795 519.626L585.519 519.427C585.323 519.287 585.267 519.023 585.408 518.826C585.566 518.64 585.835 518.609 586.013 518.738ZM584.116 521.38L584.393 521.579C584.588 521.719 584.645 521.983 584.503 522.18C584.374 522.361 584.093 522.408 583.898 522.268L583.622 522.069C583.426 521.929 583.37 521.665 583.511 521.468C583.669 521.282 583.938 521.252 584.116 521.38ZM586.542 514.74L586.819 514.939C587.014 515.079 587.07 515.343 586.929 515.54C586.799 515.721 586.519 515.768 586.324 515.628L586.047 515.429C585.852 515.289 585.795 515.025 585.937 514.828C586.078 514.631 586.347 514.6 586.542 514.74ZM584.468 517.628L584.745 517.827C584.94 517.967 584.997 518.232 584.855 518.429C584.726 518.609 584.445 518.656 584.25 518.516L583.973 518.318C583.778 518.178 583.722 517.913 583.863 517.716C584.004 517.519 584.273 517.488 584.468 517.628ZM582.571 520.271L582.848 520.469C583.043 520.609 583.1 520.874 582.958 521.071C582.829 521.251 582.548 521.298 582.353 521.158L582.076 520.96C581.881 520.82 581.825 520.555 581.966 520.358C582.107 520.161 582.376 520.13 582.571 520.271ZM584.981 513.619L585.257 513.818C585.452 513.958 585.509 514.222 585.368 514.419C585.238 514.6 584.957 514.647 584.762 514.507L584.486 514.308C584.291 514.168 584.234 513.904 584.375 513.707C584.533 513.522 584.785 513.479 584.981 513.619ZM582.907 516.507L583.183 516.706C583.379 516.846 583.435 517.11 583.294 517.307C583.164 517.488 582.884 517.535 582.688 517.395L582.412 517.197C582.217 517.056 582.16 516.792 582.302 516.595C582.459 516.41 582.712 516.367 582.907 516.507ZM581.01 519.149L581.286 519.348C581.482 519.488 581.538 519.753 581.397 519.949C581.267 520.13 580.987 520.177 580.791 520.037L580.515 519.839C580.32 519.698 580.263 519.434 580.405 519.237C580.562 519.052 580.815 519.009 581.01 519.149ZM583.435 512.51L583.712 512.708C583.907 512.848 583.964 513.113 583.822 513.31C583.693 513.49 583.412 513.538 583.217 513.397L582.941 513.199C582.745 513.059 582.689 512.794 582.83 512.597C582.972 512.4 583.24 512.37 583.435 512.51ZM581.362 515.398L581.638 515.596C581.833 515.737 581.89 516.001 581.749 516.198C581.619 516.378 581.338 516.426 581.143 516.286L580.867 516.087C580.672 515.947 580.615 515.682 580.756 515.486C580.898 515.289 581.166 515.258 581.362 515.398ZM579.465 518.04L579.741 518.238C579.936 518.379 579.993 518.643 579.852 518.84C579.722 519.021 579.441 519.068 579.246 518.928L578.97 518.729C578.775 518.589 578.718 518.325 578.859 518.128C579.001 517.931 579.269 517.9 579.465 518.04ZM581.874 511.389L582.151 511.587C582.346 511.727 582.402 511.992 582.261 512.189C582.131 512.369 581.851 512.416 581.656 512.276L581.379 512.078C581.184 511.938 581.127 511.673 581.269 511.476C581.41 511.279 581.679 511.248 581.874 511.389ZM579.8 514.277L580.077 514.475C580.272 514.615 580.329 514.88 580.187 515.077C580.058 515.257 579.777 515.305 579.582 515.165L579.305 514.966C579.11 514.826 579.054 514.561 579.195 514.364C579.336 514.168 579.605 514.137 579.8 514.277ZM577.903 516.919L578.18 517.117C578.375 517.257 578.432 517.522 578.29 517.719C578.161 517.899 577.88 517.947 577.685 517.807L577.408 517.608C577.213 517.468 577.157 517.203 577.298 517.006C577.439 516.81 577.708 516.779 577.903 516.919ZM580.313 510.267L580.589 510.466C580.784 510.606 580.841 510.871 580.699 511.067C580.57 511.248 580.289 511.295 580.094 511.155L579.818 510.957C579.622 510.816 579.566 510.552 579.707 510.355C579.865 510.17 580.117 510.127 580.313 510.267ZM578.239 513.156L578.515 513.354C578.71 513.494 578.767 513.759 578.626 513.956C578.496 514.136 578.216 514.184 578.02 514.043L577.744 513.845C577.549 513.705 577.492 513.44 577.634 513.243C577.791 513.058 578.044 513.015 578.239 513.156ZM576.342 515.798L576.618 515.996C576.813 516.136 576.87 516.401 576.729 516.598C576.599 516.778 576.319 516.826 576.123 516.685L575.847 516.487C575.652 516.347 575.595 516.082 575.736 515.885C575.894 515.7 576.147 515.658 576.342 515.798ZM578.767 509.158L579.044 509.356C579.239 509.497 579.296 509.761 579.154 509.958C579.025 510.139 578.744 510.186 578.549 510.046L578.272 509.847C578.077 509.707 578.021 509.443 578.162 509.246C578.304 509.049 578.572 509.018 578.767 509.158ZM576.694 512.046L576.97 512.245C577.165 512.385 577.222 512.649 577.081 512.846C576.951 513.027 576.67 513.074 576.475 512.934L576.199 512.735C576.004 512.595 575.947 512.331 576.088 512.134C576.23 511.937 576.498 511.906 576.694 512.046ZM577.206 508.037L577.482 508.235C577.678 508.375 577.734 508.64 577.593 508.837C577.463 509.017 577.183 509.065 576.988 508.925L576.711 508.726C576.516 508.586 576.459 508.321 576.601 508.124C576.758 507.939 577.011 507.897 577.206 508.037ZM575.132 510.925L575.409 511.124C575.604 511.264 575.66 511.528 575.519 511.725C575.389 511.906 575.109 511.953 574.914 511.813L574.637 511.614C574.442 511.474 574.386 511.21 574.527 511.013C574.685 510.827 574.937 510.785 575.132 510.925ZM573.235 513.567L573.512 513.766C573.707 513.906 573.763 514.17 573.622 514.367C573.492 514.548 573.212 514.595 573.017 514.455L572.74 514.256C572.545 514.116 572.488 513.852 572.63 513.655C572.788 513.47 573.04 513.427 573.235 513.567ZM561.506 507.21L562.761 503.883L561.245 503.316L562.542 502.333L560.423 499.518L563.73 500.748L564.307 499.223L565.277 500.516L568.118 498.378L566.863 501.705L568.38 502.271L567.082 503.255L569.19 506.086L565.883 504.856L565.305 506.381L564.336 505.088L561.506 507.21ZM563.851 515.41C563.38 515.071 563.839 514.431 563.563 514.233C563.351 514.081 563.155 514.388 563.12 514.437L561.918 516.111C561.447 516.767 562.175 516.818 561.904 517.195C561.786 517.359 561.512 517.535 560.503 516.811C560.227 516.613 559.207 515.905 559.513 515.478C559.725 515.183 559.984 515.543 560.223 515.416C560.355 515.336 560.623 515.031 560.717 514.9L561.626 513.737C562.055 513.175 561.941 513.093 561.876 513.046C561.632 512.871 561.058 513.429 560.619 513.114C560.408 512.962 560.419 512.672 560.56 512.475C560.89 512.015 561.717 511.688 562.026 511.91C562.058 511.934 562.111 511.997 562.197 512.083C562.283 512.17 562.418 512.291 562.645 512.455L563.979 513.412C564.207 513.576 564.332 513.641 564.426 513.683C564.519 513.725 564.563 513.732 564.677 513.814C564.888 513.966 565.021 514.708 564.597 515.298C564.404 515.533 564.128 515.608 563.851 515.41ZM564.983 518.983C565.054 519.159 565.161 519.285 565.043 519.449C564.925 519.613 564.7 519.824 563.513 518.972C563.285 518.808 562.602 518.318 562.861 517.957C562.99 517.776 563.181 517.888 563.361 517.843C563.485 517.808 563.675 517.646 564.217 516.891L564.606 516.35C565.101 515.66 565.17 515.461 565.164 515.333C565.152 515.075 564.952 514.907 565.093 514.71C565.376 514.316 566.482 515.11 566.58 515.18C566.905 515.414 567.56 515.909 567.301 516.27C567.16 516.467 566.96 516.299 566.74 516.365C566.56 516.409 566.19 516.89 565.907 517.284L565.519 517.826C564.84 518.805 564.917 518.836 564.983 518.983ZM568.253 520.883C568.936 521.374 569.321 521.078 569.484 521.195C569.646 521.312 569.582 521.539 569.476 521.687C569.299 521.933 568.702 522.25 568.425 522.051C568.246 521.923 567.632 521.954 566.998 521.499C565.859 520.681 565.58 519.113 566.37 518.014C567.171 516.898 568.824 516.792 569.898 517.563C570.435 517.948 570.588 518.456 570.718 518.549C570.832 518.631 570.888 518.622 570.985 518.692C571.213 518.855 571.258 519.41 570.822 520.017C570.599 520.329 570.231 520.463 569.906 520.229C569.353 519.832 570.178 518.958 569.219 518.269C568.796 517.965 568.35 518.242 568.138 518.537C567.561 519.342 567.489 520.334 568.253 520.883ZM574.191 514.776C574.321 514.595 574.601 514.548 574.797 514.688L575.073 514.887C575.268 515.027 575.325 515.291 575.183 515.488C575.054 515.669 574.773 515.716 574.578 515.576L574.302 515.377C574.107 515.237 574.062 514.956 574.191 514.776ZM573.172 525.808L572.245 525.142C572.034 524.99 572.046 524.974 572.006 524.548L571.962 523.82C571.947 523.635 571.921 523.019 571.791 522.926C571.644 522.821 571.522 522.957 571.416 523.104L571.333 523.219C571.145 523.482 571.475 523.743 571.274 524.022C571.145 524.203 570.897 524.274 569.953 523.596C569.091 522.977 569.1 522.76 569.229 522.579C569.43 522.3 569.6 522.646 569.995 522.234C570.268 521.957 570.515 521.612 570.739 521.3C570.987 520.956 571.269 520.562 571.456 520.199C571.733 519.676 571.287 519.679 571.534 519.335C571.593 519.252 571.768 518.906 572.956 519.758C573.216 519.945 573.769 520.342 573.498 520.72C573.286 521.015 573.123 520.624 572.663 521.264C572.616 521.33 572.498 521.494 572.596 521.564C572.742 521.669 573.566 521.415 573.66 521.284C573.743 521.169 573.697 521.061 573.791 520.93C574.085 520.52 574.777 521.066 575.038 521.253C575.298 521.44 575.956 521.863 575.673 522.256C575.355 522.699 574.974 522.028 574.654 522.097C574.458 522.13 573.766 522.131 573.601 522.361C573.495 522.508 573.531 522.733 573.542 522.89L573.733 524.992C573.766 525.289 574.103 525.507 573.868 525.835C573.684 526.125 573.384 525.96 573.172 525.808ZM576.996 528.653C576.964 528.63 576.878 528.543 576.776 528.445C576.674 528.347 576.523 528.214 576.344 528.085L574.116 526.485C573.758 526.228 573.876 526.064 573.923 525.999C574.135 525.703 574.344 526.202 574.789 525.651C575.573 524.696 575.502 524.795 576.16 523.775C576.729 522.915 575.999 523.038 576.27 522.66C576.506 522.332 576.926 522.708 577.154 522.872L578.715 523.993C579.447 524.519 579.627 524.474 579.709 524.532C580.018 524.754 579.759 525.389 579.594 525.619C579.464 525.799 579.246 525.966 579.035 525.814C578.612 525.51 579.33 525.231 578.306 524.495C577.704 524.063 577.686 524.224 577.239 524.848C577.015 525.16 577.019 525.188 577.345 525.421C577.751 525.713 577.878 524.884 578.269 525.165C578.578 525.386 578.162 526.033 578.009 526.247C577.844 526.476 577.34 527.109 577.015 526.876C576.674 526.631 577.427 526.302 576.874 525.904C576.647 525.741 576.494 525.954 576.376 526.118C575.798 526.923 575.883 526.908 576.452 527.317C577.558 528.111 577.803 527.118 578.242 527.433C578.421 527.562 578.361 527.817 578.255 527.965C577.984 528.342 577.208 528.805 576.996 528.653ZM582.914 529.097C582.442 528.758 582.902 528.118 582.625 527.92C582.414 527.768 582.218 528.075 582.183 528.124L580.981 529.798C580.51 530.454 581.238 530.505 580.967 530.882C580.849 531.046 580.575 531.222 579.566 530.498C579.29 530.3 578.269 529.592 578.576 529.165C578.788 528.87 579.047 529.23 579.286 529.103C579.417 529.023 579.685 528.719 579.78 528.587L580.689 527.424C581.117 526.862 581.003 526.78 580.938 526.733C580.694 526.558 580.121 527.116 579.682 526.801C579.47 526.649 579.482 526.359 579.623 526.162C579.953 525.702 580.779 525.376 581.088 525.597C581.121 525.621 581.174 525.684 581.26 525.77C581.346 525.857 581.48 525.978 581.708 526.142L583.042 527.1C583.269 527.263 583.395 527.328 583.488 527.37C583.581 527.412 583.626 527.419 583.739 527.501C583.951 527.653 584.084 528.395 583.66 528.986C583.45 529.208 583.174 529.284 582.914 529.097ZM587.005 524.498L586.744 524.311C586.549 524.171 586.493 523.907 586.634 523.71C586.764 523.529 587.044 523.482 587.239 523.622L587.516 523.821C587.711 523.961 587.768 524.225 587.626 524.422C587.48 524.591 587.2 524.638 587.005 524.498ZM588.914 521.84L588.653 521.653C588.458 521.513 588.401 521.248 588.543 521.051C588.673 520.871 588.953 520.824 589.148 520.964L589.425 521.162C589.62 521.302 589.676 521.567 589.535 521.764C589.377 521.949 589.109 521.98 588.914 521.84ZM590.976 518.968L590.715 518.781C590.52 518.641 590.463 518.377 590.605 518.18C590.734 517.999 591.015 517.952 591.21 518.092L591.487 518.291C591.682 518.431 591.738 518.695 591.597 518.892C591.451 519.061 591.171 519.108 590.976 518.968ZM588.566 525.619L588.29 525.421C588.094 525.281 588.038 525.016 588.179 524.819C588.309 524.639 588.589 524.592 588.785 524.732L589.061 524.93C589.256 525.07 589.313 525.335 589.171 525.532C589.042 525.712 588.761 525.76 588.566 525.619ZM590.475 522.961L590.198 522.762C590.003 522.622 589.947 522.358 590.088 522.161C590.218 521.98 590.498 521.933 590.693 522.073L590.97 522.272C591.165 522.412 591.222 522.676 591.08 522.873C590.939 523.07 590.67 523.101 590.475 522.961ZM592.537 520.089L592.26 519.891C592.065 519.751 592.009 519.486 592.15 519.289C592.28 519.109 592.56 519.061 592.755 519.201L593.032 519.4C593.227 519.54 593.284 519.805 593.142 520.001C593.013 520.182 592.732 520.229 592.537 520.089ZM590.128 526.741L589.851 526.542C589.656 526.402 589.599 526.137 589.741 525.941C589.87 525.76 590.151 525.713 590.346 525.853L590.622 526.051C590.818 526.192 590.874 526.456 590.733 526.653C590.587 526.822 590.323 526.881 590.128 526.741ZM592.036 524.082L591.76 523.884C591.565 523.743 591.508 523.479 591.65 523.282C591.779 523.102 592.06 523.054 592.255 523.194L592.531 523.393C592.726 523.533 592.783 523.798 592.642 523.994C592.484 524.18 592.232 524.222 592.036 524.082ZM594.098 521.21L593.822 521.012C593.627 520.872 593.57 520.607 593.711 520.41C593.841 520.23 594.122 520.182 594.317 520.323L594.593 520.521C594.788 520.661 594.845 520.926 594.704 521.123C594.558 521.291 594.294 521.35 594.098 521.21ZM591.673 527.85L591.396 527.652C591.201 527.511 591.144 527.247 591.286 527.05C591.415 526.869 591.696 526.822 591.891 526.962L592.168 527.161C592.363 527.301 592.419 527.565 592.278 527.762C592.148 527.943 591.868 527.99 591.673 527.85ZM593.582 525.192L593.305 524.993C593.11 524.853 593.053 524.588 593.195 524.392C593.324 524.211 593.605 524.164 593.8 524.304L594.076 524.502C594.272 524.642 594.328 524.907 594.187 525.104C594.045 525.301 593.777 525.332 593.582 525.192ZM595.644 522.32L595.367 522.121C595.172 521.981 595.115 521.717 595.257 521.52C595.386 521.339 595.667 521.292 595.862 521.432L596.138 521.631C596.334 521.771 596.39 522.035 596.249 522.232C596.119 522.413 595.839 522.46 595.644 522.32Z" fill="white"/>
<path d="M608.562 514.285L580.915 475.235C580.561 474.732 579.869 474.633 579.364 474.992L560.574 488.46C560.069 488.819 559.964 489.514 560.318 490.017L561.19 491.24C561.954 490.52 563.134 490.422 564.012 491.052L571.12 496.156L572.304 495.365C572.904 494.975 572.814 494.861 572.744 494.786C572.576 494.54 571.838 494.881 571.537 494.441C571.389 494.236 571.489 493.959 571.684 493.825C572.148 493.487 573.036 493.453 573.258 493.762C573.279 493.801 573.304 493.869 573.366 493.989C573.428 494.108 573.511 494.267 573.659 494.473L574.605 495.799C574.774 496.044 574.86 496.131 574.941 496.189C575.023 496.247 575.071 496.283 575.145 496.385C575.294 496.591 575.181 497.331 574.602 497.761C574.332 497.965 574.054 497.94 573.853 497.671C573.52 497.208 574.167 496.752 573.978 496.467C573.83 496.261 573.548 496.482 573.496 496.519L572.591 497.163L574.559 498.576C574.995 498.242 575.09 498.111 575.104 498.022C575.181 497.778 575.044 497.556 575.251 497.406C575.652 497.122 576.434 498.231 576.508 498.333C576.746 498.654 577.199 499.327 576.826 499.607C576.631 499.74 576.483 499.535 576.262 499.5C576.189 499.498 576.093 499.528 575.974 499.592L577.422 500.631C577.995 500.794 578.527 501.151 578.865 501.642C578.881 501.654 578.885 501.682 578.885 501.682L590.336 509.904C590.371 509.855 590.395 509.822 590.447 509.784C590.641 509.65 590.907 509.692 591.039 509.886L591.24 510.155C591.33 510.27 591.341 510.426 591.291 510.565L598.562 515.785C598.585 515.752 598.609 515.719 598.649 515.698C598.843 515.564 599.109 515.606 599.241 515.8L599.442 516.069C599.533 516.184 599.543 516.34 599.505 516.462L602.856 518.868C603.051 519.008 603.222 519.181 603.354 519.375L608.33 515.81C608.794 515.472 608.916 514.788 608.562 514.285ZM579.143 488.312L578.119 489.567L577.627 488.02L574.262 489.136L576.503 486.392L575.261 485.376L576.807 484.87L575.707 481.493L578.44 483.729L579.464 482.475L579.956 484.022L583.32 482.906L581.068 485.666L582.31 486.682L580.763 487.188L581.848 490.553L579.143 488.312ZM593.741 502.724C593.936 502.59 594.202 502.632 594.333 502.826L594.535 503.095C594.667 503.289 594.623 503.556 594.444 503.701C594.25 503.835 593.984 503.793 593.852 503.599L593.651 503.33C593.519 503.136 593.563 502.869 593.741 502.724ZM592.643 501.164C592.837 501.03 593.103 501.072 593.235 501.266L593.436 501.535C593.568 501.729 593.524 501.996 593.346 502.141C593.151 502.275 592.885 502.234 592.753 502.039L592.552 501.771C592.404 501.565 592.448 501.298 592.643 501.164ZM591.528 499.593C591.722 499.459 591.988 499.5 592.12 499.695L592.321 499.963C592.453 500.158 592.409 500.425 592.231 500.57C592.036 500.704 591.77 500.662 591.639 500.468L591.437 500.199C591.305 500.005 591.349 499.738 591.528 499.593ZM590.429 498.033C590.624 497.899 590.89 497.941 591.021 498.135L591.223 498.404C591.355 498.598 591.311 498.865 591.132 499.01C590.938 499.144 590.672 499.102 590.54 498.908L590.339 498.639C590.191 498.434 590.234 498.167 590.429 498.033ZM589.314 496.461C589.509 496.328 589.775 496.369 589.907 496.563L590.108 496.832C590.24 497.026 590.196 497.293 590.017 497.439C589.823 497.573 589.557 497.531 589.425 497.337L589.224 497.068C589.092 496.874 589.136 496.607 589.314 496.461ZM588.216 494.902C588.41 494.768 588.676 494.809 588.808 495.004L589.009 495.272C589.141 495.467 589.097 495.734 588.919 495.879C588.724 496.013 588.458 495.971 588.327 495.777L588.125 495.508C587.977 495.302 588.021 495.035 588.216 494.902ZM583.387 499.841C583.193 499.975 582.927 499.933 582.795 499.739L582.594 499.47C582.462 499.276 582.506 499.009 582.684 498.863C582.879 498.73 583.145 498.771 583.276 498.965L583.478 499.234C583.598 499.445 583.554 499.712 583.387 499.841ZM585.242 497.567C585.11 497.372 585.154 497.105 585.333 496.96C585.527 496.826 585.793 496.868 585.925 497.062L586.126 497.331C586.258 497.525 586.214 497.792 586.036 497.937C585.841 498.071 585.575 498.03 585.443 497.835L585.242 497.567ZM584.486 501.401C584.291 501.535 584.025 501.493 583.894 501.299L583.692 501.03C583.56 500.836 583.604 500.569 583.783 500.423C583.977 500.289 584.243 500.331 584.375 500.525L584.576 500.794C584.713 501.016 584.681 501.267 584.486 501.401ZM586.341 499.126C586.209 498.932 586.253 498.665 586.431 498.52C586.626 498.386 586.892 498.428 587.024 498.622L587.225 498.891C587.357 499.085 587.313 499.352 587.134 499.497C586.94 499.631 586.674 499.589 586.542 499.395L586.341 499.126ZM585.584 502.96C585.39 503.094 585.124 503.053 584.992 502.859L584.791 502.59C584.659 502.395 584.703 502.128 584.881 501.983C585.076 501.849 585.342 501.891 585.474 502.085L585.675 502.354C585.823 502.56 585.779 502.827 585.584 502.96ZM587.456 500.698C587.324 500.504 587.368 500.237 587.546 500.091C587.741 499.957 588.007 499.999 588.138 500.193L588.34 500.462C588.471 500.656 588.428 500.923 588.249 501.069C588.055 501.202 587.789 501.161 587.657 500.967L587.456 500.698ZM586.699 504.532C586.505 504.666 586.239 504.624 586.107 504.43L585.906 504.161C585.774 503.967 585.818 503.7 585.996 503.554C586.191 503.421 586.457 503.462 586.588 503.656L586.79 503.925C586.938 504.131 586.894 504.398 586.699 504.532ZM588.554 502.258C588.422 502.063 588.466 501.796 588.645 501.651C588.839 501.517 589.105 501.559 589.237 501.753L589.438 502.022C589.57 502.216 589.526 502.483 589.348 502.628C589.153 502.762 588.887 502.721 588.756 502.526L588.554 502.258ZM587.798 506.092C587.603 506.226 587.337 506.184 587.206 505.99L587.004 505.721C586.872 505.527 586.916 505.26 587.095 505.114C587.289 504.98 587.555 505.022 587.687 505.216L587.888 505.485C588.036 505.691 587.993 505.958 587.798 506.092ZM589.681 503.813C589.549 503.619 589.593 503.352 589.771 503.206C589.966 503.072 590.232 503.114 590.364 503.308L590.565 503.577C590.697 503.771 590.653 504.038 590.474 504.184C590.28 504.317 590.014 504.276 589.882 504.082L589.681 503.813ZM588.913 507.663C588.718 507.797 588.452 507.755 588.32 507.561L588.119 507.292C587.987 507.098 588.031 506.831 588.21 506.686C588.404 506.552 588.67 506.594 588.802 506.788L589.003 507.057C589.151 507.262 589.107 507.529 588.913 507.663ZM590.779 505.372C590.648 505.178 590.691 504.911 590.87 504.766C591.065 504.632 591.33 504.674 591.462 504.868L591.664 505.137C591.795 505.331 591.751 505.598 591.573 505.743C591.378 505.877 591.113 505.835 590.981 505.641L590.779 505.372ZM590.011 509.223C589.817 509.357 589.551 509.315 589.419 509.121L589.218 508.852C589.086 508.658 589.13 508.391 589.308 508.246C589.503 508.112 589.769 508.153 589.9 508.347L590.102 508.616C590.25 508.822 590.206 509.089 590.011 509.223ZM592.676 507.331C592.481 507.465 592.216 507.423 592.084 507.229L591.882 506.96C591.751 506.766 591.795 506.499 591.973 506.354C592.168 506.22 592.433 506.262 592.565 506.456L592.767 506.725C592.898 506.919 592.855 507.186 592.676 507.331ZM594.777 504.885C594.646 504.691 594.689 504.424 594.868 504.279C595.062 504.145 595.328 504.187 595.46 504.381L595.661 504.65C595.793 504.844 595.749 505.111 595.571 505.256C595.376 505.39 595.11 505.348 594.979 505.154L594.777 504.885ZM593.775 508.891C593.58 509.025 593.314 508.983 593.182 508.789L592.981 508.52C592.849 508.326 592.893 508.059 593.072 507.913C593.266 507.78 593.532 507.821 593.664 508.015L593.865 508.284C594.013 508.49 593.969 508.757 593.775 508.891ZM595.876 506.445C595.744 506.251 595.788 505.984 595.966 505.839C596.161 505.705 596.427 505.746 596.559 505.941L596.76 506.21C596.892 506.404 596.848 506.671 596.67 506.816C596.475 506.95 596.209 506.908 596.077 506.714L595.876 506.445ZM594.89 510.462C594.695 510.596 594.429 510.555 594.297 510.36L594.096 510.091C593.964 509.897 594.008 509.63 594.186 509.485C594.381 509.351 594.647 509.393 594.779 509.587L594.98 509.856C595.112 510.05 595.068 510.317 594.89 510.462ZM596.991 508.017C596.859 507.823 596.903 507.556 597.081 507.41C597.276 507.276 597.542 507.318 597.674 507.512L597.875 507.781C598.007 507.975 597.963 508.242 597.784 508.388C597.59 508.521 597.324 508.48 597.192 508.286L596.991 508.017ZM595.988 512.022C595.794 512.156 595.528 512.114 595.396 511.92L595.195 511.651C595.063 511.457 595.107 511.19 595.285 511.045C595.48 510.911 595.746 510.953 595.877 511.147L596.079 511.416C596.227 511.621 596.183 511.888 595.988 512.022ZM598.089 509.576C597.958 509.382 598.001 509.115 598.18 508.97C598.374 508.836 598.64 508.878 598.772 509.072L598.973 509.341C599.105 509.535 599.061 509.802 598.883 509.947C598.688 510.081 598.422 510.039 598.291 509.845L598.089 509.576ZM597.103 513.594C596.908 513.727 596.642 513.686 596.511 513.492L596.309 513.223C596.178 513.029 596.221 512.762 596.4 512.616C596.594 512.482 596.86 512.524 596.992 512.718L597.193 512.987C597.325 513.181 597.281 513.448 597.103 513.594ZM599.204 511.148C599.072 510.954 599.116 510.687 599.295 510.541C599.489 510.408 599.755 510.449 599.887 510.643L600.088 510.912C600.22 511.106 600.176 511.373 599.998 511.519C599.803 511.653 599.537 511.611 599.406 511.417L599.204 511.148ZM598.202 515.153C598.007 515.287 597.741 515.246 597.609 515.051L597.408 514.783C597.276 514.588 597.32 514.321 597.498 514.176C597.693 514.042 597.959 514.084 598.091 514.278L598.292 514.547C598.44 514.753 598.396 515.02 598.202 515.153ZM601.085 513.095C600.89 513.229 600.624 513.187 600.492 512.993L600.291 512.724C600.159 512.53 600.203 512.263 600.381 512.118C600.576 511.984 600.842 512.025 600.974 512.219L601.175 512.488C601.323 512.694 601.279 512.961 601.085 513.095ZM602.183 514.655C601.989 514.789 601.723 514.747 601.591 514.553L601.39 514.284C601.258 514.09 601.302 513.823 601.48 513.677C601.675 513.543 601.941 513.585 602.072 513.779L602.274 514.048C602.422 514.254 602.378 514.521 602.183 514.655Z" fill="white"/>
</g>
<g opacity="0.5" clip-path="url(#clip5)">
<path d="M847.172 221.819L808.331 193.931C807.827 193.569 807.142 193.699 806.788 194.191L793.297 212.981C792.932 213.49 793.055 214.176 793.543 214.526L832.368 242.403C832.872 242.765 833.557 242.635 833.911 242.142L847.402 223.353C847.772 222.872 847.66 222.17 847.172 221.819ZM834.649 218.971L834.925 219.169C835.12 219.309 835.177 219.574 835.036 219.771C834.906 219.951 834.626 219.999 834.43 219.858L834.154 219.66C833.959 219.52 833.902 219.255 834.043 219.058C834.201 218.873 834.454 218.831 834.649 218.971ZM832.575 221.859L832.851 222.057C833.047 222.198 833.103 222.462 832.962 222.659C832.832 222.84 832.552 222.887 832.357 222.747L832.08 222.548C831.885 222.408 831.828 222.144 831.97 221.947C832.127 221.761 832.38 221.719 832.575 221.859ZM830.678 224.501L830.954 224.7C831.15 224.84 831.206 225.104 831.065 225.301C830.935 225.482 830.655 225.529 830.46 225.389L830.183 225.19C829.988 225.05 829.931 224.786 830.073 224.589C830.23 224.403 830.483 224.361 830.678 224.501ZM833.087 217.85L833.364 218.048C833.559 218.188 833.616 218.453 833.474 218.65C833.345 218.83 833.064 218.877 832.869 218.737L832.592 218.539C832.397 218.399 832.341 218.134 832.482 217.937C832.64 217.752 832.908 217.721 833.087 217.85ZM831.014 220.738L831.29 220.936C831.485 221.076 831.542 221.341 831.4 221.538C831.271 221.718 830.99 221.766 830.795 221.626L830.519 221.427C830.323 221.287 830.267 221.022 830.408 220.825C830.566 220.64 830.835 220.609 831.014 220.738ZM829.116 223.38L829.393 223.578C829.588 223.719 829.645 223.983 829.503 224.18C829.374 224.36 829.093 224.408 828.898 224.268L828.622 224.069C828.426 223.929 828.37 223.664 828.511 223.468C828.669 223.282 828.938 223.251 829.116 223.38ZM831.542 216.74L831.819 216.939C832.014 217.079 832.07 217.343 831.929 217.54C831.799 217.721 831.519 217.768 831.324 217.628L831.047 217.429C830.852 217.289 830.795 217.025 830.937 216.828C831.078 216.631 831.347 216.6 831.542 216.74ZM829.468 219.628L829.745 219.827C829.94 219.967 829.997 220.232 829.855 220.428C829.726 220.609 829.445 220.656 829.25 220.516L828.973 220.318C828.778 220.177 828.722 219.913 828.863 219.716C829.004 219.519 829.273 219.488 829.468 219.628ZM827.571 222.27L827.848 222.469C828.043 222.609 828.1 222.874 827.958 223.07C827.829 223.251 827.548 223.298 827.353 223.158L827.076 222.96C826.881 222.82 826.825 222.555 826.966 222.358C827.107 222.161 827.376 222.13 827.571 222.27ZM829.981 215.619L830.257 215.818C830.452 215.958 830.509 216.222 830.368 216.419C830.238 216.6 829.957 216.647 829.762 216.507L829.486 216.308C829.291 216.168 829.234 215.904 829.375 215.707C829.533 215.521 829.785 215.479 829.981 215.619ZM827.907 218.507L828.183 218.706C828.379 218.846 828.435 219.11 828.294 219.307C828.164 219.488 827.884 219.535 827.689 219.395L827.412 219.196C827.217 219.056 827.16 218.792 827.302 218.595C827.459 218.41 827.712 218.367 827.907 218.507ZM826.01 221.149L826.286 221.348C826.482 221.488 826.538 221.752 826.397 221.949C826.267 222.13 825.987 222.177 825.791 222.037L825.515 221.839C825.32 221.698 825.263 221.434 825.405 221.237C825.562 221.052 825.815 221.009 826.01 221.149ZM828.435 214.51L828.712 214.708C828.907 214.848 828.964 215.113 828.822 215.31C828.693 215.49 828.412 215.537 828.217 215.397L827.941 215.199C827.745 215.059 827.689 214.794 827.83 214.597C827.972 214.4 828.24 214.369 828.435 214.51ZM826.362 217.398L826.638 217.596C826.833 217.736 826.89 218.001 826.749 218.198C826.619 218.378 826.339 218.426 826.143 218.286L825.867 218.087C825.672 217.947 825.615 217.682 825.756 217.485C825.898 217.289 826.167 217.258 826.362 217.398ZM824.465 220.04L824.741 220.238C824.936 220.378 824.993 220.643 824.852 220.84C824.722 221.02 824.441 221.068 824.246 220.928L823.97 220.729C823.775 220.589 823.718 220.324 823.859 220.128C824.001 219.931 824.269 219.9 824.465 220.04ZM826.874 213.388L827.151 213.587C827.346 213.727 827.402 213.992 827.261 214.188C827.131 214.369 826.851 214.416 826.656 214.276L826.379 214.078C826.184 213.938 826.127 213.673 826.269 213.476C826.41 213.279 826.679 213.248 826.874 213.388ZM824.8 216.277L825.077 216.475C825.272 216.615 825.329 216.88 825.187 217.077C825.058 217.257 824.777 217.305 824.582 217.164L824.305 216.966C824.11 216.826 824.054 216.561 824.195 216.364C824.336 216.167 824.605 216.136 824.8 216.277ZM822.903 218.919L823.18 219.117C823.375 219.257 823.432 219.522 823.29 219.719C823.161 219.899 822.88 219.947 822.685 219.806L822.408 219.608C822.213 219.468 822.157 219.203 822.298 219.006C822.439 218.809 822.708 218.779 822.903 218.919ZM825.313 212.267L825.589 212.466C825.784 212.606 825.841 212.87 825.699 213.067C825.57 213.248 825.289 213.295 825.094 213.155L824.818 212.957C824.623 212.816 824.566 212.552 824.707 212.355C824.865 212.17 825.117 212.127 825.313 212.267ZM823.239 215.155L823.515 215.354C823.71 215.494 823.767 215.759 823.626 215.956C823.496 216.136 823.216 216.183 823.02 216.043L822.744 215.845C822.549 215.705 822.492 215.44 822.634 215.243C822.791 215.058 823.044 215.015 823.239 215.155ZM821.342 217.798L821.618 217.996C821.813 218.136 821.87 218.401 821.729 218.598C821.599 218.778 821.319 218.825 821.123 218.685L820.847 218.487C820.652 218.347 820.595 218.082 820.737 217.885C820.894 217.7 821.147 217.657 821.342 217.798ZM823.767 211.158L824.044 211.356C824.239 211.497 824.296 211.761 824.154 211.958C824.025 212.138 823.744 212.186 823.549 212.046L823.273 211.847C823.077 211.707 823.021 211.442 823.162 211.246C823.304 211.049 823.572 211.018 823.767 211.158ZM821.694 214.046L821.97 214.245C822.165 214.385 822.222 214.649 822.081 214.846C821.951 215.027 821.67 215.074 821.475 214.934L821.199 214.735C821.004 214.595 820.947 214.331 821.088 214.134C821.23 213.937 821.498 213.906 821.694 214.046ZM822.206 210.037L822.482 210.235C822.678 210.375 822.734 210.64 822.593 210.837C822.463 211.017 822.183 211.065 821.988 210.924L821.711 210.726C821.516 210.586 821.459 210.321 821.601 210.124C821.758 209.939 822.011 209.897 822.206 210.037ZM820.132 212.925L820.409 213.123C820.604 213.264 820.66 213.528 820.519 213.725C820.389 213.906 820.109 213.953 819.914 213.813L819.637 213.614C819.442 213.474 819.386 213.21 819.527 213.013C819.685 212.827 819.937 212.785 820.132 212.925ZM818.235 215.567L818.512 215.766C818.707 215.906 818.763 216.17 818.622 216.367C818.492 216.548 818.212 216.595 818.017 216.455L817.74 216.256C817.545 216.116 817.488 215.852 817.63 215.655C817.788 215.469 818.04 215.427 818.235 215.567ZM806.506 209.21L807.761 205.883L806.245 205.316L807.542 204.333L805.423 201.518L808.73 202.748L809.307 201.223L810.277 202.516L813.118 200.378L811.863 203.705L813.38 204.271L812.082 205.255L814.19 208.086L810.883 206.856L810.305 208.381L809.336 207.088L806.506 209.21ZM808.851 217.41C808.38 217.071 808.839 216.431 808.563 216.232C808.351 216.081 808.155 216.388 808.12 216.437L806.918 218.111C806.447 218.767 807.175 218.817 806.904 219.195C806.786 219.359 806.512 219.535 805.503 218.811C805.227 218.612 804.207 217.905 804.513 217.478C804.725 217.183 804.984 217.543 805.223 217.416C805.355 217.336 805.623 217.031 805.717 216.9L806.626 215.737C807.055 215.174 806.941 215.093 806.876 215.046C806.632 214.871 806.058 215.429 805.619 215.114C805.408 214.962 805.419 214.672 805.56 214.475C805.89 214.015 806.717 213.688 807.026 213.91C807.058 213.934 807.111 213.997 807.197 214.083C807.283 214.17 807.418 214.291 807.645 214.455L808.979 215.412C809.207 215.576 809.332 215.641 809.426 215.683C809.519 215.725 809.563 215.732 809.677 215.814C809.888 215.966 810.021 216.708 809.597 217.298C809.404 217.533 809.128 217.608 808.851 217.41ZM809.983 220.983C810.055 221.158 810.161 221.285 810.043 221.449C809.925 221.613 809.7 221.824 808.513 220.972C808.285 220.808 807.602 220.318 807.861 219.956C807.991 219.776 808.181 219.888 808.361 219.843C808.485 219.808 808.675 219.646 809.217 218.891L809.606 218.35C810.101 217.66 810.17 217.461 810.164 217.332C810.152 217.075 809.952 216.907 810.093 216.71C810.376 216.316 811.482 217.11 811.58 217.18C811.905 217.414 812.56 217.909 812.301 218.27C812.16 218.467 811.96 218.299 811.74 218.365C811.56 218.409 811.19 218.89 810.907 219.284L810.519 219.825C809.84 220.805 809.917 220.836 809.983 220.983ZM813.253 222.883C813.936 223.374 814.321 223.078 814.484 223.195C814.647 223.312 814.582 223.539 814.476 223.686C814.299 223.933 813.702 224.25 813.425 224.051C813.246 223.923 812.632 223.954 811.998 223.499C810.859 222.681 810.58 221.113 811.37 220.014C812.171 218.898 813.824 218.792 814.898 219.563C815.435 219.948 815.588 220.456 815.718 220.549C815.832 220.631 815.888 220.621 815.985 220.692C816.213 220.855 816.258 221.41 815.822 222.017C815.599 222.329 815.231 222.463 814.906 222.229C814.353 221.832 815.178 220.958 814.219 220.268C813.796 219.965 813.35 220.242 813.138 220.537C812.561 221.341 812.489 222.334 813.253 222.883ZM819.191 216.776C819.321 216.595 819.601 216.548 819.797 216.688L820.073 216.887C820.268 217.027 820.325 217.291 820.184 217.488C820.054 217.669 819.773 217.716 819.578 217.576L819.302 217.377C819.107 217.237 819.062 216.956 819.191 216.776ZM818.172 227.808L817.245 227.142C817.034 226.99 817.046 226.974 817.006 226.548L816.962 225.82C816.947 225.635 816.921 225.019 816.791 224.926C816.644 224.821 816.522 224.957 816.416 225.104L816.333 225.219C816.145 225.482 816.475 225.743 816.274 226.022C816.145 226.203 815.897 226.274 814.953 225.596C814.091 224.977 814.1 224.759 814.23 224.579C814.43 224.3 814.6 224.646 814.995 224.233C815.268 223.957 815.515 223.612 815.739 223.3C815.987 222.956 816.269 222.562 816.456 222.199C816.733 221.676 816.287 221.679 816.534 221.334C816.593 221.252 816.768 220.906 817.956 221.758C818.216 221.945 818.769 222.342 818.498 222.719C818.286 223.015 818.123 222.624 817.663 223.264C817.616 223.33 817.498 223.494 817.596 223.564C817.742 223.669 818.566 223.415 818.66 223.283C818.743 223.169 818.697 223.061 818.791 222.93C819.085 222.519 819.777 223.066 820.038 223.253C820.298 223.44 820.956 223.862 820.673 224.256C820.355 224.699 819.974 224.028 819.654 224.096C819.458 224.13 818.766 224.131 818.602 224.361C818.495 224.508 818.531 224.733 818.542 224.89L818.733 226.992C818.766 227.289 819.104 227.507 818.868 227.835C818.684 228.125 818.384 227.96 818.172 227.808ZM821.996 230.653C821.964 230.63 821.878 230.543 821.776 230.445C821.674 230.347 821.523 230.214 821.344 230.085L819.116 228.485C818.758 228.228 818.876 228.064 818.923 227.999C819.135 227.703 819.344 228.201 819.789 227.65C820.573 226.696 820.502 226.795 821.16 225.775C821.729 224.915 820.999 225.038 821.27 224.66C821.506 224.332 821.926 224.708 822.154 224.872L823.715 225.993C824.447 226.518 824.627 226.474 824.709 226.532C825.018 226.754 824.759 227.389 824.594 227.619C824.464 227.799 824.246 227.966 824.035 227.814C823.612 227.51 824.33 227.23 823.306 226.495C822.704 226.063 822.686 226.224 822.239 226.848C822.015 227.16 822.019 227.188 822.345 227.421C822.751 227.713 822.878 226.884 823.269 227.164C823.578 227.386 823.162 228.033 823.009 228.247C822.844 228.476 822.34 229.109 822.015 228.876C821.674 228.631 822.427 228.301 821.874 227.904C821.647 227.741 821.494 227.954 821.376 228.118C820.798 228.922 820.883 228.908 821.452 229.317C822.558 230.111 822.803 229.118 823.242 229.433C823.421 229.562 823.361 229.817 823.255 229.965C822.984 230.342 822.208 230.805 821.996 230.653ZM827.914 231.097C827.442 230.758 827.902 230.118 827.625 229.92C827.414 229.768 827.218 230.075 827.183 230.124L825.981 231.798C825.51 232.454 826.238 232.505 825.967 232.882C825.849 233.046 825.575 233.222 824.566 232.498C824.29 232.3 823.269 231.592 823.576 231.165C823.788 230.87 824.047 231.23 824.286 231.103C824.417 231.023 824.685 230.718 824.78 230.587L825.689 229.424C826.117 228.862 826.003 228.78 825.938 228.733C825.694 228.558 825.121 229.116 824.682 228.801C824.47 228.649 824.482 228.359 824.623 228.162C824.953 227.702 825.779 227.375 826.088 227.597C826.121 227.621 826.174 227.684 826.26 227.77C826.346 227.857 826.48 227.978 826.708 228.142L828.042 229.099C828.269 229.263 828.395 229.328 828.488 229.37C828.581 229.412 828.626 229.419 828.74 229.501C828.951 229.653 829.084 230.395 828.66 230.985C828.45 231.208 828.174 231.284 827.914 231.097ZM832.005 226.498L831.744 226.311C831.549 226.171 831.493 225.907 831.634 225.71C831.764 225.529 832.044 225.482 832.239 225.622L832.516 225.821C832.711 225.961 832.768 226.225 832.626 226.422C832.48 226.591 832.2 226.638 832.005 226.498ZM833.914 223.84L833.653 223.653C833.458 223.513 833.402 223.248 833.543 223.051C833.673 222.871 833.953 222.824 834.148 222.964L834.425 223.162C834.62 223.302 834.676 223.567 834.535 223.764C834.377 223.949 834.109 223.98 833.914 223.84ZM835.976 220.968L835.715 220.781C835.52 220.641 835.463 220.376 835.605 220.18C835.734 219.999 836.015 219.952 836.21 220.092L836.487 220.29C836.682 220.431 836.738 220.695 836.597 220.892C836.451 221.061 836.171 221.108 835.976 220.968ZM833.566 227.619L833.29 227.421C833.094 227.281 833.038 227.016 833.179 226.819C833.309 226.639 833.589 226.591 833.785 226.732L834.061 226.93C834.256 227.07 834.313 227.335 834.171 227.532C834.042 227.712 833.761 227.759 833.566 227.619ZM835.475 224.961L835.198 224.762C835.003 224.622 834.947 224.358 835.088 224.161C835.218 223.98 835.498 223.933 835.693 224.073L835.97 224.272C836.165 224.412 836.222 224.676 836.08 224.873C835.939 225.07 835.67 225.101 835.475 224.961ZM837.537 222.089L837.26 221.891C837.065 221.75 837.009 221.486 837.15 221.289C837.28 221.108 837.56 221.061 837.755 221.201L838.032 221.4C838.227 221.54 838.284 221.804 838.142 222.001C838.013 222.182 837.732 222.229 837.537 222.089ZM835.128 228.74L834.851 228.542C834.656 228.402 834.599 228.137 834.741 227.94C834.87 227.76 835.151 227.713 835.346 227.853L835.622 228.051C835.818 228.191 835.874 228.456 835.733 228.653C835.587 228.822 835.323 228.881 835.128 228.74ZM837.036 226.082L836.76 225.883C836.565 225.743 836.508 225.479 836.65 225.282C836.779 225.101 837.06 225.054 837.255 225.194L837.531 225.393C837.726 225.533 837.783 225.797 837.642 225.994C837.484 226.18 837.232 226.222 837.036 226.082ZM839.098 223.21L838.822 223.012C838.627 222.872 838.57 222.607 838.712 222.41C838.841 222.23 839.122 222.182 839.317 222.322L839.593 222.521C839.788 222.661 839.845 222.926 839.704 223.123C839.558 223.291 839.294 223.35 839.098 223.21ZM836.673 229.85L836.396 229.651C836.201 229.511 836.145 229.247 836.286 229.05C836.416 228.869 836.696 228.822 836.891 228.962L837.168 229.161C837.363 229.301 837.419 229.565 837.278 229.762C837.148 229.943 836.868 229.99 836.673 229.85ZM838.582 227.191L838.305 226.993C838.11 226.853 838.053 226.588 838.195 226.391C838.324 226.211 838.605 226.164 838.8 226.304L839.076 226.502C839.272 226.642 839.328 226.907 839.187 227.104C839.045 227.301 838.777 227.332 838.582 227.191ZM840.644 224.32L840.367 224.121C840.172 223.981 840.115 223.717 840.257 223.52C840.386 223.339 840.667 223.292 840.862 223.432L841.138 223.63C841.334 223.771 841.39 224.035 841.249 224.232C841.119 224.412 840.839 224.46 840.644 224.32Z" fill="white"/>
<path d="M853.562 216.285L825.915 177.235C825.561 176.732 824.869 176.633 824.364 176.992L805.574 190.459C805.069 190.819 804.964 191.514 805.318 192.017L806.19 193.24C806.954 192.52 808.134 192.422 809.012 193.052L816.12 198.156L817.304 197.365C817.904 196.975 817.814 196.86 817.744 196.786C817.576 196.54 816.838 196.881 816.537 196.441C816.389 196.235 816.489 195.959 816.684 195.825C817.148 195.487 818.036 195.453 818.258 195.762C818.279 195.801 818.304 195.869 818.366 195.988C818.428 196.108 818.511 196.267 818.659 196.473L819.605 197.799C819.774 198.044 819.86 198.131 819.941 198.189C820.023 198.247 820.071 198.282 820.145 198.385C820.294 198.591 820.181 199.331 819.602 199.761C819.332 199.965 819.054 199.94 818.853 199.671C818.52 199.208 819.167 198.752 818.978 198.467C818.83 198.261 818.548 198.482 818.496 198.519L817.591 199.162L819.559 200.576C819.995 200.242 820.09 200.111 820.104 200.022C820.181 199.778 820.044 199.556 820.251 199.406C820.652 199.122 821.434 200.23 821.508 200.333C821.746 200.654 822.199 201.327 821.826 201.606C821.631 201.74 821.483 201.534 821.262 201.5C821.189 201.497 821.093 201.528 820.974 201.592L822.422 202.631C822.995 202.794 823.527 203.151 823.865 203.642C823.881 203.654 823.885 203.682 823.885 203.682L835.336 211.904C835.371 211.854 835.395 211.822 835.447 211.784C835.641 211.65 835.907 211.692 836.039 211.886L836.24 212.155C836.33 212.269 836.341 212.426 836.291 212.565L843.562 217.785C843.585 217.752 843.609 217.719 843.649 217.698C843.843 217.564 844.109 217.606 844.241 217.8L844.442 218.069C844.533 218.184 844.543 218.34 844.505 218.462L847.856 220.868C848.051 221.008 848.222 221.181 848.354 221.375L853.33 217.81C853.794 217.472 853.916 216.788 853.562 216.285ZM824.143 190.312L823.119 191.567L822.627 190.02L819.262 191.136L821.503 188.392L820.261 187.376L821.807 186.87L820.707 183.493L823.44 185.729L824.464 184.475L824.956 186.021L828.32 184.906L826.068 187.665L827.31 188.682L825.763 189.188L826.848 192.553L824.143 190.312ZM838.741 204.724C838.936 204.59 839.202 204.632 839.333 204.826L839.535 205.095C839.667 205.289 839.623 205.556 839.444 205.701C839.25 205.835 838.984 205.793 838.852 205.599L838.651 205.33C838.519 205.136 838.563 204.869 838.741 204.724ZM837.643 203.164C837.837 203.03 838.103 203.072 838.235 203.266L838.436 203.535C838.568 203.729 838.524 203.996 838.346 204.141C838.151 204.275 837.885 204.233 837.753 204.039L837.552 203.77C837.404 203.565 837.448 203.298 837.643 203.164ZM836.528 201.592C836.722 201.459 836.988 201.5 837.12 201.694L837.321 201.963C837.453 202.157 837.409 202.424 837.231 202.57C837.036 202.704 836.77 202.662 836.639 202.468L836.437 202.199C836.305 202.005 836.349 201.738 836.528 201.592ZM835.429 200.033C835.624 199.899 835.89 199.941 836.021 200.135L836.223 200.404C836.355 200.598 836.311 200.865 836.132 201.01C835.938 201.144 835.672 201.102 835.54 200.908L835.339 200.639C835.191 200.433 835.234 200.166 835.429 200.033ZM834.314 198.461C834.509 198.327 834.775 198.369 834.907 198.563L835.108 198.832C835.24 199.026 835.196 199.293 835.017 199.439C834.823 199.572 834.557 199.531 834.425 199.337L834.224 199.068C834.092 198.874 834.136 198.607 834.314 198.461ZM833.216 196.901C833.41 196.768 833.676 196.809 833.808 197.003L834.009 197.272C834.141 197.466 834.097 197.733 833.919 197.879C833.724 198.013 833.458 197.971 833.327 197.777L833.125 197.508C832.977 197.302 833.021 197.035 833.216 196.901ZM828.387 201.841C828.193 201.975 827.927 201.933 827.795 201.739L827.594 201.47C827.462 201.276 827.506 201.009 827.684 200.863C827.879 200.73 828.145 200.771 828.276 200.965L828.478 201.234C828.598 201.445 828.554 201.712 828.387 201.841ZM830.242 199.566C830.11 199.372 830.154 199.105 830.333 198.96C830.527 198.826 830.793 198.868 830.925 199.062L831.126 199.331C831.258 199.525 831.214 199.792 831.036 199.937C830.841 200.071 830.575 200.029 830.444 199.835L830.242 199.566ZM829.486 203.401C829.291 203.534 829.025 203.493 828.894 203.299L828.692 203.03C828.56 202.836 828.604 202.569 828.783 202.423C828.977 202.289 829.243 202.331 829.375 202.525L829.576 202.794C829.713 203.016 829.681 203.267 829.486 203.401ZM831.341 201.126C831.209 200.932 831.253 200.665 831.431 200.52C831.626 200.386 831.892 200.427 832.024 200.622L832.225 200.891C832.357 201.085 832.313 201.352 832.134 201.497C831.94 201.631 831.674 201.589 831.542 201.395L831.341 201.126ZM830.584 204.96C830.39 205.094 830.124 205.052 829.992 204.858L829.791 204.589C829.659 204.395 829.703 204.128 829.881 203.983C830.076 203.849 830.342 203.891 830.474 204.085L830.675 204.354C830.823 204.56 830.779 204.827 830.584 204.96ZM832.456 202.698C832.324 202.504 832.368 202.237 832.546 202.091C832.741 201.957 833.007 201.999 833.138 202.193L833.34 202.462C833.471 202.656 833.428 202.923 833.249 203.069C833.055 203.202 832.789 203.161 832.657 202.967L832.456 202.698ZM831.699 206.532C831.505 206.666 831.239 206.624 831.107 206.43L830.906 206.161C830.774 205.967 830.818 205.7 830.996 205.554C831.191 205.421 831.457 205.462 831.588 205.656L831.79 205.925C831.938 206.131 831.894 206.398 831.699 206.532ZM833.554 204.257C833.422 204.063 833.466 203.796 833.645 203.651C833.839 203.517 834.105 203.559 834.237 203.753L834.438 204.022C834.57 204.216 834.526 204.483 834.348 204.628C834.153 204.762 833.887 204.72 833.756 204.526L833.554 204.257ZM832.798 208.092C832.603 208.225 832.337 208.184 832.206 207.99L832.004 207.721C831.872 207.527 831.916 207.26 832.095 207.114C832.289 206.98 832.555 207.022 832.687 207.216L832.888 207.485C833.036 207.691 832.993 207.958 832.798 208.092ZM834.681 205.812C834.549 205.618 834.593 205.351 834.771 205.206C834.966 205.072 835.232 205.114 835.364 205.308L835.565 205.577C835.697 205.771 835.653 206.038 835.475 206.183C835.28 206.317 835.014 206.275 834.882 206.081L834.681 205.812ZM833.913 209.663C833.718 209.797 833.452 209.755 833.32 209.561L833.119 209.292C832.987 209.098 833.031 208.831 833.21 208.686C833.404 208.552 833.67 208.593 833.802 208.788L834.003 209.056C834.151 209.262 834.107 209.529 833.913 209.663ZM835.779 207.372C835.648 207.178 835.691 206.911 835.87 206.766C836.065 206.632 836.33 206.674 836.462 206.868L836.664 207.137C836.795 207.331 836.752 207.598 836.573 207.743C836.378 207.877 836.113 207.835 835.981 207.641L835.779 207.372ZM835.011 211.223C834.817 211.357 834.551 211.315 834.419 211.121L834.218 210.852C834.086 210.658 834.13 210.391 834.308 210.245C834.503 210.112 834.769 210.153 834.9 210.347L835.102 210.616C835.25 210.822 835.206 211.089 835.011 211.223ZM837.676 209.331C837.481 209.465 837.216 209.423 837.084 209.229L836.883 208.96C836.751 208.766 836.795 208.499 836.973 208.354C837.168 208.22 837.433 208.261 837.565 208.456L837.767 208.724C837.898 208.919 837.855 209.186 837.676 209.331ZM839.777 206.885C839.646 206.691 839.689 206.424 839.868 206.279C840.062 206.145 840.328 206.187 840.46 206.381L840.661 206.65C840.793 206.844 840.749 207.111 840.571 207.256C840.376 207.39 840.11 207.348 839.979 207.154L839.777 206.885ZM838.775 210.891C838.58 211.025 838.314 210.983 838.182 210.789L837.981 210.52C837.849 210.326 837.893 210.059 838.072 209.913C838.266 209.78 838.532 209.821 838.664 210.015L838.865 210.284C839.013 210.49 838.969 210.757 838.775 210.891ZM840.876 208.445C840.744 208.251 840.788 207.984 840.966 207.838C841.161 207.705 841.427 207.746 841.559 207.94L841.76 208.209C841.892 208.403 841.848 208.67 841.67 208.816C841.475 208.95 841.209 208.908 841.077 208.714L840.876 208.445ZM839.89 212.462C839.695 212.596 839.429 212.554 839.297 212.36L839.096 212.091C838.964 211.897 839.008 211.63 839.186 211.485C839.381 211.351 839.647 211.393 839.779 211.587L839.98 211.856C840.112 212.05 840.068 212.317 839.89 212.462ZM841.991 210.017C841.859 209.822 841.903 209.555 842.081 209.41C842.276 209.276 842.542 209.318 842.674 209.512L842.875 209.781C843.007 209.975 842.963 210.242 842.784 210.387C842.59 210.521 842.324 210.48 842.192 210.285L841.991 210.017ZM840.988 214.022C840.794 214.156 840.528 214.114 840.396 213.92L840.195 213.651C840.063 213.457 840.107 213.19 840.285 213.045C840.48 212.911 840.746 212.952 840.877 213.147L841.079 213.415C841.227 213.621 841.183 213.888 840.988 214.022ZM843.089 211.576C842.958 211.382 843.001 211.115 843.18 210.97C843.374 210.836 843.64 210.878 843.772 211.072L843.973 211.341C844.105 211.535 844.061 211.802 843.883 211.947C843.688 212.081 843.422 212.039 843.291 211.845L843.089 211.576ZM842.103 215.594C841.908 215.727 841.643 215.686 841.511 215.492L841.309 215.223C841.178 215.029 841.221 214.762 841.4 214.616C841.594 214.482 841.86 214.524 841.992 214.718L842.193 214.987C842.325 215.181 842.281 215.448 842.103 215.594ZM844.204 213.148C844.072 212.954 844.116 212.687 844.295 212.541C844.489 212.407 844.755 212.449 844.887 212.643L845.088 212.912C845.22 213.106 845.176 213.373 844.998 213.519C844.803 213.652 844.537 213.611 844.406 213.417L844.204 213.148ZM843.202 217.153C843.007 217.287 842.741 217.245 842.609 217.051L842.408 216.782C842.276 216.588 842.32 216.321 842.498 216.176C842.693 216.042 842.959 216.084 843.091 216.278L843.292 216.547C843.44 216.752 843.396 217.019 843.202 217.153ZM846.085 215.095C845.89 215.229 845.624 215.187 845.492 214.993L845.291 214.724C845.159 214.53 845.203 214.263 845.381 214.117C845.576 213.984 845.842 214.025 845.974 214.219L846.175 214.488C846.323 214.694 846.279 214.961 846.085 215.095ZM847.183 216.655C846.989 216.788 846.723 216.747 846.591 216.553L846.39 216.284C846.258 216.09 846.302 215.823 846.48 215.677C846.675 215.543 846.941 215.585 847.072 215.779L847.274 216.048C847.422 216.254 847.378 216.521 847.183 216.655Z" fill="white"/>
</g>
<defs>
<clipPath id="clip0">
<rect width="50.7385" height="90.9339" fill="white" transform="translate(836.322 520.518) rotate(15.6054)"/>
</clipPath>
<clipPath id="clip1">
<rect width="71.3793" height="64.6454" fill="white" transform="translate(936.002 44.4541) rotate(-38.52)"/>
</clipPath>
<clipPath id="clip2">
<rect width="89.9137" height="81.4313" fill="white" transform="translate(49.7 68) rotate(37.6135)"/>
</clipPath>
<clipPath id="clip3">
<rect width="76.6157" height="106.466" fill="white" transform="translate(235 495.222) rotate(-9.93748)"/>
</clipPath>
<clipPath id="clip4">
<rect width="54.8642" height="49.2531" fill="white" transform="translate(573.729 470) rotate(35.6787)"/>
</clipPath>
<clipPath id="clip5">
<rect width="54.8642" height="49.2531" fill="white" transform="translate(818.729 172) rotate(35.6787)"/>
</clipPath>
</defs>
</svg>
