<svg width="464" height="426" viewBox="0 0 464 426" fill="none" xmlns="http://www.w3.org/2000/svg">
<g opacity="0.5" clip-path="url(#clip0)">
<path d="M262.906 347.265L262.686 346.426C262.686 346.426 261.522 346.687 258.095 350.423C258.045 350.487 257.484 349.457 257.288 349.48C256.166 350.374 254.209 352.6 253.675 354.484C253.431 353.56 253.144 353.572 252.794 353.302C252.188 354.047 250.956 355.609 249.893 357.856C249.893 357.856 249.387 356.966 248.794 356.829C248.025 357.761 246.524 361.717 246.085 362.82C245.834 362.594 245.659 362.264 245.605 361.954C244.696 363.266 244.464 364.753 244.231 365.853C244.092 365.674 243.681 365.51 243.534 365.36C242.677 366.655 242.329 368.328 242.139 369.781C241.629 369.683 241.343 369.245 240.972 368.938C240.237 369.972 240.261 373.118 240.482 374.345L243.683 375.253C244.159 375.077 246.964 372.702 247.091 371.418C246.592 371.339 246.001 371.528 245.482 371.521C247.534 369.632 248.493 368.086 248.493 368.086C248.493 368.086 248.148 367.522 247.246 367.36C249.832 365.7 251.808 362.966 251.808 362.966C251.808 362.966 251.071 362.447 250.535 362.497C253.643 360.892 254.841 359.118 254.841 359.118C254.841 359.118 254.338 358.385 253.863 358.22C256.002 357.583 258.435 354.792 258.435 354.792C258.435 354.792 258.258 354.136 256.545 353.884C258.643 353.391 260.378 352.95 261.642 351.335C261.483 350.948 260.966 350.988 260.642 350.741C262.575 350.326 264.453 349.382 266.128 348.319C265.893 348.034 265.53 347.978 265.19 347.897C265.816 347.748 267.877 346.608 267.877 346.608C267.877 346.608 267.677 346.365 267.243 346.226C267.802 346.09 268.78 346.04 269.201 345.725L267.218 344.976C265.969 345.259 262.906 347.265 262.906 347.265Z" fill="white"/>
<path d="M281.82 363.767C282.232 364.039 282.688 364.215 283.233 364.183C283.877 362.858 282.637 360.829 281.566 359.872C281.819 360.037 282.191 360.174 282.486 360.133C282.087 358.031 281.016 355.739 279.398 354.317C281.145 354.781 280.118 353.558 279.52 352.938C278.196 351.537 277.423 350.867 276.037 349.573C276.536 350.041 277.223 350.236 277.469 349.591C278.045 348.06 272.032 346.543 270.878 345.656L270.201 345.651C273.002 347.299 275.131 349.705 276.51 352.193C278.334 355.507 278.923 358.89 279.101 361.66C279.256 364.454 279.014 366.7 278.803 368.225C278.573 369.76 278.37 370.588 278.341 370.58C278.297 370.568 278.423 369.733 278.572 368.206C278.706 366.675 278.877 364.455 278.676 361.71C278.452 358.99 277.839 355.693 276.041 352.511C274.715 350.115 272.613 347.779 269.917 346.207C270.128 347.246 270.065 349.139 270.2 350.11C270.38 351.481 271.583 353.143 272.371 350.865C271.978 352.027 272.896 358.425 274.702 355.286C274.598 356.375 274.333 357.48 274.361 358.607C274.384 359.639 274.912 360.674 275.651 359.905C274.722 361.288 274.495 363.368 274.874 364.874C275.307 365.074 275.782 365.069 276.111 364.743C275.168 365.563 275.073 369.685 276.894 369.222C276.919 369.136 276.962 369.04 277.009 368.929C276.679 370.373 276.205 373.828 278.171 373.686C280.138 373.544 280.496 369.327 280.454 367.916C281.454 369.179 282.604 368.355 282.776 367.021C282.89 365.95 282.613 364.535 281.82 363.767Z" fill="white"/>
<path d="M297.246 348.951C297.315 347.929 293.313 344.946 292.344 344.687C293.575 344.911 293.413 344.259 292.704 343.639C291.319 342.454 289.784 342.019 288.074 341.534C289.411 341.665 290.544 340.619 288.81 339.941C287.287 339.353 284.84 339.017 283.325 339.738C283.52 339.498 283.876 339.132 283.699 338.865C283.032 337.821 280.403 338.738 279.536 339.736C279.705 339.473 279.994 339.011 279.811 338.819C278.912 337.927 276.979 339.12 276.224 339.667C275.728 340.024 275.409 340.648 274.915 340.943C275.219 339.926 274.405 339.12 273.51 340.048C272.802 340.764 271.763 341.199 270.663 343.575C271.943 342.68 273.415 342.165 274.832 341.79C276.668 341.331 278.505 341.199 280.231 341.238C283.708 341.338 286.751 342.247 289.107 343.35C291.482 344.442 293.178 345.7 294.291 346.621C295.403 347.543 295.943 348.146 295.924 348.156C295.901 348.181 295.327 347.645 294.187 346.763C293.058 345.899 291.346 344.699 288.988 343.658C286.645 342.621 283.653 341.757 280.263 341.682C278.571 341.637 276.777 341.781 274.994 342.224C273.462 342.613 271.859 343.2 270.571 344.233C271.475 344.443 275.43 345.253 273.861 343.379C274.806 344.222 275.956 344.454 277.225 344.767C278.641 345.122 280.142 344.895 278.693 343.49C279.558 344.17 281.266 344.328 282.361 344.421C282.552 344.024 282.475 343.63 282.368 343.226C282.956 344.216 283.916 344.784 284.967 345.253C285.571 345.517 286.88 345.857 286.707 345.078C287.356 346.241 289.455 347.861 290.099 346.925C290.149 346.861 290.169 346.789 290.156 346.723C290.683 347.65 291.456 348.599 292.384 348.893C293.037 349.094 293.915 348.504 293.306 347.756C293.884 348.168 297.145 350.367 297.246 348.951Z" fill="white"/>
<path d="M271.787 339.109C272.194 337.67 270.896 337.349 270.058 338.246C270.072 337.582 270.503 336.896 270.574 336.201C270.688 335.13 270.723 332.499 269.304 332.159C268.993 332.086 268.713 332.628 268.542 332.953C269.035 331.492 268.391 328.358 266.964 328.326C266.588 328.313 266.429 328.874 266.302 329.211C266.134 327.298 264.354 325.054 262.865 323.901C261.141 322.574 260.758 324.314 261.681 325.57C260.169 324.163 258.838 322.9 256.831 322.238C255.79 321.896 255.048 322.121 255.986 323.21C255.139 322.411 249.794 320.212 248.795 320.892C247.426 321.825 251.567 323.76 252.332 324.07C251.224 323.911 251.143 325.147 251.74 325.658C252.589 326.396 254.001 326.594 255.239 326.572C255.164 326.613 255.114 326.676 255.075 326.759C254.516 327.952 257.391 329.062 258.935 329.018C258.051 329.296 259.159 330.402 259.791 330.845C260.882 331.621 262.022 332.223 263.362 332.23C262.883 332.359 262.455 332.533 262.164 332.947C262.898 333.979 264.073 335.57 265.258 336.015C262.999 335.406 263.647 337.019 264.84 338.212C265.912 339.277 266.828 340.282 268.237 340.713C265.41 340.269 268.571 343.713 269.32 344.469C269.585 342.586 269.229 340.668 268.728 338.925C268.117 336.903 267.207 335.045 266.173 333.4C264.065 330.084 261.43 327.627 259.001 325.945C256.562 324.243 254.346 323.258 252.813 322.652C251.264 322.043 250.369 321.804 250.385 321.747C250.393 321.718 251.305 321.899 252.884 322.455C254.464 323.012 256.739 323.952 259.241 325.655C261.732 327.34 264.441 329.817 266.599 333.179C267.668 334.865 268.604 336.746 269.242 338.838C269.713 340.463 270.056 342.207 269.907 344.014C271.658 341.512 271.469 340.23 271.787 339.109Z" fill="white"/>
<path d="M248.992 351.618C248.127 353.222 251.137 353.967 254.107 349.06C255.459 350.53 257.814 347.904 258.518 346.814C258.513 349.283 261.685 346.78 262.83 345.193C262.858 346.319 264.271 346.347 265.852 344.449C265.878 345.358 267.111 344.573 267.771 344.03C261.293 343.763 255.581 345.531 251.913 347.552C248.037 349.639 246.177 351.69 246.12 351.612C246.051 351.577 247.809 349.387 251.706 347.167C255.322 345.053 261.006 343.215 267.475 343.402C265.949 342.488 262.053 340.358 263.531 342.999C262.355 342.355 261.2 341.53 259.83 341.235C258.355 340.926 258.155 341.63 259.151 342.519C258.084 342.216 256.177 341.536 255.102 341.93C254.521 342.139 254.054 342.783 254.653 343.124C253.423 342.728 251.963 342.361 251.003 343.41C251.224 343.69 251.546 343.89 251.901 343.975C249.736 343.703 246.727 344.792 247.892 346.086C248.085 346.296 248.567 346.712 248.862 346.672C247.394 346.784 244.497 348.759 245.374 349.956C245.498 350.131 245.802 350.17 246.019 350.185C245.24 350.539 244.278 352.318 245.038 352.921C246.264 353.89 248.097 352.716 248.992 351.618Z" fill="white"/>
<path d="M249.864 335.505C249.086 337.025 252.193 337.486 253.131 337.798C251.792 338.397 252.063 339.671 253.277 340.123C254.647 340.636 256.19 339.986 257.39 339.316C256.75 340.906 259.538 340.764 261.16 339.219C260.544 340.723 262.278 341.012 264.75 340.703C261.657 338.024 257.954 336.881 255.297 336.392C252.322 335.86 250.455 335.983 250.45 335.889C250.438 335.823 252.334 335.537 255.382 335.981C257.946 336.351 261.498 337.357 264.598 339.79C264.005 338.596 263 336.571 262.647 336.145C261.977 335.334 261.21 335.365 261.601 336.548C261.079 335.436 259.412 333.13 257.77 333.908C257.438 334.078 257.628 334.52 257.833 334.858C256.945 333.643 254.365 331.995 253.561 333.492C253.386 333.831 253.978 334.138 254.176 334.443C253.231 334.268 250.309 334.605 249.864 335.505Z" fill="white"/>
<path d="M273.016 330.927C272.245 330.584 271.77 331.646 271.805 332.246C271.86 333.613 272.986 334.43 273.577 335.467C272.743 335.122 272.317 336.011 272.372 336.711C272.428 337.457 272.881 338.145 273.287 338.772C274.096 337.479 274.591 336.066 274.904 334.74C275.291 333.095 275.425 331.563 275.457 330.283C275.538 327.711 275.205 326.156 275.272 326.144C275.339 326.132 275.778 327.701 275.784 330.298C275.792 331.605 275.684 333.159 275.313 334.856C275.019 336.171 274.539 337.589 273.736 338.915C274.283 338.713 275.418 338.273 275.87 337.904C276.718 337.197 277.584 335.982 277.904 334.907C278.343 333.416 277.028 334.208 276.227 334.416C276.451 333.796 277.07 333.226 277.375 332.597C277.808 331.679 278.034 330.718 277.91 329.704C277.778 328.61 277.441 328.017 276.629 329.045C277.098 327.5 278.029 324.719 276.293 323.543C274.124 322.059 274.191 326.226 274.339 327.262C273.772 326.309 272.569 325.486 271.877 326.813C271.243 328.047 272.079 330.055 273.016 330.927Z" fill="white"/>
<path d="M286.526 351.785C286.86 351.833 287.406 352.19 287.561 351.923C288.22 350.712 285.576 349.232 284.195 348.98C284.562 349.022 284.993 349.005 284.929 348.676C284.597 347.059 281.97 346.578 280.866 346.576C281.944 346.447 281.557 345.809 280.58 345.578C280.079 345.452 278.025 345.398 276.814 345.381C280.31 346.978 283.01 349.483 284.692 351.405C286.691 353.712 287.533 355.364 287.466 355.377C287.392 355.418 286.448 353.845 284.42 351.639C282.596 349.661 279.721 347.106 276.038 345.612C277.173 347.736 278.353 349.034 279.115 347.96C278.875 349.865 280.289 352.177 281.111 351.058C281.269 352.284 281.647 353.789 282.779 354.701C283.78 355.513 284.867 355.246 284.575 353.936C285.327 354.568 287.376 356.92 288.069 355.703C288.504 355.003 287.148 352.49 286.526 351.785Z" fill="white"/>
</g>
<g opacity="0.5" clip-path="url(#clip1)">
<path d="M16.3701 343.833L41.7191 313.979C42.0482 313.592 42.0057 313.008 41.6489 312.667L28.0319 299.661C27.6632 299.309 27.1124 299.349 26.794 299.724L1.45551 329.565C1.12644 329.952 1.16899 330.536 1.52577 330.877L15.1428 343.883C15.4889 344.236 16.0516 344.208 16.3701 343.833ZM19.7062 333.639L19.5257 333.851C19.3983 334.001 19.1852 334.024 19.0425 333.888C18.9116 333.763 18.8989 333.524 19.0262 333.374L19.2067 333.162C19.3341 333.012 19.5473 332.989 19.69 333.125C19.8221 333.274 19.8336 333.489 19.7062 333.639ZM17.6131 331.639L17.4326 331.852C17.3053 332.002 17.0921 332.025 16.9494 331.888C16.8185 331.764 16.8058 331.525 16.9331 331.375L17.1136 331.162C17.241 331.012 17.4542 330.99 17.5969 331.126C17.729 331.275 17.7405 331.489 17.6131 331.639ZM15.6984 329.811L15.5179 330.023C15.3905 330.173 15.1774 330.196 15.0347 330.06C14.9038 329.935 14.8911 329.696 15.0184 329.546L15.1989 329.334C15.3263 329.184 15.5395 329.161 15.6822 329.297C15.8143 329.446 15.8258 329.661 15.6984 329.811ZM20.7252 332.438L20.5448 332.651C20.4174 332.801 20.2042 332.824 20.0615 332.687C19.9307 332.563 19.9179 332.324 20.0453 332.174L20.2258 331.961C20.3531 331.811 20.5663 331.789 20.709 331.925C20.8411 332.074 20.842 332.301 20.7252 332.438ZM18.6322 330.439L18.4517 330.652C18.3243 330.802 18.1111 330.825 17.9684 330.688C17.8376 330.563 17.8248 330.325 17.9522 330.175L18.1327 329.962C18.26 329.812 18.4732 329.789 18.6159 329.926C18.748 330.075 18.7489 330.302 18.6322 330.439ZM16.7174 328.611L16.537 328.823C16.4096 328.973 16.1964 328.996 16.0537 328.86C15.9229 328.735 15.9101 328.496 16.0375 328.346L16.218 328.134C16.3453 327.983 16.5585 327.961 16.7012 328.097C16.8333 328.246 16.8342 328.473 16.7174 328.611ZM21.7337 331.251L21.5532 331.463C21.4258 331.613 21.2127 331.636 21.07 331.5C20.9391 331.375 20.9264 331.136 21.0537 330.986L21.2342 330.774C21.3616 330.624 21.5748 330.601 21.7175 330.737C21.8602 330.874 21.8611 331.101 21.7337 331.251ZM19.6406 329.252L19.4601 329.464C19.3328 329.614 19.1196 329.637 18.9769 329.501C18.846 329.376 18.8333 329.137 18.9606 328.987L19.1411 328.775C19.2685 328.625 19.4817 328.602 19.6244 328.738C19.7671 328.874 19.768 329.102 19.6406 329.252ZM17.7259 327.423L17.5454 327.635C17.418 327.785 17.2049 327.808 17.0622 327.672C16.9313 327.547 16.9186 327.308 17.0459 327.158L17.2264 326.946C17.3538 326.796 17.567 326.773 17.7097 326.909C17.8524 327.046 17.8533 327.273 17.7259 327.423ZM22.7527 330.051L22.5723 330.263C22.4449 330.413 22.2317 330.436 22.089 330.3C21.9582 330.175 21.9454 329.936 22.0728 329.786L22.2533 329.574C22.3806 329.424 22.5938 329.401 22.7365 329.537C22.8686 329.686 22.8801 329.901 22.7527 330.051ZM20.6597 328.052L20.4792 328.264C20.3518 328.414 20.1386 328.437 19.9959 328.301C19.8651 328.176 19.8523 327.937 19.9797 327.787L20.1602 327.575C20.2875 327.425 20.5007 327.402 20.6434 327.538C20.7755 327.687 20.787 327.902 20.6597 328.052ZM18.7449 326.223L18.5645 326.435C18.4371 326.585 18.2239 326.608 18.0812 326.472C17.9504 326.347 17.9376 326.108 18.065 325.958L18.2455 325.746C18.3728 325.596 18.586 325.573 18.7287 325.709C18.8608 325.858 18.8723 326.073 18.7449 326.223ZM23.7612 328.863L23.5807 329.076C23.4533 329.226 23.2402 329.248 23.0975 329.112C22.9666 328.987 22.9539 328.749 23.0812 328.599L23.2617 328.386C23.3891 328.236 23.6023 328.213 23.745 328.35C23.8877 328.486 23.8886 328.713 23.7612 328.863ZM21.6681 326.864L21.4876 327.076C21.3603 327.226 21.1471 327.249 21.0044 327.113C20.8735 326.988 20.8608 326.749 20.9881 326.599L21.1686 326.387C21.296 326.237 21.5092 326.214 21.6519 326.35C21.7946 326.487 21.7955 326.714 21.6681 326.864ZM19.7534 325.035L19.5729 325.248C19.4455 325.398 19.2324 325.421 19.0897 325.284C18.9588 325.159 18.9461 324.921 19.0734 324.771L19.2539 324.558C19.3813 324.408 19.5945 324.385 19.7372 324.522C19.8799 324.658 19.8808 324.885 19.7534 325.035ZM24.7802 327.663L24.5998 327.875C24.4724 328.026 24.2592 328.048 24.1165 327.912C23.9857 327.787 23.9729 327.548 24.1003 327.398L24.2808 327.186C24.4081 327.036 24.6213 327.013 24.764 327.149C24.9067 327.286 24.9076 327.513 24.7802 327.663ZM22.6872 325.664L22.5067 325.876C22.3793 326.026 22.1661 326.049 22.0234 325.913C21.8926 325.788 21.8798 325.549 22.0072 325.399L22.1877 325.187C22.315 325.037 22.5282 325.014 22.6709 325.15C22.8137 325.287 22.8145 325.514 22.6872 325.664ZM20.7724 323.835L20.592 324.048C20.4646 324.198 20.2514 324.22 20.1087 324.084C19.9779 323.959 19.9651 323.721 20.0925 323.571L20.273 323.358C20.4003 323.208 20.6135 323.185 20.7562 323.322C20.8989 323.458 20.8998 323.685 20.7724 323.835ZM25.7993 326.463L25.6188 326.675C25.4915 326.825 25.2783 326.848 25.1356 326.712C25.0047 326.587 24.992 326.348 25.1194 326.198L25.2998 325.986C25.4272 325.836 25.6404 325.813 25.7831 325.949C25.9152 326.098 25.9267 326.313 25.7993 326.463ZM23.7062 324.464L23.5258 324.676C23.3984 324.826 23.1852 324.849 23.0425 324.713C22.9117 324.588 22.8989 324.349 23.0263 324.199L23.2067 323.987C23.3341 323.837 23.5473 323.814 23.69 323.95C23.8221 324.099 23.8336 324.314 23.7062 324.464ZM21.7915 322.635L21.611 322.847C21.4837 322.997 21.2705 323.02 21.1278 322.884C20.997 322.759 20.9842 322.52 21.1116 322.37L21.292 322.158C21.4194 322.008 21.6326 321.985 21.7753 322.121C21.9074 322.27 21.9189 322.485 21.7915 322.635ZM26.8077 325.275L26.6273 325.488C26.4999 325.638 26.2867 325.661 26.144 325.524C26.0132 325.399 26.0004 325.161 26.1278 325.011L26.3083 324.798C26.4356 324.648 26.6488 324.625 26.7915 324.762C26.9342 324.898 26.9351 325.125 26.8077 325.275ZM24.7147 323.276L24.5342 323.489C24.4068 323.639 24.1936 323.661 24.0509 323.525C23.9201 323.4 23.9073 323.162 24.0347 323.012L24.2152 322.799C24.3425 322.649 24.5557 322.626 24.6984 322.763C24.8412 322.899 24.842 323.126 24.7147 323.276ZM27.8268 324.075L27.6463 324.288C27.519 324.438 27.3058 324.46 27.1631 324.324C27.0322 324.199 27.0195 323.961 27.1469 323.811L27.3273 323.598C27.4547 323.448 27.6679 323.425 27.8106 323.562C27.9427 323.71 27.9542 323.925 27.8268 324.075ZM25.7337 322.076L25.5533 322.288C25.4259 322.438 25.2127 322.461 25.07 322.325C24.9392 322.2 24.9264 321.961 25.0538 321.811L25.2342 321.599C25.3616 321.449 25.5748 321.426 25.7175 321.562C25.8496 321.711 25.8611 321.926 25.7337 322.076ZM23.819 320.247L23.6385 320.46C23.5112 320.61 23.298 320.633 23.1553 320.496C23.0245 320.371 23.0117 320.133 23.1391 319.983L23.3195 319.77C23.4469 319.62 23.6601 319.597 23.8028 319.734C23.9349 319.882 23.9464 320.097 23.819 320.247ZM29.8486 311.041L32.3586 312.397L32.9368 311.183L33.5978 312.358L35.9996 310.848L34.742 313.496L35.8926 314.12L34.7898 314.81L36.2251 317.38L33.7151 316.024L33.1369 317.238L32.4759 316.063L30.0622 317.562L31.3198 314.914L30.1692 314.291L31.272 313.601L29.8486 311.041ZM23.1872 312.24C23.4951 311.878 23.9589 312.321 24.1393 312.108C24.2773 311.946 24.0527 311.754 24.017 311.72L22.8039 310.561C22.3282 310.107 22.2251 310.71 21.9516 310.449C21.8327 310.335 21.718 310.09 22.3761 309.315C22.5566 309.102 23.2028 308.316 23.512 308.611C23.7261 308.816 23.4199 308.999 23.4989 309.21C23.5503 309.327 23.767 309.579 23.8621 309.67L24.6984 310.537C25.104 310.947 25.1783 310.859 25.2208 310.809C25.38 310.622 24.9905 310.091 25.2771 309.754C25.4151 309.591 25.6428 309.628 25.7855 309.764C26.1185 310.082 26.3037 310.802 26.102 311.04C26.0808 311.065 26.0265 311.103 25.9509 311.167C25.8753 311.231 25.7679 311.332 25.6193 311.507L24.7488 312.532C24.6002 312.707 24.5378 312.806 24.4966 312.88C24.4554 312.954 24.4461 312.99 24.3718 313.078C24.2338 313.24 23.638 313.282 23.2098 312.873C23.0421 312.69 23.0068 312.453 23.1872 312.24ZM20.2749 312.855C20.1305 312.898 20.0218 312.975 19.9029 312.862C19.7839 312.748 19.6374 312.54 20.4123 311.628C20.5609 311.453 21.0067 310.928 21.2684 311.178C21.3992 311.302 21.2943 311.451 21.3139 311.606C21.3309 311.713 21.4418 311.886 21.9888 312.409L22.3813 312.784C22.8808 313.261 23.0315 313.337 23.1335 313.344C23.3373 313.357 23.4872 313.206 23.6299 313.342C23.9153 313.615 23.1935 314.465 23.1298 314.54C22.9175 314.79 22.4704 315.291 22.2087 315.042C22.066 314.905 22.2159 314.754 22.1832 314.564C22.1636 314.41 21.8175 314.057 21.5321 313.784L21.1396 313.409C20.4273 312.751 20.3968 312.813 20.2749 312.855ZM18.4933 315.41C18.0474 315.935 18.2467 316.283 18.1405 316.408C18.0344 316.533 17.8611 316.458 17.7541 316.356C17.5757 316.186 17.3781 315.658 17.5586 315.445C17.6753 315.308 17.7041 314.792 18.1181 314.304C18.8612 313.429 20.1204 313.341 20.9172 314.102C21.7259 314.875 21.6649 316.265 20.9643 317.09C20.614 317.503 20.2008 317.584 20.1159 317.684C20.0416 317.771 20.0441 317.819 19.9804 317.894C19.8318 318.069 19.391 318.056 18.951 317.635C18.725 317.419 18.6515 317.1 18.8638 316.85C19.2247 316.425 19.8415 317.195 20.4678 316.458C20.7438 316.133 20.5645 315.735 20.3504 315.531C19.7677 314.974 18.9922 314.822 18.4933 315.41ZM22.7837 320.934C22.9146 321.059 22.9273 321.297 22.7999 321.447L22.6195 321.66C22.4921 321.81 22.2789 321.833 22.1362 321.696C22.0054 321.571 21.9926 321.333 22.12 321.183L22.3005 320.97C22.4278 320.82 22.6529 320.809 22.7837 320.934ZM14.1863 319.061L14.7914 318.349C14.9294 318.186 14.9413 318.198 15.2801 318.204L15.8573 318.235C16.0042 318.239 16.4913 318.275 16.5763 318.175C16.6718 318.062 16.5754 317.947 16.4683 317.845L16.3851 317.766C16.1948 317.584 15.96 317.835 15.7578 317.642C15.627 317.517 15.593 317.303 16.2087 316.578C16.7713 315.916 16.942 315.943 17.0728 316.068C17.275 316.261 16.9875 316.371 17.278 316.739C17.4722 316.993 17.7219 317.231 17.9479 317.447C18.1976 317.685 18.483 317.958 18.7527 318.148C19.1401 318.427 19.1765 318.054 19.4263 318.293C19.4857 318.35 19.7436 318.528 18.9686 319.441C18.7988 319.641 18.4379 320.066 18.1644 319.805C17.9503 319.6 18.2722 319.5 17.8084 319.057C17.7608 319.012 17.6419 318.898 17.5782 318.973C17.4826 319.085 17.611 319.797 17.7061 319.888C17.7894 319.967 17.8781 319.939 17.9733 320.03C18.2706 320.314 17.7797 320.841 17.6099 321.041C17.4401 321.241 17.0499 321.751 16.7644 321.479C16.4433 321.172 17.0051 320.916 16.9792 320.642C16.9703 320.475 17.0296 319.898 16.8631 319.739C16.7561 319.637 16.576 319.646 16.4516 319.64L14.7796 319.606C14.5427 319.606 14.3423 319.867 14.1044 319.64C13.8916 319.459 14.0483 319.224 14.1863 319.061ZM11.6123 321.991C11.6335 321.966 11.7091 321.903 11.7953 321.827C11.8815 321.75 11.9996 321.637 12.1163 321.499L13.5706 319.787C13.8041 319.511 13.9231 319.625 13.9706 319.671C14.1847 319.875 13.7741 320.003 14.1691 320.426C14.8521 321.169 14.7807 321.101 15.5261 321.745C16.1539 322.299 16.1206 321.679 16.3942 321.94C16.632 322.167 16.2991 322.483 16.1505 322.658L15.1315 323.858C14.6538 324.421 14.6733 324.575 14.6203 324.638C14.4186 324.875 13.9412 324.601 13.7747 324.442C13.6439 324.317 13.5317 324.119 13.6697 323.956C13.9457 323.631 14.1034 324.257 14.7721 323.47C15.1649 323.007 15.0392 322.978 14.5873 322.546C14.3613 322.33 14.3388 322.331 14.1265 322.581C13.8611 322.894 14.5028 323.077 14.2481 323.377C14.0464 323.614 13.5732 323.208 13.4186 323.06C13.2521 322.901 12.7976 322.422 13.0099 322.172C13.2329 321.909 13.4262 322.569 13.7871 322.144C13.9357 321.969 13.7811 321.821 13.6622 321.708C13.0795 321.151 13.0833 321.223 12.7118 321.66C11.9899 322.51 12.7506 322.807 12.464 323.144C12.3472 323.282 12.1514 323.208 12.0444 323.106C11.7708 322.845 11.4743 322.154 11.6123 321.991ZM10.7462 326.892C11.0541 326.53 11.5179 326.972 11.6983 326.76C11.8363 326.597 11.6117 326.406 11.576 326.371L10.3629 325.213C9.88723 324.758 9.78412 325.362 9.51059 325.101C9.39167 324.987 9.27697 324.742 9.93511 323.967C10.1156 323.754 10.7618 322.968 11.071 323.263C11.2851 323.467 10.9789 323.65 11.0579 323.862C11.1093 323.979 11.326 324.231 11.4211 324.322L12.2574 325.188C12.663 325.598 12.7374 325.511 12.7798 325.461C12.939 325.273 12.5495 324.743 12.8361 324.405C12.9741 324.243 13.2018 324.279 13.3445 324.416C13.6775 324.734 13.8627 325.454 13.6611 325.691C13.6398 325.716 13.5855 325.755 13.5099 325.819C13.4343 325.882 13.3269 325.983 13.1783 326.159L12.3078 327.184C12.1592 327.359 12.0968 327.457 12.0556 327.531C12.0144 327.605 12.0051 327.642 11.9308 327.729C11.7928 327.892 11.197 327.934 10.7688 327.525C10.6117 327.33 10.5764 327.092 10.7462 326.892ZM14.01 330.734L14.1798 330.534C14.3072 330.384 14.5204 330.361 14.6631 330.497C14.7939 330.622 14.8067 330.861 14.6793 331.011L14.4989 331.223C14.3715 331.373 14.1583 331.396 14.0156 331.26C13.8954 331.122 13.8826 330.884 14.01 330.734ZM15.9366 332.574L16.1064 332.374C16.2338 332.224 16.447 332.201 16.5897 332.337C16.7205 332.462 16.7333 332.701 16.6059 332.851L16.4255 333.063C16.2981 333.213 16.0849 333.236 15.9422 333.1C15.8101 332.951 15.8092 332.724 15.9366 332.574ZM18.0178 334.562L18.1876 334.362C18.315 334.212 18.5282 334.189 18.6709 334.325C18.8017 334.45 18.8145 334.689 18.6871 334.839L18.5067 335.051C18.3793 335.201 18.1661 335.224 18.0234 335.088C17.9032 334.95 17.8904 334.712 18.0178 334.562ZM12.9909 331.934L13.1714 331.721C13.2988 331.571 13.512 331.549 13.6547 331.685C13.7855 331.81 13.7983 332.048 13.6709 332.198L13.4904 332.411C13.363 332.561 13.1499 332.584 13.0072 332.447C12.8763 332.323 12.8636 332.084 12.9909 331.934ZM14.9175 333.774L15.098 333.562C15.2254 333.411 15.4386 333.389 15.5813 333.525C15.7121 333.65 15.7249 333.889 15.5975 334.039L15.417 334.251C15.2896 334.401 15.0765 334.424 14.9338 334.288C14.791 334.151 14.7902 333.924 14.9175 333.774ZM16.9987 335.762L17.1792 335.549C17.3066 335.399 17.5198 335.376 17.6625 335.513C17.7933 335.638 17.8061 335.876 17.6787 336.026L17.4982 336.239C17.3708 336.389 17.1577 336.412 17.015 336.275C16.8841 336.15 16.8714 335.912 16.9987 335.762ZM11.9719 333.134L12.1523 332.922C12.2797 332.772 12.4929 332.749 12.6356 332.885C12.7664 333.01 12.7792 333.249 12.6518 333.399L12.4714 333.611C12.344 333.761 12.1308 333.784 11.9881 333.648C11.8679 333.51 11.8445 333.284 11.9719 333.134ZM13.8985 334.974L14.0789 334.762C14.2063 334.612 14.4195 334.589 14.5622 334.725C14.693 334.85 14.7058 335.089 14.5784 335.239L14.398 335.451C14.2706 335.601 14.0574 335.624 13.9147 335.488C13.7826 335.339 13.7711 335.124 13.8985 334.974ZM15.9797 336.962L16.1601 336.749C16.2875 336.599 16.5007 336.577 16.6434 336.713C16.7742 336.838 16.787 337.076 16.6596 337.226L16.4792 337.439C16.3518 337.589 16.1386 337.612 15.9959 337.476C15.8757 337.338 15.8523 337.112 15.9797 336.962ZM10.9634 334.322L11.1439 334.109C11.2713 333.959 11.4845 333.936 11.6272 334.073C11.758 334.198 11.7708 334.436 11.6434 334.586L11.4629 334.799C11.3355 334.949 11.1224 334.972 10.9797 334.835C10.8488 334.71 10.8361 334.472 10.9634 334.322ZM12.89 336.162L13.0705 335.949C13.1979 335.799 13.4111 335.776 13.5538 335.913C13.6846 336.038 13.6974 336.276 13.57 336.426L13.3895 336.639C13.2621 336.789 13.049 336.812 12.9062 336.675C12.7635 336.539 12.7627 336.312 12.89 336.162ZM14.9712 338.15L15.1517 337.937C15.2791 337.787 15.4923 337.764 15.635 337.901C15.7658 338.025 15.7786 338.264 15.6512 338.414L15.4707 338.627C15.3433 338.777 15.1302 338.799 14.9875 338.663C14.8566 338.538 14.8439 338.3 14.9712 338.15Z" fill="white"/>
<path d="M20.1701 349.681L53.3309 330.209C53.7576 329.96 53.8964 329.391 53.6577 328.936L44.6938 311.998C44.455 311.544 43.9165 311.392 43.4898 311.64L42.4507 312.255C42.951 312.96 42.9253 313.954 42.352 314.629L37.7132 320.092L38.2327 321.154C38.4872 321.692 38.5853 321.627 38.6502 321.576C38.8583 321.458 38.6544 320.81 39.0268 320.6C39.2018 320.495 39.4107 320.604 39.4991 320.779C39.7246 321.198 39.6742 321.942 39.4118 322.099C39.3786 322.113 39.323 322.128 39.2236 322.169C39.1243 322.21 38.9918 322.264 38.8168 322.369L37.6903 323.036C37.4822 323.154 37.4066 323.218 37.3535 323.28C37.3004 323.343 37.2686 323.38 37.1811 323.433C37.0062 323.537 36.4333 323.375 36.1457 322.851C36.0085 322.607 36.0526 322.378 36.2819 322.234C36.6756 321.999 36.9776 322.582 37.2188 322.45C37.3937 322.345 37.2446 322.09 37.2196 322.043L36.7922 321.227L35.5078 322.74C35.7321 323.135 35.8272 323.226 35.896 323.247C36.0812 323.333 36.268 323.24 36.3683 323.426C36.5569 323.787 35.6159 324.338 35.5284 324.39C35.2554 324.559 34.6855 324.875 34.4982 324.538C34.4098 324.363 34.5848 324.258 34.6314 324.077C34.6395 324.016 34.6238 323.933 34.5843 323.828L33.6395 324.94C33.4612 325.404 33.1334 325.815 32.7173 326.052C32.7067 326.064 32.6842 326.065 32.6842 326.065L25.2111 334.866C25.2467 334.9 25.2705 334.923 25.2956 334.97C25.3839 335.145 25.3279 335.363 25.1636 335.455L24.9343 335.598C24.8362 335.663 24.7118 335.657 24.6073 335.603L19.8623 341.191C19.8861 341.214 19.9099 341.236 19.923 341.272C20.0114 341.447 19.9554 341.665 19.791 341.757L19.5617 341.9C19.4636 341.965 19.3392 341.959 19.2466 341.916L17.0599 344.491C16.9325 344.641 16.7813 344.769 16.617 344.861L18.9899 349.346C19.2154 349.765 19.7433 349.93 20.1701 349.681ZM43.1888 327.518L42.2904 326.547L43.5513 326.279L42.9665 323.366L44.9309 325.492L45.8396 324.548L46.1031 325.887L48.8579 325.28L46.8588 327.356L47.7571 328.327L46.4963 328.594L47.0811 331.507L45.1047 329.371L44.1961 330.314L43.9326 328.976L41.1884 329.569L43.1888 327.518ZM30.5672 338.375C30.6555 338.55 30.5995 338.768 30.4352 338.86L30.2059 339.003C30.0415 339.095 29.8351 339.034 29.7361 338.871C29.6478 338.696 29.7038 338.478 29.8681 338.386L30.0975 338.243C30.2618 338.151 30.4682 338.212 30.5672 338.375ZM31.8912 337.602C31.9796 337.777 31.9235 337.995 31.7592 338.087L31.5299 338.23C31.3656 338.322 31.1592 338.261 31.0602 338.098C30.9718 337.923 31.0278 337.705 31.1922 337.613L31.4215 337.47C31.5964 337.365 31.8028 337.427 31.8912 337.602ZM33.2259 336.816C33.3142 336.991 33.2582 337.209 33.0938 337.301L32.8645 337.445C32.7002 337.537 32.4938 337.475 32.3948 337.313C32.3065 337.138 32.3625 336.92 32.5268 336.828L32.7561 336.684C32.9205 336.592 33.1269 336.654 33.2259 336.816ZM34.5499 336.043C34.6383 336.218 34.5822 336.436 34.4179 336.528L34.1886 336.672C34.0242 336.764 33.8178 336.702 33.7189 336.54C33.6305 336.365 33.6865 336.147 33.8509 336.055L34.0802 335.911C34.2551 335.807 34.4615 335.868 34.5499 336.043ZM35.8845 335.258C35.9729 335.433 35.9169 335.651 35.7525 335.743L35.5232 335.886C35.3589 335.978 35.1525 335.917 35.0535 335.754C34.9652 335.579 35.0212 335.361 35.1855 335.269L35.4148 335.126C35.5792 335.034 35.7856 335.095 35.8845 335.258ZM37.2086 334.485C37.2969 334.66 37.2409 334.878 37.0766 334.97L36.8473 335.113C36.6829 335.205 36.4765 335.144 36.3776 334.981C36.2892 334.806 36.3452 334.588 36.5096 334.496L36.7389 334.353C36.9138 334.248 37.1202 334.31 37.2086 334.485ZM33.7409 329.995C33.6525 329.82 33.7085 329.602 33.8729 329.51L34.1022 329.367C34.2665 329.275 34.4729 329.336 34.5719 329.499C34.6603 329.674 34.6042 329.892 34.4399 329.984L34.2106 330.127C34.0344 330.208 33.828 330.146 33.7409 329.995ZM35.3698 331.755C35.5341 331.663 35.7405 331.724 35.8395 331.887C35.9278 332.061 35.8718 332.28 35.7075 332.372L35.4782 332.515C35.3138 332.607 35.1074 332.546 35.0085 332.383C34.9201 332.208 34.9761 331.99 35.1405 331.898L35.3698 331.755ZM32.4168 330.768C32.3285 330.593 32.3845 330.375 32.5489 330.283L32.7782 330.14C32.9425 330.048 33.1489 330.109 33.2479 330.272C33.3362 330.447 33.2802 330.665 33.1159 330.757L32.8866 330.9C32.6997 330.993 32.5052 330.943 32.4168 330.768ZM34.0457 332.528C34.2101 332.436 34.4165 332.497 34.5154 332.66C34.6038 332.834 34.5478 333.053 34.3834 333.145L34.1541 333.288C33.9898 333.38 33.7834 333.319 33.6844 333.156C33.5961 332.981 33.6521 332.763 33.8164 332.671L34.0457 332.528ZM31.0928 331.541C31.0044 331.366 31.0605 331.148 31.2248 331.056L31.4541 330.913C31.6185 330.821 31.8249 330.882 31.9238 331.045C32.0122 331.22 31.9562 331.438 31.7918 331.53L31.5625 331.673C31.3876 331.778 31.1812 331.716 31.0928 331.541ZM32.7111 333.313C32.8754 333.221 33.0818 333.283 33.1808 333.445C33.2691 333.62 33.2131 333.838 33.0488 333.93L32.8195 334.073C32.6551 334.166 32.4487 334.104 32.3498 333.942C32.2614 333.767 32.3174 333.549 32.4818 333.457L32.7111 333.313ZM29.7582 332.327C29.6698 332.152 29.7258 331.934 29.8902 331.842L30.1195 331.698C30.2838 331.606 30.4902 331.668 30.5892 331.83C30.6775 332.005 30.6215 332.223 30.4572 332.315L30.2279 332.459C30.0529 332.563 29.8465 332.502 29.7582 332.327ZM31.387 334.086C31.5514 333.994 31.7578 334.056 31.8568 334.218C31.9451 334.393 31.8891 334.611 31.7247 334.703L31.4954 334.846C31.3311 334.939 31.1247 334.877 31.0257 334.715C30.9374 334.54 30.9934 334.322 31.1577 334.23L31.387 334.086ZM28.4341 333.1C28.3458 332.925 28.4018 332.707 28.5661 332.615L28.7954 332.471C28.9598 332.379 29.1662 332.441 29.2651 332.603C29.3535 332.778 29.2975 332.996 29.1331 333.088L28.9038 333.232C28.7289 333.336 28.5225 333.275 28.4341 333.1ZM30.0643 334.883C30.2286 334.791 30.435 334.852 30.534 335.015C30.6224 335.19 30.5663 335.408 30.402 335.5L30.1727 335.643C30.0083 335.735 29.8019 335.674 29.703 335.512C29.6146 335.337 29.6706 335.119 29.835 335.026L30.0643 334.883ZM27.0995 333.885C27.0111 333.71 27.0671 333.492 27.2315 333.4L27.4608 333.257C27.6251 333.165 27.8315 333.226 27.9305 333.389C28.0188 333.564 27.9628 333.782 27.7985 333.874L27.5692 334.017C27.3942 334.122 27.1878 334.06 27.0995 333.885ZM28.7402 335.656C28.9046 335.564 29.111 335.625 29.21 335.788C29.2983 335.963 29.2423 336.181 29.078 336.273L28.8486 336.416C28.6843 336.508 28.4779 336.447 28.3789 336.285C28.2906 336.11 28.3466 335.892 28.5109 335.799L28.7402 335.656ZM25.7754 334.658C25.6871 334.483 25.7431 334.265 25.9074 334.173L26.1367 334.03C26.3011 333.938 26.5075 333.999 26.6065 334.162C26.6948 334.337 26.6388 334.555 26.4744 334.647L26.2451 334.79C26.0702 334.895 25.8638 334.833 25.7754 334.658ZM27.0324 337.059C26.944 336.884 27.0001 336.666 27.1644 336.574L27.3937 336.43C27.558 336.338 27.7644 336.4 27.8634 336.562C27.9518 336.737 27.8957 336.955 27.7314 337.047L27.5021 337.19C27.3378 337.283 27.1314 337.221 27.0324 337.059ZM28.7747 339.04C28.939 338.948 29.1454 339.009 29.2444 339.172C29.3328 339.346 29.2767 339.565 29.1124 339.657L28.8831 339.8C28.7188 339.892 28.5124 339.831 28.4134 339.668C28.325 339.493 28.3811 339.275 28.5454 339.183L28.7747 339.04ZM25.7084 337.832C25.62 337.657 25.676 337.439 25.8404 337.347L26.0697 337.203C26.234 337.111 26.4404 337.173 26.5394 337.335C26.6277 337.51 26.5717 337.728 26.4074 337.82L26.1781 337.963C26.0031 338.068 25.7967 338.007 25.7084 337.832ZM27.4507 339.813C27.615 339.721 27.8214 339.782 27.9204 339.945C28.0087 340.119 27.9527 340.338 27.7884 340.43L27.5591 340.573C27.3947 340.665 27.1883 340.604 27.0893 340.441C27.001 340.266 27.057 340.048 27.2214 339.956L27.4507 339.813ZM24.3737 338.617C24.2853 338.442 24.3414 338.224 24.5057 338.132L24.735 337.989C24.8994 337.897 25.1058 337.958 25.2047 338.121C25.2931 338.295 25.2371 338.514 25.0727 338.606L24.8434 338.749C24.6791 338.841 24.4727 338.78 24.3737 338.617ZM26.116 340.598C26.2803 340.506 26.4867 340.568 26.5857 340.73C26.6741 340.905 26.6181 341.123 26.4537 341.215L26.2244 341.358C26.0601 341.451 25.8537 341.389 25.7547 341.227C25.6663 341.052 25.7224 340.834 25.8867 340.742L26.116 340.598ZM23.0497 339.39C22.9613 339.215 23.0173 338.997 23.1817 338.905L23.411 338.762C23.5753 338.67 23.7817 338.731 23.8807 338.894C23.969 339.068 23.913 339.287 23.7487 339.379L23.5194 339.522C23.3444 339.627 23.138 339.565 23.0497 339.39ZM24.792 341.371C24.9563 341.279 25.1627 341.341 25.2617 341.503C25.35 341.678 25.294 341.896 25.1297 341.988L24.9004 342.131C24.736 342.224 24.5296 342.162 24.4307 342C24.3423 341.825 24.3983 341.607 24.5627 341.515L24.792 341.371ZM21.715 340.176C21.6267 340.001 21.6827 339.783 21.847 339.691L22.0763 339.547C22.2407 339.455 22.4471 339.517 22.546 339.679C22.6344 339.854 22.5784 340.072 22.414 340.164L22.1847 340.307C22.0204 340.4 21.814 340.338 21.715 340.176ZM23.4573 342.157C23.6217 342.065 23.8281 342.126 23.927 342.289C24.0154 342.463 23.9594 342.682 23.795 342.774L23.5657 342.917C23.4014 343.009 23.195 342.948 23.096 342.785C23.0076 342.61 23.0637 342.392 23.228 342.3L23.4573 342.157ZM20.391 340.949C20.3026 340.774 20.3586 340.556 20.523 340.464L20.7523 340.32C20.9166 340.228 21.123 340.29 21.222 340.452C21.3104 340.627 21.2543 340.845 21.09 340.937L20.8607 341.08C20.6857 341.185 20.4793 341.124 20.391 340.949ZM21.7601 343.547C21.6717 343.372 21.7277 343.154 21.8921 343.062L22.1214 342.918C22.2857 342.826 22.4921 342.888 22.5911 343.05C22.6795 343.225 22.6234 343.443 22.4591 343.535L22.2298 343.679C22.0548 343.783 21.8484 343.722 21.7601 343.547ZM20.436 344.32C20.3477 344.145 20.4037 343.927 20.568 343.835L20.7974 343.691C20.9617 343.599 21.1681 343.661 21.2671 343.823C21.3554 343.998 21.2994 344.216 21.1351 344.308L20.9058 344.452C20.7308 344.556 20.5244 344.495 20.436 344.32Z" fill="white"/>
</g>
<g clip-path="url(#clip2)">
<path d="M196.338 38.3389C205.212 50.3158 211.933 48.2987 211.933 48.2987C218.706 32.7548 229.886 18.6044 229.886 18.6044C212.459 28.3693 196.338 38.3389 196.338 38.3389Z" fill="white" fill-opacity="0.5"/>
<path d="M221.715 31.7208C218.764 36.4194 215.333 42.4126 212.611 48.6334L212.472 48.9692L212.137 49.0726C212.07 49.0891 211.512 49.2439 210.547 49.2272C212.385 52.3133 215.903 56.1853 222.652 60.004C222.652 60.004 230.224 38.174 237.28 14.7956C237.291 14.8051 230.884 22.9135 221.715 31.7208Z" fill="white" fill-opacity="0.5"/>
<path d="M194.418 41.8702C195.466 44.5796 195.189 47.2007 194.197 50.0848C194.197 50.0848 194.15 53.2167 213.806 65.9254C213.806 65.9254 216.356 66.5282 219.713 64.3888C217.941 62.871 214.721 60.0667 209.643 55.5542C205.737 52.0823 200.709 47.5758 194.418 41.8702Z" fill="white" fill-opacity="0.5"/>
<path d="M192.241 38.2727C192.802 38.962 193.261 39.6189 193.651 40.2716C209.134 54.318 217.199 61.3327 220.29 64.0028C220.623 63.764 220.955 63.5046 221.294 63.2132C221.294 63.2132 193.582 37.515 192.13 36.0517C192.131 36.0724 191.429 37.283 192.241 38.2727Z" fill="white" fill-opacity="0.5"/>
</g>
<g clip-path="url(#clip3)">
<path d="M427.396 413.694C441.6 411.441 443.273 404.248 443.273 404.248C433.887 390.316 427.823 373.01 427.823 373.01C427.203 393.904 427.396 413.694 427.396 413.694Z" fill="white" fill-opacity="0.5"/>
<path d="M434.527 387.031C436.917 392.075 440.131 398.202 443.882 403.789L444.088 404.083L444.007 404.443C443.987 404.514 443.838 405.104 443.347 405.985C446.785 405.818 451.698 404.491 458.166 400.16C458.166 400.16 444.025 382.381 428.359 364.311C428.372 364.306 431.847 374.222 434.527 387.031Z" fill="white" fill-opacity="0.5"/>
<path d="M429.34 417.211C432.079 417.586 434.089 419.138 435.962 421.479C435.962 421.479 438.505 423.072 458.643 411.242C458.643 411.242 460.398 409.19 460.306 405.037C458.186 405.92 454.295 407.501 448.085 409.948C443.308 411.831 437.128 414.236 429.34 417.211Z" fill="white" fill-opacity="0.5"/>
<path d="M425.315 417.438C426.157 417.262 426.923 417.164 427.651 417.127C446.82 409.806 456.558 405.842 460.275 404.315C460.245 403.889 460.196 403.455 460.125 402.999C460.125 402.999 425.358 415.827 423.44 416.442C423.458 416.45 424.102 417.697 425.315 417.438Z" fill="white" fill-opacity="0.5"/>
</g>
<defs>
<clipPath id="clip0">
<rect width="54.4484" height="58.7022" fill="white" transform="translate(250.008 316) rotate(15.8251)"/>
</clipPath>
<clipPath id="clip1">
<rect width="44.9365" height="40.0941" fill="white" transform="matrix(-0.647261 0.762269 -0.723151 -0.69069 58.0796 324.693)"/>
</clipPath>
<clipPath id="clip2">
<rect width="39.7891" height="55.8627" fill="white" transform="matrix(0.747475 0.66429 -0.619939 0.78465 220.632 0)"/>
</clipPath>
<clipPath id="clip3">
<rect width="39.0954" height="56.8006" fill="white" transform="matrix(0.930341 -0.366694 0.330694 0.943738 408 372.336)"/>
</clipPath>
</defs>
</svg>
