<svg width="1033" height="622" fill="none" xmlns="http://www.w3.org/2000/svg"><g opacity=".5" clip-path="url(#clip0)" fill="#fff"><path d="M861.436 618.976c-2.977-.942-3.421-1.022-4.013-1.365-.981-.54-1.091-1.257-1.273-1.796-1.412-4.717-2.427-9.346-3.171-13.832l-24.311-6.79a108.302 108.302 0 01-9.844 10.219c-.415.372-.902.923-2.02.876-.679-.034-1.105-.175-4.139-.912-.124-.034 0 0-.77 2.756l16.18 4.519s.025-.17.588-2.585c0 0-1.067-.785-.591-2.093 1.297-3.451 5.25-10.217 12.214-8.138 7.706 2.285 7.23 9.866 6.58 13.387-.25 1.371-1.591 1.484-1.591 1.484-.769 2.357-.835 2.516-.835 2.516l16.179 4.519c.817-2.765.934-2.71.817-2.765zm-32.817-24.639l24.722 6.905 2.181-3.758-26.636-7.44-.267 4.293zm13.475-18.693c-2.612 4.746-5.723 9.685-9.444 14.587l4.385 1.225c2.204-2.488 6.394-7.88 9.634-13.758-.618 3.086-.213 12.044.102 16.477l5.332 1.489c-.658-6.147-.779-11.989-.581-17.387l-9.428-2.633zm.369-.762l9.345 2.611 1.834-3.944-10.787-3.013-.392 4.346zm16.648-34.898c-.203-.145-.727-.336-1.183-.53 1.845-6.844 3.075-12.043 2.828-12.112-.247-.069-1.889 5.015-3.863 11.845-.703-.107-1.484-.17-1.859-.098-2.733.567-.982 4.47-.48 5.453l2.594.724c.997-.63 4.928-3.345 1.963-5.282zm-4.784 5.847c-1.532 4.848-4.235 13.891-9.416 24.415l7.02 1.961c1.012-11.489 3.337-20.527 4.702-25.732l-2.306-.644z"/></g><g opacity=".5" clip-path="url(#clip1)"><path d="M1006.44 24.533c-2.3.566-4.53 1.14-6.993 1.794a1.182 1.182 0 00-.141-.204l-2.434-3.058a2.293 2.293 0 00-3.214-.37l-.155.122a2.294 2.294 0 00-.359 3.216l1.304 1.639a335.49 335.49 0 00-3.578.993l-1.304-1.639a2.294 2.294 0 00-3.215-.371l-.154.123a2.294 2.294 0 00-.359 3.216l.072.09c-1.864.535-3.884 1.11-6.1 1.757-6.722-7.654-12.517-12.295-15.898-9.604-3.072 2.446-.016 9.267 5.809 17.614a538.971 538.971 0 00-3.095 5.583l-.072-.09a2.294 2.294 0 00-3.215-.371l-.154.123a2.294 2.294 0 00-.359 3.216l1.304 1.638a372.628 372.628 0 00-1.77 3.264l-1.305-1.638a2.293 2.293 0 00-3.214-.371l-.155.122a2.294 2.294 0 00-.359 3.216l2.434 3.058c.052.065.103.13.167.184-1.189 2.253-2.239 4.31-3.317 6.413-3.245 6.398.163 5.983 3.146 3.608 9.102-7.245 15.744-13.122 19.11-16.202 4.701 5.405 10.158 10.863 14.694 14.608-2.68 7.74-2.88 9.944-2.88 9.944 3.282 4.597 4.081 4.15 4.081 4.15 2.125-3.82 4.06-7.721 5.067-9.808 1.211.55 2.131.667 2.641.258.51-.41.61-1.325.36-2.607 2.27-.522 6.46-1.516 10.62-2.722 0 0 .62-.68-3.12-4.908 0 0-2.17-.297-10.27.562-2.632-5.26-6.747-11.829-10.957-17.646 3.733-2.592 10.987-7.754 20.097-15.01 3.02-2.405 4.2-5.62-2.76-3.892z" fill="#fff"/></g><g opacity=".5" clip-path="url(#clip2)"><path d="M95.328 148.13a495.89 495.89 0 00-4.306-8.012c.08-.069.144-.152.207-.234l3.005-3.9a2.89 2.89 0 00-.517-4.043l-.197-.152a2.889 2.889 0 00-4.041.532l-1.61 2.089a471.92 471.92 0 00-2.295-4.075l1.61-2.09c.964-1.251.746-3.071-.516-4.043l-.197-.152a2.89 2.89 0 00-4.042.531l-.088.115c-1.217-2.117-2.53-4.414-3.99-6.928 7.33-10.532 11.257-19.02 6.945-22.342-3.919-3.02-11.338 2.777-19.787 12.421a678.86 678.86 0 00-7.763-2.1l.09-.115c.963-1.251.745-3.071-.518-4.043l-.196-.152a2.89 2.89 0 00-4.042.531l-1.61 2.09a480.114 480.114 0 00-4.526-1.179l1.61-2.09a2.888 2.888 0 00-.517-4.043l-.196-.152a2.89 2.89 0 00-4.042.531l-3.005 3.9c-.063.083-.126.165-.173.26-3.115-.774-5.949-1.436-8.845-2.12-8.804-2.037-7.267 2.005-3.463 4.936 11.608 8.944 20.8 15.292 25.583 18.479-5.19 7.382-10.217 15.703-13.429 22.381-10.275-.942-13.03-.52-13.03-.52-4.63 5.4-3.843 6.243-3.843 6.243 5.314 1.446 10.669 2.635 13.525 3.235-.307 1.652-.174 2.803.482 3.309.655.505 1.802.339 3.296-.345 1.325 2.621 3.804 7.441 6.537 12.169 0 0 1.016.547 5.057-5.308 0 0-.292-2.742-3.785-12.383 5.638-4.808 12.428-11.824 18.27-18.729 4.298 3.783 12.8 11.094 24.425 20.051 3.853 2.969 8.141 3.44 3.927-4.553z" fill="#fff"/></g><g opacity=".5" clip-path="url(#clip3)" fill="#fff"><path d="M258.698 577.889c28.342.961 34.018-11.61 34.018-11.61-13.521-28.869-19.452-62.723-19.452-62.723-8.259 38.03-14.566 74.333-14.566 74.333z"/><path d="M281.55 531.625c2.937 10.092 7.109 22.46 12.505 34.032l.302.612-.28.63c-.062.122-.55 1.149-1.801 2.587 6.732.925 16.72.255 30.742-5.358 0 0-21.456-37.615-45.774-76.307.027-.005 3.426 19.394 4.306 43.804zm-20.265 53.399c5.191 1.666 8.571 5.227 11.416 10.185 0 0 4.401 3.826 47.498-10.621 0 0 4.102-3.128 5.325-10.764-4.416.857-12.504 2.357-25.388 4.614a3973.755 3973.755 0 01-38.851 6.586zm-7.892-1.027a31.57 31.57 0 014.641.267c39.694-6.539 59.941-10.308 67.674-11.774.084-.79.137-1.602.153-2.463 0 0-71.84 11.035-75.772 11.475.031.022.862 2.535 3.304 2.495z"/></g><g opacity=".5" clip-path="url(#clip4)" fill="#fff"><path d="M602.172 519.819l-38.841-27.888a1.103 1.103 0 00-1.543.261l-13.491 18.789a1.103 1.103 0 00.246 1.545l38.825 27.877a1.103 1.103 0 001.543-.261l13.491-18.789a1.087 1.087 0 00-.23-1.534zm-12.523-2.848l.276.198a.43.43 0 01.111.602.444.444 0 01-.606.088l-.276-.199a.43.43 0 01-.111-.601c.158-.186.411-.228.606-.088zm-2.074 2.888l.276.199c.196.14.252.404.111.601a.442.442 0 01-.605.088l-.277-.199a.428.428 0 01-.11-.601c.157-.186.41-.228.605-.088zm-1.897 2.642l.276.199c.196.14.252.404.111.601a.442.442 0 01-.605.088l-.277-.199a.428.428 0 01-.11-.601c.157-.185.41-.228.605-.088zm2.409-6.651l.277.198a.43.43 0 01.11.602.442.442 0 01-.605.087l-.277-.198a.43.43 0 01-.11-.602.455.455 0 01.605-.087zm-2.074 2.888l.277.198a.43.43 0 01.11.602.442.442 0 01-.605.088l-.276-.199a.428.428 0 01-.111-.601.455.455 0 01.605-.088zm-1.897 2.642l.277.199c.195.14.252.404.11.601a.442.442 0 01-.605.088l-.276-.199a.428.428 0 01-.111-.601.456.456 0 01.605-.088zm2.426-6.64l.277.199c.195.14.251.404.11.601a.442.442 0 01-.605.088l-.277-.199a.428.428 0 01-.11-.601.43.43 0 01.605-.088zm-2.074 2.888l.277.199a.43.43 0 01.11.602.443.443 0 01-.605.087l-.277-.198a.43.43 0 01-.11-.602.43.43 0 01.605-.088zm-1.897 2.643l.277.198a.43.43 0 01.11.602.443.443 0 01-.605.087l-.277-.198a.43.43 0 01-.11-.602.428.428 0 01.605-.087zm2.41-6.652l.276.199a.43.43 0 01.111.601.443.443 0 01-.606.088l-.276-.199a.43.43 0 01-.111-.601c.158-.185.41-.228.606-.088zm-2.074 2.888l.276.199c.196.14.252.404.111.601a.443.443 0 01-.606.088l-.276-.198a.43.43 0 01-.11-.602c.157-.185.41-.228.605-.088zm-1.897 2.642l.276.199c.196.14.252.405.111.601a.443.443 0 01-.606.088l-.276-.198a.43.43 0 01-.11-.602c.157-.185.41-.228.605-.088zm2.425-6.639l.277.198a.43.43 0 01.11.602.442.442 0 01-.605.087l-.276-.198a.43.43 0 01-.111-.602.429.429 0 01.605-.087zm-2.073 2.888l.276.198a.43.43 0 01.111.602.444.444 0 01-.606.088l-.276-.199a.43.43 0 01-.111-.601.43.43 0 01.606-.088zm-1.897 2.642l.276.198a.43.43 0 01.111.602.443.443 0 01-.606.088l-.276-.199a.43.43 0 01-.111-.601.43.43 0 01.606-.088zm2.409-6.651l.277.198a.43.43 0 01.11.602.443.443 0 01-.605.087l-.277-.198a.43.43 0 01-.11-.602.428.428 0 01.605-.087zm-2.074 2.888l.277.198a.43.43 0 01.11.602.443.443 0 01-.605.088l-.277-.199a.43.43 0 01-.11-.602.43.43 0 01.605-.087zm-1.897 2.642l.277.198a.43.43 0 01.11.602.443.443 0 01-.605.088l-.277-.199a.43.43 0 01-.11-.602.43.43 0 01.605-.087zm2.41-6.652l.276.199c.195.14.252.405.11.601a.442.442 0 01-.605.088l-.276-.198a.43.43 0 01-.111-.602c.158-.185.41-.228.606-.088zm-2.074 2.889l.276.198a.43.43 0 01.111.602.443.443 0 01-.606.087l-.276-.198a.43.43 0 01-.11-.602c.157-.185.41-.228.605-.087zm-1.897 2.642l.276.198a.43.43 0 01.111.602.443.443 0 01-.606.087l-.276-.198a.43.43 0 01-.111-.602c.158-.185.411-.227.606-.087zm2.425-6.64l.277.198a.43.43 0 01.11.602.442.442 0 01-.605.088l-.277-.199a.429.429 0 01-.11-.601.43.43 0 01.605-.088zm-2.073 2.888l.276.199a.43.43 0 01.111.601.443.443 0 01-.606.088l-.276-.199a.43.43 0 01-.111-.601.43.43 0 01.606-.088zm.512-4.009l.276.198a.43.43 0 01.111.602.443.443 0 01-.605.088l-.277-.199a.43.43 0 01-.11-.602.442.442 0 01.605-.087zm-2.074 2.888l.277.199c.195.14.251.404.11.601a.442.442 0 01-.605.088l-.277-.199a.429.429 0 01-.11-.601c.158-.186.41-.228.605-.088zm-1.897 2.642l.277.199c.195.14.251.404.11.601a.442.442 0 01-.605.088l-.277-.199a.428.428 0 01-.11-.601c.158-.185.41-.228.605-.088zm-11.729-6.357l1.255-3.327-1.516-.567 1.297-.983-2.119-2.815 3.307 1.23.577-1.525.97 1.293 2.841-2.138-1.255 3.327 1.517.566-1.298.984 2.108 2.831-3.307-1.23-.578 1.525-.969-1.293-2.83 2.122zm2.345 8.2c-.471-.339-.012-.979-.288-1.177-.212-.152-.408.155-.443.204l-1.202 1.674c-.471.656.257.707-.014 1.084-.118.164-.392.34-1.401-.384-.276-.198-1.296-.906-.99-1.333.212-.295.471.065.71-.062.132-.08.4-.385.494-.516l.909-1.163c.429-.562.315-.644.25-.691-.244-.175-.818.383-1.257.068-.211-.152-.2-.442-.059-.639.33-.46 1.157-.787 1.466-.565.032.024.085.087.171.173.086.087.221.208.448.372l1.334.957c.228.164.353.229.447.271.093.042.137.049.251.131.211.152.344.894-.08 1.484-.193.235-.469.31-.746.112zm1.132 3.573c.071.176.178.302.06.466-.118.164-.343.375-1.53-.477-.228-.164-.911-.654-.652-1.015.129-.181.32-.069.5-.114.124-.035.314-.197.856-.952l.389-.541c.495-.69.564-.889.558-1.017-.012-.258-.212-.426-.071-.623.283-.394 1.389.4 1.487.47.325.234.98.729.721 1.09-.141.197-.341.029-.561.095-.18.044-.55.525-.833.919l-.388.542c-.679.979-.602 1.01-.536 1.157zm3.27 1.9c.683.491 1.068.195 1.231.312.162.117.098.344-.008.492-.177.246-.774.563-1.051.364-.179-.128-.793-.097-1.427-.552-1.139-.818-1.418-2.386-.628-3.485.801-1.116 2.454-1.222 3.528-.451.537.385.69.893.82.986.114.082.17.073.267.143.228.163.273.718-.163 1.325-.223.312-.591.446-.916.212-.553-.397.272-1.271-.687-1.96-.423-.304-.869-.027-1.081.268-.577.805-.649 1.797.115 2.346zm5.938-6.107a.443.443 0 01.606-.088l.276.199c.195.14.252.404.11.601a.442.442 0 01-.605.088l-.276-.199a.443.443 0 01-.111-.601zm-1.019 11.032l-.927-.666c-.211-.152-.199-.168-.239-.594l-.044-.728c-.015-.185-.041-.801-.171-.894-.147-.105-.269.031-.375.178l-.083.115c-.188.263.142.524-.059.803-.129.181-.377.252-1.321-.426-.862-.619-.853-.836-.724-1.017.201-.279.371.067.766-.345.273-.277.52-.622.744-.934.248-.344.53-.738.717-1.101.277-.523-.169-.52.078-.864.059-.083.234-.429 1.422.423.26.187.813.584.542.962-.212.295-.375-.096-.835.544-.047.066-.165.23-.067.3.146.105.97-.149 1.064-.28.083-.115.037-.223.131-.354.294-.41.986.136 1.247.323.26.187.918.61.635 1.003-.318.443-.699-.228-1.019-.159-.196.033-.888.034-1.053.264-.106.147-.07.372-.059.529l.191 2.102c.033.297.37.515.135.843-.184.29-.484.125-.696-.027zm3.824 2.845c-.032-.023-.118-.11-.22-.208a4.096 4.096 0 00-.432-.36l-2.228-1.6c-.358-.257-.24-.421-.193-.486.212-.296.421.203.866-.348.784-.955.713-.856 1.371-1.876.569-.86-.161-.737.11-1.115.236-.328.656.048.884.212l1.561 1.121c.732.526.912.481.994.539.309.222.05.857-.115 1.087-.13.18-.348.347-.559.195-.423-.304.295-.583-.729-1.319-.602-.432-.62-.271-1.067.353-.224.312-.22.34.106.573.406.292.533-.537.924-.256.309.221-.107.868-.26 1.082-.165.229-.669.862-.994.629-.341-.245.412-.574-.141-.972-.227-.163-.38.05-.498.214-.578.805-.493.79.076 1.199 1.106.794 1.351-.199 1.79.116.179.129.119.384.013.532-.271.377-1.047.84-1.259.688zm5.918.444c-.472-.339-.012-.979-.289-1.177-.211-.152-.407.155-.442.204l-1.202 1.674c-.471.656.257.707-.014 1.084-.118.164-.392.34-1.401-.384-.276-.198-1.297-.906-.99-1.333.212-.295.471.065.71-.062.131-.08.399-.384.494-.516l.909-1.163c.428-.562.314-.644.249-.691-.244-.175-.817.383-1.256.068-.212-.152-.2-.442-.059-.639.33-.46 1.156-.786 1.465-.565.033.024.086.087.172.173.086.087.22.208.448.372l1.334.958c.227.163.353.228.446.27.093.042.138.049.251.131.212.152.345.894-.079 1.485-.21.222-.486.298-.746.111zm4.091-4.599l-.261-.187a.429.429 0 01-.11-.601.442.442 0 01.605-.088l.277.199c.195.14.252.404.11.601a.476.476 0 01-.621.076zm1.909-2.658l-.261-.187a.43.43 0 01-.11-.602c.13-.18.41-.227.605-.087l.277.198a.43.43 0 01.11.602.46.46 0 01-.621.076zm2.062-2.872l-.261-.187a.428.428 0 01-.11-.601.442.442 0 01.605-.088l.277.199c.195.14.251.404.11.601a.476.476 0 01-.621.076zm-2.41 6.651l-.276-.198a.43.43 0 01-.111-.602c.13-.18.41-.227.606-.087l.276.198a.43.43 0 01.11.602.442.442 0 01-.605.087zm1.909-2.658l-.277-.199a.429.429 0 01-.11-.601.442.442 0 01.605-.088l.277.199c.195.14.252.404.11.601a.43.43 0 01-.605.088zm2.062-2.872l-.277-.198a.43.43 0 01-.11-.602c.13-.18.41-.228.605-.088l.277.199c.195.14.252.405.11.601a.442.442 0 01-.605.088zm-2.409 6.652l-.277-.199a.428.428 0 01-.11-.601.442.442 0 01.605-.088l.276.198a.43.43 0 01.111.602c-.146.169-.41.228-.605.088zm1.908-2.659l-.276-.198a.43.43 0 01-.11-.602.443.443 0 01.605-.088l.276.199a.43.43 0 01.111.601c-.158.186-.41.228-.606.088zm2.062-2.872l-.276-.198a.43.43 0 01-.111-.602.443.443 0 01.606-.087l.276.198a.43.43 0 01.111.602c-.146.168-.41.227-.606.087zm-2.425 6.64l-.277-.198a.43.43 0 01-.11-.602.442.442 0 01.605-.088l.277.199c.195.14.251.404.11.601a.442.442 0 01-.605.088zm1.909-2.658l-.277-.199a.428.428 0 01-.11-.601.442.442 0 01.605-.088l.276.198a.43.43 0 01.111.602.43.43 0 01-.605.088zm2.062-2.872l-.277-.199a.428.428 0 01-.11-.601.442.442 0 01.605-.088l.276.199c.196.14.252.404.111.601a.442.442 0 01-.605.088z"/><path d="M608.562 514.285l-27.647-39.05c-.354-.503-1.046-.602-1.551-.243l-18.79 13.468a1.116 1.116 0 00-.256 1.557l.872 1.223a2.222 2.222 0 012.822-.188l7.108 5.104 1.184-.791c.6-.39.51-.504.44-.579-.168-.246-.906.095-1.207-.345-.148-.205-.048-.482.147-.616.464-.338 1.352-.372 1.574-.063.021.039.046.107.108.227.062.119.145.278.293.484l.946 1.326c.169.245.255.332.336.39a.72.72 0 01.204.196c.149.206.036.946-.543 1.376-.27.204-.548.179-.749-.09-.333-.463.314-.919.125-1.204-.148-.206-.43.015-.482.052l-.905.644 1.968 1.413c.436-.334.531-.465.545-.554.077-.244-.06-.466.147-.616.401-.284 1.183.825 1.257.927.238.321.691.994.318 1.274-.195.133-.343-.072-.564-.107a.617.617 0 00-.288.092l1.448 1.039a2.64 2.64 0 011.443 1.011c.016.012.02.04.02.04l11.451 8.222a.45.45 0 01.111-.12.423.423 0 01.592.102l.201.269c.09.115.101.271.051.41l7.271 5.22a.25.25 0 01.087-.087.423.423 0 01.592.102l.201.269a.435.435 0 01.063.393l3.351 2.406c.195.14.366.313.498.507l4.976-3.565c.464-.338.586-1.022.232-1.525zm-29.419-25.973l-1.024 1.255-.492-1.547-3.365 1.116 2.241-2.744-1.242-1.016 1.546-.506-1.1-3.377 2.733 2.236 1.024-1.254.492 1.547 3.364-1.116-2.252 2.76 1.242 1.016-1.547.506 1.085 3.365-2.705-2.241zm14.598 14.412a.423.423 0 01.592.102l.202.269a.457.457 0 01-.091.606.423.423 0 01-.592-.102l-.201-.269a.457.457 0 01.09-.606zm-1.098-1.56a.423.423 0 01.592.102l.201.269a.457.457 0 01-.09.606.423.423 0 01-.593-.102l-.201-.268a.424.424 0 01.091-.607zm-1.115-1.571a.422.422 0 01.592.102l.201.268a.459.459 0 01-.09.607.423.423 0 01-.592-.102l-.202-.269a.457.457 0 01.091-.606zm-1.099-1.56a.423.423 0 01.592.102l.202.269a.457.457 0 01-.091.606.423.423 0 01-.592-.102l-.201-.269a.423.423 0 01.09-.606zm-1.115-1.572a.425.425 0 01.593.102l.201.269a.458.458 0 01-.091.607.423.423 0 01-.592-.102l-.201-.269a.459.459 0 01.09-.607zm-1.098-1.559a.422.422 0 01.592.102l.201.268a.459.459 0 01-.09.607.423.423 0 01-.592-.102l-.202-.269c-.148-.206-.104-.473.091-.606zm-4.829 4.939a.423.423 0 01-.592-.102l-.201-.269a.459.459 0 01.09-.607.424.424 0 01.592.102l.202.269c.12.211.076.478-.091.607zm1.855-2.274a.458.458 0 01.091-.607.423.423 0 01.592.102l.201.269a.457.457 0 01-.09.606.423.423 0 01-.593-.102l-.201-.268zm-.756 3.834a.423.423 0 01-.592-.102l-.202-.269a.458.458 0 01.091-.607.423.423 0 01.592.102l.201.269c.137.222.105.473-.09.607zm1.855-2.275a.457.457 0 01.09-.606.424.424 0 01.593.102l.201.269a.457.457 0 01-.091.606.423.423 0 01-.592-.102l-.201-.269zm-.757 3.834a.423.423 0 01-.592-.101l-.201-.269a.459.459 0 01.09-.607.424.424 0 01.593.102l.201.269c.148.206.104.473-.091.606zm1.872-2.262a.459.459 0 01.09-.607.423.423 0 01.592.102l.202.269a.46.46 0 01-.091.607.424.424 0 01-.592-.102l-.201-.269zm-.757 3.834a.423.423 0 01-.592-.102l-.201-.269a.459.459 0 01.09-.607.424.424 0 01.592.102l.202.269a.424.424 0 01-.091.607zm1.855-2.274a.458.458 0 01.091-.607.423.423 0 01.592.102l.201.269a.457.457 0 01-.09.606.422.422 0 01-.592-.102l-.202-.268zm-.756 3.834a.423.423 0 01-.592-.102l-.202-.269a.458.458 0 01.091-.607.423.423 0 01.592.102l.201.269c.148.206.105.473-.09.607zm1.883-2.279a.459.459 0 01.09-.607.424.424 0 01.593.102l.201.269a.458.458 0 01-.091.607.424.424 0 01-.592-.102l-.201-.269zm-.768 3.85a.424.424 0 01-.593-.102l-.201-.269a.457.457 0 01.091-.606.423.423 0 01.592.102l.201.269a.424.424 0 01-.09.606zm1.866-2.291a.458.458 0 01.091-.606.423.423 0 01.592.102l.202.269a.459.459 0 01-.091.606.423.423 0 01-.592-.102l-.202-.269zm-.768 3.851a.423.423 0 01-.592-.102l-.201-.269a.457.457 0 01.09-.606.422.422 0 01.592.101l.202.269a.424.424 0 01-.091.607zm2.665-1.892a.423.423 0 01-.592-.102l-.202-.269a.459.459 0 01.091-.606.423.423 0 01.592.102l.202.269a.458.458 0 01-.091.606zm2.101-2.446a.458.458 0 01.091-.606.423.423 0 01.592.102l.201.269a.457.457 0 01-.09.606.423.423 0 01-.592-.102l-.202-.269zm-1.002 4.006a.424.424 0 01-.593-.102l-.201-.269a.458.458 0 01.091-.607.424.424 0 01.592.102l.201.269a.425.425 0 01-.09.607zm2.101-2.446a.457.457 0 01.09-.606.423.423 0 01.593.102l.201.269a.457.457 0 01-.09.606.424.424 0 01-.593-.102l-.201-.269zm-.986 4.017a.423.423 0 01-.593-.102l-.201-.269a.457.457 0 01.09-.606.424.424 0 01.593.102l.201.269a.457.457 0 01-.09.606zm2.101-2.445a.459.459 0 01.09-.607.424.424 0 01.593.102l.201.269a.458.458 0 01-.091.607.424.424 0 01-.592-.102l-.201-.269zm-1.003 4.005a.423.423 0 01-.592-.102l-.201-.269a.457.457 0 01.09-.606.423.423 0 01.592.102l.202.269a.423.423 0 01-.091.606zm2.101-2.446a.458.458 0 01.091-.606.423.423 0 01.592.102l.201.269a.457.457 0 01-.09.606.423.423 0 01-.592-.102l-.202-.269zm-.986 4.018a.424.424 0 01-.592-.102l-.202-.269a.46.46 0 01.091-.607.423.423 0 01.592.102l.201.269a.459.459 0 01-.09.607zm2.101-2.446a.458.458 0 01.091-.607.424.424 0 01.592.102l.201.269a.459.459 0 01-.09.607.423.423 0 01-.592-.102l-.202-.269zm-1.002 4.005a.423.423 0 01-.593-.102l-.201-.268a.459.459 0 01.09-.607.424.424 0 01.593.102l.201.269c.148.206.104.473-.09.606zm2.883-2.058a.424.424 0 01-.593-.102l-.201-.269a.457.457 0 01.09-.606.424.424 0 01.593.101l.201.269a.425.425 0 01-.09.607zm1.098 1.56a.423.423 0 01-.592-.102l-.201-.269a.459.459 0 01.09-.607.423.423 0 01.592.102l.202.269a.424.424 0 01-.091.607z"/></g><g opacity=".5" clip-path="url(#clip5)" fill="#fff"><path d="M847.172 221.819l-38.841-27.888a1.104 1.104 0 00-1.543.26l-13.491 18.79a1.103 1.103 0 00.246 1.545l38.825 27.877a1.103 1.103 0 001.543-.261l13.491-18.789a1.087 1.087 0 00-.23-1.534zm-12.523-2.848l.276.198a.43.43 0 01.111.602.443.443 0 01-.606.087l-.276-.198a.43.43 0 01-.111-.602c.158-.185.411-.227.606-.087zm-2.074 2.888l.276.198a.43.43 0 01.111.602.442.442 0 01-.605.088l-.277-.199a.428.428 0 01-.11-.601c.157-.186.41-.228.605-.088zm-1.897 2.642l.276.199c.196.14.252.404.111.601a.442.442 0 01-.605.088l-.277-.199a.428.428 0 01-.11-.601c.157-.186.41-.228.605-.088zm2.409-6.651l.277.198a.43.43 0 01.11.602.443.443 0 01-.605.087l-.277-.198a.43.43 0 01-.11-.602.455.455 0 01.605-.087zm-2.073 2.888l.276.198a.43.43 0 01.11.602.443.443 0 01-.605.088l-.276-.199a.43.43 0 01-.111-.602.457.457 0 01.606-.087zm-1.898 2.642l.277.198a.43.43 0 01.11.602.443.443 0 01-.605.088l-.276-.199a.429.429 0 01-.111-.601.455.455 0 01.605-.088zm2.426-6.64l.277.199c.195.14.251.404.11.601a.442.442 0 01-.605.088l-.277-.199a.428.428 0 01-.11-.601.43.43 0 01.605-.088zm-2.074 2.888l.277.199c.195.14.252.405.11.601a.442.442 0 01-.605.088l-.277-.198a.43.43 0 01-.11-.602.43.43 0 01.605-.088zm-1.897 2.642l.277.199c.195.14.252.405.11.601a.442.442 0 01-.605.088l-.277-.198a.43.43 0 01-.11-.602.43.43 0 01.605-.088zm2.41-6.651l.276.199a.43.43 0 01.111.601.443.443 0 01-.606.088l-.276-.199a.43.43 0 01-.111-.601c.158-.186.41-.228.606-.088zm-2.074 2.888l.276.199c.196.14.252.404.111.601a.442.442 0 01-.605.088l-.277-.199a.428.428 0 01-.11-.601c.157-.185.41-.228.605-.088zm-1.897 2.642l.276.199c.196.14.252.404.111.601a.443.443 0 01-.606.088l-.276-.198a.43.43 0 01-.11-.602c.157-.185.41-.228.605-.088zm2.425-6.639l.277.198a.43.43 0 01.11.602.443.443 0 01-.605.087l-.276-.198a.43.43 0 01-.111-.602.428.428 0 01.605-.087zm-2.073 2.888l.276.198a.43.43 0 01.111.602.444.444 0 01-.606.088l-.276-.199a.43.43 0 01-.111-.602.431.431 0 01.606-.087zm-1.897 2.642l.276.198a.43.43 0 01.111.602.444.444 0 01-.606.088l-.276-.199a.43.43 0 01-.111-.601.43.43 0 01.606-.088zm2.409-6.652l.277.199a.43.43 0 01.11.601.442.442 0 01-.605.088l-.277-.198a.43.43 0 01-.11-.602.43.43 0 01.605-.088zm-2.074 2.889l.277.198a.43.43 0 01.11.602.442.442 0 01-.605.087l-.277-.198a.43.43 0 01-.11-.602.428.428 0 01.605-.087zm-1.897 2.642l.277.198a.43.43 0 01.11.602.442.442 0 01-.605.087l-.277-.198a.43.43 0 01-.11-.602.429.429 0 01.605-.087zm2.41-6.652l.276.199c.195.14.252.404.11.601a.442.442 0 01-.605.088l-.276-.198a.43.43 0 01-.111-.602c.158-.185.41-.228.606-.088zm-2.074 2.888l.276.199a.43.43 0 01.111.602.444.444 0 01-.606.087l-.276-.198a.43.43 0 01-.11-.602c.157-.185.41-.228.605-.088zm-1.897 2.643l.276.198a.43.43 0 01.111.602.444.444 0 01-.606.087l-.276-.198a.43.43 0 01-.11-.602c.157-.185.41-.228.605-.087zm2.425-6.64l.277.198a.43.43 0 01.11.602.443.443 0 01-.605.088l-.276-.199a.429.429 0 01-.111-.601.43.43 0 01.605-.088zm-2.073 2.888l.276.199a.43.43 0 01.111.601.443.443 0 01-.606.088l-.276-.199a.43.43 0 01-.111-.601.43.43 0 01.606-.088zm.512-4.009l.276.198a.43.43 0 01.111.602.442.442 0 01-.605.087l-.277-.198a.43.43 0 01-.11-.602.442.442 0 01.605-.087zm-2.074 2.888l.277.198a.43.43 0 01.11.602.442.442 0 01-.605.088l-.277-.199a.429.429 0 01-.11-.601c.158-.186.41-.228.605-.088zm-1.897 2.642l.277.199c.195.14.251.404.11.601a.442.442 0 01-.605.088l-.277-.199a.428.428 0 01-.11-.601c.158-.186.41-.228.605-.088zm-11.729-6.357l1.255-3.327-1.516-.567 1.297-.983-2.119-2.815 3.307 1.23.577-1.525.97 1.293 2.841-2.138-1.255 3.327 1.517.566-1.298.984 2.108 2.831-3.307-1.23-.578 1.525-.969-1.293-2.83 2.122zm2.345 8.2c-.471-.339-.012-.979-.288-1.178-.212-.151-.408.156-.443.205l-1.202 1.674c-.471.656.257.706-.014 1.084-.118.164-.392.34-1.401-.384-.276-.199-1.296-.906-.99-1.333.212-.295.471.065.71-.062.132-.08.4-.385.494-.516l.909-1.163c.429-.563.315-.644.25-.691-.244-.175-.818.383-1.257.068-.211-.152-.2-.442-.059-.639.33-.46 1.157-.787 1.466-.565.032.024.085.087.171.173.086.087.221.208.448.372l1.334.957c.228.164.353.229.447.271.093.042.137.049.251.131.211.152.344.894-.08 1.484-.193.235-.469.31-.746.112zm1.132 3.573c.072.175.178.302.06.466-.118.164-.343.375-1.53-.477-.228-.164-.911-.654-.652-1.016.13-.18.32-.068.5-.113.124-.035.314-.197.856-.952l.389-.541c.495-.69.564-.889.558-1.018-.012-.257-.212-.425-.071-.622.283-.394 1.389.4 1.487.47.325.234.98.729.721 1.09-.141.197-.341.029-.561.095-.18.044-.55.525-.833.919l-.388.541c-.679.98-.602 1.011-.536 1.158zm3.27 1.9c.683.491 1.068.195 1.231.312.163.117.098.344-.008.491-.177.247-.774.564-1.051.365-.179-.128-.793-.097-1.427-.552-1.139-.818-1.418-2.386-.628-3.485.801-1.116 2.454-1.222 3.528-.451.537.385.69.893.82.986.114.082.17.072.267.143.228.163.273.718-.163 1.325-.223.312-.591.446-.916.212-.553-.397.272-1.271-.687-1.961-.423-.303-.869-.026-1.081.269-.577.804-.649 1.797.115 2.346zm5.938-6.107a.443.443 0 01.606-.088l.276.199a.43.43 0 01.111.601.443.443 0 01-.606.088l-.276-.199a.443.443 0 01-.111-.601zm-1.019 11.032l-.927-.666c-.211-.152-.199-.168-.239-.594l-.044-.728c-.015-.185-.041-.801-.171-.894-.147-.105-.269.031-.375.178l-.083.115c-.188.263.142.524-.059.803-.129.181-.377.252-1.321-.426-.862-.619-.853-.837-.723-1.017.2-.279.37.067.765-.346.273-.276.52-.621.744-.933.248-.344.53-.738.717-1.101.277-.523-.169-.52.078-.865.059-.082.234-.428 1.422.424.26.187.813.584.542.961-.212.296-.375-.095-.835.545-.047.066-.165.23-.067.3.146.105.97-.149 1.064-.281.083-.114.037-.222.131-.353.294-.411.986.136 1.247.323.26.187.918.609.635 1.003-.318.443-.699-.228-1.019-.16-.196.034-.888.035-1.052.265-.107.147-.071.372-.06.529l.191 2.102c.033.297.371.515.135.843-.184.29-.484.125-.696-.027zm3.824 2.845c-.032-.023-.118-.11-.22-.208a4.096 4.096 0 00-.432-.36l-2.228-1.6c-.358-.257-.24-.421-.193-.486.212-.296.421.202.866-.349.784-.954.713-.855 1.371-1.875.569-.86-.161-.737.11-1.115.236-.328.656.048.884.212l1.561 1.121c.732.525.912.481.994.539.309.222.05.857-.115 1.087-.13.18-.348.347-.559.195-.423-.304.295-.584-.729-1.319-.602-.432-.62-.271-1.067.353-.224.312-.22.34.106.573.406.292.533-.537.924-.257.309.222-.107.869-.26 1.083-.165.229-.669.862-.994.629-.341-.245.412-.575-.141-.972-.227-.163-.38.05-.498.214-.578.804-.493.79.076 1.199 1.106.794 1.351-.199 1.79.116.179.129.119.384.013.532-.271.377-1.047.84-1.259.688zm5.918.444c-.472-.339-.012-.979-.289-1.177-.211-.152-.407.155-.442.204l-1.202 1.674c-.471.656.257.707-.014 1.084-.118.164-.392.34-1.401-.384-.276-.198-1.297-.906-.99-1.333.212-.295.471.065.71-.062.131-.08.399-.385.494-.516l.909-1.163c.428-.562.314-.644.249-.691-.244-.175-.817.383-1.256.068-.212-.152-.2-.442-.059-.639.33-.46 1.156-.787 1.465-.565.033.024.086.087.172.173.086.087.22.208.448.372l1.334.957c.227.164.353.229.446.271.093.042.138.049.252.131.211.152.344.894-.08 1.484-.21.223-.486.299-.746.112zm4.091-4.599l-.261-.187a.429.429 0 01-.11-.601.442.442 0 01.605-.088l.277.199c.195.14.252.404.11.601a.476.476 0 01-.621.076zm1.909-2.658l-.261-.187a.43.43 0 01-.11-.602c.13-.18.41-.227.605-.087l.277.198a.43.43 0 01.11.602.46.46 0 01-.621.076zm2.062-2.872l-.261-.187a.428.428 0 01-.11-.601.442.442 0 01.605-.088l.277.198a.43.43 0 01.11.602.476.476 0 01-.621.076zm-2.41 6.651l-.276-.198a.43.43 0 01-.111-.602c.13-.18.41-.228.606-.087l.276.198a.43.43 0 01.11.602.443.443 0 01-.605.087zm1.909-2.658l-.277-.199a.429.429 0 01-.11-.601.442.442 0 01.605-.088l.277.199c.195.14.252.404.11.601a.43.43 0 01-.605.088zm2.062-2.872l-.277-.198a.43.43 0 01-.11-.602.442.442 0 01.605-.088l.277.199c.195.14.252.404.11.601a.442.442 0 01-.605.088zm-2.409 6.651l-.277-.198a.43.43 0 01-.11-.602.443.443 0 01.605-.087l.276.198a.43.43 0 01.111.602c-.146.169-.41.228-.605.087zm1.908-2.658l-.276-.199a.428.428 0 01-.11-.601.442.442 0 01.605-.088l.276.199a.43.43 0 01.111.601c-.158.186-.41.228-.606.088zm2.062-2.872l-.276-.198a.43.43 0 01-.11-.602.443.443 0 01.605-.088l.276.199a.43.43 0 01.111.602c-.146.168-.41.227-.606.087zm-2.425 6.64l-.277-.199a.429.429 0 01-.11-.601.442.442 0 01.605-.088l.277.199c.195.14.251.404.11.601a.442.442 0 01-.605.088zm1.909-2.659l-.277-.198a.43.43 0 01-.11-.602.443.443 0 01.605-.087l.276.198a.43.43 0 01.111.602.428.428 0 01-.605.087zm2.062-2.871l-.277-.199a.428.428 0 01-.11-.601.442.442 0 01.605-.088l.276.198a.43.43 0 01.111.602.443.443 0 01-.605.088z"/><path d="M853.562 216.285l-27.647-39.05c-.354-.503-1.046-.602-1.551-.243l-18.79 13.467a1.118 1.118 0 00-.256 1.558l.872 1.223a2.222 2.222 0 012.822-.188l7.108 5.104 1.184-.791c.6-.39.51-.505.44-.579-.168-.246-.906.095-1.207-.345-.148-.206-.048-.482.147-.616.464-.338 1.352-.372 1.574-.063.021.039.046.107.108.226.062.12.145.279.293.485l.946 1.326c.169.245.255.332.336.39.082.058.13.093.204.196.149.206.036.946-.543 1.376-.27.204-.548.179-.749-.09-.333-.463.314-.919.125-1.204-.148-.206-.43.015-.482.052l-.905.643 1.968 1.414c.436-.334.531-.465.545-.554.077-.244-.06-.466.147-.616.401-.284 1.183.824 1.257.927.238.321.691.994.318 1.273-.195.134-.343-.072-.564-.106a.606.606 0 00-.288.092l1.448 1.039a2.64 2.64 0 011.443 1.011c.016.012.02.04.02.04l11.451 8.222a.436.436 0 01.111-.12.423.423 0 01.592.102l.201.269c.09.114.101.271.051.41l7.271 5.22a.25.25 0 01.087-.087.423.423 0 01.592.102l.201.269a.435.435 0 01.063.393l3.351 2.406c.195.14.366.313.498.507l4.976-3.565c.464-.338.586-1.022.232-1.525zm-29.419-25.973l-1.024 1.255-.492-1.547-3.365 1.116 2.241-2.744-1.242-1.016 1.546-.506-1.1-3.377 2.733 2.236 1.024-1.254.492 1.546 3.364-1.115-2.252 2.759 1.242 1.017-1.547.506 1.085 3.365-2.705-2.241zm14.598 14.412a.423.423 0 01.592.102l.202.269a.457.457 0 01-.091.606.423.423 0 01-.592-.102l-.201-.269a.457.457 0 01.09-.606zm-1.098-1.56a.423.423 0 01.592.102l.201.269a.457.457 0 01-.09.606.424.424 0 01-.593-.102l-.201-.269a.423.423 0 01.091-.606zm-1.115-1.572a.424.424 0 01.592.102l.201.269a.459.459 0 01-.09.607.423.423 0 01-.592-.102l-.202-.269a.458.458 0 01.091-.607zm-1.099-1.559a.423.423 0 01.592.102l.202.269a.457.457 0 01-.091.606.423.423 0 01-.592-.102l-.201-.269c-.148-.206-.105-.473.09-.606zm-1.115-1.572a.424.424 0 01.593.102l.201.269a.458.458 0 01-.091.607.424.424 0 01-.592-.102l-.201-.269a.459.459 0 01.09-.607zm-1.098-1.56a.424.424 0 01.592.102l.201.269a.459.459 0 01-.09.607.423.423 0 01-.592-.102l-.202-.269a.424.424 0 01.091-.607zm-4.829 4.94a.423.423 0 01-.592-.102l-.201-.269a.459.459 0 01.09-.607.424.424 0 01.592.102l.202.269c.12.211.076.478-.091.607zm1.855-2.275a.457.457 0 01.091-.606.423.423 0 01.592.102l.201.269a.457.457 0 01-.09.606.423.423 0 01-.592-.102l-.202-.269zm-.756 3.835a.424.424 0 01-.592-.102l-.202-.269a.458.458 0 01.091-.607.423.423 0 01.592.102l.201.269c.137.222.105.473-.09.607zm1.855-2.275a.457.457 0 01.09-.606.423.423 0 01.593.102l.201.269a.457.457 0 01-.091.606.423.423 0 01-.592-.102l-.201-.269zm-.757 3.834a.423.423 0 01-.592-.102l-.201-.269a.457.457 0 01.09-.606.424.424 0 01.593.102l.201.269c.148.206.104.473-.091.606zm1.872-2.262a.459.459 0 01.09-.607.423.423 0 01.592.102l.202.269a.46.46 0 01-.091.607.424.424 0 01-.592-.102l-.201-.269zm-.757 3.834a.423.423 0 01-.592-.102l-.201-.269a.459.459 0 01.09-.607.424.424 0 01.592.102l.202.269a.424.424 0 01-.091.607zm1.855-2.275a.457.457 0 01.091-.606.423.423 0 01.592.102l.201.269a.457.457 0 01-.09.606.423.423 0 01-.592-.102l-.202-.269zm-.756 3.835a.424.424 0 01-.592-.102l-.202-.269a.458.458 0 01.091-.607.423.423 0 01.592.102l.201.269c.148.206.105.473-.09.607zm1.883-2.28a.457.457 0 01.09-.606.424.424 0 01.593.102l.201.269a.457.457 0 01-.09.606.424.424 0 01-.593-.102l-.201-.269zm-.768 3.851a.424.424 0 01-.593-.102l-.201-.269a.457.457 0 01.091-.606.422.422 0 01.592.102l.201.268a.425.425 0 01-.09.607zm1.866-2.291a.458.458 0 01.091-.606.423.423 0 01.592.102l.202.269a.458.458 0 01-.091.606.423.423 0 01-.592-.102l-.202-.269zm-.768 3.851a.423.423 0 01-.592-.102l-.201-.269a.459.459 0 01.09-.607.424.424 0 01.592.102l.202.269a.424.424 0 01-.091.607zm2.665-1.892a.423.423 0 01-.592-.102l-.201-.269a.457.457 0 01.09-.606.422.422 0 01.592.102l.202.268a.459.459 0 01-.091.607zm2.101-2.446a.458.458 0 01.091-.606.423.423 0 01.592.102l.201.269a.457.457 0 01-.09.606.423.423 0 01-.592-.102l-.202-.269zm-1.002 4.006a.424.424 0 01-.593-.102l-.201-.269a.458.458 0 01.091-.607.424.424 0 01.592.102l.201.269a.425.425 0 01-.09.607zm2.101-2.446a.459.459 0 01.09-.607.425.425 0 01.593.102l.201.269a.459.459 0 01-.09.607.424.424 0 01-.593-.102l-.201-.269zm-.986 4.017a.424.424 0 01-.593-.102l-.201-.269a.457.457 0 01.09-.606.424.424 0 01.593.102l.201.269a.457.457 0 01-.09.606zm2.101-2.445a.459.459 0 01.09-.607.424.424 0 01.593.102l.201.269a.457.457 0 01-.091.606.422.422 0 01-.592-.102l-.201-.268zm-1.003 4.005a.423.423 0 01-.592-.102l-.201-.269a.457.457 0 01.09-.606.422.422 0 01.592.102l.202.268a.424.424 0 01-.091.607zm2.101-2.446a.458.458 0 01.091-.606.423.423 0 01.592.102l.201.269a.457.457 0 01-.09.606.423.423 0 01-.592-.102l-.202-.269zm-.986 4.018a.424.424 0 01-.592-.102l-.202-.269a.46.46 0 01.091-.607.423.423 0 01.592.102l.201.269a.459.459 0 01-.09.607zm2.101-2.446a.458.458 0 01.091-.607.423.423 0 01.592.102l.201.269a.459.459 0 01-.09.607.424.424 0 01-.592-.102l-.202-.269zm-1.002 4.005a.424.424 0 01-.593-.102l-.201-.269a.457.457 0 01.09-.606.424.424 0 01.593.102l.201.269a.424.424 0 01-.09.606zm2.883-2.058a.424.424 0 01-.593-.102l-.201-.269a.459.459 0 01.09-.607.425.425 0 01.593.102l.201.269a.425.425 0 01-.09.607zm1.098 1.56a.424.424 0 01-.592-.102l-.201-.269a.459.459 0 01.09-.607.423.423 0 01.592.102l.202.269a.424.424 0 01-.091.607z"/></g><defs><clipPath id="clip0"><path fill="#fff" transform="rotate(15.605 -1481.11 3311.84)" d="M0 0h50.739v90.934H0z"/></clipPath><clipPath id="clip1"><path fill="#fff" transform="rotate(-38.52 531.614 -1317.17)" d="M0 0h71.379v64.645H0z"/></clipPath><clipPath id="clip2"><path fill="#fff" transform="rotate(37.614 -74.986 106.968)" d="M0 0h89.914v81.431H0z"/></clipPath><clipPath id="clip3"><path fill="#fff" transform="rotate(-9.937 2965.603 -1103.913)" d="M0 0h76.616v106.466H0z"/></clipPath><clipPath id="clip4"><path fill="#fff" transform="rotate(35.679 -443.351 1126.375)" d="M0 0h54.864v49.253H0z"/></clipPath><clipPath id="clip5"><path fill="#fff" transform="rotate(35.679 142.137 1358.019)" d="M0 0h54.864v49.253H0z"/></clipPath></defs></svg>